M48
;Layer_Color=9474304
;FILE_FORMAT=4:4
METRIC,LZ
;TYPE=PLATED
T01F00S00C0.2000
%
T01
X00159021Y00074576
X00151421Y00102515
X00131421
X00171421
X00206421Y00102235
X00226421
X00246421
X00232681Y00074576
X00226421Y00046006
X00246421
X00206421Y00046007
X00232681Y00130456
X00226421Y00157635
X00206421
X00171421Y00158396
X00151421
X00131421
X00159021Y00130456
X00160291Y00186336
X00151421Y00214275
X00131421
X00171721
X00206421Y00213235
X00226421
X00246421
X00232681Y00186336
X00246421Y00157635
X00232681Y00240945
X00226421Y00269235
X00206421
X00171421Y0026986
X00151421
X00131421
X00159963Y00242759
X00159021Y00298095
X00151421Y00326035
X00131421
X00171421
X00206421Y00325235
X00226421
X00246421
X00232681Y00296826
X00246421Y00269235
X00285754Y0026035
X00354334Y0025654
X00386084
X00396244
Y0026797
X00386084
X00355604Y0032893
X00328934Y0032258
X00232681Y00353975
X00226421Y00381236
X00206421
X00171421Y00381916
X00151421
X00131421
X00159021Y00353975
X00246421Y00381236
X00053878Y0039619
X0038608Y0007493
X004004Y00096636
X00411484Y0009906
X00424184Y0009779
X00431724Y00098785
X00426724Y0011303
X00416564
Y0012446
X00426724
X00429264Y0014732
X00439424
Y0015875
X00429264
X00426716Y00169905
X00439967
X00450067Y00174905
X00461067Y0017272
X00471174Y0016383
X00479061Y00169825
X00472444Y0014351
X00462284
Y0013208
X00472444
X00480064Y0011557
X00518164Y0010632
X00523244Y0009525
X00547374Y0010033
X00542128Y00113196
X00548644Y0011938
X00538484Y0012954
X00525784Y0013843
X00511814
X00547949Y00146745
X00554994Y0015113
X0056007Y0016891
X00504194Y001905
X00505464Y0025781
X00495304
Y0026924
X00505464
Y0033147
X00509276Y00347986
X00516894Y0034798
X00516648Y00359705
X00528324Y0035306
X0052324Y0037973
Y0039624
X00515624
X00511814Y0038989
X00529594
X0054737Y0038862
X00552398Y00366536
X0056134Y003429
X0056551Y00333101
X0058674Y0036703
X0063246Y0034163
X0061849Y0030861
X0061595Y0026543
X0062357Y0026797
X0065547Y002794
X0065897Y0025313
X00665029Y00254142
X00668447Y00260777
X00682284
X0068199Y0025019
X006731Y0024511
X0066076Y0023785
X00694694Y0022225
X00704854
X00715014
X00708459Y0019451
X0068203Y00188
X0068584Y0021086
X0074422Y0020955
X00764544Y00217077
X00760734Y0022606
X00755654Y0022987
X00757352Y00258065
X00763999Y0027051
X00754318Y00276798
X00752941Y00285247
X00761298Y00291263
X00773434Y0030861
X00782324
X00791214
X0078613Y0037465
X0075311Y0038862
X0074168
X0073025
X00707394Y0037719
X00697234
Y0036703
Y0035687
X00707394
Y0034671
X00697234
Y0033655
X00707394
X0070797Y00366894
X0066548Y0039116
X0068834Y002921
X0070104
X0071501Y00277241
X0073152Y00268894
X00729201Y00246597
X007747Y0021209
X0077851Y0014224
X00787213Y00142049
X00793562Y00119189
X0074549Y0011176
X00737874
X0075184Y0009525
X00759273Y00095059
X0075946Y0003429
X0076835Y000254
X0077724Y0003187
X0079248Y0003429
X00734969Y00032659
X0068326Y0007493
X0068453Y00100531
X0063119Y0012565
X0061976Y00127
X00609604Y0008419
X0058039Y0009525
X0059309Y000254
X0061087Y0002032
X0062103
Y0003175
X0061087
X0064643Y000254
X00532134Y000381
X00521974
Y0004953
X00532134
X00457204Y0008867
X00463819Y00247381
X00420742Y00272671
X00423816Y00349402
X00431191Y00349021
X00411476Y00351445
X0040132Y0034798
X00415294Y0036576
X00425454
Y0037719
X00415294
X00459744Y0038227
Y0039243
X00471174
Y0038227
X00482402Y00368487
X00454664Y0034925
X00401962Y00210466
X00617981Y00215953
X0063119Y0018415
X0065151Y0015494
X00806454Y0018669
X0083058Y0018796
X0082884Y00204939
X00836934Y00205011
X0084328Y0020955
X0084963
X00823909Y00209907
X0081784Y0020574
X00811454Y00207832
X0080137Y0020955
X0086233Y0023495
X00860872Y00248729
X0086106Y0025654
X008636Y0026289
X00873783Y00257796
X00879279Y00264353
X00885819
X00892359
X00898899
X00905439
X00911979
X00918519
X00925059
X00929556Y00259605
X00930701Y00253166
Y00246626
X00928545Y00240451
X00928708Y00220973
X0093171Y00215163
X00929912Y00208875
X0093022Y00202342
X00929817Y00195815
X00930523Y00189313
X00930114Y00182786
X00929799Y00163416
X0093048Y00156912
X00930482Y00150372
X0093061Y00143833
X0092329Y0014605
X0091567
X0090805
X00900434
X00892814
X00885194
X00877574
X00869954
X00863367Y00145016
X00854714Y0014224
Y0013462
Y00127
Y0011938
Y0011176
Y0010414
Y0009652
Y000889
Y0008128
Y0007366
Y0006604
Y0005842
Y000508
Y0004318
Y0003556
Y0002794
Y0002032
X00853444Y0015113
X0089916Y0016002
X0090932Y0015875
Y0019558
X0089916
X0089408Y0021336
X0090932
X00960012Y00216765
X00960746Y00210266
X00960803Y00203726
X00960856Y00197186
X00960694Y00190648
X00958623Y00184445
X00960283Y00178119
X00960401Y0017158
X00959975Y00165054
X00959167Y00158564
X00959315Y00152026
Y00145486
X0096393Y0014478
X00963461Y00222321
X00963941Y00228844
Y00235384
X0096252Y00241767
X00959613Y00247626
X00959632Y00254166
X00960744Y00260611
X00960981Y00267146
X00960564Y00273673
X00957191Y00279276
X00951952Y0028319
X00946928Y00287377
X00940981Y002901
X00934529Y00291169
X00925014Y00291266
X00918474
X00911934
X00905394
X00898854
X00892314
X00885774
X00879234
X00873877Y002925
X0088646Y0030226
X00864209Y00305465
X0083947Y00307124
X00832352Y00307078
X00806991Y00308791
X0080518Y0036957
X0084074Y0038608
X0086233Y0035941
X0091059Y0037973
X0092837Y0038227
X0094869Y0037211
X0095885
Y0036068
X0094869
X00935566Y00337819
X00925847Y00342819
X00929901Y00422632
Y00431522
X0092075Y004318
Y0042291
X00944884Y0043053
X00957571Y00430102
X0095377Y0040005
X008636Y00425809
X0081534Y0042164
Y0041148
X0080518
X0080483Y0042164
X0079883Y0045212
X00812804Y0046609
X00822964
X0082296Y0047625
X008128
X00918214Y004953
X00928374
Y0050546
X00918214
X0077978Y0045212
X00782115Y00435891
X0079248Y0043561
X00792275Y00424461
X00782115
X0073152Y0043053
X007239
X0071628
X0070485Y004318
Y0044069
Y0044958
X0069596Y0043942
X0070485Y0042291
X0071374Y0040005
X0072136
X0072898
X0066929Y0040132
Y0041148
X0065913
Y0040132
Y0043053
X0066929
Y0044069
X0065913
Y0045085
X0066929
X0066294Y0048641
Y0049657
X0065278
Y0048641
X0064262
Y0049657
X0064135Y0046609
X0072644Y0046228
X0073533
Y0047117
X0072644
X00734117Y00479005
X0055372Y0041783
X0054356
Y0040767
X0055372
X00530864Y0040132
X00506734Y004445
X00491946Y00442505
X00479061Y00425185
X00471174Y004191
X0046101Y0041402
X00449559Y00424886
X00439967Y00425265
X00438154Y0041402
X00427994
Y0040259
X00438154
X00426716Y00425265
X00401962Y00465825
X00404195Y00508331
X00458203Y00514615
X0047752Y0052324
Y005334
X0048895
Y0052324
X00527506Y00517435
X00351794Y0047498
X00271767Y00480049
X00232681Y00464465
X00226421Y00436735
X00207281
X00171421Y00437235
X00151421
X00131421
X00159021Y00409855
Y00465736
X00151421Y00492595
X00131421
X00171421Y00493236
X00246421Y00436735
X00232681Y00409855
M30
