G04*
G04 #@! TF.GenerationSoftware,Altium Limited,Altium Designer,23.8.1 (32)*
G04*
G04 Layer_Physical_Order=2*
G04 Layer_Color=36540*
%FSLAX44Y44*%
%MOMM*%
G71*
G04*
G04 #@! TF.SameCoordinates,B2355FDD-5490-460F-BBB4-22D25E5E3D0D*
G04*
G04*
G04 #@! TF.FilePolarity,Positive*
G04*
G01*
G75*
%ADD19C,0.1001*%
%ADD20C,0.1999*%
%ADD21C,0.1500*%
%ADD22C,0.0500*%
%ADD23C,0.1200*%
%ADD152C,0.6000*%
%ADD153C,0.4000*%
G36*
X674370Y538241D02*
Y478790D01*
X635000D01*
X612140Y455930D01*
Y402590D01*
X607060Y397510D01*
X606425Y398145D01*
X537845D01*
Y405083D01*
X539115Y405336D01*
X539321Y404838D01*
X540728Y403431D01*
X542565Y402670D01*
X544555D01*
X546392Y403431D01*
X547799Y404838D01*
X547953Y405209D01*
X549327D01*
X549481Y404838D01*
X550888Y403431D01*
X552725Y402670D01*
X554715D01*
X556552Y403431D01*
X557959Y404838D01*
X558720Y406675D01*
Y408665D01*
X557959Y410502D01*
X556552Y411909D01*
X556181Y412063D01*
Y413437D01*
X556552Y413591D01*
X557959Y414998D01*
X558720Y416835D01*
Y418825D01*
X557959Y420662D01*
X556552Y422069D01*
X554715Y422830D01*
X552725D01*
X550888Y422069D01*
X549481Y420662D01*
X549327Y420291D01*
X547953D01*
X547799Y420662D01*
X546392Y422069D01*
X544555Y422830D01*
X542565D01*
X540728Y422069D01*
X539321Y420662D01*
X539115Y420164D01*
X537845Y420417D01*
Y432435D01*
X515620Y454660D01*
X444681D01*
Y429418D01*
X443411Y428892D01*
X442799Y429504D01*
X440961Y430265D01*
X438972D01*
X437135Y429504D01*
X435728Y428098D01*
X434967Y426260D01*
Y424271D01*
X435728Y422433D01*
X437135Y421027D01*
X438972Y420265D01*
X440961D01*
X442799Y421027D01*
X443411Y421639D01*
X444681Y421113D01*
Y174058D01*
X443411Y173532D01*
X442799Y174144D01*
X440961Y174905D01*
X438972D01*
X437135Y174144D01*
X435728Y172738D01*
X434967Y170900D01*
Y168911D01*
X435728Y167073D01*
X437135Y165667D01*
X438972Y164905D01*
X440961D01*
X442799Y165667D01*
X443411Y166279D01*
X444681Y165753D01*
Y16316D01*
X29640Y16198D01*
X28759D01*
X25570Y16512D01*
X24615Y16638D01*
X23684Y16887D01*
X20617Y17818D01*
X18987Y18493D01*
X16162Y20003D01*
X15327Y20485D01*
X14562Y21072D01*
X12085Y23105D01*
X10838Y24352D01*
X8805Y26829D01*
X8218Y27594D01*
X7736Y28428D01*
X6225Y31255D01*
X5550Y32884D01*
X4620Y35951D01*
X4371Y36882D01*
X4245Y37838D01*
X3931Y41026D01*
Y41907D01*
X3914Y41993D01*
Y512352D01*
X3863Y512605D01*
Y513569D01*
X4178Y516758D01*
X4303Y517714D01*
X4553Y518645D01*
X5483Y521712D01*
X6158Y523341D01*
X7668Y526167D01*
X8151Y527002D01*
X8738Y527767D01*
X10770Y530244D01*
X12018Y531491D01*
X14494Y533523D01*
X15259Y534111D01*
X16094Y534593D01*
X18920Y536103D01*
X20550Y536778D01*
X23616Y537708D01*
X24547Y537958D01*
X25504Y538084D01*
X28692Y538398D01*
X29574D01*
X29602Y538403D01*
X29630Y538398D01*
X30445Y538416D01*
X434340Y538870D01*
D01*
X673471Y539138D01*
X674370Y538241D01*
D02*
G37*
G36*
X942991Y538933D02*
X946706Y537937D01*
X950260Y536465D01*
X953591Y534542D01*
X956643Y532200D01*
X959362Y529481D01*
X961704Y526429D01*
X963627Y523098D01*
X965099Y519544D01*
X966095Y515829D01*
X966566Y512251D01*
X966710Y141868D01*
X965812Y140970D01*
X858524D01*
Y16434D01*
X451232Y16318D01*
X450334Y17216D01*
Y169905D01*
X451062D01*
X452900Y170667D01*
X454306Y172073D01*
X455067Y173911D01*
Y175900D01*
X454306Y177738D01*
X452900Y179144D01*
X451062Y179905D01*
X450334D01*
Y419886D01*
X450553D01*
X452391Y420647D01*
X453798Y422054D01*
X454559Y423891D01*
Y425880D01*
X453798Y427718D01*
X452391Y429125D01*
X450553Y429886D01*
X450334D01*
Y452621D01*
X514775D01*
X535806Y431590D01*
Y420417D01*
X535845Y420220D01*
Y420019D01*
X535922Y419834D01*
X535961Y419637D01*
X536073Y419470D01*
X536149Y419284D01*
X536292Y419142D01*
X536403Y418975D01*
X536570Y418864D01*
X536712Y418722D01*
X536898Y418645D01*
X537065Y418533D01*
X537262Y418494D01*
X537447Y418417D01*
X538560Y418196D01*
Y416835D01*
X539321Y414998D01*
X540728Y413591D01*
X541099Y413437D01*
Y412063D01*
X540728Y411909D01*
X539321Y410502D01*
X538560Y408665D01*
Y407304D01*
X537447Y407083D01*
X537262Y407006D01*
X537065Y406967D01*
X536898Y406855D01*
X536712Y406778D01*
X536570Y406636D01*
X536403Y406525D01*
X536292Y406358D01*
X536149Y406216D01*
X536073Y406030D01*
X535961Y405863D01*
X535922Y405666D01*
X535845Y405481D01*
Y405280D01*
X535806Y405083D01*
Y403160D01*
X534536Y402907D01*
X534255Y403586D01*
X533130Y404711D01*
X531660Y405320D01*
X530068D01*
X528598Y404711D01*
X527473Y403586D01*
X526864Y402116D01*
Y400524D01*
X527473Y399054D01*
X528598Y397929D01*
X530068Y397320D01*
X531660D01*
X533130Y397929D01*
X534255Y399054D01*
X534536Y399733D01*
X535806Y399480D01*
Y398145D01*
X535961Y397365D01*
X536403Y396703D01*
X537065Y396261D01*
X537845Y396106D01*
X605580D01*
X605618Y396068D01*
X606280Y395626D01*
X607060Y395471D01*
X607840Y395626D01*
X608502Y396068D01*
X608502Y396068D01*
X613582Y401148D01*
X614024Y401810D01*
X614179Y402590D01*
Y455085D01*
X635845Y476751D01*
X674370D01*
X675150Y476906D01*
X675812Y477348D01*
X676254Y478010D01*
X676409Y478790D01*
Y537213D01*
X677590Y538313D01*
X678567Y537740D01*
X678761Y536765D01*
X679314Y535938D01*
X680141Y535385D01*
X681116Y535191D01*
X761116D01*
X762092Y535385D01*
X762919Y535938D01*
X763471Y536765D01*
X763665Y537740D01*
X763620Y537970D01*
X764531Y539241D01*
X937257Y539435D01*
X939177D01*
X942991Y538933D01*
D02*
G37*
%LPC*%
G36*
X528500Y522435D02*
X526511D01*
X524674Y521673D01*
X523267Y520267D01*
X522506Y518429D01*
Y516440D01*
X523267Y514602D01*
X524674Y513196D01*
X526511Y512435D01*
X528500D01*
X530338Y513196D01*
X531745Y514602D01*
X532506Y516440D01*
Y518429D01*
X531745Y520267D01*
X530338Y521673D01*
X528500Y522435D01*
D02*
G37*
G36*
X459197Y519615D02*
X457208D01*
X455370Y518853D01*
X453964Y517447D01*
X453203Y515609D01*
Y513620D01*
X453964Y511782D01*
X455370Y510376D01*
X457208Y509615D01*
X459197D01*
X461035Y510376D01*
X462441Y511782D01*
X463203Y513620D01*
Y515609D01*
X462441Y517447D01*
X461035Y518853D01*
X459197Y519615D01*
D02*
G37*
G36*
X405189Y513331D02*
X403200D01*
X401362Y512570D01*
X399956Y511163D01*
X399195Y509326D01*
Y507337D01*
X399956Y505499D01*
X401362Y504092D01*
X403200Y503331D01*
X405189D01*
X407027Y504092D01*
X408434Y505499D01*
X409195Y507337D01*
Y509326D01*
X408434Y511163D01*
X407027Y512570D01*
X405189Y513331D01*
D02*
G37*
G36*
X663935Y501570D02*
X661945D01*
X660108Y500809D01*
X658701Y499402D01*
X658547Y499031D01*
X657173D01*
X657019Y499402D01*
X655612Y500809D01*
X653775Y501570D01*
X651785D01*
X649948Y500809D01*
X648541Y499402D01*
X648387Y499031D01*
X647013D01*
X646859Y499402D01*
X645452Y500809D01*
X643615Y501570D01*
X641625D01*
X639788Y500809D01*
X638381Y499402D01*
X637620Y497565D01*
Y495575D01*
X638381Y493738D01*
X639788Y492331D01*
X640159Y492177D01*
Y490803D01*
X639788Y490649D01*
X638381Y489242D01*
X637620Y487405D01*
Y485415D01*
X638381Y483578D01*
X639788Y482171D01*
X641625Y481410D01*
X643615D01*
X645452Y482171D01*
X646859Y483578D01*
X647013Y483949D01*
X648387D01*
X648541Y483578D01*
X649948Y482171D01*
X651785Y481410D01*
X653775D01*
X655612Y482171D01*
X657019Y483578D01*
X657173Y483949D01*
X658547D01*
X658701Y483578D01*
X660108Y482171D01*
X661945Y481410D01*
X663935D01*
X665772Y482171D01*
X667179Y483578D01*
X667940Y485415D01*
Y487405D01*
X667179Y489242D01*
X665772Y490649D01*
X665401Y490803D01*
Y492177D01*
X665772Y492331D01*
X667179Y493738D01*
X667940Y495575D01*
Y497565D01*
X667179Y499402D01*
X665772Y500809D01*
X663935Y501570D01*
D02*
G37*
G36*
X272563Y484049D02*
X270971D01*
X269501Y483440D01*
X268376Y482315D01*
X267767Y480845D01*
Y479253D01*
X268376Y477783D01*
X269501Y476658D01*
X270971Y476049D01*
X272563D01*
X274033Y476658D01*
X275158Y477783D01*
X275767Y479253D01*
Y480845D01*
X275158Y482315D01*
X274033Y483440D01*
X272563Y484049D01*
D02*
G37*
G36*
X352589Y478980D02*
X350998D01*
X349528Y478371D01*
X348403Y477246D01*
X347794Y475776D01*
Y474184D01*
X348403Y472714D01*
X349528Y471589D01*
X350998Y470980D01*
X352589D01*
X354060Y471589D01*
X355185Y472714D01*
X355794Y474184D01*
Y475776D01*
X355185Y477246D01*
X354060Y478371D01*
X352589Y478980D01*
D02*
G37*
G36*
X402758Y469825D02*
X401167D01*
X399697Y469216D01*
X398571Y468091D01*
X397962Y466621D01*
Y465030D01*
X398571Y463560D01*
X399697Y462434D01*
X401167Y461825D01*
X402758D01*
X404228Y462434D01*
X405353Y463560D01*
X405962Y465030D01*
Y466621D01*
X405353Y468091D01*
X404228Y469216D01*
X402758Y469825D01*
D02*
G37*
G36*
X427710Y430265D02*
X425721D01*
X423884Y429504D01*
X422477Y428098D01*
X421716Y426260D01*
Y424271D01*
X422477Y422433D01*
X423884Y421027D01*
X425721Y420265D01*
X427710D01*
X429548Y421027D01*
X430955Y422433D01*
X431716Y424271D01*
Y426260D01*
X430955Y428098D01*
X429548Y429504D01*
X427710Y430265D01*
D02*
G37*
G36*
X54873Y401190D02*
X52884D01*
X51046Y400429D01*
X49639Y399022D01*
X48878Y397185D01*
Y395196D01*
X49639Y393358D01*
X51046Y391951D01*
X52884Y391190D01*
X54873D01*
X56710Y391951D01*
X58117Y393358D01*
X58878Y395196D01*
Y397185D01*
X58117Y399022D01*
X56710Y400429D01*
X54873Y401190D01*
D02*
G37*
G36*
X412471Y356445D02*
X410481D01*
X408644Y355684D01*
X407237Y354278D01*
X406476Y352440D01*
Y350451D01*
X407237Y348613D01*
X408644Y347207D01*
X410481Y346445D01*
X412471D01*
X414308Y347207D01*
X415715Y348613D01*
X416476Y350451D01*
Y352440D01*
X415715Y354278D01*
X414308Y355684D01*
X412471Y356445D01*
D02*
G37*
G36*
X424811Y354402D02*
X422822D01*
X420984Y353641D01*
X419577Y352234D01*
X418816Y350396D01*
Y348407D01*
X419577Y346570D01*
X420984Y345163D01*
X422822Y344402D01*
X424811D01*
X426649Y345163D01*
X427314Y345828D01*
X428359Y344783D01*
X430197Y344021D01*
X432186D01*
X434024Y344783D01*
X435430Y346189D01*
X436191Y348027D01*
Y350016D01*
X435430Y351854D01*
X434024Y353260D01*
X432186Y354021D01*
X430197D01*
X428359Y353260D01*
X427694Y352595D01*
X426649Y353641D01*
X424811Y354402D01*
D02*
G37*
G36*
X402116Y351980D02*
X400524D01*
X399054Y351371D01*
X397929Y350246D01*
X397320Y348776D01*
Y347184D01*
X397929Y345714D01*
X399054Y344589D01*
X400524Y343980D01*
X402116D01*
X403586Y344589D01*
X404711Y345714D01*
X405320Y347184D01*
Y348776D01*
X404711Y350246D01*
X403586Y351371D01*
X402116Y351980D01*
D02*
G37*
G36*
X421737Y277671D02*
X419748D01*
X417910Y276910D01*
X416503Y275503D01*
X415742Y273666D01*
Y271676D01*
X416503Y269839D01*
X417910Y268432D01*
X419748Y267671D01*
X421737D01*
X423574Y268432D01*
X424981Y269839D01*
X425742Y271676D01*
Y273666D01*
X424981Y275503D01*
X423574Y276910D01*
X421737Y277671D01*
D02*
G37*
G36*
X286748Y265350D02*
X284759D01*
X282922Y264589D01*
X281515Y263182D01*
X280754Y261345D01*
Y259355D01*
X281515Y257518D01*
X282922Y256111D01*
X284759Y255350D01*
X286748D01*
X288586Y256111D01*
X289993Y257518D01*
X290754Y259355D01*
Y261345D01*
X289993Y263182D01*
X288586Y264589D01*
X286748Y265350D01*
D02*
G37*
G36*
X355130Y260540D02*
X353538D01*
X352068Y259931D01*
X350943Y258806D01*
X350334Y257336D01*
Y255744D01*
X350943Y254274D01*
X352068Y253149D01*
X353538Y252540D01*
X355130D01*
X356600Y253149D01*
X357725Y254274D01*
X358334Y255744D01*
Y257336D01*
X357725Y258806D01*
X356600Y259931D01*
X355130Y260540D01*
D02*
G37*
G36*
X402758Y214466D02*
X401167D01*
X399697Y213857D01*
X398571Y212731D01*
X397962Y211261D01*
Y209670D01*
X398571Y208200D01*
X399697Y207075D01*
X401167Y206465D01*
X402758D01*
X404228Y207075D01*
X405353Y208200D01*
X405962Y209670D01*
Y211261D01*
X405353Y212731D01*
X404228Y213857D01*
X402758Y214466D01*
D02*
G37*
G36*
X427710Y174905D02*
X425721D01*
X423884Y174144D01*
X422477Y172738D01*
X421716Y170900D01*
Y168911D01*
X422477Y167073D01*
X423884Y165667D01*
X425721Y164905D01*
X427710D01*
X429548Y165667D01*
X430955Y167073D01*
X431716Y168911D01*
Y170900D01*
X430955Y172738D01*
X429548Y174144D01*
X427710Y174905D01*
D02*
G37*
G36*
X432718Y103785D02*
X430729D01*
X428891Y103023D01*
X428303Y102435D01*
X427016Y102029D01*
X426466Y102257D01*
X425178Y102790D01*
X423189D01*
X421352Y102029D01*
X419945Y100622D01*
X419184Y98785D01*
Y96795D01*
X419945Y94958D01*
X421352Y93551D01*
X423189Y92790D01*
X425178D01*
X427016Y93551D01*
X427605Y94140D01*
X428891Y94546D01*
X429442Y94318D01*
X430729Y93785D01*
X432718D01*
X434556Y94546D01*
X435963Y95952D01*
X436724Y97790D01*
Y99779D01*
X435963Y101617D01*
X434556Y103023D01*
X432718Y103785D01*
D02*
G37*
G36*
X412478Y104060D02*
X410489D01*
X408652Y103299D01*
X407245Y101892D01*
X406484Y100055D01*
Y98065D01*
X407245Y96228D01*
X408652Y94821D01*
X410489Y94060D01*
X412478D01*
X414316Y94821D01*
X415723Y96228D01*
X416484Y98065D01*
Y100055D01*
X415723Y101892D01*
X414316Y103299D01*
X412478Y104060D01*
D02*
G37*
G36*
X401196Y100636D02*
X399604D01*
X398134Y100027D01*
X397009Y98902D01*
X396400Y97431D01*
Y95840D01*
X397009Y94370D01*
X398134Y93245D01*
X399604Y92636D01*
X401196D01*
X402666Y93245D01*
X403791Y94370D01*
X404400Y95840D01*
Y97431D01*
X403791Y98902D01*
X402666Y100027D01*
X401196Y100636D01*
D02*
G37*
G36*
X387075Y79930D02*
X385085D01*
X383248Y79169D01*
X381841Y77762D01*
X381080Y75925D01*
Y73935D01*
X381841Y72098D01*
X383248Y70691D01*
X385085Y69930D01*
X387075D01*
X388912Y70691D01*
X390319Y72098D01*
X391080Y73935D01*
Y75925D01*
X390319Y77762D01*
X388912Y79169D01*
X387075Y79930D01*
D02*
G37*
G36*
X929368Y510460D02*
X927379D01*
X925542Y509699D01*
X924135Y508292D01*
X923981Y507921D01*
X922607D01*
X922453Y508292D01*
X921046Y509699D01*
X919208Y510460D01*
X917219D01*
X915381Y509699D01*
X913975Y508292D01*
X913214Y506455D01*
Y504465D01*
X913975Y502628D01*
X915381Y501221D01*
X915753Y501067D01*
Y499693D01*
X915381Y499539D01*
X913975Y498132D01*
X913214Y496295D01*
Y494305D01*
X913975Y492468D01*
X915381Y491061D01*
X917219Y490300D01*
X919208D01*
X921046Y491061D01*
X922453Y492468D01*
X922607Y492839D01*
X923981D01*
X924135Y492468D01*
X925542Y491061D01*
X927379Y490300D01*
X929368D01*
X931206Y491061D01*
X932613Y492468D01*
X933374Y494305D01*
Y496295D01*
X932613Y498132D01*
X931206Y499539D01*
X930835Y499693D01*
Y501067D01*
X931206Y501221D01*
X932613Y502628D01*
X933374Y504465D01*
Y506455D01*
X932613Y508292D01*
X931206Y509699D01*
X929368Y510460D01*
D02*
G37*
G36*
X823955Y481250D02*
X821965D01*
X820128Y480489D01*
X818721Y479082D01*
X818567Y478711D01*
X817193D01*
X817039Y479082D01*
X815632Y480489D01*
X813795Y481250D01*
X811805D01*
X809968Y480489D01*
X808561Y479082D01*
X807800Y477245D01*
Y475255D01*
X808561Y473418D01*
X809968Y472011D01*
X810341Y471856D01*
Y470482D01*
X809971Y470329D01*
X808565Y468922D01*
X807804Y467085D01*
Y465095D01*
X808565Y463258D01*
X809971Y461851D01*
X811809Y461090D01*
X813798D01*
X815636Y461851D01*
X817043Y463258D01*
X817197Y463629D01*
X818571D01*
X818725Y463258D01*
X820132Y461851D01*
X821969Y461090D01*
X823958D01*
X825796Y461851D01*
X827203Y463258D01*
X827964Y465095D01*
Y467085D01*
X827203Y468922D01*
X825796Y470329D01*
X825423Y470484D01*
Y471858D01*
X825792Y472011D01*
X827199Y473418D01*
X827960Y475255D01*
Y477245D01*
X827199Y479082D01*
X825792Y480489D01*
X823955Y481250D01*
D02*
G37*
G36*
X735111Y484005D02*
X733122D01*
X731284Y483244D01*
X729878Y481837D01*
X729117Y479999D01*
Y478010D01*
X729698Y476607D01*
X728777Y475614D01*
X727435Y476170D01*
X725445D01*
X723608Y475409D01*
X722201Y474002D01*
X721440Y472165D01*
Y470175D01*
X722201Y468338D01*
X722984Y467555D01*
X723484Y466725D01*
X722984Y465895D01*
X722201Y465112D01*
X721440Y463275D01*
Y461285D01*
X722201Y459448D01*
X723608Y458041D01*
X725445Y457280D01*
X727435D01*
X729272Y458041D01*
X730055Y458824D01*
X730885Y459324D01*
X731715Y458824D01*
X732498Y458041D01*
X734335Y457280D01*
X736325D01*
X738162Y458041D01*
X739569Y459448D01*
X740330Y461285D01*
Y463275D01*
X739569Y465112D01*
X738786Y465895D01*
X738286Y466725D01*
X738786Y467555D01*
X739569Y468338D01*
X740330Y470175D01*
Y472165D01*
X739569Y474002D01*
X738162Y475409D01*
X738068Y475885D01*
X738355Y476173D01*
X739117Y478010D01*
Y479999D01*
X738355Y481837D01*
X736949Y483244D01*
X735111Y484005D01*
D02*
G37*
G36*
X670285Y455850D02*
X668295D01*
X666458Y455089D01*
X665051Y453682D01*
X664897Y453311D01*
X663523D01*
X663369Y453682D01*
X661962Y455089D01*
X660125Y455850D01*
X658135D01*
X656298Y455089D01*
X654891Y453682D01*
X654130Y451845D01*
Y449855D01*
X654891Y448018D01*
X656298Y446611D01*
X656669Y446457D01*
Y445083D01*
X656298Y444929D01*
X654891Y443522D01*
X654130Y441685D01*
Y439695D01*
X654891Y437858D01*
X656298Y436451D01*
X656669Y436297D01*
Y434923D01*
X656298Y434769D01*
X654891Y433362D01*
X654130Y431525D01*
Y429535D01*
X654891Y427698D01*
X656298Y426291D01*
X658135Y425530D01*
X660125D01*
X661962Y426291D01*
X663369Y427698D01*
X663523Y428069D01*
X664897D01*
X665051Y427698D01*
X666458Y426291D01*
X668295Y425530D01*
X670285D01*
X672122Y426291D01*
X673529Y427698D01*
X674290Y429535D01*
Y431525D01*
X673529Y433362D01*
X672122Y434769D01*
X671751Y434923D01*
Y436297D01*
X672122Y436451D01*
X673529Y437858D01*
X674290Y439695D01*
Y441685D01*
X673529Y443522D01*
X672122Y444929D01*
X671751Y445083D01*
Y446457D01*
X672122Y446611D01*
X673529Y448018D01*
X674290Y449855D01*
Y451845D01*
X673529Y453682D01*
X672122Y455089D01*
X670285Y455850D01*
D02*
G37*
G36*
X799626Y456120D02*
X798034D01*
X796564Y455511D01*
X795439Y454386D01*
X794830Y452916D01*
Y451324D01*
X795439Y449854D01*
X796564Y448729D01*
X798034Y448120D01*
X799626D01*
X801096Y448729D01*
X802221Y449854D01*
X802830Y451324D01*
Y452916D01*
X802221Y454386D01*
X801096Y455511D01*
X799626Y456120D01*
D02*
G37*
G36*
X780576D02*
X778984D01*
X777514Y455511D01*
X776389Y454386D01*
X775780Y452916D01*
Y451324D01*
X776389Y449854D01*
X777514Y448729D01*
X778984Y448120D01*
X780576D01*
X782046Y448729D01*
X783171Y449854D01*
X783780Y451324D01*
Y452916D01*
X783171Y454386D01*
X782046Y455511D01*
X780576Y456120D01*
D02*
G37*
G36*
X705845Y454580D02*
X703855D01*
X702018Y453819D01*
X700611Y452412D01*
X699850Y450575D01*
Y448585D01*
X700611Y446748D01*
X701394Y445965D01*
X701894Y445135D01*
X701394Y444305D01*
X700611Y443522D01*
X700556Y443389D01*
X699310Y443141D01*
X698792Y443659D01*
X696955Y444420D01*
X694965D01*
X693128Y443659D01*
X691721Y442252D01*
X690960Y440415D01*
Y438425D01*
X691721Y436588D01*
X693128Y435181D01*
X694965Y434420D01*
X696955D01*
X698792Y435181D01*
X699716Y436105D01*
X701186Y436099D01*
X701309Y436039D01*
X701557Y435686D01*
X701394Y435415D01*
X700611Y434632D01*
X699850Y432795D01*
Y430805D01*
X700611Y428968D01*
X701394Y428185D01*
X701894Y427355D01*
X701394Y426525D01*
X700611Y425742D01*
X699850Y423905D01*
Y421915D01*
X700611Y420078D01*
X702018Y418671D01*
X703855Y417910D01*
X705845D01*
X707682Y418671D01*
X709089Y420078D01*
X709850Y421915D01*
Y423905D01*
X709089Y425742D01*
X708306Y426525D01*
X707806Y427355D01*
X708306Y428185D01*
X709089Y428968D01*
X709850Y430805D01*
Y432795D01*
X709089Y434632D01*
X708306Y435415D01*
X707806Y436245D01*
X708306Y437075D01*
X709089Y437858D01*
X709850Y439695D01*
Y441685D01*
X709089Y443522D01*
X708306Y444305D01*
X707806Y445135D01*
X708306Y445965D01*
X709089Y446748D01*
X709850Y448585D01*
Y450575D01*
X709089Y452412D01*
X707682Y453819D01*
X705845Y454580D01*
D02*
G37*
G36*
X507529Y448500D02*
X505938D01*
X504468Y447891D01*
X503343Y446766D01*
X502734Y445296D01*
Y443704D01*
X503343Y442234D01*
X504468Y441109D01*
X505938Y440500D01*
X507529D01*
X509000Y441109D01*
X510125Y442234D01*
X510734Y443704D01*
Y445296D01*
X510125Y446766D01*
X509000Y447891D01*
X507529Y448500D01*
D02*
G37*
G36*
X732515Y435530D02*
X730525D01*
X728688Y434769D01*
X727710Y433791D01*
X726732Y434769D01*
X724895Y435530D01*
X722905D01*
X721068Y434769D01*
X720090Y433791D01*
X719112Y434769D01*
X717275Y435530D01*
X715285D01*
X713448Y434769D01*
X712041Y433362D01*
X711280Y431525D01*
Y429535D01*
X712041Y427698D01*
X713448Y426291D01*
X715285Y425530D01*
X717275D01*
X719112Y426291D01*
X720090Y427269D01*
X721068Y426291D01*
X722905Y425530D01*
X724895D01*
X726732Y426291D01*
X727710Y427269D01*
X728688Y426291D01*
X730525Y425530D01*
X732515D01*
X734352Y426291D01*
X735759Y427698D01*
X736520Y429535D01*
Y431525D01*
X735759Y433362D01*
X734352Y434769D01*
X732515Y435530D01*
D02*
G37*
G36*
X783109Y440891D02*
X781120D01*
X779282Y440130D01*
X777876Y438724D01*
X777115Y436886D01*
Y434897D01*
X777876Y433059D01*
X779282Y431653D01*
X781120Y430891D01*
X783109D01*
X784947Y431653D01*
X786354Y433059D01*
X786552Y433538D01*
X787926D01*
X788241Y432778D01*
X789648Y431371D01*
X791236Y430713D01*
X791271Y429730D01*
X791220Y429437D01*
X789442Y428700D01*
X788036Y427294D01*
X787882Y426922D01*
X786507D01*
X786354Y427294D01*
X784947Y428700D01*
X783109Y429461D01*
X781120D01*
X779282Y428700D01*
X777876Y427294D01*
X777115Y425456D01*
Y423467D01*
X777876Y421629D01*
X779282Y420223D01*
X781120Y419461D01*
X783109D01*
X784947Y420223D01*
X786354Y421629D01*
X786507Y422001D01*
X787882D01*
X788036Y421629D01*
X789442Y420223D01*
X791280Y419461D01*
X793269D01*
X795107Y420223D01*
X796514Y421629D01*
X797275Y423467D01*
Y425456D01*
X796514Y427294D01*
X795107Y428700D01*
X793518Y429358D01*
X793484Y430342D01*
X793534Y430635D01*
X795312Y431371D01*
X796719Y432778D01*
X797480Y434615D01*
Y436605D01*
X796719Y438442D01*
X795312Y439849D01*
X793475Y440610D01*
X791485D01*
X789648Y439849D01*
X788241Y438442D01*
X788043Y437964D01*
X786668D01*
X786354Y438724D01*
X784947Y440130D01*
X783109Y440891D01*
D02*
G37*
G36*
X945679Y434530D02*
X944088D01*
X942618Y433921D01*
X941493Y432796D01*
X940884Y431326D01*
Y429734D01*
X941493Y428264D01*
X942618Y427139D01*
X944088Y426530D01*
X945679D01*
X947150Y427139D01*
X948275Y428264D01*
X948884Y429734D01*
Y431326D01*
X948275Y432796D01*
X947150Y433921D01*
X945679Y434530D01*
D02*
G37*
G36*
X958367Y434102D02*
X956775D01*
X955305Y433493D01*
X954180Y432368D01*
X953571Y430898D01*
Y429306D01*
X954180Y427836D01*
X955305Y426711D01*
X956775Y426102D01*
X958367D01*
X959837Y426711D01*
X960962Y427836D01*
X961571Y429306D01*
Y430898D01*
X960962Y432368D01*
X959837Y433493D01*
X958367Y434102D01*
D02*
G37*
G36*
X480056Y430185D02*
X478067D01*
X476229Y429424D01*
X474823Y428018D01*
X474061Y426180D01*
Y424691D01*
X473080Y423866D01*
X472888Y423802D01*
X472168Y424100D01*
X470179D01*
X468341Y423339D01*
X466935Y421932D01*
X466174Y420095D01*
Y418105D01*
X466935Y416268D01*
X468341Y414861D01*
X470179Y414100D01*
X472168D01*
X474006Y414861D01*
X475413Y416268D01*
X476174Y418105D01*
Y419595D01*
X477155Y420420D01*
X477347Y420484D01*
X478067Y420185D01*
X480056D01*
X481894Y420947D01*
X483300Y422353D01*
X484061Y424191D01*
Y426180D01*
X483300Y428018D01*
X481894Y429424D01*
X480056Y430185D01*
D02*
G37*
G36*
X864396Y429809D02*
X862804D01*
X861334Y429200D01*
X860209Y428075D01*
X859600Y426605D01*
Y425014D01*
X860209Y423544D01*
X861334Y422418D01*
X862804Y421809D01*
X864396D01*
X865866Y422418D01*
X866991Y423544D01*
X867600Y425014D01*
Y426605D01*
X866991Y428075D01*
X865866Y429200D01*
X864396Y429809D01*
D02*
G37*
G36*
X921745Y436800D02*
X919755D01*
X917918Y436039D01*
X916511Y434632D01*
X915750Y432795D01*
Y430805D01*
X916511Y428968D01*
X917294Y428185D01*
X917794Y427355D01*
X917294Y426525D01*
X916511Y425742D01*
X915750Y423905D01*
Y421915D01*
X916511Y420078D01*
X917918Y418671D01*
X919755Y417910D01*
X921745D01*
X923582Y418671D01*
X924412Y419501D01*
X925503Y419762D01*
X926016Y419446D01*
X927069Y418393D01*
X928907Y417632D01*
X930896D01*
X932734Y418393D01*
X934140Y419800D01*
X934901Y421638D01*
Y423627D01*
X934140Y425465D01*
X933357Y426247D01*
X932858Y427077D01*
X933357Y427907D01*
X934140Y428690D01*
X934901Y430528D01*
Y432517D01*
X934140Y434355D01*
X932734Y435761D01*
X930896Y436522D01*
X928907D01*
X927069Y435761D01*
X926239Y434931D01*
X925148Y434670D01*
X924635Y434986D01*
X923582Y436039D01*
X921745Y436800D01*
D02*
G37*
G36*
X670285Y416480D02*
X668295D01*
X666458Y415719D01*
X665051Y414312D01*
X664897Y413941D01*
X663523D01*
X663369Y414312D01*
X661962Y415719D01*
X660125Y416480D01*
X658135D01*
X656298Y415719D01*
X654891Y414312D01*
X654130Y412475D01*
Y410485D01*
X654891Y408648D01*
X656298Y407241D01*
X656669Y407087D01*
Y405713D01*
X656298Y405559D01*
X654891Y404152D01*
X654130Y402315D01*
Y400325D01*
X654891Y398488D01*
X656298Y397081D01*
X658135Y396320D01*
X660125D01*
X661962Y397081D01*
X663369Y398488D01*
X663523Y398859D01*
X664897D01*
X665051Y398488D01*
X666458Y397081D01*
X668295Y396320D01*
X670285D01*
X672122Y397081D01*
X673529Y398488D01*
X674290Y400325D01*
Y402315D01*
X673529Y404152D01*
X672122Y405559D01*
X671751Y405713D01*
Y407087D01*
X672122Y407241D01*
X673529Y408648D01*
X674290Y410485D01*
Y412475D01*
X673529Y414312D01*
X672122Y415719D01*
X670285Y416480D01*
D02*
G37*
G36*
X461806Y418020D02*
X460214D01*
X458744Y417411D01*
X457619Y416286D01*
X457010Y414816D01*
Y413224D01*
X457619Y411754D01*
X458744Y410629D01*
X460214Y410020D01*
X461806D01*
X463276Y410629D01*
X464401Y411754D01*
X465010Y413224D01*
Y414816D01*
X464401Y416286D01*
X463276Y417411D01*
X461806Y418020D01*
D02*
G37*
G36*
X729975Y405050D02*
X727985D01*
X726148Y404289D01*
X725170Y403311D01*
X724192Y404289D01*
X722355Y405050D01*
X720365D01*
X718528Y404289D01*
X717550Y403311D01*
X716572Y404289D01*
X714735Y405050D01*
X712745D01*
X710908Y404289D01*
X709501Y402882D01*
X708740Y401045D01*
Y399055D01*
X709501Y397218D01*
X710908Y395811D01*
X712745Y395050D01*
X714735D01*
X716572Y395811D01*
X717550Y396789D01*
X718528Y395811D01*
X720365Y395050D01*
X722355D01*
X724192Y395811D01*
X725170Y396789D01*
X726148Y395811D01*
X727985Y395050D01*
X729975D01*
X731812Y395811D01*
X733219Y397218D01*
X733980Y399055D01*
Y401045D01*
X733219Y402882D01*
X731812Y404289D01*
X729975Y405050D01*
D02*
G37*
G36*
X954765D02*
X952775D01*
X950938Y404289D01*
X949531Y402882D01*
X948770Y401045D01*
Y399055D01*
X949531Y397218D01*
X950938Y395811D01*
X952775Y395050D01*
X954765D01*
X956602Y395811D01*
X958009Y397218D01*
X958770Y399055D01*
Y401045D01*
X958009Y402882D01*
X956602Y404289D01*
X954765Y405050D01*
D02*
G37*
G36*
X666276Y395160D02*
X664684D01*
X663214Y394551D01*
X662089Y393426D01*
X661480Y391956D01*
Y390364D01*
X662089Y388894D01*
X663214Y387769D01*
X664684Y387160D01*
X666276D01*
X667746Y387769D01*
X668871Y388894D01*
X669480Y390364D01*
Y391956D01*
X668871Y393426D01*
X667746Y394551D01*
X666276Y395160D01*
D02*
G37*
G36*
X530390Y393890D02*
X528798D01*
X527328Y393281D01*
X526203Y392156D01*
X525594Y390686D01*
Y389094D01*
X526203Y387624D01*
X527328Y386499D01*
X528798Y385890D01*
X530390D01*
X531860Y386499D01*
X532985Y387624D01*
X533594Y389094D01*
Y390686D01*
X532985Y392156D01*
X531860Y393281D01*
X530390Y393890D01*
D02*
G37*
G36*
X516419Y400240D02*
X514828D01*
X513358Y399631D01*
X512233Y398506D01*
X511624Y397036D01*
Y395444D01*
X511742Y395160D01*
X511018Y393890D01*
X509548Y393281D01*
X508423Y392156D01*
X507814Y390686D01*
Y389094D01*
X508423Y387624D01*
X509548Y386499D01*
X511018Y385890D01*
X512609D01*
X514080Y386499D01*
X515205Y387624D01*
X515814Y389094D01*
Y390686D01*
X515696Y390970D01*
X516419Y392240D01*
X517890Y392849D01*
X519015Y393974D01*
X519624Y395444D01*
Y397036D01*
X519015Y398506D01*
X517890Y399631D01*
X516419Y400240D01*
D02*
G37*
G36*
X708388Y382190D02*
X706399D01*
X704561Y381429D01*
X703155Y380022D01*
X703001Y379651D01*
X701627D01*
X701473Y380022D01*
X700066Y381429D01*
X698228Y382190D01*
X696239D01*
X694401Y381429D01*
X692995Y380022D01*
X692234Y378185D01*
Y376195D01*
X692995Y374358D01*
X694401Y372951D01*
X694773Y372797D01*
Y371423D01*
X694401Y371269D01*
X692995Y369862D01*
X692234Y368025D01*
Y366035D01*
X692995Y364198D01*
X694401Y362791D01*
X694773Y362637D01*
Y361263D01*
X694401Y361109D01*
X692995Y359702D01*
X692234Y357865D01*
Y355875D01*
X692995Y354038D01*
X694401Y352631D01*
X696239Y351870D01*
X698228D01*
X700066Y352631D01*
X701473Y354038D01*
X701627Y354409D01*
X703001D01*
X703155Y354038D01*
X704561Y352631D01*
X706399Y351870D01*
X708388D01*
X710226Y352631D01*
X711633Y354038D01*
X712394Y355875D01*
Y357865D01*
X711633Y359702D01*
X710226Y361109D01*
X710307Y362450D01*
X710802Y362655D01*
X712209Y364062D01*
X712970Y365900D01*
Y367889D01*
X712209Y369726D01*
X710802Y371133D01*
X709979Y371474D01*
Y372849D01*
X710226Y372951D01*
X711633Y374358D01*
X712394Y376195D01*
Y378185D01*
X711633Y380022D01*
X710226Y381429D01*
X708388Y382190D01*
D02*
G37*
G36*
X929166Y386270D02*
X927574D01*
X926104Y385661D01*
X924979Y384536D01*
X924370Y383066D01*
Y381474D01*
X924979Y380004D01*
X926104Y378879D01*
X927574Y378270D01*
X929166D01*
X930636Y378879D01*
X931761Y380004D01*
X932370Y381474D01*
Y383066D01*
X931761Y384536D01*
X930636Y385661D01*
X929166Y386270D01*
D02*
G37*
G36*
X911386Y383730D02*
X909794D01*
X908324Y383121D01*
X907199Y381996D01*
X906590Y380526D01*
Y378934D01*
X907199Y377464D01*
X908324Y376339D01*
X909794Y375730D01*
X911386D01*
X912856Y376339D01*
X913981Y377464D01*
X914590Y378934D01*
Y380526D01*
X913981Y381996D01*
X912856Y383121D01*
X911386Y383730D01*
D02*
G37*
G36*
X524036D02*
X522444D01*
X520974Y383121D01*
X519849Y381996D01*
X519240Y380526D01*
Y378934D01*
X519849Y377464D01*
X520974Y376339D01*
X522444Y375730D01*
X524036D01*
X525506Y376339D01*
X526631Y377464D01*
X527240Y378934D01*
Y380526D01*
X526631Y381996D01*
X525506Y383121D01*
X524036Y383730D01*
D02*
G37*
G36*
X806175Y374570D02*
X804185D01*
X802348Y373809D01*
X800941Y372402D01*
X800180Y370565D01*
Y368575D01*
X800941Y366738D01*
X802348Y365331D01*
X804185Y364570D01*
X806175D01*
X808012Y365331D01*
X809419Y366738D01*
X810180Y368575D01*
Y370565D01*
X809419Y372402D01*
X808012Y373809D01*
X806175Y374570D01*
D02*
G37*
G36*
X483197Y372487D02*
X481606D01*
X480136Y371878D01*
X479011Y370753D01*
X478402Y369283D01*
Y367691D01*
X479011Y366221D01*
X480136Y365096D01*
X481606Y364487D01*
X483197D01*
X484667Y365096D01*
X485793Y366221D01*
X486402Y367691D01*
Y369283D01*
X485793Y370753D01*
X484667Y371878D01*
X483197Y372487D01*
D02*
G37*
G36*
X587536Y371030D02*
X585944D01*
X584474Y370421D01*
X583349Y369296D01*
X582740Y367826D01*
Y366234D01*
X583349Y364764D01*
X584474Y363639D01*
X585944Y363030D01*
X587536D01*
X589006Y363639D01*
X590131Y364764D01*
X590740Y366234D01*
Y367826D01*
X590131Y369296D01*
X589006Y370421D01*
X587536Y371030D01*
D02*
G37*
G36*
X553194Y370536D02*
X551603D01*
X550132Y369928D01*
X549007Y368802D01*
X548398Y367332D01*
Y365741D01*
X549007Y364271D01*
X550132Y363145D01*
X551603Y362537D01*
X553194D01*
X554664Y363145D01*
X555789Y364271D01*
X556398Y365741D01*
Y367332D01*
X555789Y368802D01*
X554664Y369928D01*
X553194Y370536D01*
D02*
G37*
G36*
X517444Y363705D02*
X515852D01*
X514382Y363096D01*
X513257Y361971D01*
X512648Y360501D01*
Y358910D01*
X513257Y357440D01*
X514382Y356314D01*
X515852Y355705D01*
X517444D01*
X518914Y356314D01*
X520039Y357440D01*
X520648Y358910D01*
Y360501D01*
X520039Y361971D01*
X518914Y363096D01*
X517444Y363705D01*
D02*
G37*
G36*
X863126Y363410D02*
X861534D01*
X860064Y362801D01*
X858939Y361676D01*
X858330Y360206D01*
Y358614D01*
X858939Y357144D01*
X860064Y356019D01*
X861534Y355410D01*
X863126D01*
X864596Y356019D01*
X865721Y357144D01*
X866330Y358614D01*
Y360206D01*
X865721Y361676D01*
X864596Y362801D01*
X863126Y363410D01*
D02*
G37*
G36*
X529119Y357060D02*
X527528D01*
X526058Y356451D01*
X524933Y355326D01*
X524324Y353856D01*
Y352264D01*
X524933Y350794D01*
X526058Y349669D01*
X527528Y349060D01*
X529119D01*
X530590Y349669D01*
X531715Y350794D01*
X532324Y352264D01*
Y353856D01*
X531715Y355326D01*
X530590Y356451D01*
X529119Y357060D01*
D02*
G37*
G36*
X517690Y351980D02*
X516098D01*
X514628Y351371D01*
X513503Y350246D01*
X512894Y348776D01*
Y347184D01*
X513503Y345714D01*
X514628Y344589D01*
X516098Y343980D01*
X517690D01*
X519160Y344589D01*
X520285Y345714D01*
X520894Y347184D01*
Y348776D01*
X520285Y350246D01*
X519160Y351371D01*
X517690Y351980D01*
D02*
G37*
G36*
X562136Y346900D02*
X560544D01*
X559074Y346291D01*
X557949Y345166D01*
X557340Y343696D01*
Y342104D01*
X557949Y340634D01*
X559074Y339509D01*
X560544Y338900D01*
X562136D01*
X563606Y339509D01*
X564731Y340634D01*
X565340Y342104D01*
Y343696D01*
X564731Y345166D01*
X563606Y346291D01*
X562136Y346900D01*
D02*
G37*
G36*
X926642Y346819D02*
X925051D01*
X923581Y346210D01*
X922456Y345085D01*
X921847Y343615D01*
Y342024D01*
X922456Y340553D01*
X923581Y339428D01*
X925051Y338819D01*
X926642D01*
X928112Y339428D01*
X929238Y340553D01*
X929847Y342024D01*
Y343615D01*
X929238Y345085D01*
X928112Y346210D01*
X926642Y346819D01*
D02*
G37*
G36*
X633256Y345630D02*
X631664D01*
X630194Y345021D01*
X629069Y343896D01*
X628460Y342426D01*
Y340834D01*
X629069Y339364D01*
X630194Y338239D01*
X631664Y337630D01*
X633256D01*
X634726Y338239D01*
X635851Y339364D01*
X636460Y340834D01*
Y342426D01*
X635851Y343896D01*
X634726Y345021D01*
X633256Y345630D01*
D02*
G37*
G36*
X936361Y341819D02*
X934770D01*
X933300Y341210D01*
X932175Y340085D01*
X931566Y338615D01*
Y337024D01*
X932175Y335554D01*
X933300Y334428D01*
X934770Y333819D01*
X936361D01*
X937832Y334428D01*
X938957Y335554D01*
X939566Y337024D01*
Y338615D01*
X938957Y340085D01*
X937832Y341210D01*
X936361Y341819D01*
D02*
G37*
G36*
X566306Y337100D02*
X564715D01*
X563245Y336492D01*
X562119Y335366D01*
X561511Y333896D01*
Y332305D01*
X562119Y330835D01*
X563245Y329710D01*
X564715Y329100D01*
X566306D01*
X567776Y329710D01*
X568901Y330835D01*
X569510Y332305D01*
Y333896D01*
X568901Y335366D01*
X567776Y336492D01*
X566306Y337100D01*
D02*
G37*
G36*
X792010Y312610D02*
X790418D01*
X788948Y312001D01*
X787823Y310876D01*
X787456Y309991D01*
X786081D01*
X785715Y310876D01*
X784590Y312001D01*
X783120Y312610D01*
X781528D01*
X780058Y312001D01*
X778933Y310876D01*
X778566Y309991D01*
X777191D01*
X776825Y310876D01*
X775700Y312001D01*
X774230Y312610D01*
X772638D01*
X771168Y312001D01*
X770043Y310876D01*
X769434Y309406D01*
Y307814D01*
X770043Y306344D01*
X771168Y305219D01*
X772638Y304610D01*
X774230D01*
X775700Y305219D01*
X776825Y306344D01*
X777191Y307229D01*
X778566D01*
X778933Y306344D01*
X780058Y305219D01*
X781528Y304610D01*
X783120D01*
X784590Y305219D01*
X785715Y306344D01*
X786081Y307229D01*
X787456D01*
X787823Y306344D01*
X788948Y305219D01*
X790418Y304610D01*
X792010D01*
X793480Y305219D01*
X794605Y306344D01*
X795214Y307814D01*
Y309406D01*
X794605Y310876D01*
X793480Y312001D01*
X792010Y312610D01*
D02*
G37*
G36*
X840266Y311124D02*
X838674D01*
X837204Y310515D01*
X836717Y310028D01*
X835937Y309479D01*
X835058Y310028D01*
X834618Y310469D01*
X833148Y311077D01*
X831556D01*
X830086Y310469D01*
X828961Y309343D01*
X828352Y307873D01*
Y306282D01*
X828961Y304812D01*
X830086Y303686D01*
X831556Y303078D01*
X833148D01*
X834618Y303686D01*
X835105Y304173D01*
X835886Y304723D01*
X836764Y304173D01*
X837204Y303733D01*
X838674Y303124D01*
X840266D01*
X841736Y303733D01*
X842861Y304859D01*
X843470Y306329D01*
Y307920D01*
X842861Y309390D01*
X841736Y310515D01*
X840266Y311124D01*
D02*
G37*
G36*
X619286Y312610D02*
X617694D01*
X616224Y312001D01*
X615099Y310876D01*
X614490Y309406D01*
Y307814D01*
X615099Y306344D01*
X616224Y305219D01*
X617694Y304610D01*
X619286D01*
X620756Y305219D01*
X621881Y306344D01*
X622490Y307814D01*
Y309406D01*
X621881Y310876D01*
X620756Y312001D01*
X619286Y312610D01*
D02*
G37*
G36*
X807986Y313791D02*
X805996D01*
X804159Y313029D01*
X802752Y311623D01*
X801991Y309785D01*
Y307796D01*
X802752Y305958D01*
X804159Y304552D01*
X805996Y303791D01*
X807986D01*
X809823Y304552D01*
X811230Y305958D01*
X811991Y307796D01*
Y309785D01*
X811230Y311623D01*
X809823Y313029D01*
X807986Y313791D01*
D02*
G37*
G36*
X887455Y307260D02*
X885465D01*
X883628Y306499D01*
X882221Y305092D01*
X881460Y303255D01*
Y301265D01*
X882221Y299428D01*
X883628Y298021D01*
X885465Y297260D01*
X887455D01*
X889292Y298021D01*
X890699Y299428D01*
X891460Y301265D01*
Y303255D01*
X890699Y305092D01*
X889292Y306499D01*
X887455Y307260D01*
D02*
G37*
G36*
X762094Y295263D02*
X760503D01*
X759032Y294654D01*
X757907Y293528D01*
X757298Y292058D01*
Y290467D01*
X757907Y288997D01*
X759032Y287872D01*
X760503Y287263D01*
X762094D01*
X763564Y287872D01*
X764689Y288997D01*
X765298Y290467D01*
Y292058D01*
X764689Y293528D01*
X763564Y294654D01*
X762094Y295263D01*
D02*
G37*
G36*
X702035Y297100D02*
X700045D01*
X698208Y296339D01*
X696801Y294932D01*
X696040Y293095D01*
Y291105D01*
X696801Y289268D01*
X698208Y287861D01*
X700045Y287100D01*
X702035D01*
X703872Y287861D01*
X705279Y289268D01*
X706040Y291105D01*
Y293095D01*
X705279Y294932D01*
X703872Y296339D01*
X702035Y297100D01*
D02*
G37*
G36*
X656266Y283400D02*
X654674D01*
X653204Y282791D01*
X652079Y281666D01*
X651470Y280196D01*
Y278604D01*
X652079Y277134D01*
X653204Y276009D01*
X654674Y275400D01*
X656266D01*
X657736Y276009D01*
X658861Y277134D01*
X659470Y278604D01*
Y280196D01*
X658861Y281666D01*
X657736Y282791D01*
X656266Y283400D01*
D02*
G37*
G36*
X753736Y289247D02*
X752145D01*
X750675Y288638D01*
X749550Y287513D01*
X748941Y286043D01*
Y284452D01*
X749550Y282981D01*
X750675Y281856D01*
X751716Y281425D01*
X751884Y280811D01*
X751935Y280098D01*
X751930Y280067D01*
X750927Y279064D01*
X750318Y277594D01*
Y276003D01*
X750927Y274533D01*
X752053Y273407D01*
X753523Y272798D01*
X755114D01*
X756584Y273407D01*
X757710Y274533D01*
X758318Y276003D01*
Y277594D01*
X757710Y279064D01*
X756584Y280189D01*
X755543Y280621D01*
X755375Y281235D01*
X755324Y281948D01*
X755329Y281979D01*
X756332Y282981D01*
X756941Y284452D01*
Y286043D01*
X756332Y287513D01*
X755206Y288638D01*
X753736Y289247D01*
D02*
G37*
G36*
X624366Y271970D02*
X622774D01*
X621304Y271361D01*
X620179Y270236D01*
X619716Y269117D01*
X618688Y268746D01*
X618300Y268737D01*
X618216Y268821D01*
X616746Y269430D01*
X615154D01*
X613684Y268821D01*
X612559Y267696D01*
X611950Y266226D01*
Y264634D01*
X612559Y263164D01*
X613684Y262039D01*
X615154Y261430D01*
X616746D01*
X618216Y262039D01*
X619341Y263164D01*
X619804Y264283D01*
X620832Y264654D01*
X621220Y264663D01*
X621304Y264579D01*
X622774Y263970D01*
X624366D01*
X625836Y264579D01*
X626961Y265704D01*
X627570Y267174D01*
Y268766D01*
X626961Y270236D01*
X625836Y271361D01*
X624366Y271970D01*
D02*
G37*
G36*
X764794Y274510D02*
X763203D01*
X761733Y273901D01*
X760608Y272776D01*
X759999Y271306D01*
Y269714D01*
X760608Y268244D01*
X761733Y267119D01*
X763203Y266510D01*
X764794D01*
X766265Y267119D01*
X767390Y268244D01*
X767999Y269714D01*
Y271306D01*
X767390Y272776D01*
X766265Y273901D01*
X764794Y274510D01*
D02*
G37*
G36*
X732316Y272894D02*
X730724D01*
X729254Y272285D01*
X728129Y271160D01*
X727520Y269690D01*
Y268098D01*
X728129Y266628D01*
X729254Y265503D01*
X730724Y264894D01*
X732316D01*
X733786Y265503D01*
X734911Y266628D01*
X735520Y268098D01*
Y269690D01*
X734911Y271160D01*
X733786Y272285D01*
X732316Y272894D01*
D02*
G37*
G36*
X683080Y264777D02*
X681489D01*
X680019Y264168D01*
X678893Y263043D01*
X678284Y261572D01*
Y259981D01*
X678893Y258511D01*
X680019Y257386D01*
X681489Y256777D01*
X683080D01*
X684550Y257386D01*
X685675Y258511D01*
X686284Y259981D01*
Y261572D01*
X685675Y263043D01*
X684550Y264168D01*
X683080Y264777D01*
D02*
G37*
G36*
X758147Y262065D02*
X756556D01*
X755086Y261457D01*
X753960Y260331D01*
X753352Y258861D01*
Y257270D01*
X753960Y255800D01*
X755086Y254674D01*
X756556Y254065D01*
X758147D01*
X759617Y254674D01*
X760743Y255800D01*
X761351Y257270D01*
Y258861D01*
X760743Y260331D01*
X759617Y261457D01*
X758147Y262065D01*
D02*
G37*
G36*
X874778Y262796D02*
X872788D01*
X870951Y262035D01*
X869544Y260629D01*
X868783Y258791D01*
Y256802D01*
X869544Y254964D01*
X870951Y253558D01*
X872788Y252796D01*
X874778D01*
X876615Y253558D01*
X878022Y254964D01*
X878783Y256802D01*
Y258791D01*
X878022Y260629D01*
X876615Y262035D01*
X874778Y262796D01*
D02*
G37*
G36*
X665825Y258143D02*
X664233D01*
X662763Y257533D01*
X661638Y256408D01*
X661029Y254938D01*
Y253347D01*
X661638Y251877D01*
X662763Y250751D01*
X664233Y250142D01*
X665825D01*
X667295Y250751D01*
X668420Y251877D01*
X669029Y253347D01*
Y254938D01*
X668420Y256408D01*
X667295Y257533D01*
X665825Y258143D01*
D02*
G37*
G36*
X864396Y266890D02*
X862804D01*
X861334Y266281D01*
X860209Y265156D01*
X859600Y263686D01*
Y262094D01*
X860209Y260624D01*
X859163Y260084D01*
X858794Y259931D01*
X857669Y258806D01*
X857060Y257336D01*
Y255744D01*
X857669Y254274D01*
X858495Y253448D01*
X858579Y252452D01*
X858417Y251930D01*
X857481Y250994D01*
X856872Y249524D01*
Y247933D01*
X857481Y246463D01*
X858607Y245338D01*
X860077Y244729D01*
X861668D01*
X863138Y245338D01*
X864264Y246463D01*
X864873Y247933D01*
Y249524D01*
X864264Y250994D01*
X863437Y251821D01*
X863354Y252817D01*
X863515Y253338D01*
X864451Y254274D01*
X865060Y255744D01*
Y257336D01*
X864451Y258806D01*
X865497Y259346D01*
X865866Y259499D01*
X866991Y260624D01*
X867600Y262094D01*
Y263686D01*
X866991Y265156D01*
X865866Y266281D01*
X864396Y266890D01*
D02*
G37*
G36*
X464814Y252381D02*
X462825D01*
X460987Y251619D01*
X459580Y250213D01*
X458819Y248375D01*
Y246386D01*
X459580Y244548D01*
X460987Y243142D01*
X462825Y242381D01*
X464814D01*
X466651Y243142D01*
X468058Y244548D01*
X468819Y246386D01*
Y248375D01*
X468058Y250213D01*
X466651Y251619D01*
X464814Y252381D01*
D02*
G37*
G36*
X673896Y249110D02*
X672304D01*
X670834Y248501D01*
X669709Y247376D01*
X669100Y245906D01*
Y244314D01*
X669709Y242844D01*
X670834Y241719D01*
X672304Y241110D01*
X673896D01*
X675366Y241719D01*
X676491Y242844D01*
X677100Y244314D01*
Y245906D01*
X676491Y247376D01*
X675366Y248501D01*
X673896Y249110D01*
D02*
G37*
G36*
X661556Y241850D02*
X659965D01*
X658495Y241241D01*
X657370Y240116D01*
X656760Y238646D01*
Y237055D01*
X657370Y235585D01*
X658495Y234459D01*
X659965Y233850D01*
X661556D01*
X663026Y234459D01*
X664152Y235585D01*
X664761Y237055D01*
Y238646D01*
X664152Y240116D01*
X663026Y241241D01*
X661556Y241850D01*
D02*
G37*
G36*
X863126Y238950D02*
X861534D01*
X860064Y238341D01*
X858939Y237216D01*
X858330Y235746D01*
Y234154D01*
X858939Y232684D01*
X860064Y231559D01*
X861534Y230950D01*
X863126D01*
X864596Y231559D01*
X865721Y232684D01*
X866330Y234154D01*
Y235746D01*
X865721Y237216D01*
X864596Y238341D01*
X863126Y238950D01*
D02*
G37*
G36*
X716008Y227250D02*
X714019D01*
X712181Y226489D01*
X710775Y225082D01*
X710014Y223245D01*
Y221255D01*
X710775Y219418D01*
X712181Y218011D01*
X714019Y217250D01*
X716008D01*
X717846Y218011D01*
X719253Y219418D01*
X720014Y221255D01*
Y223245D01*
X719253Y225082D01*
X717846Y226489D01*
X716008Y227250D01*
D02*
G37*
G36*
X756450Y233870D02*
X754858D01*
X753388Y233261D01*
X752263Y232136D01*
X751654Y230666D01*
Y229074D01*
X752263Y227604D01*
X753388Y226479D01*
X754858Y225870D01*
X756449D01*
X756734Y225680D01*
Y225264D01*
X757343Y223794D01*
X758468Y222669D01*
X759938Y222060D01*
X760660D01*
X761186Y220790D01*
X760305Y219909D01*
X759544Y218072D01*
Y216083D01*
X760305Y214245D01*
X761712Y212838D01*
X763549Y212077D01*
X765538D01*
X767376Y212838D01*
X768783Y214245D01*
X769544Y216083D01*
Y218072D01*
X768783Y219909D01*
X767376Y221316D01*
X765538Y222077D01*
X764204D01*
X763678Y223347D01*
X764125Y223794D01*
X764734Y225264D01*
Y226856D01*
X764125Y228326D01*
X763000Y229451D01*
X761529Y230060D01*
X759938D01*
X759654Y230250D01*
Y230666D01*
X759045Y232136D01*
X757920Y233261D01*
X756450Y233870D01*
D02*
G37*
G36*
X824705Y213907D02*
X823113D01*
X821643Y213298D01*
X820518Y212173D01*
X819909Y210703D01*
Y210356D01*
X818853Y209650D01*
X818636Y209740D01*
X817045D01*
X816467Y209501D01*
X814856Y210072D01*
X814845Y210098D01*
X813720Y211223D01*
X812250Y211832D01*
X810658D01*
X809188Y211223D01*
X808063Y210098D01*
X807454Y208627D01*
Y207036D01*
X808063Y205566D01*
X809188Y204441D01*
X810658Y203832D01*
X812250D01*
X812827Y204071D01*
X814438Y203500D01*
X814449Y203474D01*
X815575Y202349D01*
X817045Y201740D01*
X818636D01*
X820106Y202349D01*
X821231Y203474D01*
X821840Y204944D01*
X822971Y205627D01*
X823840Y205298D01*
Y203944D01*
X824602Y202107D01*
X826008Y200700D01*
X827846Y199939D01*
X829835D01*
X831673Y200700D01*
X832923Y201951D01*
X834101Y200772D01*
X835939Y200011D01*
X837928D01*
X839766Y200772D01*
X841173Y202179D01*
X841934Y204017D01*
Y205182D01*
X842484Y205550D01*
X844076D01*
X845546Y206159D01*
X846455Y207068D01*
X847364Y206159D01*
X848834Y205550D01*
X850426D01*
X851896Y206159D01*
X853021Y207284D01*
X853630Y208754D01*
Y210346D01*
X853021Y211816D01*
X851896Y212941D01*
X850426Y213550D01*
X848834D01*
X847364Y212941D01*
X846455Y212032D01*
X845546Y212941D01*
X844076Y213550D01*
X842484D01*
X841014Y212941D01*
X839889Y211816D01*
X839280Y210346D01*
X838454Y209794D01*
X837928Y210011D01*
X835939D01*
X834101Y209250D01*
X832851Y207999D01*
X831673Y209178D01*
X829835Y209939D01*
X827909D01*
Y210703D01*
X827300Y212173D01*
X826175Y213298D01*
X824705Y213907D01*
D02*
G37*
G36*
X894876Y217360D02*
X893284D01*
X891814Y216751D01*
X890689Y215626D01*
X890080Y214156D01*
Y212564D01*
X890689Y211094D01*
X891814Y209969D01*
X893284Y209360D01*
X894876D01*
X896346Y209969D01*
X897471Y211094D01*
X898080Y212564D01*
Y214156D01*
X897471Y215626D01*
X896346Y216751D01*
X894876Y217360D01*
D02*
G37*
G36*
X910315Y218360D02*
X908325D01*
X906488Y217599D01*
X905081Y216192D01*
X904320Y214355D01*
Y212365D01*
X905081Y210528D01*
X906488Y209121D01*
X908325Y208360D01*
X910315D01*
X912152Y209121D01*
X913559Y210528D01*
X914320Y212365D01*
Y214355D01*
X913559Y216192D01*
X912152Y217599D01*
X910315Y218360D01*
D02*
G37*
G36*
X775496Y216090D02*
X773904D01*
X772434Y215481D01*
X771309Y214356D01*
X770700Y212886D01*
Y211294D01*
X771309Y209824D01*
X772434Y208699D01*
X773904Y208090D01*
X775496D01*
X776966Y208699D01*
X778091Y209824D01*
X778700Y211294D01*
Y212886D01*
X778091Y214356D01*
X776966Y215481D01*
X775496Y216090D01*
D02*
G37*
G36*
X686636Y214860D02*
X685044D01*
X683574Y214251D01*
X682449Y213126D01*
X681840Y211656D01*
Y210064D01*
X682449Y208594D01*
X683574Y207469D01*
X685044Y206860D01*
X686636D01*
X688106Y207469D01*
X689231Y208594D01*
X689840Y210064D01*
Y211656D01*
X689231Y213126D01*
X688106Y214251D01*
X686636Y214860D01*
D02*
G37*
G36*
X802166Y213550D02*
X800574D01*
X799104Y212941D01*
X797979Y211816D01*
X797370Y210346D01*
Y208754D01*
X797979Y207284D01*
X799104Y206159D01*
X800574Y205550D01*
X802166D01*
X803636Y206159D01*
X804761Y207284D01*
X805370Y208754D01*
Y210346D01*
X804761Y211816D01*
X803636Y212941D01*
X802166Y213550D01*
D02*
G37*
G36*
X745215Y214550D02*
X743225D01*
X741388Y213789D01*
X739981Y212382D01*
X739220Y210545D01*
Y208555D01*
X739981Y206718D01*
X741388Y205311D01*
X743225Y204550D01*
X745215D01*
X747052Y205311D01*
X748459Y206718D01*
X749220Y208555D01*
Y210545D01*
X748459Y212382D01*
X747052Y213789D01*
X745215Y214550D01*
D02*
G37*
G36*
X910116Y199580D02*
X908524D01*
X907054Y198971D01*
X905929Y197846D01*
X905320Y196376D01*
Y194784D01*
X905929Y193314D01*
X907054Y192189D01*
X908524Y191580D01*
X910116D01*
X911586Y192189D01*
X912711Y193314D01*
X913320Y194784D01*
Y196376D01*
X912711Y197846D01*
X911586Y198971D01*
X910116Y199580D01*
D02*
G37*
G36*
X899956D02*
X898364D01*
X896894Y198971D01*
X895769Y197846D01*
X895160Y196376D01*
Y194784D01*
X895769Y193314D01*
X896894Y192189D01*
X898364Y191580D01*
X899956D01*
X901426Y192189D01*
X902551Y193314D01*
X903160Y194784D01*
Y196376D01*
X902551Y197846D01*
X901426Y198971D01*
X899956Y199580D01*
D02*
G37*
G36*
X504990Y194500D02*
X503398D01*
X501928Y193891D01*
X500803Y192766D01*
X500194Y191296D01*
Y189704D01*
X500803Y188234D01*
X501928Y187109D01*
X503398Y186500D01*
X504990D01*
X506460Y187109D01*
X507585Y188234D01*
X508194Y189704D01*
Y191296D01*
X507585Y192766D01*
X506460Y193891D01*
X504990Y194500D01*
D02*
G37*
G36*
X682826Y192000D02*
X681234D01*
X679764Y191391D01*
X678639Y190266D01*
X678030Y188796D01*
Y187204D01*
X678639Y185734D01*
X679764Y184609D01*
X681234Y184000D01*
X682826D01*
X684296Y184609D01*
X685421Y185734D01*
X686030Y187204D01*
Y188796D01*
X685421Y190266D01*
X684296Y191391D01*
X682826Y192000D01*
D02*
G37*
G36*
X807250Y190690D02*
X805658D01*
X804188Y190081D01*
X803063Y188956D01*
X802454Y187486D01*
Y185894D01*
X803063Y184424D01*
X804188Y183299D01*
X805658Y182690D01*
X807250D01*
X808720Y183299D01*
X809845Y184424D01*
X810454Y185894D01*
Y187486D01*
X809845Y188956D01*
X808720Y190081D01*
X807250Y190690D01*
D02*
G37*
G36*
X461863Y176720D02*
X460272D01*
X458801Y176111D01*
X457676Y174986D01*
X457067Y173516D01*
Y171924D01*
X457676Y170454D01*
X458801Y169329D01*
X460272Y168720D01*
X461863D01*
X463333Y169329D01*
X464458Y170454D01*
X465067Y171924D01*
Y173516D01*
X464458Y174986D01*
X463333Y176111D01*
X461863Y176720D01*
D02*
G37*
G36*
X480056Y174825D02*
X478067D01*
X476229Y174064D01*
X474823Y172658D01*
X474061Y170820D01*
Y169421D01*
X472962Y168551D01*
X472888Y168532D01*
X472168Y168830D01*
X470179D01*
X468341Y168069D01*
X466935Y166662D01*
X466174Y164825D01*
Y162835D01*
X466935Y160998D01*
X468341Y159591D01*
X470179Y158830D01*
X472168D01*
X474006Y159591D01*
X475413Y160998D01*
X476174Y162835D01*
Y164235D01*
X477273Y165105D01*
X477347Y165124D01*
X478067Y164825D01*
X480056D01*
X481894Y165587D01*
X483300Y166993D01*
X484061Y168831D01*
Y170820D01*
X483300Y172658D01*
X481894Y174064D01*
X480056Y174825D01*
D02*
G37*
G36*
X560866Y172910D02*
X559274D01*
X557804Y172301D01*
X556679Y171176D01*
X556070Y169706D01*
Y168114D01*
X556679Y166644D01*
X557804Y165519D01*
X559274Y164910D01*
X560866D01*
X562336Y165519D01*
X563461Y166644D01*
X564070Y168114D01*
Y169706D01*
X563461Y171176D01*
X562336Y172301D01*
X560866Y172910D01*
D02*
G37*
G36*
X899956Y164020D02*
X898364D01*
X896894Y163411D01*
X895769Y162286D01*
X895160Y160816D01*
Y159224D01*
X895769Y157754D01*
X896894Y156629D01*
X898364Y156020D01*
X899956D01*
X901426Y156629D01*
X902551Y157754D01*
X903160Y159224D01*
Y160816D01*
X902551Y162286D01*
X901426Y163411D01*
X899956Y164020D01*
D02*
G37*
G36*
X910116Y162750D02*
X908524D01*
X907054Y162141D01*
X905929Y161016D01*
X905320Y159546D01*
Y157954D01*
X905929Y156484D01*
X907054Y155359D01*
X908524Y154750D01*
X910116D01*
X911586Y155359D01*
X912711Y156484D01*
X913320Y157954D01*
Y159546D01*
X912711Y161016D01*
X911586Y162141D01*
X910116Y162750D01*
D02*
G37*
G36*
X555789Y155130D02*
X554198D01*
X552728Y154521D01*
X551603Y153396D01*
X550994Y151926D01*
Y151083D01*
X550895Y150964D01*
X549724Y150339D01*
X548744Y150745D01*
X547153D01*
X545683Y150136D01*
X544558Y149011D01*
X543949Y147541D01*
Y145949D01*
X544558Y144479D01*
X545683Y143354D01*
X547153Y142745D01*
X548744D01*
X550214Y143354D01*
X551340Y144479D01*
X551949Y145949D01*
Y146792D01*
X552047Y146911D01*
X553219Y147536D01*
X554198Y147130D01*
X555789D01*
X557260Y147739D01*
X558385Y148864D01*
X558994Y150334D01*
Y151926D01*
X558385Y153396D01*
X557260Y154521D01*
X555789Y155130D01*
D02*
G37*
G36*
X854438Y156130D02*
X852449D01*
X850611Y155369D01*
X849205Y153962D01*
X848444Y152125D01*
Y150135D01*
X849205Y148298D01*
X850611Y146891D01*
X852449Y146130D01*
X854438D01*
X856276Y146891D01*
X857683Y148298D01*
X858444Y150135D01*
Y152125D01*
X857683Y153962D01*
X856276Y155369D01*
X854438Y156130D01*
D02*
G37*
G36*
X788008Y146049D02*
X786417D01*
X784947Y145440D01*
X783821Y144314D01*
X783213Y142844D01*
Y141253D01*
X783821Y139783D01*
X784947Y138658D01*
X786417Y138049D01*
X788008D01*
X789478Y138658D01*
X790603Y139783D01*
X791212Y141253D01*
Y142844D01*
X790603Y144314D01*
X789478Y145440D01*
X788008Y146049D01*
D02*
G37*
G36*
X526580Y142430D02*
X524988D01*
X523518Y141821D01*
X522393Y140696D01*
X521784Y139226D01*
Y137634D01*
X522393Y136164D01*
X523518Y135039D01*
X524988Y134430D01*
X526580D01*
X528050Y135039D01*
X529175Y136164D01*
X529784Y137634D01*
Y139226D01*
X529175Y140696D01*
X528050Y141821D01*
X526580Y142430D01*
D02*
G37*
G36*
X512609D02*
X511018D01*
X509548Y141821D01*
X508423Y140696D01*
X507814Y139226D01*
Y137634D01*
X508423Y136164D01*
X509548Y135039D01*
X511018Y134430D01*
X512609D01*
X514080Y135039D01*
X515205Y136164D01*
X515814Y137634D01*
Y139226D01*
X515205Y140696D01*
X514080Y141821D01*
X512609Y142430D01*
D02*
G37*
G36*
X539280Y133540D02*
X537688D01*
X536218Y132931D01*
X535093Y131806D01*
X534484Y130336D01*
Y128744D01*
X535093Y127274D01*
X536218Y126149D01*
X537688Y125540D01*
X539280D01*
X540750Y126149D01*
X541875Y127274D01*
X542484Y128744D01*
Y130336D01*
X541875Y131806D01*
X540750Y132931D01*
X539280Y133540D01*
D02*
G37*
G36*
X620556Y131000D02*
X618964D01*
X617494Y130391D01*
X616369Y129266D01*
X615760Y127796D01*
Y126204D01*
X616369Y124734D01*
X617494Y123609D01*
X618964Y123000D01*
X620556D01*
X622026Y123609D01*
X623151Y124734D01*
X623760Y126204D01*
Y127796D01*
X623151Y129266D01*
X622026Y130391D01*
X620556Y131000D01*
D02*
G37*
G36*
X631986Y129650D02*
X630394D01*
X628924Y129041D01*
X627799Y127916D01*
X627190Y126446D01*
Y124854D01*
X627799Y123384D01*
X628924Y122259D01*
X630394Y121650D01*
X631986D01*
X633456Y122259D01*
X634581Y123384D01*
X635190Y124854D01*
Y126446D01*
X634581Y127916D01*
X633456Y129041D01*
X631986Y129650D01*
D02*
G37*
G36*
X549440Y123380D02*
X547848D01*
X546378Y122771D01*
X545253Y121646D01*
X544644Y120176D01*
Y118584D01*
X545253Y117114D01*
X546378Y115989D01*
X547848Y115380D01*
X549440D01*
X550910Y115989D01*
X552035Y117114D01*
X552644Y118584D01*
Y120176D01*
X552035Y121646D01*
X550910Y122771D01*
X549440Y123380D01*
D02*
G37*
G36*
X794358Y123189D02*
X792767D01*
X791297Y122580D01*
X790171Y121454D01*
X789563Y119984D01*
Y118393D01*
X790171Y116923D01*
X791297Y115798D01*
X792767Y115189D01*
X794358D01*
X795828Y115798D01*
X796954Y116923D01*
X797562Y118393D01*
Y119984D01*
X796954Y121454D01*
X795828Y122580D01*
X794358Y123189D01*
D02*
G37*
G36*
X480859Y119570D02*
X479268D01*
X477798Y118961D01*
X476673Y117836D01*
X476064Y116366D01*
Y114774D01*
X476673Y113304D01*
X477798Y112179D01*
X479268Y111570D01*
X480859D01*
X482330Y112179D01*
X483455Y113304D01*
X484064Y114774D01*
Y116366D01*
X483455Y117836D01*
X482330Y118961D01*
X480859Y119570D01*
D02*
G37*
G36*
X738670Y115760D02*
X737078D01*
X735608Y115151D01*
X734483Y114026D01*
X733874Y112556D01*
Y110964D01*
X734483Y109494D01*
X735608Y108369D01*
X737078Y107760D01*
X738670D01*
X740140Y108369D01*
X741265Y109494D01*
X741874Y110964D01*
Y112556D01*
X741265Y114026D01*
X740140Y115151D01*
X738670Y115760D01*
D02*
G37*
G36*
X518960Y110320D02*
X517368D01*
X515898Y109711D01*
X514773Y108586D01*
X514164Y107116D01*
Y105524D01*
X514773Y104054D01*
X515898Y102929D01*
X517368Y102320D01*
X518960D01*
X520430Y102929D01*
X521555Y104054D01*
X522164Y105524D01*
Y107116D01*
X521555Y108586D01*
X520430Y109711D01*
X518960Y110320D01*
D02*
G37*
G36*
X548170Y104330D02*
X546578D01*
X545108Y103721D01*
X543983Y102596D01*
X543374Y101126D01*
Y99534D01*
X543983Y98064D01*
X545108Y96939D01*
X546578Y96330D01*
X548170D01*
X549640Y96939D01*
X550765Y98064D01*
X551374Y99534D01*
Y101126D01*
X550765Y102596D01*
X549640Y103721D01*
X548170Y104330D01*
D02*
G37*
G36*
X581186Y99250D02*
X579594D01*
X578124Y98641D01*
X576999Y97516D01*
X576390Y96046D01*
Y94454D01*
X576999Y92984D01*
X578124Y91859D01*
X579594Y91250D01*
X581186D01*
X582656Y91859D01*
X583781Y92984D01*
X584390Y94454D01*
Y96046D01*
X583781Y97516D01*
X582656Y98641D01*
X581186Y99250D01*
D02*
G37*
G36*
X524039D02*
X522448D01*
X520978Y98641D01*
X519853Y97516D01*
X519244Y96046D01*
Y94454D01*
X519853Y92984D01*
X520978Y91859D01*
X522448Y91250D01*
X524039D01*
X525510Y91859D01*
X526635Y92984D01*
X527244Y94454D01*
Y96046D01*
X526635Y97516D01*
X525510Y98641D01*
X524039Y99250D01*
D02*
G37*
G36*
X760068Y99059D02*
X758477D01*
X757007Y98450D01*
X755881Y97324D01*
X755273Y95854D01*
Y94263D01*
X755881Y92793D01*
X757007Y91668D01*
X758477Y91059D01*
X760068D01*
X761538Y91668D01*
X762663Y92793D01*
X763272Y94263D01*
Y95854D01*
X762663Y97324D01*
X761538Y98450D01*
X760068Y99059D01*
D02*
G37*
G36*
X684056Y78930D02*
X682464D01*
X680994Y78321D01*
X679869Y77196D01*
X679260Y75726D01*
Y74134D01*
X679869Y72664D01*
X680994Y71539D01*
X682464Y70930D01*
X684056D01*
X685526Y71539D01*
X686651Y72664D01*
X687260Y74134D01*
Y75726D01*
X686651Y77196D01*
X685526Y78321D01*
X684056Y78930D01*
D02*
G37*
G36*
X793276Y38290D02*
X791684D01*
X790214Y37681D01*
X789089Y36556D01*
X788480Y35086D01*
Y33494D01*
X789089Y32024D01*
X790214Y30899D01*
X791684Y30290D01*
X793276D01*
X794746Y30899D01*
X795871Y32024D01*
X796480Y33494D01*
Y35086D01*
X795871Y36556D01*
X794746Y37681D01*
X793276Y38290D01*
D02*
G37*
G36*
X760256D02*
X758664D01*
X757194Y37681D01*
X756069Y36556D01*
X755460Y35086D01*
Y33494D01*
X756069Y32024D01*
X757194Y30899D01*
X758664Y30290D01*
X760256D01*
X761726Y30899D01*
X762851Y32024D01*
X763460Y33494D01*
Y35086D01*
X762851Y36556D01*
X761726Y37681D01*
X760256Y38290D01*
D02*
G37*
G36*
X735765Y36660D02*
X734174D01*
X732704Y36051D01*
X731578Y34925D01*
X730969Y33455D01*
Y31864D01*
X731578Y30394D01*
X732704Y29268D01*
X734174Y28660D01*
X735765D01*
X737235Y29268D01*
X738361Y30394D01*
X738969Y31864D01*
Y33455D01*
X738361Y34925D01*
X737235Y36051D01*
X735765Y36660D01*
D02*
G37*
G36*
X778036Y35870D02*
X776444D01*
X774974Y35261D01*
X773849Y34136D01*
X773240Y32666D01*
Y31074D01*
X773849Y29604D01*
X774974Y28479D01*
X776444Y27870D01*
X778036D01*
X779506Y28479D01*
X780631Y29604D01*
X781240Y31074D01*
Y32666D01*
X780631Y34136D01*
X779506Y35261D01*
X778036Y35870D01*
D02*
G37*
G36*
X769345Y30400D02*
X767355D01*
X765518Y29639D01*
X764111Y28232D01*
X763350Y26395D01*
Y24405D01*
X764111Y22568D01*
X765518Y21161D01*
X767355Y20400D01*
X769345D01*
X771182Y21161D01*
X772589Y22568D01*
X773350Y24405D01*
Y26395D01*
X772589Y28232D01*
X771182Y29639D01*
X769345Y30400D01*
D02*
G37*
G36*
X647425D02*
X645435D01*
X643598Y29639D01*
X642191Y28232D01*
X641430Y26395D01*
Y24405D01*
X642191Y22568D01*
X643598Y21161D01*
X645435Y20400D01*
X647425D01*
X649262Y21161D01*
X650669Y22568D01*
X651430Y24405D01*
Y26395D01*
X650669Y28232D01*
X649262Y29639D01*
X647425Y30400D01*
D02*
G37*
G36*
X594085D02*
X592095D01*
X590258Y29639D01*
X588851Y28232D01*
X588090Y26395D01*
Y24405D01*
X588851Y22568D01*
X590258Y21161D01*
X592095Y20400D01*
X594085D01*
X595922Y21161D01*
X597329Y22568D01*
X598090Y24405D01*
Y26395D01*
X597329Y28232D01*
X595922Y29639D01*
X594085Y30400D01*
D02*
G37*
%LPD*%
D19*
X837791Y302311D02*
Y340309D01*
Y302311D02*
X879792D01*
Y340309D01*
X837791D02*
X879792D01*
X931420Y182659D02*
Y223660D01*
Y182659D02*
X959421D01*
Y223660D01*
X931420D02*
X959421D01*
X574799Y461122D02*
Y533121D01*
Y461122D02*
X639798D01*
Y533121D01*
X574799D02*
X639798D01*
X584799Y484622D02*
Y509621D01*
Y484622D02*
X629798D01*
Y509621D01*
X584799D02*
X629798D01*
X17292Y368300D02*
X25419D01*
X41674D01*
X49801D01*
X17292Y187960D02*
Y368770D01*
Y187960D02*
X49801D01*
X7292Y368300D02*
X61691D01*
X7292Y187960D02*
Y368300D01*
Y187960D02*
X61691D01*
Y368300D01*
X49801Y187960D02*
Y368770D01*
D20*
X848791Y313309D02*
Y329311D01*
Y313309D02*
X868791D01*
Y329311D01*
X848791D02*
X868791D01*
X941420Y192659D02*
Y208661D01*
Y192659D02*
X949421D01*
Y208661D01*
X941420D02*
X949421D01*
D21*
X768395Y87508D02*
X763396D01*
X765895D01*
Y75012D01*
X763396Y72512D01*
X760897D01*
X758398Y75012D01*
X773393Y85008D02*
X775892Y87508D01*
X780891D01*
X783390Y85008D01*
Y82509D01*
X780891Y80010D01*
X778391D01*
X780891D01*
X783390Y77511D01*
Y75012D01*
X780891Y72512D01*
X775892D01*
X773393Y75012D01*
D22*
X553679Y441919D02*
Y445251D01*
X551180D01*
Y443585D01*
Y445251D01*
X548681D01*
X553679Y440253D02*
X548681D01*
Y437754D01*
X549514Y436921D01*
X550347D01*
X551180Y437754D01*
Y440253D01*
Y437754D01*
X552013Y436921D01*
X552846D01*
X553679Y437754D01*
Y440253D01*
X548681Y435255D02*
Y433588D01*
Y434422D01*
X553679D01*
X552846Y435255D01*
X881818Y172365D02*
X886817D01*
Y174864D01*
X885984Y175697D01*
X882651D01*
X881818Y174864D01*
Y172365D01*
X882651Y177363D02*
X881818Y178196D01*
Y179862D01*
X882651Y180695D01*
X883484D01*
X884317Y179862D01*
X885151Y180695D01*
X885984D01*
X886817Y179862D01*
Y178196D01*
X885984Y177363D01*
X885151D01*
X884317Y178196D01*
X883484Y177363D01*
X882651D01*
X884317Y178196D02*
Y179862D01*
X868992Y172365D02*
X873990D01*
Y174864D01*
X873158Y175697D01*
X869825D01*
X868992Y174864D01*
Y172365D01*
Y177363D02*
Y180695D01*
X869825D01*
X873158Y177363D01*
X873990D01*
X527095Y191872D02*
X532093D01*
Y194371D01*
X531260Y195204D01*
X527928D01*
X527095Y194371D01*
Y191872D01*
X532093Y196870D02*
Y198536D01*
Y197703D01*
X527095D01*
X527928Y196870D01*
X532093Y203535D02*
X527095D01*
X529594Y201036D01*
Y204368D01*
X530905Y444602D02*
X535903D01*
Y447101D01*
X535070Y447934D01*
X531738D01*
X530905Y447101D01*
Y444602D01*
X535903Y449600D02*
Y451267D01*
Y450434D01*
X530905D01*
X531738Y449600D01*
Y453766D02*
X530905Y454599D01*
Y456265D01*
X531738Y457098D01*
X532571D01*
X533404Y456265D01*
Y455432D01*
Y456265D01*
X534237Y457098D01*
X535070D01*
X535903Y456265D01*
Y454599D01*
X535070Y453766D01*
X954129Y321351D02*
Y326349D01*
X951630D01*
X950797Y325516D01*
Y322184D01*
X951630Y321351D01*
X954129D01*
X949131Y325516D02*
X948298Y326349D01*
X946632D01*
X945798Y325516D01*
Y322184D01*
X946632Y321351D01*
X948298D01*
X949131Y322184D01*
Y323017D01*
X948298Y323850D01*
X945798D01*
X956212Y307381D02*
Y312379D01*
X953713D01*
X952879Y311546D01*
Y308214D01*
X953713Y307381D01*
X956212D01*
X951213Y312379D02*
X949547D01*
X950380D01*
Y307381D01*
X951213Y308214D01*
X947048D02*
X946215Y307381D01*
X944549D01*
X943716Y308214D01*
Y311546D01*
X944549Y312379D01*
X946215D01*
X947048Y311546D01*
Y308214D01*
X959689Y479145D02*
X954691D01*
Y476646D01*
X955524Y475813D01*
X958856D01*
X959689Y476646D01*
Y479145D01*
Y470815D02*
Y474147D01*
X957190D01*
X958023Y472481D01*
Y471648D01*
X957190Y470815D01*
X955524D01*
X954691Y471648D01*
Y473314D01*
X955524Y474147D01*
X946989Y479145D02*
X941991D01*
Y476646D01*
X942824Y475813D01*
X946156D01*
X946989Y476646D01*
Y479145D01*
Y470815D02*
X946156Y472481D01*
X944490Y474147D01*
X942824D01*
X941991Y473314D01*
Y471648D01*
X942824Y470815D01*
X943657D01*
X944490Y471648D01*
Y474147D01*
X784614Y505116D02*
X779616D01*
Y502617D01*
X780449Y501784D01*
X783781D01*
X784614Y502617D01*
Y505116D01*
X779616Y500118D02*
Y498452D01*
Y499285D01*
X784614D01*
X783781Y500118D01*
X779616Y495952D02*
Y494286D01*
Y495120D01*
X784614D01*
X783781Y495952D01*
X801900Y505949D02*
X796901D01*
Y503450D01*
X797734Y502617D01*
X801067D01*
X801900Y503450D01*
Y505949D01*
X796901Y500951D02*
Y499285D01*
Y500118D01*
X801900D01*
X801067Y500951D01*
X796901Y493453D02*
Y496786D01*
X800234Y493453D01*
X801067D01*
X801900Y494286D01*
Y495952D01*
X801067Y496786D01*
X739486Y322621D02*
Y327619D01*
X736986D01*
X736153Y326786D01*
Y323454D01*
X736986Y322621D01*
X739486D01*
X734487Y323454D02*
X733654Y322621D01*
X731988D01*
X731155Y323454D01*
Y324287D01*
X731988Y325120D01*
X732821D01*
X731988D01*
X731155Y325953D01*
Y326786D01*
X731988Y327619D01*
X733654D01*
X734487Y326786D01*
X523595Y488991D02*
Y493989D01*
X521096D01*
X520263Y493156D01*
Y489824D01*
X521096Y488991D01*
X523595D01*
X516098Y493989D02*
Y488991D01*
X518597Y491490D01*
X515265D01*
D23*
X938886Y90195D02*
X946883D01*
X950882Y86197D01*
X946883Y82198D01*
X938886D01*
X944884D01*
Y90195D01*
X950882Y70202D02*
Y78199D01*
X938886D01*
Y70202D01*
X944884Y78199D02*
Y74201D01*
X938886Y66203D02*
Y62204D01*
Y64204D01*
X950882D01*
X948883Y66203D01*
D152*
X651510Y154940D02*
D03*
X617981Y215953D02*
D03*
X491946Y442505D02*
D03*
X641350Y466090D02*
D03*
X864209Y305465D02*
D03*
X708459Y194510D02*
D03*
X697234Y336550D02*
D03*
X804830Y421640D02*
D03*
X805180Y411480D02*
D03*
X471174Y392430D02*
D03*
X688340Y292100D02*
D03*
X684530Y100531D02*
D03*
X786130Y374650D02*
D03*
X621030Y31750D02*
D03*
Y20320D02*
D03*
X610870Y31750D02*
D03*
X609604Y84190D02*
D03*
X741680Y388620D02*
D03*
X457204Y88670D02*
D03*
X840740Y386080D02*
D03*
X948690Y372110D02*
D03*
X958850D02*
D03*
Y360680D02*
D03*
X948690D02*
D03*
X631190Y184150D02*
D03*
X730250Y388620D02*
D03*
X495304Y269240D02*
D03*
X505464D02*
D03*
Y257810D02*
D03*
X495304D02*
D03*
X462284Y132080D02*
D03*
X472444D02*
D03*
Y143510D02*
D03*
X462284D02*
D03*
X477520Y533400D02*
D03*
X488950Y523240D02*
D03*
Y533400D02*
D03*
X477520Y523240D02*
D03*
X697234Y346710D02*
D03*
X815340Y421640D02*
D03*
Y411480D02*
D03*
X427994Y414020D02*
D03*
X438154D02*
D03*
Y402590D02*
D03*
X427994D02*
D03*
X415294Y377190D02*
D03*
X425454D02*
D03*
Y365760D02*
D03*
X415294D02*
D03*
X704854Y222250D02*
D03*
X694694D02*
D03*
X610870Y20320D02*
D03*
X521974Y38100D02*
D03*
X532134D02*
D03*
Y49530D02*
D03*
X521974D02*
D03*
X386084Y256540D02*
D03*
X396244D02*
D03*
Y267970D02*
D03*
X386084D02*
D03*
X416564Y113030D02*
D03*
X426724D02*
D03*
Y124460D02*
D03*
X416564D02*
D03*
X505464Y331470D02*
D03*
X454664Y349250D02*
D03*
X355604Y328930D02*
D03*
X328934Y322580D02*
D03*
X459744Y382270D02*
D03*
X707394Y346710D02*
D03*
Y336550D02*
D03*
X429264Y158750D02*
D03*
X439424D02*
D03*
Y147320D02*
D03*
X429264D02*
D03*
X471174Y382270D02*
D03*
X459744Y392430D02*
D03*
X753110Y388620D02*
D03*
D153*
X715010Y277241D02*
D03*
X925014Y291266D02*
D03*
X918474D02*
D03*
X911934D02*
D03*
X905394D02*
D03*
X898854D02*
D03*
X892314D02*
D03*
X885774D02*
D03*
X879234D02*
D03*
X879279Y264353D02*
D03*
X885819D02*
D03*
X892359D02*
D03*
X898899D02*
D03*
X905439D02*
D03*
X911979D02*
D03*
X918519D02*
D03*
X925059D02*
D03*
X929556Y259605D02*
D03*
X930701Y253166D02*
D03*
Y246626D02*
D03*
X928545Y240451D02*
D03*
X928708Y220973D02*
D03*
X931710Y215163D02*
D03*
X929912Y208875D02*
D03*
X930220Y202342D02*
D03*
X929817Y195815D02*
D03*
X930523Y189313D02*
D03*
X930114Y182786D02*
D03*
X929799Y163416D02*
D03*
X930480Y156912D02*
D03*
X930482Y150372D02*
D03*
X930610Y143833D02*
D03*
X959315Y145486D02*
D03*
Y152026D02*
D03*
X959167Y158564D02*
D03*
X959975Y165054D02*
D03*
X960401Y171580D02*
D03*
X960283Y178119D02*
D03*
X958623Y184445D02*
D03*
X960694Y190648D02*
D03*
X960856Y197186D02*
D03*
X960803Y203726D02*
D03*
X960746Y210266D02*
D03*
X960012Y216765D02*
D03*
X963461Y222321D02*
D03*
X963941Y228844D02*
D03*
Y235384D02*
D03*
X962520Y241767D02*
D03*
X959613Y247626D02*
D03*
X959632Y254166D02*
D03*
X960744Y260611D02*
D03*
X960981Y267146D02*
D03*
X960564Y273673D02*
D03*
X957191Y279276D02*
D03*
X951952Y283190D02*
D03*
X946928Y287377D02*
D03*
X940981Y290100D02*
D03*
X934529Y291169D02*
D03*
X873877Y292500D02*
D03*
X668447Y260777D02*
D03*
X681990Y250190D02*
D03*
X658970Y253130D02*
D03*
X509276Y347986D02*
D03*
X863367Y145016D02*
D03*
X854714Y142240D02*
D03*
X869954Y146050D02*
D03*
X751840Y95250D02*
D03*
X830580Y187960D02*
D03*
X547370Y388620D02*
D03*
X523240Y396240D02*
D03*
X745490Y111760D02*
D03*
X778510Y142240D02*
D03*
X923290Y146050D02*
D03*
X915670D02*
D03*
X908050D02*
D03*
X963930Y144780D02*
D03*
X542128Y113196D02*
D03*
X729201Y246597D02*
D03*
X900434Y146050D02*
D03*
X892814D02*
D03*
X885194D02*
D03*
X877574D02*
D03*
X854714Y134620D02*
D03*
Y127000D02*
D03*
Y119380D02*
D03*
Y111760D02*
D03*
Y104140D02*
D03*
Y96520D02*
D03*
Y88900D02*
D03*
Y81280D02*
D03*
Y73660D02*
D03*
Y66040D02*
D03*
Y58420D02*
D03*
Y50800D02*
D03*
Y43180D02*
D03*
Y35560D02*
D03*
Y27940D02*
D03*
Y20320D02*
D03*
X159021Y298095D02*
D03*
X131421Y326035D02*
D03*
X171421Y269860D02*
D03*
Y381916D02*
D03*
X151421D02*
D03*
X131421D02*
D03*
Y214275D02*
D03*
X151421Y269860D02*
D03*
X131421D02*
D03*
X159021Y74576D02*
D03*
Y130456D02*
D03*
X160291Y186336D02*
D03*
X159963Y242759D02*
D03*
X159021Y353975D02*
D03*
Y409855D02*
D03*
Y465736D02*
D03*
X232681Y464465D02*
D03*
Y409855D02*
D03*
Y353975D02*
D03*
Y296826D02*
D03*
Y240945D02*
D03*
Y186336D02*
D03*
Y130456D02*
D03*
Y74576D02*
D03*
X151421Y158396D02*
D03*
X131421D02*
D03*
X171421D02*
D03*
X131421Y492595D02*
D03*
Y437235D02*
D03*
X151421Y492595D02*
D03*
Y214275D02*
D03*
Y326035D02*
D03*
Y437235D02*
D03*
X171421Y493236D02*
D03*
X151421Y102515D02*
D03*
X226421Y46006D02*
D03*
X246421D02*
D03*
X226421Y102235D02*
D03*
X246421D02*
D03*
X226421Y157635D02*
D03*
X246421D02*
D03*
X226421Y213235D02*
D03*
X246421D02*
D03*
Y269235D02*
D03*
X226421Y325235D02*
D03*
X206421D02*
D03*
X246421D02*
D03*
X171421Y326035D02*
D03*
Y437235D02*
D03*
X226421Y436735D02*
D03*
X246421D02*
D03*
X206421Y381236D02*
D03*
X226421D02*
D03*
X246421D02*
D03*
X207281Y436735D02*
D03*
X206421Y102235D02*
D03*
X171421Y102515D02*
D03*
X206421Y157635D02*
D03*
Y213235D02*
D03*
Y269235D02*
D03*
X226421D02*
D03*
X171721Y214275D02*
D03*
X206421Y46007D02*
D03*
X131421Y102515D02*
D03*
M02*
