G04*
G04 #@! TF.GenerationSoftware,Altium Limited,Altium Designer,23.8.1 (32)*
G04*
G04 Layer_Color=2752767*
%FSLAX44Y44*%
%MOMM*%
G71*
G04*
G04 #@! TF.SameCoordinates,B2355FDD-5490-460F-BBB4-22D25E5E3D0D*
G04*
G04*
G04 #@! TF.FilePolarity,Positive*
G04*
G01*
G75*
%ADD19C,0.1001*%
%ADD20C,0.1999*%
%ADD21C,0.1500*%
%ADD22C,0.0500*%
%ADD23C,0.1200*%
%ADD157C,0.0508*%
D19*
X837791Y302311D02*
Y340309D01*
Y302311D02*
X879792D01*
Y340309D01*
X837791D02*
X879792D01*
X931420Y182659D02*
Y223660D01*
Y182659D02*
X959421D01*
Y223660D01*
X931420D02*
X959421D01*
X574799Y461122D02*
Y533121D01*
Y461122D02*
X639798D01*
Y533121D01*
X574799D02*
X639798D01*
X584799Y484622D02*
Y509621D01*
Y484622D02*
X629798D01*
Y509621D01*
X584799D02*
X629798D01*
X17292Y368300D02*
X25419D01*
X41674D01*
X49801D01*
X17292Y187960D02*
Y368770D01*
Y187960D02*
X49801D01*
X7292Y368300D02*
X61691D01*
X7292Y187960D02*
Y368300D01*
Y187960D02*
X61691D01*
Y368300D01*
X49801Y187960D02*
Y368770D01*
D20*
X848791Y313309D02*
Y329311D01*
Y313309D02*
X868791D01*
Y329311D01*
X848791D02*
X868791D01*
X941420Y192659D02*
Y208661D01*
Y192659D02*
X949421D01*
Y208661D01*
X941420D02*
X949421D01*
D21*
X768395Y87508D02*
X763396D01*
X765895D01*
Y75012D01*
X763396Y72512D01*
X760897D01*
X758398Y75012D01*
X773393Y85008D02*
X775892Y87508D01*
X780891D01*
X783390Y85008D01*
Y82509D01*
X780891Y80010D01*
X778391D01*
X780891D01*
X783390Y77511D01*
Y75012D01*
X780891Y72512D01*
X775892D01*
X773393Y75012D01*
D22*
X553679Y441919D02*
Y445251D01*
X551180D01*
Y443585D01*
Y445251D01*
X548681D01*
X553679Y440253D02*
X548681D01*
Y437754D01*
X549514Y436921D01*
X550347D01*
X551180Y437754D01*
Y440253D01*
Y437754D01*
X552013Y436921D01*
X552846D01*
X553679Y437754D01*
Y440253D01*
X548681Y435255D02*
Y433588D01*
Y434422D01*
X553679D01*
X552846Y435255D01*
X881818Y172365D02*
X886817D01*
Y174864D01*
X885984Y175697D01*
X882651D01*
X881818Y174864D01*
Y172365D01*
X882651Y177363D02*
X881818Y178196D01*
Y179862D01*
X882651Y180695D01*
X883484D01*
X884317Y179862D01*
X885151Y180695D01*
X885984D01*
X886817Y179862D01*
Y178196D01*
X885984Y177363D01*
X885151D01*
X884317Y178196D01*
X883484Y177363D01*
X882651D01*
X884317Y178196D02*
Y179862D01*
X868992Y172365D02*
X873990D01*
Y174864D01*
X873158Y175697D01*
X869825D01*
X868992Y174864D01*
Y172365D01*
Y177363D02*
Y180695D01*
X869825D01*
X873158Y177363D01*
X873990D01*
X527095Y191872D02*
X532093D01*
Y194371D01*
X531260Y195204D01*
X527928D01*
X527095Y194371D01*
Y191872D01*
X532093Y196870D02*
Y198536D01*
Y197703D01*
X527095D01*
X527928Y196870D01*
X532093Y203535D02*
X527095D01*
X529594Y201036D01*
Y204368D01*
X530905Y444602D02*
X535903D01*
Y447101D01*
X535070Y447934D01*
X531738D01*
X530905Y447101D01*
Y444602D01*
X535903Y449600D02*
Y451267D01*
Y450434D01*
X530905D01*
X531738Y449600D01*
Y453766D02*
X530905Y454599D01*
Y456265D01*
X531738Y457098D01*
X532571D01*
X533404Y456265D01*
Y455432D01*
Y456265D01*
X534237Y457098D01*
X535070D01*
X535903Y456265D01*
Y454599D01*
X535070Y453766D01*
X954129Y321351D02*
Y326349D01*
X951630D01*
X950797Y325516D01*
Y322184D01*
X951630Y321351D01*
X954129D01*
X949131Y325516D02*
X948298Y326349D01*
X946632D01*
X945798Y325516D01*
Y322184D01*
X946632Y321351D01*
X948298D01*
X949131Y322184D01*
Y323017D01*
X948298Y323850D01*
X945798D01*
X956212Y307381D02*
Y312379D01*
X953713D01*
X952879Y311546D01*
Y308214D01*
X953713Y307381D01*
X956212D01*
X951213Y312379D02*
X949547D01*
X950380D01*
Y307381D01*
X951213Y308214D01*
X947048D02*
X946215Y307381D01*
X944549D01*
X943716Y308214D01*
Y311546D01*
X944549Y312379D01*
X946215D01*
X947048Y311546D01*
Y308214D01*
X959689Y479145D02*
X954691D01*
Y476646D01*
X955524Y475813D01*
X958856D01*
X959689Y476646D01*
Y479145D01*
Y470815D02*
Y474147D01*
X957190D01*
X958023Y472481D01*
Y471648D01*
X957190Y470815D01*
X955524D01*
X954691Y471648D01*
Y473314D01*
X955524Y474147D01*
X946989Y479145D02*
X941991D01*
Y476646D01*
X942824Y475813D01*
X946156D01*
X946989Y476646D01*
Y479145D01*
Y470815D02*
X946156Y472481D01*
X944490Y474147D01*
X942824D01*
X941991Y473314D01*
Y471648D01*
X942824Y470815D01*
X943657D01*
X944490Y471648D01*
Y474147D01*
X784614Y505116D02*
X779616D01*
Y502617D01*
X780449Y501784D01*
X783781D01*
X784614Y502617D01*
Y505116D01*
X779616Y500118D02*
Y498452D01*
Y499285D01*
X784614D01*
X783781Y500118D01*
X779616Y495952D02*
Y494286D01*
Y495120D01*
X784614D01*
X783781Y495952D01*
X801900Y505949D02*
X796901D01*
Y503450D01*
X797734Y502617D01*
X801067D01*
X801900Y503450D01*
Y505949D01*
X796901Y500951D02*
Y499285D01*
Y500118D01*
X801900D01*
X801067Y500951D01*
X796901Y493453D02*
Y496786D01*
X800234Y493453D01*
X801067D01*
X801900Y494286D01*
Y495952D01*
X801067Y496786D01*
X739486Y322621D02*
Y327619D01*
X736986D01*
X736153Y326786D01*
Y323454D01*
X736986Y322621D01*
X739486D01*
X734487Y323454D02*
X733654Y322621D01*
X731988D01*
X731155Y323454D01*
Y324287D01*
X731988Y325120D01*
X732821D01*
X731988D01*
X731155Y325953D01*
Y326786D01*
X731988Y327619D01*
X733654D01*
X734487Y326786D01*
X523595Y488991D02*
Y493989D01*
X521096D01*
X520263Y493156D01*
Y489824D01*
X521096Y488991D01*
X523595D01*
X516098Y493989D02*
Y488991D01*
X518597Y491490D01*
X515265D01*
D23*
X938886Y90195D02*
X946883D01*
X950882Y86197D01*
X946883Y82198D01*
X938886D01*
X944884D01*
Y90195D01*
X950882Y70202D02*
Y78199D01*
X938886D01*
Y70202D01*
X944884Y78199D02*
Y74201D01*
X938886Y66203D02*
Y62204D01*
Y64204D01*
X950882D01*
X948883Y66203D01*
D157*
X463819Y245349D02*
X464835Y246365D01*
X465851D01*
X464835Y247381D01*
X465851Y248397D01*
X464835D01*
X463819Y249413D01*
X462803Y248397D01*
X461787D01*
X462803Y247381D01*
X461787Y246365D01*
X462803D01*
X463819Y245349D01*
X458203Y512583D02*
X459218Y513599D01*
X460234D01*
X459218Y514615D01*
X460234Y515631D01*
X459218D01*
X458203Y516647D01*
X457187Y515631D01*
X456171D01*
X457187Y514615D01*
X456171Y513599D01*
X457187D01*
X458203Y512583D01*
X744220Y207518D02*
X745236Y208534D01*
X746252D01*
X745236Y209550D01*
X746252Y210566D01*
X745236D01*
X744220Y211582D01*
X743204Y210566D01*
X742188D01*
X743204Y209550D01*
X742188Y208534D01*
X743204D01*
X744220Y207518D01*
X764544Y215045D02*
X765560Y216061D01*
X766576D01*
X765560Y217077D01*
X766576Y218093D01*
X765560D01*
X764544Y219109D01*
X763528Y218093D01*
X762512D01*
X763528Y217077D01*
X762512Y216061D01*
X763528D01*
X764544Y215045D01*
X774700Y210058D02*
X775716Y211074D01*
X776732D01*
X775716Y212090D01*
X776732Y213106D01*
X775716D01*
X774700Y214122D01*
X773684Y213106D01*
X772668D01*
X773684Y212090D01*
X772668Y211074D01*
X773684D01*
X774700Y210058D01*
X843280Y207518D02*
X844296Y208534D01*
X845312D01*
X844296Y209550D01*
X845312Y210566D01*
X844296D01*
X843280Y211582D01*
X842264Y210566D01*
X841248D01*
X842264Y209550D01*
X841248Y208534D01*
X842264D01*
X843280Y207518D01*
X849630D02*
X850646Y208534D01*
X851662D01*
X850646Y209550D01*
X851662Y210566D01*
X850646D01*
X849630Y211582D01*
X848614Y210566D01*
X847598D01*
X848614Y209550D01*
X847598Y208534D01*
X848614D01*
X849630Y207518D01*
X716280Y428498D02*
X717296Y429514D01*
X718312D01*
X717296Y430530D01*
X718312Y431546D01*
X717296D01*
X716280Y432562D01*
X715264Y431546D01*
X714248D01*
X715264Y430530D01*
X714248Y429514D01*
X715264D01*
X716280Y428498D01*
X704850Y438658D02*
X705866Y439674D01*
X706882D01*
X705866Y440690D01*
X706882Y441706D01*
X705866D01*
X704850Y442722D01*
X703834Y441706D01*
X702818D01*
X703834Y440690D01*
X702818Y439674D01*
X703834D01*
X704850Y438658D01*
X695960Y437388D02*
X696976Y438404D01*
X697992D01*
X696976Y439420D01*
X697992Y440436D01*
X696976D01*
X695960Y441452D01*
X694944Y440436D01*
X693928D01*
X694944Y439420D01*
X693928Y438404D01*
X694944D01*
X695960Y437388D01*
X704850Y447548D02*
X705866Y448564D01*
X706882D01*
X705866Y449580D01*
X706882Y450596D01*
X705866D01*
X704850Y451612D01*
X703834Y450596D01*
X702818D01*
X703834Y449580D01*
X702818Y448564D01*
X703834D01*
X704850Y447548D01*
Y429768D02*
X705866Y430784D01*
X706882D01*
X705866Y431800D01*
X706882Y432816D01*
X705866D01*
X704850Y433832D01*
X703834Y432816D01*
X702818D01*
X703834Y431800D01*
X702818Y430784D01*
X703834D01*
X704850Y429768D01*
Y420878D02*
X705866Y421894D01*
X706882D01*
X705866Y422910D01*
X706882Y423926D01*
X705866D01*
X704850Y424942D01*
X703834Y423926D01*
X702818D01*
X703834Y422910D01*
X702818Y421894D01*
X703834D01*
X704850Y420878D01*
X726440Y460248D02*
X727456Y461264D01*
X728472D01*
X727456Y462280D01*
X728472Y463296D01*
X727456D01*
X726440Y464312D01*
X725424Y463296D01*
X724408D01*
X725424Y462280D01*
X724408Y461264D01*
X725424D01*
X726440Y460248D01*
X665480Y389128D02*
X666496Y390144D01*
X667512D01*
X666496Y391160D01*
X667512Y392176D01*
X666496D01*
X665480Y393192D01*
X664464Y392176D01*
X663448D01*
X664464Y391160D01*
X663448Y390144D01*
X664464D01*
X665480Y389128D01*
X713740Y398018D02*
X714756Y399034D01*
X715772D01*
X714756Y400050D01*
X715772Y401066D01*
X714756D01*
X713740Y402082D01*
X712724Y401066D01*
X711708D01*
X712724Y400050D01*
X711708Y399034D01*
X712724D01*
X713740Y398018D01*
X669290Y409448D02*
X670306Y410464D01*
X671322D01*
X670306Y411480D01*
X671322Y412496D01*
X670306D01*
X669290Y413512D01*
X668274Y412496D01*
X667258D01*
X668274Y411480D01*
X667258Y410464D01*
X668274D01*
X669290Y409448D01*
X586740Y364998D02*
X587756Y366014D01*
X588772D01*
X587756Y367030D01*
X588772Y368046D01*
X587756D01*
X586740Y369062D01*
X585724Y368046D01*
X584708D01*
X585724Y367030D01*
X584708Y366014D01*
X585724D01*
X586740Y364998D01*
X806991Y306759D02*
X808007Y307775D01*
X809023D01*
X808007Y308791D01*
X809023Y309807D01*
X808007D01*
X806991Y310823D01*
X805975Y309807D01*
X804959D01*
X805975Y308791D01*
X804959Y307775D01*
X805975D01*
X806991Y306759D01*
X805180Y367538D02*
X806196Y368554D01*
X807212D01*
X806196Y369570D01*
X807212Y370586D01*
X806196D01*
X805180Y371602D01*
X804164Y370586D01*
X803148D01*
X804164Y369570D01*
X803148Y368554D01*
X804164D01*
X805180Y367538D01*
X715010Y275210D02*
X716026Y276225D01*
X717042D01*
X716026Y277241D01*
X717042Y278258D01*
X716026D01*
X715010Y279273D01*
X713994Y278258D01*
X712978D01*
X713994Y277241D01*
X712978Y276225D01*
X713994D01*
X715010Y275210D01*
X651510Y152908D02*
X652526Y153924D01*
X653542D01*
X652526Y154940D01*
X653542Y155956D01*
X652526D01*
X651510Y156972D01*
X650494Y155956D01*
X649478D01*
X650494Y154940D01*
X649478Y153924D01*
X650494D01*
X651510Y152908D01*
X617981Y213921D02*
X618997Y214937D01*
X620013D01*
X618997Y215953D01*
X620013Y216969D01*
X618997D01*
X617981Y217985D01*
X616965Y216969D01*
X615949D01*
X616965Y215953D01*
X615949Y214937D01*
X616965D01*
X617981Y213921D01*
X491946Y440473D02*
X492962Y441489D01*
X493978D01*
X492962Y442505D01*
X493978Y443521D01*
X492962D01*
X491946Y444537D01*
X490930Y443521D01*
X489914D01*
X490930Y442505D01*
X489914Y441489D01*
X490930D01*
X491946Y440473D01*
X527506Y515403D02*
X528522Y516419D01*
X529538D01*
X528522Y517435D01*
X529538Y518451D01*
X528522D01*
X527506Y519467D01*
X526490Y518451D01*
X525474D01*
X526490Y517435D01*
X525474Y516419D01*
X526490D01*
X527506Y515403D01*
X641350Y464058D02*
X642366Y465074D01*
X643382D01*
X642366Y466090D01*
X643382Y467106D01*
X642366D01*
X641350Y468122D01*
X640334Y467106D01*
X639318D01*
X640334Y466090D01*
X639318Y465074D01*
X640334D01*
X641350Y464058D01*
X925014Y289235D02*
X926030Y290250D01*
X927046D01*
X926030Y291266D01*
X927046Y292283D01*
X926030D01*
X925014Y293298D01*
X923998Y292283D01*
X922982D01*
X923998Y291266D01*
X922982Y290250D01*
X923998D01*
X925014Y289235D01*
X918474D02*
X919490Y290250D01*
X920506D01*
X919490Y291266D01*
X920506Y292283D01*
X919490D01*
X918474Y293298D01*
X917458Y292283D01*
X916442D01*
X917458Y291266D01*
X916442Y290250D01*
X917458D01*
X918474Y289235D01*
X911934D02*
X912950Y290250D01*
X913966D01*
X912950Y291266D01*
X913966Y292283D01*
X912950D01*
X911934Y293298D01*
X910918Y292283D01*
X909902D01*
X910918Y291266D01*
X909902Y290250D01*
X910918D01*
X911934Y289235D01*
X905394D02*
X906410Y290250D01*
X907426D01*
X906410Y291266D01*
X907426Y292283D01*
X906410D01*
X905394Y293298D01*
X904378Y292283D01*
X903362D01*
X904378Y291266D01*
X903362Y290250D01*
X904378D01*
X905394Y289235D01*
X898854D02*
X899870Y290250D01*
X900886D01*
X899870Y291266D01*
X900886Y292283D01*
X899870D01*
X898854Y293298D01*
X897838Y292283D01*
X896822D01*
X897838Y291266D01*
X896822Y290250D01*
X897838D01*
X898854Y289235D01*
X892314D02*
X893330Y290250D01*
X894346D01*
X893330Y291266D01*
X894346Y292283D01*
X893330D01*
X892314Y293298D01*
X891298Y292283D01*
X890282D01*
X891298Y291266D01*
X890282Y290250D01*
X891298D01*
X892314Y289235D01*
X885774D02*
X886790Y290250D01*
X887806D01*
X886790Y291266D01*
X887806Y292283D01*
X886790D01*
X885774Y293298D01*
X884758Y292283D01*
X883742D01*
X884758Y291266D01*
X883742Y290250D01*
X884758D01*
X885774Y289235D01*
X879234D02*
X880250Y290250D01*
X881266D01*
X880250Y291266D01*
X881266Y292283D01*
X880250D01*
X879234Y293298D01*
X878218Y292283D01*
X877202D01*
X878218Y291266D01*
X877202Y290250D01*
X878218D01*
X879234Y289235D01*
X879279Y262321D02*
X880295Y263337D01*
X881311D01*
X880295Y264353D01*
X881311Y265369D01*
X880295D01*
X879279Y266385D01*
X878263Y265369D01*
X877247D01*
X878263Y264353D01*
X877247Y263337D01*
X878263D01*
X879279Y262321D01*
X885819D02*
X886835Y263337D01*
X887851D01*
X886835Y264353D01*
X887851Y265369D01*
X886835D01*
X885819Y266385D01*
X884803Y265369D01*
X883787D01*
X884803Y264353D01*
X883787Y263337D01*
X884803D01*
X885819Y262321D01*
X892359D02*
X893375Y263337D01*
X894391D01*
X893375Y264353D01*
X894391Y265369D01*
X893375D01*
X892359Y266385D01*
X891343Y265369D01*
X890327D01*
X891343Y264353D01*
X890327Y263337D01*
X891343D01*
X892359Y262321D01*
X898899D02*
X899915Y263337D01*
X900931D01*
X899915Y264353D01*
X900931Y265369D01*
X899915D01*
X898899Y266385D01*
X897883Y265369D01*
X896867D01*
X897883Y264353D01*
X896867Y263337D01*
X897883D01*
X898899Y262321D01*
X905439D02*
X906455Y263337D01*
X907471D01*
X906455Y264353D01*
X907471Y265369D01*
X906455D01*
X905439Y266385D01*
X904423Y265369D01*
X903407D01*
X904423Y264353D01*
X903407Y263337D01*
X904423D01*
X905439Y262321D01*
X911979D02*
X912995Y263337D01*
X914011D01*
X912995Y264353D01*
X914011Y265369D01*
X912995D01*
X911979Y266385D01*
X910963Y265369D01*
X909947D01*
X910963Y264353D01*
X909947Y263337D01*
X910963D01*
X911979Y262321D01*
X918519D02*
X919535Y263337D01*
X920551D01*
X919535Y264353D01*
X920551Y265369D01*
X919535D01*
X918519Y266385D01*
X917503Y265369D01*
X916487D01*
X917503Y264353D01*
X916487Y263337D01*
X917503D01*
X918519Y262321D01*
X925059D02*
X926075Y263337D01*
X927091D01*
X926075Y264353D01*
X927091Y265369D01*
X926075D01*
X925059Y266385D01*
X924043Y265369D01*
X923027D01*
X924043Y264353D01*
X923027Y263337D01*
X924043D01*
X925059Y262321D01*
X929556Y257573D02*
X930572Y258589D01*
X931588D01*
X930572Y259605D01*
X931588Y260621D01*
X930572D01*
X929556Y261637D01*
X928540Y260621D01*
X927524D01*
X928540Y259605D01*
X927524Y258589D01*
X928540D01*
X929556Y257573D01*
X930701Y251134D02*
X931717Y252150D01*
X932733D01*
X931717Y253166D01*
X932733Y254182D01*
X931717D01*
X930701Y255198D01*
X929685Y254182D01*
X928669D01*
X929685Y253166D01*
X928669Y252150D01*
X929685D01*
X930701Y251134D01*
Y244594D02*
X931717Y245610D01*
X932733D01*
X931717Y246626D01*
X932733Y247642D01*
X931717D01*
X930701Y248658D01*
X929685Y247642D01*
X928669D01*
X929685Y246626D01*
X928669Y245610D01*
X929685D01*
X930701Y244594D01*
X928545Y238419D02*
X929561Y239435D01*
X930577D01*
X929561Y240451D01*
X930577Y241467D01*
X929561D01*
X928545Y242483D01*
X927529Y241467D01*
X926513D01*
X927529Y240451D01*
X926513Y239435D01*
X927529D01*
X928545Y238419D01*
X928708Y218941D02*
X929724Y219957D01*
X930740D01*
X929724Y220973D01*
X930740Y221989D01*
X929724D01*
X928708Y223005D01*
X927692Y221989D01*
X926676D01*
X927692Y220973D01*
X926676Y219957D01*
X927692D01*
X928708Y218941D01*
X931710Y213131D02*
X932726Y214147D01*
X933742D01*
X932726Y215163D01*
X933742Y216179D01*
X932726D01*
X931710Y217195D01*
X930694Y216179D01*
X929678D01*
X930694Y215163D01*
X929678Y214147D01*
X930694D01*
X931710Y213131D01*
X929912Y206843D02*
X930928Y207859D01*
X931944D01*
X930928Y208875D01*
X931944Y209891D01*
X930928D01*
X929912Y210907D01*
X928896Y209891D01*
X927880D01*
X928896Y208875D01*
X927880Y207859D01*
X928896D01*
X929912Y206843D01*
X930220Y200310D02*
X931236Y201326D01*
X932252D01*
X931236Y202342D01*
X932252Y203358D01*
X931236D01*
X930220Y204374D01*
X929204Y203358D01*
X928188D01*
X929204Y202342D01*
X928188Y201326D01*
X929204D01*
X930220Y200310D01*
X929817Y193783D02*
X930833Y194799D01*
X931849D01*
X930833Y195815D01*
X931849Y196831D01*
X930833D01*
X929817Y197847D01*
X928801Y196831D01*
X927785D01*
X928801Y195815D01*
X927785Y194799D01*
X928801D01*
X929817Y193783D01*
X930523Y187281D02*
X931539Y188297D01*
X932555D01*
X931539Y189313D01*
X932555Y190329D01*
X931539D01*
X930523Y191345D01*
X929507Y190329D01*
X928491D01*
X929507Y189313D01*
X928491Y188297D01*
X929507D01*
X930523Y187281D01*
X930114Y180754D02*
X931130Y181770D01*
X932146D01*
X931130Y182786D01*
X932146Y183802D01*
X931130D01*
X930114Y184818D01*
X929098Y183802D01*
X928082D01*
X929098Y182786D01*
X928082Y181770D01*
X929098D01*
X930114Y180754D01*
X929799Y161384D02*
X930815Y162400D01*
X931831D01*
X930815Y163416D01*
X931831Y164432D01*
X930815D01*
X929799Y165448D01*
X928783Y164432D01*
X927766D01*
X928783Y163416D01*
X927766Y162400D01*
X928783D01*
X929799Y161384D01*
X930480Y154880D02*
X931496Y155896D01*
X932512D01*
X931496Y156912D01*
X932512Y157928D01*
X931496D01*
X930480Y158944D01*
X929464Y157928D01*
X928448D01*
X929464Y156912D01*
X928448Y155896D01*
X929464D01*
X930480Y154880D01*
X930482Y148340D02*
X931498Y149356D01*
X932514D01*
X931498Y150372D01*
X932514Y151388D01*
X931498D01*
X930482Y152404D01*
X929466Y151388D01*
X928450D01*
X929466Y150372D01*
X928450Y149356D01*
X929466D01*
X930482Y148340D01*
X930610Y141801D02*
X931626Y142817D01*
X932642D01*
X931626Y143833D01*
X932642Y144849D01*
X931626D01*
X930610Y145865D01*
X929594Y144849D01*
X928578D01*
X929594Y143833D01*
X928578Y142817D01*
X929594D01*
X930610Y141801D01*
X959315Y143454D02*
X960331Y144470D01*
X961347D01*
X960331Y145486D01*
X961347Y146502D01*
X960331D01*
X959315Y147518D01*
X958299Y146502D01*
X957283D01*
X958299Y145486D01*
X957283Y144470D01*
X958299D01*
X959315Y143454D01*
Y149994D02*
X960331Y151010D01*
X961347D01*
X960331Y152026D01*
X961347Y153042D01*
X960331D01*
X959315Y154058D01*
X958299Y153042D01*
X957283D01*
X958299Y152026D01*
X957283Y151010D01*
X958299D01*
X959315Y149994D01*
X959167Y156532D02*
X960183Y157548D01*
X961199D01*
X960183Y158564D01*
X961199Y159580D01*
X960183D01*
X959167Y160596D01*
X958151Y159580D01*
X957135D01*
X958151Y158564D01*
X957135Y157548D01*
X958151D01*
X959167Y156532D01*
X959975Y163022D02*
X960991Y164038D01*
X962007D01*
X960991Y165054D01*
X962007Y166070D01*
X960991D01*
X959975Y167086D01*
X958959Y166070D01*
X957943D01*
X958959Y165054D01*
X957943Y164038D01*
X958959D01*
X959975Y163022D01*
X960401Y169548D02*
X961417Y170564D01*
X962433D01*
X961417Y171580D01*
X962433Y172596D01*
X961417D01*
X960401Y173612D01*
X959385Y172596D01*
X958369D01*
X959385Y171580D01*
X958369Y170564D01*
X959385D01*
X960401Y169548D01*
X960283Y176087D02*
X961299Y177103D01*
X962315D01*
X961299Y178119D01*
X962315Y179135D01*
X961299D01*
X960283Y180151D01*
X959267Y179135D01*
X958251D01*
X959267Y178119D01*
X958251Y177103D01*
X959267D01*
X960283Y176087D01*
X958623Y182413D02*
X959639Y183429D01*
X960655D01*
X959639Y184445D01*
X960655Y185461D01*
X959639D01*
X958623Y186477D01*
X957607Y185461D01*
X956591D01*
X957607Y184445D01*
X956591Y183429D01*
X957607D01*
X958623Y182413D01*
X960694Y188616D02*
X961710Y189632D01*
X962726D01*
X961710Y190648D01*
X962726Y191664D01*
X961710D01*
X960694Y192680D01*
X959678Y191664D01*
X958662D01*
X959678Y190648D01*
X958662Y189632D01*
X959678D01*
X960694Y188616D01*
X960856Y195154D02*
X961872Y196170D01*
X962888D01*
X961872Y197186D01*
X962888Y198202D01*
X961872D01*
X960856Y199218D01*
X959840Y198202D01*
X958824D01*
X959840Y197186D01*
X958824Y196170D01*
X959840D01*
X960856Y195154D01*
X960803Y201694D02*
X961819Y202710D01*
X962835D01*
X961819Y203726D01*
X962835Y204742D01*
X961819D01*
X960803Y205758D01*
X959787Y204742D01*
X958771D01*
X959787Y203726D01*
X958771Y202710D01*
X959787D01*
X960803Y201694D01*
X960746Y208234D02*
X961762Y209250D01*
X962778D01*
X961762Y210266D01*
X962778Y211282D01*
X961762D01*
X960746Y212298D01*
X959730Y211282D01*
X958714D01*
X959730Y210266D01*
X958714Y209250D01*
X959730D01*
X960746Y208234D01*
X960012Y214733D02*
X961028Y215749D01*
X962044D01*
X961028Y216765D01*
X962044Y217781D01*
X961028D01*
X960012Y218797D01*
X958996Y217781D01*
X957980D01*
X958996Y216765D01*
X957980Y215749D01*
X958996D01*
X960012Y214733D01*
X963461Y220289D02*
X964477Y221305D01*
X965493D01*
X964477Y222321D01*
X965493Y223337D01*
X964477D01*
X963461Y224353D01*
X962445Y223337D01*
X961429D01*
X962445Y222321D01*
X961429Y221305D01*
X962445D01*
X963461Y220289D01*
X963941Y226812D02*
X964957Y227828D01*
X965973D01*
X964957Y228844D01*
X965973Y229860D01*
X964957D01*
X963941Y230876D01*
X962925Y229860D01*
X961909D01*
X962925Y228844D01*
X961909Y227828D01*
X962925D01*
X963941Y226812D01*
Y233352D02*
X964957Y234368D01*
X965973D01*
X964957Y235384D01*
X965973Y236400D01*
X964957D01*
X963941Y237416D01*
X962925Y236400D01*
X961909D01*
X962925Y235384D01*
X961909Y234368D01*
X962925D01*
X963941Y233352D01*
X962520Y239735D02*
X963536Y240751D01*
X964552D01*
X963536Y241767D01*
X964552Y242783D01*
X963536D01*
X962520Y243799D01*
X961504Y242783D01*
X960488D01*
X961504Y241767D01*
X960488Y240751D01*
X961504D01*
X962520Y239735D01*
X959613Y245594D02*
X960629Y246610D01*
X961645D01*
X960629Y247626D01*
X961645Y248642D01*
X960629D01*
X959613Y249658D01*
X958597Y248642D01*
X957581D01*
X958597Y247626D01*
X957581Y246610D01*
X958597D01*
X959613Y245594D01*
X959632Y252134D02*
X960648Y253150D01*
X961665D01*
X960648Y254166D01*
X961665Y255182D01*
X960648D01*
X959632Y256198D01*
X958616Y255182D01*
X957600D01*
X958616Y254166D01*
X957600Y253150D01*
X958616D01*
X959632Y252134D01*
X960744Y258579D02*
X961760Y259595D01*
X962776D01*
X961760Y260611D01*
X962776Y261627D01*
X961760D01*
X960744Y262643D01*
X959728Y261627D01*
X958712D01*
X959728Y260611D01*
X958712Y259595D01*
X959728D01*
X960744Y258579D01*
X960981Y265114D02*
X961997Y266130D01*
X963013D01*
X961997Y267146D01*
X963013Y268162D01*
X961997D01*
X960981Y269178D01*
X959965Y268162D01*
X958949D01*
X959965Y267146D01*
X958949Y266130D01*
X959965D01*
X960981Y265114D01*
X960564Y271641D02*
X961580Y272657D01*
X962596D01*
X961580Y273673D01*
X962596Y274689D01*
X961580D01*
X960564Y275705D01*
X959548Y274689D01*
X958532D01*
X959548Y273673D01*
X958532Y272657D01*
X959548D01*
X960564Y271641D01*
X957191Y277244D02*
X958207Y278260D01*
X959223D01*
X958207Y279276D01*
X959223Y280292D01*
X958207D01*
X957191Y281308D01*
X956175Y280292D01*
X955159D01*
X956175Y279276D01*
X955159Y278260D01*
X956175D01*
X957191Y277244D01*
X951952Y281159D02*
X952968Y282174D01*
X953984D01*
X952968Y283190D01*
X953984Y284207D01*
X952968D01*
X951952Y285222D01*
X950936Y284207D01*
X949920D01*
X950936Y283190D01*
X949920Y282174D01*
X950936D01*
X951952Y281159D01*
X946928Y285345D02*
X947944Y286361D01*
X948960D01*
X947944Y287377D01*
X948960Y288393D01*
X947944D01*
X946928Y289409D01*
X945912Y288393D01*
X944896D01*
X945912Y287377D01*
X944896Y286361D01*
X945912D01*
X946928Y285345D01*
X940981Y288068D02*
X941997Y289084D01*
X943013D01*
X941997Y290100D01*
X943013Y291116D01*
X941997D01*
X940981Y292132D01*
X939965Y291116D01*
X938949D01*
X939965Y290100D01*
X938949Y289084D01*
X939965D01*
X940981Y288068D01*
X934529Y289137D02*
X935545Y290153D01*
X936561D01*
X935545Y291169D01*
X936561Y292185D01*
X935545D01*
X934529Y293201D01*
X933513Y292185D01*
X932497D01*
X933513Y291169D01*
X932497Y290153D01*
X933513D01*
X934529Y289137D01*
X925847Y340787D02*
X926863Y341803D01*
X927879D01*
X926863Y342819D01*
X927879Y343835D01*
X926863D01*
X925847Y344851D01*
X924831Y343835D01*
X923815D01*
X924831Y342819D01*
X923815Y341803D01*
X924831D01*
X925847Y340787D01*
X873877Y290468D02*
X874893Y291484D01*
X875909D01*
X874893Y292500D01*
X875909Y293516D01*
X874893D01*
X873877Y294532D01*
X872861Y293516D01*
X871845D01*
X872861Y292500D01*
X871845Y291484D01*
X872861D01*
X873877Y290468D01*
X886460Y300228D02*
X887476Y301244D01*
X888492D01*
X887476Y302260D01*
X888492Y303276D01*
X887476D01*
X886460Y304292D01*
X885444Y303276D01*
X884428D01*
X885444Y302260D01*
X884428Y301244D01*
X885444D01*
X886460Y300228D01*
X864209Y303433D02*
X865225Y304449D01*
X866241D01*
X865225Y305465D01*
X866241Y306481D01*
X865225D01*
X864209Y307497D01*
X863193Y306481D01*
X862177D01*
X863193Y305465D01*
X862177Y304449D01*
X863193D01*
X864209Y303433D01*
X873783Y255765D02*
X874799Y256780D01*
X875815D01*
X874799Y257796D01*
X875815Y258813D01*
X874799D01*
X873783Y259828D01*
X872767Y258813D01*
X871751D01*
X872767Y257796D01*
X871751Y256780D01*
X872767D01*
X873783Y255765D01*
X685840Y208828D02*
X686856Y209844D01*
X687872D01*
X686856Y210860D01*
X687872Y211876D01*
X686856D01*
X685840Y212892D01*
X684824Y211876D01*
X683808D01*
X684824Y210860D01*
X683808Y209844D01*
X684824D01*
X685840Y208828D01*
X682030Y185968D02*
X683046Y186984D01*
X684062D01*
X683046Y188000D01*
X684062Y189016D01*
X683046D01*
X682030Y190032D01*
X681014Y189016D01*
X679998D01*
X681014Y188000D01*
X679998Y186984D01*
X681014D01*
X682030Y185968D01*
X668447Y258745D02*
X669463Y259761D01*
X670479D01*
X669463Y260777D01*
X670479Y261793D01*
X669463D01*
X668447Y262809D01*
X667431Y261793D01*
X666415D01*
X667431Y260777D01*
X666415Y259761D01*
X667431D01*
X668447Y258745D01*
X682284D02*
X683300Y259761D01*
X684316D01*
X683300Y260777D01*
X684316Y261793D01*
X683300D01*
X682284Y262809D01*
X681268Y261793D01*
X680252D01*
X681268Y260777D01*
X680252Y259761D01*
X681268D01*
X682284Y258745D01*
X681990Y248158D02*
X683006Y249174D01*
X684022D01*
X683006Y250190D01*
X684022Y251206D01*
X683006D01*
X681990Y252222D01*
X680974Y251206D01*
X679958D01*
X680974Y250190D01*
X679958Y249174D01*
X680974D01*
X681990Y248158D01*
X731520Y266862D02*
X732536Y267878D01*
X733552D01*
X732536Y268894D01*
X733552Y269910D01*
X732536D01*
X731520Y270926D01*
X730504Y269910D01*
X729488D01*
X730504Y268894D01*
X729488Y267878D01*
X730504D01*
X731520Y266862D01*
X673100Y243078D02*
X674116Y244094D01*
X675132D01*
X674116Y245110D01*
X675132Y246126D01*
X674116D01*
X673100Y247142D01*
X672084Y246126D01*
X671068D01*
X672084Y245110D01*
X671068Y244094D01*
X672084D01*
X673100Y243078D01*
X565510Y331068D02*
X566526Y332085D01*
X567542D01*
X566526Y333101D01*
X567542Y334117D01*
X566526D01*
X565510Y335132D01*
X564495Y334117D01*
X563479D01*
X564495Y333101D01*
X563479Y332085D01*
X564495D01*
X565510Y331068D01*
X615950Y263398D02*
X616966Y264414D01*
X617982D01*
X616966Y265430D01*
X617982Y266446D01*
X616966D01*
X615950Y267462D01*
X614934Y266446D01*
X613918D01*
X614934Y265430D01*
X613918Y264414D01*
X614934D01*
X615950Y263398D01*
X660760Y235819D02*
X661777Y236835D01*
X662793D01*
X661777Y237850D01*
X662793Y238867D01*
X661777D01*
X660760Y239883D01*
X659744Y238867D01*
X658728D01*
X659744Y237850D01*
X658728Y236835D01*
X659744D01*
X660760Y235819D01*
X623570Y265938D02*
X624586Y266954D01*
X625602D01*
X624586Y267970D01*
X625602Y268986D01*
X624586D01*
X623570Y270002D01*
X622554Y268986D01*
X621538D01*
X622554Y267970D01*
X621538Y266954D01*
X622554D01*
X623570Y265938D01*
X632460Y339598D02*
X633476Y340614D01*
X634492D01*
X633476Y341630D01*
X634492Y342646D01*
X633476D01*
X632460Y343662D01*
X631444Y342646D01*
X630428D01*
X631444Y341630D01*
X630428Y340614D01*
X631444D01*
X632460Y339598D01*
X618490Y306578D02*
X619506Y307594D01*
X620522D01*
X619506Y308610D01*
X620522Y309626D01*
X619506D01*
X618490Y310642D01*
X617474Y309626D01*
X616458D01*
X617474Y308610D01*
X616458Y307594D01*
X617474D01*
X618490Y306578D01*
X552398Y364505D02*
X553414Y365521D01*
X554430D01*
X553414Y366536D01*
X554430Y367552D01*
X553414D01*
X552398Y368568D01*
X551382Y367552D01*
X550366D01*
X551382Y366536D01*
X550366Y365521D01*
X551382D01*
X552398Y364505D01*
X523240Y377698D02*
X524256Y378714D01*
X525272D01*
X524256Y379730D01*
X525272Y380746D01*
X524256D01*
X523240Y381762D01*
X522224Y380746D01*
X521208D01*
X522224Y379730D01*
X521208Y378714D01*
X522224D01*
X523240Y377698D01*
X561340Y340868D02*
X562356Y341884D01*
X563372D01*
X562356Y342900D01*
X563372Y343916D01*
X562356D01*
X561340Y344932D01*
X560324Y343916D01*
X559308D01*
X560324Y342900D01*
X559308Y341884D01*
X560324D01*
X561340Y340868D01*
X658970Y251098D02*
X659986Y252114D01*
X661002D01*
X659986Y253130D01*
X661002Y254146D01*
X659986D01*
X658970Y255162D01*
X657954Y254146D01*
X656938D01*
X657954Y253130D01*
X656938Y252114D01*
X657954D01*
X658970Y251098D01*
X665029Y252111D02*
X666045Y253127D01*
X667061D01*
X666045Y254142D01*
X667061Y255159D01*
X666045D01*
X665029Y256175D01*
X664013Y255159D01*
X662997D01*
X664013Y254142D01*
X662997Y253127D01*
X664013D01*
X665029Y252111D01*
X619760Y124968D02*
X620776Y125984D01*
X621792D01*
X620776Y127000D01*
X621792Y128016D01*
X620776D01*
X619760Y129032D01*
X618744Y128016D01*
X617728D01*
X618744Y127000D01*
X617728Y125984D01*
X618744D01*
X619760Y124968D01*
X631190Y123618D02*
X632206Y124634D01*
X633222D01*
X632206Y125650D01*
X633222Y126666D01*
X632206D01*
X631190Y127682D01*
X630174Y126666D01*
X629158D01*
X630174Y125650D01*
X629158Y124634D01*
X630174D01*
X631190Y123618D01*
X708459Y192479D02*
X709475Y193494D01*
X710491D01*
X709475Y194510D01*
X710491Y195527D01*
X709475D01*
X708459Y196542D01*
X707443Y195527D01*
X706428D01*
X707443Y194510D01*
X706428Y193494D01*
X707443D01*
X708459Y192479D01*
X560070Y166878D02*
X561086Y167894D01*
X562102D01*
X561086Y168910D01*
X562102Y169926D01*
X561086D01*
X560070Y170942D01*
X559054Y169926D01*
X558038D01*
X559054Y168910D01*
X558038Y167894D01*
X559054D01*
X560070Y166878D01*
X547949Y144713D02*
X548965Y145729D01*
X549981D01*
X548965Y146745D01*
X549981Y147761D01*
X548965D01*
X547949Y148777D01*
X546933Y147761D01*
X545917D01*
X546933Y146745D01*
X545917Y145729D01*
X546933D01*
X547949Y144713D01*
X554994Y149098D02*
X556010Y150114D01*
X557026D01*
X556010Y151130D01*
X557026Y152146D01*
X556010D01*
X554994Y153162D01*
X553978Y152146D01*
X552962D01*
X553978Y151130D01*
X552962Y150114D01*
X553978D01*
X554994Y149098D01*
X580390Y93218D02*
X581406Y94234D01*
X582422D01*
X581406Y95250D01*
X582422Y96266D01*
X581406D01*
X580390Y97282D01*
X579374Y96266D01*
X578358D01*
X579374Y95250D01*
X578358Y94234D01*
X579374D01*
X580390Y93218D01*
X735330Y460248D02*
X736346Y461264D01*
X737362D01*
X736346Y462280D01*
X737362Y463296D01*
X736346D01*
X735330Y464312D01*
X734314Y463296D01*
X733298D01*
X734314Y462280D01*
X733298Y461264D01*
X734314D01*
X735330Y460248D01*
X726440Y469138D02*
X727456Y470154D01*
X728472D01*
X727456Y471170D01*
X728472Y472186D01*
X727456D01*
X726440Y473202D01*
X725424Y472186D01*
X724408D01*
X725424Y471170D01*
X724408Y470154D01*
X725424D01*
X726440Y469138D01*
X734117Y476973D02*
X735133Y477989D01*
X736149D01*
X735133Y479005D01*
X736149Y480021D01*
X735133D01*
X734117Y481037D01*
X733101Y480021D01*
X732085D01*
X733101Y479005D01*
X732085Y477989D01*
X733101D01*
X734117Y476973D01*
X697234Y334518D02*
X698250Y335534D01*
X699266D01*
X698250Y336550D01*
X699266Y337566D01*
X698250D01*
X697234Y338582D01*
X696218Y337566D01*
X695202D01*
X696218Y336550D01*
X695202Y335534D01*
X696218D01*
X697234Y334518D01*
X798830Y450088D02*
X799846Y451104D01*
X800862D01*
X799846Y452120D01*
X800862Y453136D01*
X799846D01*
X798830Y454152D01*
X797814Y453136D01*
X796798D01*
X797814Y452120D01*
X796798Y451104D01*
X797814D01*
X798830Y450088D01*
X804830Y419608D02*
X805846Y420624D01*
X806862D01*
X805846Y421640D01*
X806862Y422656D01*
X805846D01*
X804830Y423672D01*
X803814Y422656D01*
X802798D01*
X803814Y421640D01*
X802798Y420624D01*
X803814D01*
X804830Y419608D01*
X805180Y409448D02*
X806196Y410464D01*
X807212D01*
X806196Y411480D01*
X807212Y412496D01*
X806196D01*
X805180Y413512D01*
X804164Y412496D01*
X803148D01*
X804164Y411480D01*
X803148Y410464D01*
X804164D01*
X805180Y409448D01*
X779780Y450088D02*
X780796Y451104D01*
X781812D01*
X780796Y452120D01*
X781812Y453136D01*
X780796D01*
X779780Y454152D01*
X778764Y453136D01*
X777748D01*
X778764Y452120D01*
X777748Y451104D01*
X778764D01*
X779780Y450088D01*
X461010Y411988D02*
X462026Y413004D01*
X463042D01*
X462026Y414020D01*
X463042Y415036D01*
X462026D01*
X461010Y416052D01*
X459994Y415036D01*
X458978D01*
X459994Y414020D01*
X458978Y413004D01*
X459994D01*
X461010Y411988D01*
X754318Y274766D02*
X755334Y275782D01*
X756350D01*
X755334Y276798D01*
X756350Y277814D01*
X755334D01*
X754318Y278830D01*
X753302Y277814D01*
X752286D01*
X753302Y276798D01*
X752286Y275782D01*
X753302D01*
X754318Y274766D01*
X752941Y283215D02*
X753957Y284231D01*
X754973D01*
X753957Y285247D01*
X754973Y286263D01*
X753957D01*
X752941Y287279D01*
X751925Y286263D01*
X750909D01*
X751925Y285247D01*
X750909Y284231D01*
X751925D01*
X752941Y283215D01*
X757352Y256033D02*
X758367Y257049D01*
X759383D01*
X758367Y258065D01*
X759383Y259081D01*
X758367D01*
X757352Y260097D01*
X756336Y259081D01*
X755320D01*
X756336Y258065D01*
X755320Y257049D01*
X756336D01*
X757352Y256033D01*
X763999Y268478D02*
X765015Y269494D01*
X766031D01*
X765015Y270510D01*
X766031Y271526D01*
X765015D01*
X763999Y272542D01*
X762983Y271526D01*
X761967D01*
X762983Y270510D01*
X761967Y269494D01*
X762983D01*
X763999Y268478D01*
X471174Y390398D02*
X472190Y391414D01*
X473206D01*
X472190Y392430D01*
X473206Y393446D01*
X472190D01*
X471174Y394462D01*
X470158Y393446D01*
X469142D01*
X470158Y392430D01*
X469142Y391414D01*
X470158D01*
X471174Y390398D01*
X701040Y290068D02*
X702056Y291084D01*
X703072D01*
X702056Y292100D01*
X703072Y293116D01*
X702056D01*
X701040Y294132D01*
X700024Y293116D01*
X699008D01*
X700024Y292100D01*
X699008Y291084D01*
X700024D01*
X701040Y290068D01*
X688340D02*
X689356Y291084D01*
X690372D01*
X689356Y292100D01*
X690372Y293116D01*
X689356D01*
X688340Y294132D01*
X687324Y293116D01*
X686308D01*
X687324Y292100D01*
X686308Y291084D01*
X687324D01*
X688340Y290068D01*
X655470Y277368D02*
X656486Y278384D01*
X657502D01*
X656486Y279400D01*
X657502Y280416D01*
X656486D01*
X655470Y281432D01*
X654454Y280416D01*
X653438D01*
X654454Y279400D01*
X653438Y278384D01*
X654454D01*
X655470Y277368D01*
X836934Y202979D02*
X837950Y203995D01*
X838966D01*
X837950Y205011D01*
X838966Y206027D01*
X837950D01*
X836934Y207043D01*
X835918Y206027D01*
X834902D01*
X835918Y205011D01*
X834902Y203995D01*
X835918D01*
X836934Y202979D01*
X801370Y207518D02*
X802386Y208534D01*
X803402D01*
X802386Y209550D01*
X803402Y210566D01*
X802386D01*
X801370Y211582D01*
X800354Y210566D01*
X799338D01*
X800354Y209550D01*
X799338Y208534D01*
X800354D01*
X801370Y207518D01*
X400400Y94604D02*
X401416Y95620D01*
X402432D01*
X401416Y96636D01*
X402432Y97652D01*
X401416D01*
X400400Y98668D01*
X399384Y97652D01*
X398368D01*
X399384Y96636D01*
X398368Y95620D01*
X399384D01*
X400400Y94604D01*
X386080Y72898D02*
X387096Y73914D01*
X388112D01*
X387096Y74930D01*
X388112Y75946D01*
X387096D01*
X386080Y76962D01*
X385064Y75946D01*
X384048D01*
X385064Y74930D01*
X384048Y73914D01*
X385064D01*
X386080Y72898D01*
X420742Y270639D02*
X421758Y271655D01*
X422774D01*
X421758Y272671D01*
X422774Y273687D01*
X421758D01*
X420742Y274703D01*
X419726Y273687D01*
X418710D01*
X419726Y272671D01*
X418710Y271655D01*
X419726D01*
X420742Y270639D01*
X401320Y345948D02*
X402336Y346964D01*
X403352D01*
X402336Y347980D01*
X403352Y348996D01*
X402336D01*
X401320Y350012D01*
X400304Y348996D01*
X399288D01*
X400304Y347980D01*
X399288Y346964D01*
X400304D01*
X401320Y345948D01*
X509276Y345954D02*
X510292Y346970D01*
X511308D01*
X510292Y347986D01*
X511308Y349002D01*
X510292D01*
X509276Y350018D01*
X508260Y349002D01*
X507244D01*
X508260Y347986D01*
X507244Y346970D01*
X508260D01*
X509276Y345954D01*
X543560Y415798D02*
X544576Y416814D01*
X545592D01*
X544576Y417830D01*
X545592Y418846D01*
X544576D01*
X543560Y419862D01*
X542544Y418846D01*
X541528D01*
X542544Y417830D01*
X541528Y416814D01*
X542544D01*
X543560Y415798D01*
X553720D02*
X554736Y416814D01*
X555752D01*
X554736Y417830D01*
X555752Y418846D01*
X554736D01*
X553720Y419862D01*
X552704Y418846D01*
X551688D01*
X552704Y417830D01*
X551688Y416814D01*
X552704D01*
X553720Y415798D01*
X543560Y405638D02*
X544576Y406654D01*
X545592D01*
X544576Y407670D01*
X545592Y408686D01*
X544576D01*
X543560Y409702D01*
X542544Y408686D01*
X541528D01*
X542544Y407670D01*
X541528Y406654D01*
X542544D01*
X543560Y405638D01*
X553720D02*
X554736Y406654D01*
X555752D01*
X554736Y407670D01*
X555752Y408686D01*
X554736D01*
X553720Y409702D01*
X552704Y408686D01*
X551688D01*
X552704Y407670D01*
X551688Y406654D01*
X552704D01*
X553720Y405638D01*
X684530Y98498D02*
X685546Y99515D01*
X686562D01*
X685546Y100531D01*
X686562Y101546D01*
X685546D01*
X684530Y102563D01*
X683514Y101546D01*
X682498D01*
X683514Y100531D01*
X682498Y99515D01*
X683514D01*
X684530Y98498D01*
X683260Y72898D02*
X684276Y73914D01*
X685292D01*
X684276Y74930D01*
X685292Y75946D01*
X684276D01*
X683260Y76962D01*
X682244Y75946D01*
X681228D01*
X682244Y74930D01*
X681228Y73914D01*
X682244D01*
X683260Y72898D01*
X786130Y372618D02*
X787146Y373634D01*
X788162D01*
X787146Y374650D01*
X788162Y375666D01*
X787146D01*
X786130Y376682D01*
X785114Y375666D01*
X784098D01*
X785114Y374650D01*
X784098Y373634D01*
X785114D01*
X786130Y372618D01*
X662940Y484378D02*
X663956Y485394D01*
X664972D01*
X663956Y486410D01*
X664972Y487426D01*
X663956D01*
X662940Y488442D01*
X661924Y487426D01*
X660908D01*
X661924Y486410D01*
X660908Y485394D01*
X661924D01*
X662940Y484378D01*
Y494538D02*
X663956Y495554D01*
X664972D01*
X663956Y496570D01*
X664972Y497586D01*
X663956D01*
X662940Y498602D01*
X661924Y497586D01*
X660908D01*
X661924Y496570D01*
X660908Y495554D01*
X661924D01*
X662940Y494538D01*
X652780Y484378D02*
X653796Y485394D01*
X654812D01*
X653796Y486410D01*
X654812Y487426D01*
X653796D01*
X652780Y488442D01*
X651764Y487426D01*
X650748D01*
X651764Y486410D01*
X650748Y485394D01*
X651764D01*
X652780Y484378D01*
X642620Y494538D02*
X643636Y495554D01*
X644652D01*
X643636Y496570D01*
X644652Y497586D01*
X643636D01*
X642620Y498602D01*
X641604Y497586D01*
X640588D01*
X641604Y496570D01*
X640588Y495554D01*
X641604D01*
X642620Y494538D01*
X652780D02*
X653796Y495554D01*
X654812D01*
X653796Y496570D01*
X654812Y497586D01*
X653796D01*
X652780Y498602D01*
X651764Y497586D01*
X650748D01*
X651764Y496570D01*
X650748Y495554D01*
X651764D01*
X652780Y494538D01*
X642620Y484378D02*
X643636Y485394D01*
X644652D01*
X643636Y486410D01*
X644652Y487426D01*
X643636D01*
X642620Y488442D01*
X641604Y487426D01*
X640588D01*
X641604Y486410D01*
X640588Y485394D01*
X641604D01*
X642620Y484378D01*
X929901Y429490D02*
X930917Y430506D01*
X931933D01*
X930917Y431522D01*
X931933Y432538D01*
X930917D01*
X929901Y433554D01*
X928885Y432538D01*
X927869D01*
X928885Y431522D01*
X927869Y430506D01*
X928885D01*
X929901Y429490D01*
Y420600D02*
X930917Y421616D01*
X931933D01*
X930917Y422632D01*
X931933Y423648D01*
X930917D01*
X929901Y424664D01*
X928885Y423648D01*
X927869D01*
X928885Y422632D01*
X927869Y421616D01*
X928885D01*
X929901Y420600D01*
X920750Y429768D02*
X921766Y430784D01*
X922782D01*
X921766Y431800D01*
X922782Y432816D01*
X921766D01*
X920750Y433832D01*
X919734Y432816D01*
X918718D01*
X919734Y431800D01*
X918718Y430784D01*
X919734D01*
X920750Y429768D01*
Y420878D02*
X921766Y421894D01*
X922782D01*
X921766Y422910D01*
X922782Y423926D01*
X921766D01*
X920750Y424942D01*
X919734Y423926D01*
X918718D01*
X919734Y422910D01*
X918718Y421894D01*
X919734D01*
X920750Y420878D01*
X792275Y422429D02*
X793291Y423445D01*
X794307D01*
X793291Y424461D01*
X794307Y425477D01*
X793291D01*
X792275Y426493D01*
X791259Y425477D01*
X790243D01*
X791259Y424461D01*
X790243Y423445D01*
X791259D01*
X792275Y422429D01*
X782115D02*
X783131Y423445D01*
X784147D01*
X783131Y424461D01*
X784147Y425477D01*
X783131D01*
X782115Y426493D01*
X781099Y425477D01*
X780083D01*
X781099Y424461D01*
X780083Y423445D01*
X781099D01*
X782115Y422429D01*
X792480Y433578D02*
X793496Y434594D01*
X794512D01*
X793496Y435610D01*
X794512Y436626D01*
X793496D01*
X792480Y437642D01*
X791464Y436626D01*
X790448D01*
X791464Y435610D01*
X790448Y434594D01*
X791464D01*
X792480Y433578D01*
X782115Y433859D02*
X783131Y434875D01*
X784147D01*
X783131Y435891D01*
X784147Y436907D01*
X783131D01*
X782115Y437923D01*
X781099Y436907D01*
X780083D01*
X781099Y435891D01*
X780083Y434875D01*
X781099D01*
X782115Y433859D01*
X731520Y428498D02*
X732536Y429514D01*
X733552D01*
X732536Y430530D01*
X733552Y431546D01*
X732536D01*
X731520Y432562D01*
X730504Y431546D01*
X729488D01*
X730504Y430530D01*
X729488Y429514D01*
X730504D01*
X731520Y428498D01*
X723900D02*
X724916Y429514D01*
X725932D01*
X724916Y430530D01*
X725932Y431546D01*
X724916D01*
X723900Y432562D01*
X722884Y431546D01*
X721868D01*
X722884Y430530D01*
X721868Y429514D01*
X722884D01*
X723900Y428498D01*
X721360Y398018D02*
X722376Y399034D01*
X723392D01*
X722376Y400050D01*
X723392Y401066D01*
X722376D01*
X721360Y402082D01*
X720344Y401066D01*
X719328D01*
X720344Y400050D01*
X719328Y399034D01*
X720344D01*
X721360Y398018D01*
X728980D02*
X729996Y399034D01*
X731012D01*
X729996Y400050D01*
X731012Y401066D01*
X729996D01*
X728980Y402082D01*
X727964Y401066D01*
X726948D01*
X727964Y400050D01*
X726948Y399034D01*
X727964D01*
X728980Y398018D01*
X707394Y354838D02*
X708410Y355854D01*
X709426D01*
X708410Y356870D01*
X709426Y357886D01*
X708410D01*
X707394Y358902D01*
X706378Y357886D01*
X705362D01*
X706378Y356870D01*
X705362Y355854D01*
X706378D01*
X707394Y354838D01*
X761298Y289231D02*
X762314Y290247D01*
X763330D01*
X762314Y291263D01*
X763330Y292279D01*
X762314D01*
X761298Y293295D01*
X760282Y292279D01*
X759266D01*
X760282Y291263D01*
X759266Y290247D01*
X760282D01*
X761298Y289231D01*
X669290Y438658D02*
X670306Y439674D01*
X671322D01*
X670306Y440690D01*
X671322Y441706D01*
X670306D01*
X669290Y442722D01*
X668274Y441706D01*
X667258D01*
X668274Y440690D01*
X667258Y439674D01*
X668274D01*
X669290Y438658D01*
X863600Y260858D02*
X864616Y261874D01*
X865632D01*
X864616Y262890D01*
X865632Y263906D01*
X864616D01*
X863600Y264922D01*
X862584Y263906D01*
X861568D01*
X862584Y262890D01*
X861568Y261874D01*
X862584D01*
X863600Y260858D01*
X899160Y193548D02*
X900176Y194564D01*
X901192D01*
X900176Y195580D01*
X901192Y196596D01*
X900176D01*
X899160Y197612D01*
X898144Y196596D01*
X897128D01*
X898144Y195580D01*
X897128Y194564D01*
X898144D01*
X899160Y193548D01*
X863367Y142984D02*
X864383Y144000D01*
X865399D01*
X864383Y145016D01*
X865399Y146032D01*
X864383D01*
X863367Y147048D01*
X862351Y146032D01*
X861335D01*
X862351Y145016D01*
X861335Y144000D01*
X862351D01*
X863367Y142984D01*
X854714Y140208D02*
X855730Y141224D01*
X856746D01*
X855730Y142240D01*
X856746Y143256D01*
X855730D01*
X854714Y144272D01*
X853698Y143256D01*
X852682D01*
X853698Y142240D01*
X852682Y141224D01*
X853698D01*
X854714Y140208D01*
X869954Y144018D02*
X870970Y145034D01*
X871986D01*
X870970Y146050D01*
X871986Y147066D01*
X870970D01*
X869954Y148082D01*
X868938Y147066D01*
X867922D01*
X868938Y146050D01*
X867922Y145034D01*
X868938D01*
X869954Y144018D01*
X909320Y156718D02*
X910336Y157734D01*
X911352D01*
X910336Y158750D01*
X911352Y159766D01*
X910336D01*
X909320Y160782D01*
X908304Y159766D01*
X907288D01*
X908304Y158750D01*
X907288Y157734D01*
X908304D01*
X909320Y156718D01*
X751840Y93218D02*
X752856Y94234D01*
X753872D01*
X752856Y95250D01*
X753872Y96266D01*
X752856D01*
X751840Y97282D01*
X750824Y96266D01*
X749808D01*
X750824Y95250D01*
X749808Y94234D01*
X750824D01*
X751840Y93218D01*
X759273Y93027D02*
X760288Y94043D01*
X761304D01*
X760288Y95059D01*
X761304Y96075D01*
X760288D01*
X759273Y97091D01*
X758257Y96075D01*
X757241D01*
X758257Y95059D01*
X757241Y94043D01*
X758257D01*
X759273Y93027D01*
X734969Y30628D02*
X735985Y31644D01*
X737001D01*
X735985Y32659D01*
X737001Y33675D01*
X735985D01*
X734969Y34692D01*
X733953Y33675D01*
X732937D01*
X733953Y32659D01*
X732937Y31644D01*
X733953D01*
X734969Y30628D01*
X777240Y29838D02*
X778256Y30854D01*
X779272D01*
X778256Y31870D01*
X779272Y32886D01*
X778256D01*
X777240Y33902D01*
X776224Y32886D01*
X775208D01*
X776224Y31870D01*
X775208Y30854D01*
X776224D01*
X777240Y29838D01*
X909320Y193548D02*
X910336Y194564D01*
X911352D01*
X910336Y195580D01*
X911352Y196596D01*
X910336D01*
X909320Y197612D01*
X908304Y196596D01*
X907288D01*
X908304Y195580D01*
X907288Y194564D01*
X908304D01*
X909320Y193548D01*
X899160Y157988D02*
X900176Y159004D01*
X901192D01*
X900176Y160020D01*
X901192Y161036D01*
X900176D01*
X899160Y162052D01*
X898144Y161036D01*
X897128D01*
X898144Y160020D01*
X897128Y159004D01*
X898144D01*
X899160Y157988D01*
X894080Y211328D02*
X895096Y212344D01*
X896112D01*
X895096Y213360D01*
X896112Y214376D01*
X895096D01*
X894080Y215392D01*
X893064Y214376D01*
X892048D01*
X893064Y213360D01*
X892048Y212344D01*
X893064D01*
X894080Y211328D01*
X768350Y23368D02*
X769366Y24384D01*
X770382D01*
X769366Y25400D01*
X770382Y26416D01*
X769366D01*
X768350Y27432D01*
X767334Y26416D01*
X766318D01*
X767334Y25400D01*
X766318Y24384D01*
X767334D01*
X768350Y23368D01*
X759460Y32258D02*
X760476Y33274D01*
X761492D01*
X760476Y34290D01*
X761492Y35306D01*
X760476D01*
X759460Y36322D01*
X758444Y35306D01*
X757428D01*
X758444Y34290D01*
X757428Y33274D01*
X758444D01*
X759460Y32258D01*
X792480D02*
X793496Y33274D01*
X794512D01*
X793496Y34290D01*
X794512Y35306D01*
X793496D01*
X792480Y36322D01*
X791464Y35306D01*
X790448D01*
X791464Y34290D01*
X790448Y33274D01*
X791464D01*
X792480Y32258D01*
X909320Y211328D02*
X910336Y212344D01*
X911352D01*
X910336Y213360D01*
X911352Y214376D01*
X910336D01*
X909320Y215392D01*
X908304Y214376D01*
X907288D01*
X908304Y213360D01*
X907288Y212344D01*
X908304D01*
X909320Y211328D01*
X646430Y23368D02*
X647446Y24384D01*
X648462D01*
X647446Y25400D01*
X648462Y26416D01*
X647446D01*
X646430Y27432D01*
X645414Y26416D01*
X644398D01*
X645414Y25400D01*
X644398Y24384D01*
X645414D01*
X646430Y23368D01*
X593090D02*
X594106Y24384D01*
X595122D01*
X594106Y25400D01*
X595122Y26416D01*
X594106D01*
X593090Y27432D01*
X592074Y26416D01*
X591058D01*
X592074Y25400D01*
X591058Y24384D01*
X592074D01*
X593090Y23368D01*
X862330Y232918D02*
X863346Y233934D01*
X864362D01*
X863346Y234950D01*
X864362Y235966D01*
X863346D01*
X862330Y236982D01*
X861314Y235966D01*
X860298D01*
X861314Y234950D01*
X860298Y233934D01*
X861314D01*
X862330Y232918D01*
X621030Y29718D02*
X622046Y30734D01*
X623062D01*
X622046Y31750D01*
X623062Y32766D01*
X622046D01*
X621030Y33782D01*
X620014Y32766D01*
X618998D01*
X620014Y31750D01*
X618998Y30734D01*
X620014D01*
X621030Y29718D01*
Y18288D02*
X622046Y19304D01*
X623062D01*
X622046Y20320D01*
X623062Y21336D01*
X622046D01*
X621030Y22352D01*
X620014Y21336D01*
X618998D01*
X620014Y20320D01*
X618998Y19304D01*
X620014D01*
X621030Y18288D01*
X610870Y29718D02*
X611886Y30734D01*
X612902D01*
X611886Y31750D01*
X612902Y32766D01*
X611886D01*
X610870Y33782D01*
X609854Y32766D01*
X608838D01*
X609854Y31750D01*
X608838Y30734D01*
X609854D01*
X610870Y29718D01*
X609604Y82158D02*
X610620Y83174D01*
X611636D01*
X610620Y84190D01*
X611636Y85206D01*
X610620D01*
X609604Y86222D01*
X608588Y85206D01*
X607572D01*
X608588Y84190D01*
X607572Y83174D01*
X608588D01*
X609604Y82158D01*
X548644Y117348D02*
X549660Y118364D01*
X550676D01*
X549660Y119380D01*
X550676Y120396D01*
X549660D01*
X548644Y121412D01*
X547628Y120396D01*
X546612D01*
X547628Y119380D01*
X546612Y118364D01*
X547628D01*
X548644Y117348D01*
X839470Y305092D02*
X840486Y306108D01*
X841502D01*
X840486Y307124D01*
X841502Y308140D01*
X840486D01*
X839470Y309156D01*
X838454Y308140D01*
X837438D01*
X838454Y307124D01*
X837438Y306108D01*
X838454D01*
X839470Y305092D01*
X832352Y305046D02*
X833368Y306061D01*
X834384D01*
X833368Y307078D01*
X834384Y308093D01*
X833368D01*
X832352Y309109D01*
X831336Y308093D01*
X830320D01*
X831336Y307078D01*
X830320Y306061D01*
X831336D01*
X832352Y305046D01*
X791214Y306578D02*
X792230Y307594D01*
X793246D01*
X792230Y308610D01*
X793246Y309626D01*
X792230D01*
X791214Y310642D01*
X790198Y309626D01*
X789182D01*
X790198Y308610D01*
X789182Y307594D01*
X790198D01*
X791214Y306578D01*
X782324D02*
X783340Y307594D01*
X784356D01*
X783340Y308610D01*
X784356Y309626D01*
X783340D01*
X782324Y310642D01*
X781308Y309626D01*
X780292D01*
X781308Y308610D01*
X780292Y307594D01*
X781308D01*
X782324Y306578D01*
X773434D02*
X774450Y307594D01*
X775466D01*
X774450Y308610D01*
X775466Y309626D01*
X774450D01*
X773434Y310642D01*
X772418Y309626D01*
X771402D01*
X772418Y308610D01*
X771402Y307594D01*
X772418D01*
X773434Y306578D01*
X741680Y386588D02*
X742696Y387604D01*
X743712D01*
X742696Y388620D01*
X743712Y389636D01*
X742696D01*
X741680Y390652D01*
X740664Y389636D01*
X739648D01*
X740664Y388620D01*
X739648Y387604D01*
X740664D01*
X741680Y386588D01*
X830580Y185928D02*
X831596Y186944D01*
X832612D01*
X831596Y187960D01*
X832612Y188976D01*
X831596D01*
X830580Y189992D01*
X829564Y188976D01*
X828548D01*
X829564Y187960D01*
X828548Y186944D01*
X829564D01*
X830580Y185928D01*
X806454Y184658D02*
X807470Y185674D01*
X808486D01*
X807470Y186690D01*
X808486Y187706D01*
X807470D01*
X806454Y188722D01*
X805438Y187706D01*
X804422D01*
X805438Y186690D01*
X804422Y185674D01*
X805438D01*
X806454Y184658D01*
X828840Y202907D02*
X829856Y203923D01*
X830872D01*
X829856Y204939D01*
X830872Y205955D01*
X829856D01*
X828840Y206971D01*
X827824Y205955D01*
X826808D01*
X827824Y204939D01*
X826808Y203923D01*
X827824D01*
X828840Y202907D01*
X817840Y203708D02*
X818856Y204724D01*
X819872D01*
X818856Y205740D01*
X819872Y206756D01*
X818856D01*
X817840Y207772D01*
X816824Y206756D01*
X815808D01*
X816824Y205740D01*
X815808Y204724D01*
X816824D01*
X817840Y203708D01*
X516648Y357673D02*
X517664Y358689D01*
X518680D01*
X517664Y359705D01*
X518680Y360721D01*
X517664D01*
X516648Y361737D01*
X515632Y360721D01*
X514616D01*
X515632Y359705D01*
X514616Y358689D01*
X515632D01*
X516648Y357673D01*
X547370Y386588D02*
X548386Y387604D01*
X549402D01*
X548386Y388620D01*
X549402Y389636D01*
X548386D01*
X547370Y390652D01*
X546354Y389636D01*
X545338D01*
X546354Y388620D01*
X545338Y387604D01*
X546354D01*
X547370Y386588D01*
X523240Y394208D02*
X524256Y395224D01*
X525272D01*
X524256Y396240D01*
X525272Y397256D01*
X524256D01*
X523240Y398272D01*
X522224Y397256D01*
X521208D01*
X522224Y396240D01*
X521208Y395224D01*
X522224D01*
X523240Y394208D01*
X745490Y109728D02*
X746506Y110744D01*
X747522D01*
X746506Y111760D01*
X747522Y112776D01*
X746506D01*
X745490Y113792D01*
X744474Y112776D01*
X743458D01*
X744474Y111760D01*
X743458Y110744D01*
X744474D01*
X745490Y109728D01*
X778510Y140208D02*
X779526Y141224D01*
X780542D01*
X779526Y142240D01*
X780542Y143256D01*
X779526D01*
X778510Y144272D01*
X777494Y143256D01*
X776478D01*
X777494Y142240D01*
X776478Y141224D01*
X777494D01*
X778510Y140208D01*
X923290Y144018D02*
X924306Y145034D01*
X925322D01*
X924306Y146050D01*
X925322Y147066D01*
X924306D01*
X923290Y148082D01*
X922274Y147066D01*
X921258D01*
X922274Y146050D01*
X921258Y145034D01*
X922274D01*
X923290Y144018D01*
X915670D02*
X916686Y145034D01*
X917702D01*
X916686Y146050D01*
X917702Y147066D01*
X916686D01*
X915670Y148082D01*
X914654Y147066D01*
X913638D01*
X914654Y146050D01*
X913638Y145034D01*
X914654D01*
X915670Y144018D01*
X908050D02*
X909066Y145034D01*
X910082D01*
X909066Y146050D01*
X910082Y147066D01*
X909066D01*
X908050Y148082D01*
X907034Y147066D01*
X906018D01*
X907034Y146050D01*
X906018Y145034D01*
X907034D01*
X908050Y144018D01*
X862330Y357378D02*
X863346Y358394D01*
X864362D01*
X863346Y359410D01*
X864362Y360426D01*
X863346D01*
X862330Y361442D01*
X861314Y360426D01*
X860298D01*
X861314Y359410D01*
X860298Y358394D01*
X861314D01*
X862330Y357378D01*
X910590Y377698D02*
X911606Y378714D01*
X912622D01*
X911606Y379730D01*
X912622Y380746D01*
X911606D01*
X910590Y381762D01*
X909574Y380746D01*
X908558D01*
X909574Y379730D01*
X908558Y378714D01*
X909574D01*
X910590Y377698D01*
X953770Y398018D02*
X954786Y399034D01*
X955802D01*
X954786Y400050D01*
X955802Y401066D01*
X954786D01*
X953770Y402082D01*
X952754Y401066D01*
X951738D01*
X952754Y400050D01*
X951738Y399034D01*
X952754D01*
X953770Y398018D01*
X457204Y86638D02*
X458220Y87654D01*
X459236D01*
X458220Y88670D01*
X459236Y89686D01*
X458220D01*
X457204Y90702D01*
X456188Y89686D01*
X455172D01*
X456188Y88670D01*
X455172Y87654D01*
X456188D01*
X457204Y86638D01*
X863600Y423777D02*
X864616Y424793D01*
X865632D01*
X864616Y425809D01*
X865632Y426825D01*
X864616D01*
X863600Y427841D01*
X862584Y426825D01*
X861568D01*
X862584Y425809D01*
X861568Y424793D01*
X862584D01*
X863600Y423777D01*
X840740Y384048D02*
X841756Y385064D01*
X842772D01*
X841756Y386080D01*
X842772Y387096D01*
X841756D01*
X840740Y388112D01*
X839724Y387096D01*
X838708D01*
X839724Y386080D01*
X838708Y385064D01*
X839724D01*
X840740Y384048D01*
X822964Y464058D02*
X823980Y465074D01*
X824996D01*
X823980Y466090D01*
X824996Y467106D01*
X823980D01*
X822964Y468122D01*
X821948Y467106D01*
X820932D01*
X821948Y466090D01*
X820932Y465074D01*
X821948D01*
X822964Y464058D01*
X935566Y335787D02*
X936582Y336803D01*
X937598D01*
X936582Y337819D01*
X937598Y338835D01*
X936582D01*
X935566Y339851D01*
X934550Y338835D01*
X933534D01*
X934550Y337819D01*
X933534Y336803D01*
X934550D01*
X935566Y335787D01*
X861060Y254508D02*
X862076Y255524D01*
X863092D01*
X862076Y256540D01*
X863092Y257556D01*
X862076D01*
X861060Y258572D01*
X860044Y257556D01*
X859028D01*
X860044Y256540D01*
X859028Y255524D01*
X860044D01*
X861060Y254508D01*
X928370Y380238D02*
X929386Y381254D01*
X930402D01*
X929386Y382270D01*
X930402Y383286D01*
X929386D01*
X928370Y384302D01*
X927354Y383286D01*
X926338D01*
X927354Y382270D01*
X926338Y381254D01*
X927354D01*
X928370Y380238D01*
X737874Y109728D02*
X738890Y110744D01*
X739906D01*
X738890Y111760D01*
X739906Y112776D01*
X738890D01*
X737874Y113792D01*
X736858Y112776D01*
X735842D01*
X736858Y111760D01*
X735842Y110744D01*
X736858D01*
X737874Y109728D01*
X787213Y140017D02*
X788229Y141033D01*
X789245D01*
X788229Y142049D01*
X789245Y143065D01*
X788229D01*
X787213Y144081D01*
X786197Y143065D01*
X785181D01*
X786197Y142049D01*
X785181Y141033D01*
X786197D01*
X787213Y140017D01*
X793562Y117157D02*
X794578Y118173D01*
X795594D01*
X794578Y119189D01*
X795594Y120205D01*
X794578D01*
X793562Y121221D01*
X792546Y120205D01*
X791531D01*
X792546Y119189D01*
X791531Y118173D01*
X792546D01*
X793562Y117157D01*
X860872Y246697D02*
X861889Y247713D01*
X862905D01*
X861889Y248729D01*
X862905Y249745D01*
X861889D01*
X860872Y250761D01*
X859856Y249745D01*
X858840D01*
X859856Y248729D01*
X858840Y247713D01*
X859856D01*
X860872Y246697D01*
X823909Y207875D02*
X824925Y208891D01*
X825941D01*
X824925Y209907D01*
X825941Y210923D01*
X824925D01*
X823909Y211939D01*
X822893Y210923D01*
X821877D01*
X822893Y209907D01*
X821877Y208891D01*
X822893D01*
X823909Y207875D01*
X811454Y205800D02*
X812470Y206816D01*
X813486D01*
X812470Y207832D01*
X813486Y208848D01*
X812470D01*
X811454Y209864D01*
X810438Y208848D01*
X809422D01*
X810438Y207832D01*
X809422Y206816D01*
X810438D01*
X811454Y205800D01*
X948690Y370078D02*
X949706Y371094D01*
X950722D01*
X949706Y372110D01*
X950722Y373126D01*
X949706D01*
X948690Y374142D01*
X947674Y373126D01*
X946658D01*
X947674Y372110D01*
X946658Y371094D01*
X947674D01*
X948690Y370078D01*
X958850D02*
X959866Y371094D01*
X960882D01*
X959866Y372110D01*
X960882Y373126D01*
X959866D01*
X958850Y374142D01*
X957834Y373126D01*
X956818D01*
X957834Y372110D01*
X956818Y371094D01*
X957834D01*
X958850Y370078D01*
Y358648D02*
X959866Y359664D01*
X960882D01*
X959866Y360680D01*
X960882Y361696D01*
X959866D01*
X958850Y362712D01*
X957834Y361696D01*
X956818D01*
X957834Y360680D01*
X956818Y359664D01*
X957834D01*
X958850Y358648D01*
X948690D02*
X949706Y359664D01*
X950722D01*
X949706Y360680D01*
X950722Y361696D01*
X949706D01*
X948690Y362712D01*
X947674Y361696D01*
X946658D01*
X947674Y360680D01*
X946658Y359664D01*
X947674D01*
X948690Y358648D01*
X963930Y142748D02*
X964946Y143764D01*
X965962D01*
X964946Y144780D01*
X965962Y145796D01*
X964946D01*
X963930Y146812D01*
X962914Y145796D01*
X961898D01*
X962914Y144780D01*
X961898Y143764D01*
X962914D01*
X963930Y142748D01*
X812800Y474218D02*
X813816Y475234D01*
X814832D01*
X813816Y476250D01*
X814832Y477266D01*
X813816D01*
X812800Y478282D01*
X811784Y477266D01*
X810768D01*
X811784Y476250D01*
X810768Y475234D01*
X811784D01*
X812800Y474218D01*
X822960D02*
X823976Y475234D01*
X824992D01*
X823976Y476250D01*
X824992Y477266D01*
X823976D01*
X822960Y478282D01*
X821944Y477266D01*
X820928D01*
X821944Y476250D01*
X820928Y475234D01*
X821944D01*
X822960Y474218D01*
X812804Y464058D02*
X813820Y465074D01*
X814836D01*
X813820Y466090D01*
X814836Y467106D01*
X813820D01*
X812804Y468122D01*
X811788Y467106D01*
X810772D01*
X811788Y466090D01*
X810772Y465074D01*
X811788D01*
X812804Y464058D01*
X928374Y493268D02*
X929390Y494284D01*
X930406D01*
X929390Y495300D01*
X930406Y496316D01*
X929390D01*
X928374Y497332D01*
X927358Y496316D01*
X926342D01*
X927358Y495300D01*
X926342Y494284D01*
X927358D01*
X928374Y493268D01*
X631190Y182118D02*
X632206Y183134D01*
X633222D01*
X632206Y184150D01*
X633222Y185166D01*
X632206D01*
X631190Y186182D01*
X630174Y185166D01*
X629158D01*
X630174Y184150D01*
X629158Y183134D01*
X630174D01*
X631190Y182118D01*
X755654Y227838D02*
X756670Y228854D01*
X757686D01*
X756670Y229870D01*
X757686Y230886D01*
X756670D01*
X755654Y231902D01*
X754638Y230886D01*
X753622D01*
X754638Y229870D01*
X753622Y228854D01*
X754638D01*
X755654Y227838D01*
X730250Y386588D02*
X731266Y387604D01*
X732282D01*
X731266Y388620D01*
X732282Y389636D01*
X731266D01*
X730250Y390652D01*
X729234Y389636D01*
X728218D01*
X729234Y388620D01*
X728218Y387604D01*
X729234D01*
X730250Y386588D01*
X538484Y127508D02*
X539500Y128524D01*
X540516D01*
X539500Y129540D01*
X540516Y130556D01*
X539500D01*
X538484Y131572D01*
X537468Y130556D01*
X536452D01*
X537468Y129540D01*
X536452Y128524D01*
X537468D01*
X538484Y127508D01*
X511814Y136398D02*
X512830Y137414D01*
X513846D01*
X512830Y138430D01*
X513846Y139446D01*
X512830D01*
X511814Y140462D01*
X510798Y139446D01*
X509782D01*
X510798Y138430D01*
X509782Y137414D01*
X510798D01*
X511814Y136398D01*
X504194Y188468D02*
X505210Y189484D01*
X506226D01*
X505210Y190500D01*
X506226Y191516D01*
X505210D01*
X504194Y192532D01*
X503178Y191516D01*
X502162D01*
X503178Y190500D01*
X502162Y189484D01*
X503178D01*
X504194Y188468D01*
X506734Y442468D02*
X507750Y443484D01*
X508766D01*
X507750Y444500D01*
X508766Y445516D01*
X507750D01*
X506734Y446532D01*
X505718Y445516D01*
X504702D01*
X505718Y444500D01*
X504702Y443484D01*
X505718D01*
X506734Y442468D01*
X511814Y387858D02*
X512830Y388874D01*
X513846D01*
X512830Y389890D01*
X513846Y390906D01*
X512830D01*
X511814Y391922D01*
X510798Y390906D01*
X509782D01*
X510798Y389890D01*
X509782Y388874D01*
X510798D01*
X511814Y387858D01*
X495304Y267208D02*
X496320Y268224D01*
X497336D01*
X496320Y269240D01*
X497336Y270256D01*
X496320D01*
X495304Y271272D01*
X494288Y270256D01*
X493272D01*
X494288Y269240D01*
X493272Y268224D01*
X494288D01*
X495304Y267208D01*
X505464D02*
X506480Y268224D01*
X507496D01*
X506480Y269240D01*
X507496Y270256D01*
X506480D01*
X505464Y271272D01*
X504448Y270256D01*
X503432D01*
X504448Y269240D01*
X503432Y268224D01*
X504448D01*
X505464Y267208D01*
Y255778D02*
X506480Y256794D01*
X507496D01*
X506480Y257810D01*
X507496Y258826D01*
X506480D01*
X505464Y259842D01*
X504448Y258826D01*
X503432D01*
X504448Y257810D01*
X503432Y256794D01*
X504448D01*
X505464Y255778D01*
X495304D02*
X496320Y256794D01*
X497336D01*
X496320Y257810D01*
X497336Y258826D01*
X496320D01*
X495304Y259842D01*
X494288Y258826D01*
X493272D01*
X494288Y257810D01*
X493272Y256794D01*
X494288D01*
X495304Y255778D01*
X462284Y130048D02*
X463300Y131064D01*
X464316D01*
X463300Y132080D01*
X464316Y133096D01*
X463300D01*
X462284Y134112D01*
X461268Y133096D01*
X460252D01*
X461268Y132080D01*
X460252Y131064D01*
X461268D01*
X462284Y130048D01*
X472444D02*
X473460Y131064D01*
X474476D01*
X473460Y132080D01*
X474476Y133096D01*
X473460D01*
X472444Y134112D01*
X471428Y133096D01*
X470412D01*
X471428Y132080D01*
X470412Y131064D01*
X471428D01*
X472444Y130048D01*
Y141478D02*
X473460Y142494D01*
X474476D01*
X473460Y143510D01*
X474476Y144526D01*
X473460D01*
X472444Y145542D01*
X471428Y144526D01*
X470412D01*
X471428Y143510D01*
X470412Y142494D01*
X471428D01*
X472444Y141478D01*
X462284D02*
X463300Y142494D01*
X464316D01*
X463300Y143510D01*
X464316Y144526D01*
X463300D01*
X462284Y145542D01*
X461268Y144526D01*
X460252D01*
X461268Y143510D01*
X460252Y142494D01*
X461268D01*
X462284Y141478D01*
X450067Y172873D02*
X451083Y173890D01*
X452099D01*
X451083Y174905D01*
X452099Y175921D01*
X451083D01*
X450067Y176938D01*
X449051Y175921D01*
X448035D01*
X449051Y174905D01*
X448035Y173890D01*
X449051D01*
X450067Y172873D01*
X461067Y170688D02*
X462083Y171704D01*
X463099D01*
X462083Y172720D01*
X463099Y173736D01*
X462083D01*
X461067Y174752D01*
X460051Y173736D01*
X459035D01*
X460051Y172720D01*
X459035Y171704D01*
X460051D01*
X461067Y170688D01*
X439967Y167873D02*
X440983Y168890D01*
X441999D01*
X440983Y169905D01*
X441999Y170921D01*
X440983D01*
X439967Y171938D01*
X438951Y170921D01*
X437935D01*
X438951Y169905D01*
X437935Y168890D01*
X438951D01*
X439967Y167873D01*
X477520Y531368D02*
X478536Y532384D01*
X479552D01*
X478536Y533400D01*
X479552Y534416D01*
X478536D01*
X477520Y535432D01*
X476504Y534416D01*
X475488D01*
X476504Y533400D01*
X475488Y532384D01*
X476504D01*
X477520Y531368D01*
X488950Y521208D02*
X489966Y522224D01*
X490982D01*
X489966Y523240D01*
X490982Y524256D01*
X489966D01*
X488950Y525272D01*
X487934Y524256D01*
X486918D01*
X487934Y523240D01*
X486918Y522224D01*
X487934D01*
X488950Y521208D01*
Y531368D02*
X489966Y532384D01*
X490982D01*
X489966Y533400D01*
X490982Y534416D01*
X489966D01*
X488950Y535432D01*
X487934Y534416D01*
X486918D01*
X487934Y533400D01*
X486918Y532384D01*
X487934D01*
X488950Y531368D01*
X477520Y521208D02*
X478536Y522224D01*
X479552D01*
X478536Y523240D01*
X479552Y524256D01*
X478536D01*
X477520Y525272D01*
X476504Y524256D01*
X475488D01*
X476504Y523240D01*
X475488Y522224D01*
X476504D01*
X477520Y521208D01*
X697234Y375158D02*
X698250Y376174D01*
X699266D01*
X698250Y377190D01*
X699266Y378206D01*
X698250D01*
X697234Y379222D01*
X696218Y378206D01*
X695202D01*
X696218Y377190D01*
X695202Y376174D01*
X696218D01*
X697234Y375158D01*
Y364998D02*
X698250Y366014D01*
X699266D01*
X698250Y367030D01*
X699266Y368046D01*
X698250D01*
X697234Y369062D01*
X696218Y368046D01*
X695202D01*
X696218Y367030D01*
X695202Y366014D01*
X696218D01*
X697234Y364998D01*
Y354838D02*
X698250Y355854D01*
X699266D01*
X698250Y356870D01*
X699266Y357886D01*
X698250D01*
X697234Y358902D01*
X696218Y357886D01*
X695202D01*
X696218Y356870D01*
X695202Y355854D01*
X696218D01*
X697234Y354838D01*
Y344678D02*
X698250Y345694D01*
X699266D01*
X698250Y346710D01*
X699266Y347726D01*
X698250D01*
X697234Y348742D01*
X696218Y347726D01*
X695202D01*
X696218Y346710D01*
X695202Y345694D01*
X696218D01*
X697234Y344678D01*
X815340Y419608D02*
X816356Y420624D01*
X817372D01*
X816356Y421640D01*
X817372Y422656D01*
X816356D01*
X815340Y423672D01*
X814324Y422656D01*
X813308D01*
X814324Y421640D01*
X813308Y420624D01*
X814324D01*
X815340Y419608D01*
Y409448D02*
X816356Y410464D01*
X817372D01*
X816356Y411480D01*
X817372Y412496D01*
X816356D01*
X815340Y413512D01*
X814324Y412496D01*
X813308D01*
X814324Y411480D01*
X813308Y410464D01*
X814324D01*
X815340Y409448D01*
X427994Y411988D02*
X429010Y413004D01*
X430026D01*
X429010Y414020D01*
X430026Y415036D01*
X429010D01*
X427994Y416052D01*
X426978Y415036D01*
X425962D01*
X426978Y414020D01*
X425962Y413004D01*
X426978D01*
X427994Y411988D01*
X438154D02*
X439170Y413004D01*
X440186D01*
X439170Y414020D01*
X440186Y415036D01*
X439170D01*
X438154Y416052D01*
X437138Y415036D01*
X436122D01*
X437138Y414020D01*
X436122Y413004D01*
X437138D01*
X438154Y411988D01*
Y400558D02*
X439170Y401574D01*
X440186D01*
X439170Y402590D01*
X440186Y403606D01*
X439170D01*
X438154Y404622D01*
X437138Y403606D01*
X436122D01*
X437138Y402590D01*
X436122Y401574D01*
X437138D01*
X438154Y400558D01*
X427994D02*
X429010Y401574D01*
X430026D01*
X429010Y402590D01*
X430026Y403606D01*
X429010D01*
X427994Y404622D01*
X426978Y403606D01*
X425962D01*
X426978Y402590D01*
X425962Y401574D01*
X426978D01*
X427994Y400558D01*
X415294Y375158D02*
X416310Y376174D01*
X417326D01*
X416310Y377190D01*
X417326Y378206D01*
X416310D01*
X415294Y379222D01*
X414278Y378206D01*
X413262D01*
X414278Y377190D01*
X413262Y376174D01*
X414278D01*
X415294Y375158D01*
X425454D02*
X426470Y376174D01*
X427486D01*
X426470Y377190D01*
X427486Y378206D01*
X426470D01*
X425454Y379222D01*
X424438Y378206D01*
X423422D01*
X424438Y377190D01*
X423422Y376174D01*
X424438D01*
X425454Y375158D01*
Y363728D02*
X426470Y364744D01*
X427486D01*
X426470Y365760D01*
X427486Y366776D01*
X426470D01*
X425454Y367792D01*
X424438Y366776D01*
X423422D01*
X424438Y365760D01*
X423422Y364744D01*
X424438D01*
X425454Y363728D01*
X415294D02*
X416310Y364744D01*
X417326D01*
X416310Y365760D01*
X417326Y366776D01*
X416310D01*
X415294Y367792D01*
X414278Y366776D01*
X413262D01*
X414278Y365760D01*
X413262Y364744D01*
X414278D01*
X415294Y363728D01*
X704854Y220218D02*
X705870Y221234D01*
X706886D01*
X705870Y222250D01*
X706886Y223266D01*
X705870D01*
X704854Y224282D01*
X703838Y223266D01*
X702822D01*
X703838Y222250D01*
X702822Y221234D01*
X703838D01*
X704854Y220218D01*
X694694D02*
X695710Y221234D01*
X696726D01*
X695710Y222250D01*
X696726Y223266D01*
X695710D01*
X694694Y224282D01*
X693678Y223266D01*
X692662D01*
X693678Y222250D01*
X692662Y221234D01*
X693678D01*
X694694Y220218D01*
X610870Y18288D02*
X611886Y19304D01*
X612902D01*
X611886Y20320D01*
X612902Y21336D01*
X611886D01*
X610870Y22352D01*
X609854Y21336D01*
X608838D01*
X609854Y20320D01*
X608838Y19304D01*
X609854D01*
X610870Y18288D01*
X521974Y36068D02*
X522990Y37084D01*
X524006D01*
X522990Y38100D01*
X524006Y39116D01*
X522990D01*
X521974Y40132D01*
X520958Y39116D01*
X519942D01*
X520958Y38100D01*
X519942Y37084D01*
X520958D01*
X521974Y36068D01*
X532134D02*
X533150Y37084D01*
X534166D01*
X533150Y38100D01*
X534166Y39116D01*
X533150D01*
X532134Y40132D01*
X531118Y39116D01*
X530102D01*
X531118Y38100D01*
X530102Y37084D01*
X531118D01*
X532134Y36068D01*
Y47498D02*
X533150Y48514D01*
X534166D01*
X533150Y49530D01*
X534166Y50546D01*
X533150D01*
X532134Y51562D01*
X531118Y50546D01*
X530102D01*
X531118Y49530D01*
X530102Y48514D01*
X531118D01*
X532134Y47498D01*
X521974D02*
X522990Y48514D01*
X524006D01*
X522990Y49530D01*
X524006Y50546D01*
X522990D01*
X521974Y51562D01*
X520958Y50546D01*
X519942D01*
X520958Y49530D01*
X519942Y48514D01*
X520958D01*
X521974Y47498D01*
X386084Y254508D02*
X387100Y255524D01*
X388116D01*
X387100Y256540D01*
X388116Y257556D01*
X387100D01*
X386084Y258572D01*
X385068Y257556D01*
X384052D01*
X385068Y256540D01*
X384052Y255524D01*
X385068D01*
X386084Y254508D01*
X396244D02*
X397260Y255524D01*
X398276D01*
X397260Y256540D01*
X398276Y257556D01*
X397260D01*
X396244Y258572D01*
X395228Y257556D01*
X394212D01*
X395228Y256540D01*
X394212Y255524D01*
X395228D01*
X396244Y254508D01*
Y265938D02*
X397260Y266954D01*
X398276D01*
X397260Y267970D01*
X398276Y268986D01*
X397260D01*
X396244Y270002D01*
X395228Y268986D01*
X394212D01*
X395228Y267970D01*
X394212Y266954D01*
X395228D01*
X396244Y265938D01*
X386084D02*
X387100Y266954D01*
X388116D01*
X387100Y267970D01*
X388116Y268986D01*
X387100D01*
X386084Y270002D01*
X385068Y268986D01*
X384052D01*
X385068Y267970D01*
X384052Y266954D01*
X385068D01*
X386084Y265938D01*
X416564Y110998D02*
X417580Y112014D01*
X418596D01*
X417580Y113030D01*
X418596Y114046D01*
X417580D01*
X416564Y115062D01*
X415548Y114046D01*
X414532D01*
X415548Y113030D01*
X414532Y112014D01*
X415548D01*
X416564Y110998D01*
X426724D02*
X427740Y112014D01*
X428756D01*
X427740Y113030D01*
X428756Y114046D01*
X427740D01*
X426724Y115062D01*
X425708Y114046D01*
X424692D01*
X425708Y113030D01*
X424692Y112014D01*
X425708D01*
X426724Y110998D01*
Y122428D02*
X427740Y123444D01*
X428756D01*
X427740Y124460D01*
X428756Y125476D01*
X427740D01*
X426724Y126492D01*
X425708Y125476D01*
X424692D01*
X425708Y124460D01*
X424692Y123444D01*
X425708D01*
X426724Y122428D01*
X416564D02*
X417580Y123444D01*
X418596D01*
X417580Y124460D01*
X418596Y125476D01*
X417580D01*
X416564Y126492D01*
X415548Y125476D01*
X414532D01*
X415548Y124460D01*
X414532Y123444D01*
X415548D01*
X416564Y122428D01*
X404195Y506299D02*
X405211Y507315D01*
X406227D01*
X405211Y508331D01*
X406227Y509347D01*
X405211D01*
X404195Y510363D01*
X403179Y509347D01*
X402163D01*
X403179Y508331D01*
X402163Y507315D01*
X403179D01*
X404195Y506299D01*
X542128Y111164D02*
X543144Y112180D01*
X544160D01*
X543144Y113196D01*
X544160Y114212D01*
X543144D01*
X542128Y115228D01*
X541112Y114212D01*
X540096D01*
X541112Y113196D01*
X540096Y112180D01*
X541112D01*
X542128Y111164D01*
X729201Y244565D02*
X730217Y245581D01*
X731233D01*
X730217Y246597D01*
X731233Y247613D01*
X730217D01*
X729201Y248629D01*
X728185Y247613D01*
X727169D01*
X728185Y246597D01*
X727169Y245581D01*
X728185D01*
X729201Y244565D01*
X707970Y364862D02*
X708986Y365878D01*
X710002D01*
X708986Y366894D01*
X710002Y367910D01*
X708986D01*
X707970Y368926D01*
X706954Y367910D01*
X705938D01*
X706954Y366894D01*
X705938Y365878D01*
X706954D01*
X707970Y364862D01*
X853444Y149098D02*
X854460Y150114D01*
X855476D01*
X854460Y151130D01*
X855476Y152146D01*
X854460D01*
X853444Y153162D01*
X852428Y152146D01*
X851412D01*
X852428Y151130D01*
X851412Y150114D01*
X852428D01*
X853444Y149098D01*
X505464Y329438D02*
X506480Y330454D01*
X507496D01*
X506480Y331470D01*
X507496Y332486D01*
X506480D01*
X505464Y333502D01*
X504448Y332486D01*
X503432D01*
X504448Y331470D01*
X503432Y330454D01*
X504448D01*
X505464Y329438D01*
X454664Y347218D02*
X455680Y348234D01*
X456696D01*
X455680Y349250D01*
X456696Y350266D01*
X455680D01*
X454664Y351282D01*
X453648Y350266D01*
X452632D01*
X453648Y349250D01*
X452632Y348234D01*
X453648D01*
X454664Y347218D01*
X431191Y346990D02*
X432207Y348005D01*
X433223D01*
X432207Y349021D01*
X433223Y350037D01*
X432207D01*
X431191Y351054D01*
X430175Y350037D01*
X429159D01*
X430175Y349021D01*
X429159Y348005D01*
X430175D01*
X431191Y346990D01*
X424184Y95758D02*
X425200Y96774D01*
X426216D01*
X425200Y97790D01*
X426216Y98806D01*
X425200D01*
X424184Y99822D01*
X423168Y98806D01*
X422152D01*
X423168Y97790D01*
X422152Y96774D01*
X423168D01*
X424184Y95758D01*
X431724Y96753D02*
X432740Y97769D01*
X433756D01*
X432740Y98785D01*
X433756Y99801D01*
X432740D01*
X431724Y100817D01*
X430708Y99801D01*
X429692D01*
X430708Y98785D01*
X429692Y97769D01*
X430708D01*
X431724Y96753D01*
X411484Y97028D02*
X412500Y98044D01*
X413516D01*
X412500Y99060D01*
X413516Y100076D01*
X412500D01*
X411484Y101092D01*
X410468Y100076D01*
X409452D01*
X410468Y99060D01*
X409452Y98044D01*
X410468D01*
X411484Y97028D01*
X471174Y161798D02*
X472190Y162814D01*
X473206D01*
X472190Y163830D01*
X473206Y164846D01*
X472190D01*
X471174Y165862D01*
X470158Y164846D01*
X469142D01*
X470158Y163830D01*
X469142Y162814D01*
X470158D01*
X471174Y161798D01*
X355604Y326898D02*
X356620Y327914D01*
X357636D01*
X356620Y328930D01*
X357636Y329946D01*
X356620D01*
X355604Y330962D01*
X354588Y329946D01*
X353572D01*
X354588Y328930D01*
X353572Y327914D01*
X354588D01*
X355604Y326898D01*
X328934Y320548D02*
X329950Y321564D01*
X330966D01*
X329950Y322580D01*
X330966Y323596D01*
X329950D01*
X328934Y324612D01*
X327918Y323596D01*
X326902D01*
X327918Y322580D01*
X326902Y321564D01*
X327918D01*
X328934Y320548D01*
X426716Y167873D02*
X427732Y168890D01*
X428748D01*
X427732Y169905D01*
X428748Y170921D01*
X427732D01*
X426716Y171938D01*
X425700Y170921D01*
X424684D01*
X425700Y169905D01*
X424684Y168890D01*
X425700D01*
X426716Y167873D01*
X715014Y220218D02*
X716030Y221234D01*
X717046D01*
X716030Y222250D01*
X717046Y223266D01*
X716030D01*
X715014Y224282D01*
X713998Y223266D01*
X712982D01*
X713998Y222250D01*
X712982Y221234D01*
X713998D01*
X715014Y220218D01*
X459744Y380238D02*
X460760Y381254D01*
X461776D01*
X460760Y382270D01*
X461776Y383286D01*
X460760D01*
X459744Y384302D01*
X458728Y383286D01*
X457712D01*
X458728Y382270D01*
X457712Y381254D01*
X458728D01*
X459744Y380238D01*
X707394Y344678D02*
X708410Y345694D01*
X709426D01*
X708410Y346710D01*
X709426Y347726D01*
X708410D01*
X707394Y348742D01*
X706378Y347726D01*
X705362D01*
X706378Y346710D01*
X705362Y345694D01*
X706378D01*
X707394Y344678D01*
Y334518D02*
X708410Y335534D01*
X709426D01*
X708410Y336550D01*
X709426Y337566D01*
X708410D01*
X707394Y338582D01*
X706378Y337566D01*
X705362D01*
X706378Y336550D01*
X705362Y335534D01*
X706378D01*
X707394Y334518D01*
X900434Y144018D02*
X901450Y145034D01*
X902466D01*
X901450Y146050D01*
X902466Y147066D01*
X901450D01*
X900434Y148082D01*
X899418Y147066D01*
X898402D01*
X899418Y146050D01*
X898402Y145034D01*
X899418D01*
X900434Y144018D01*
X892814D02*
X893830Y145034D01*
X894846D01*
X893830Y146050D01*
X894846Y147066D01*
X893830D01*
X892814Y148082D01*
X891798Y147066D01*
X890782D01*
X891798Y146050D01*
X890782Y145034D01*
X891798D01*
X892814Y144018D01*
X885194D02*
X886210Y145034D01*
X887226D01*
X886210Y146050D01*
X887226Y147066D01*
X886210D01*
X885194Y148082D01*
X884178Y147066D01*
X883162D01*
X884178Y146050D01*
X883162Y145034D01*
X884178D01*
X885194Y144018D01*
X877574D02*
X878590Y145034D01*
X879606D01*
X878590Y146050D01*
X879606Y147066D01*
X878590D01*
X877574Y148082D01*
X876558Y147066D01*
X875542D01*
X876558Y146050D01*
X875542Y145034D01*
X876558D01*
X877574Y144018D01*
X854714Y132588D02*
X855730Y133604D01*
X856746D01*
X855730Y134620D01*
X856746Y135636D01*
X855730D01*
X854714Y136652D01*
X853698Y135636D01*
X852682D01*
X853698Y134620D01*
X852682Y133604D01*
X853698D01*
X854714Y132588D01*
Y124968D02*
X855730Y125984D01*
X856746D01*
X855730Y127000D01*
X856746Y128016D01*
X855730D01*
X854714Y129032D01*
X853698Y128016D01*
X852682D01*
X853698Y127000D01*
X852682Y125984D01*
X853698D01*
X854714Y124968D01*
Y117348D02*
X855730Y118364D01*
X856746D01*
X855730Y119380D01*
X856746Y120396D01*
X855730D01*
X854714Y121412D01*
X853698Y120396D01*
X852682D01*
X853698Y119380D01*
X852682Y118364D01*
X853698D01*
X854714Y117348D01*
Y109728D02*
X855730Y110744D01*
X856746D01*
X855730Y111760D01*
X856746Y112776D01*
X855730D01*
X854714Y113792D01*
X853698Y112776D01*
X852682D01*
X853698Y111760D01*
X852682Y110744D01*
X853698D01*
X854714Y109728D01*
Y102108D02*
X855730Y103124D01*
X856746D01*
X855730Y104140D01*
X856746Y105156D01*
X855730D01*
X854714Y106172D01*
X853698Y105156D01*
X852682D01*
X853698Y104140D01*
X852682Y103124D01*
X853698D01*
X854714Y102108D01*
Y94488D02*
X855730Y95504D01*
X856746D01*
X855730Y96520D01*
X856746Y97536D01*
X855730D01*
X854714Y98552D01*
X853698Y97536D01*
X852682D01*
X853698Y96520D01*
X852682Y95504D01*
X853698D01*
X854714Y94488D01*
Y86868D02*
X855730Y87884D01*
X856746D01*
X855730Y88900D01*
X856746Y89916D01*
X855730D01*
X854714Y90932D01*
X853698Y89916D01*
X852682D01*
X853698Y88900D01*
X852682Y87884D01*
X853698D01*
X854714Y86868D01*
Y79248D02*
X855730Y80264D01*
X856746D01*
X855730Y81280D01*
X856746Y82296D01*
X855730D01*
X854714Y83312D01*
X853698Y82296D01*
X852682D01*
X853698Y81280D01*
X852682Y80264D01*
X853698D01*
X854714Y79248D01*
Y71628D02*
X855730Y72644D01*
X856746D01*
X855730Y73660D01*
X856746Y74676D01*
X855730D01*
X854714Y75692D01*
X853698Y74676D01*
X852682D01*
X853698Y73660D01*
X852682Y72644D01*
X853698D01*
X854714Y71628D01*
Y64008D02*
X855730Y65024D01*
X856746D01*
X855730Y66040D01*
X856746Y67056D01*
X855730D01*
X854714Y68072D01*
X853698Y67056D01*
X852682D01*
X853698Y66040D01*
X852682Y65024D01*
X853698D01*
X854714Y64008D01*
Y56388D02*
X855730Y57404D01*
X856746D01*
X855730Y58420D01*
X856746Y59436D01*
X855730D01*
X854714Y60452D01*
X853698Y59436D01*
X852682D01*
X853698Y58420D01*
X852682Y57404D01*
X853698D01*
X854714Y56388D01*
Y48768D02*
X855730Y49784D01*
X856746D01*
X855730Y50800D01*
X856746Y51816D01*
X855730D01*
X854714Y52832D01*
X853698Y51816D01*
X852682D01*
X853698Y50800D01*
X852682Y49784D01*
X853698D01*
X854714Y48768D01*
Y41148D02*
X855730Y42164D01*
X856746D01*
X855730Y43180D01*
X856746Y44196D01*
X855730D01*
X854714Y45212D01*
X853698Y44196D01*
X852682D01*
X853698Y43180D01*
X852682Y42164D01*
X853698D01*
X854714Y41148D01*
Y33528D02*
X855730Y34544D01*
X856746D01*
X855730Y35560D01*
X856746Y36576D01*
X855730D01*
X854714Y37592D01*
X853698Y36576D01*
X852682D01*
X853698Y35560D01*
X852682Y34544D01*
X853698D01*
X854714Y33528D01*
Y25908D02*
X855730Y26924D01*
X856746D01*
X855730Y27940D01*
X856746Y28956D01*
X855730D01*
X854714Y29972D01*
X853698Y28956D01*
X852682D01*
X853698Y27940D01*
X852682Y26924D01*
X853698D01*
X854714Y25908D01*
Y18288D02*
X855730Y19304D01*
X856746D01*
X855730Y20320D01*
X856746Y21336D01*
X855730D01*
X854714Y22352D01*
X853698Y21336D01*
X852682D01*
X853698Y20320D01*
X852682Y19304D01*
X853698D01*
X854714Y18288D01*
X271767Y478017D02*
X272783Y479033D01*
X273799D01*
X272783Y480049D01*
X273799Y481065D01*
X272783D01*
X271767Y482081D01*
X270751Y481065D01*
X269735D01*
X270751Y480049D01*
X269735Y479033D01*
X270751D01*
X271767Y478017D01*
X429264Y156718D02*
X430280Y157734D01*
X431296D01*
X430280Y158750D01*
X431296Y159766D01*
X430280D01*
X429264Y160782D01*
X428248Y159766D01*
X427232D01*
X428248Y158750D01*
X427232Y157734D01*
X428248D01*
X429264Y156718D01*
X439424D02*
X440440Y157734D01*
X441456D01*
X440440Y158750D01*
X441456Y159766D01*
X440440D01*
X439424Y160782D01*
X438408Y159766D01*
X437392D01*
X438408Y158750D01*
X437392Y157734D01*
X438408D01*
X439424Y156718D01*
Y145288D02*
X440440Y146304D01*
X441456D01*
X440440Y147320D01*
X441456Y148336D01*
X440440D01*
X439424Y149352D01*
X438408Y148336D01*
X437392D01*
X438408Y147320D01*
X437392Y146304D01*
X438408D01*
X439424Y145288D01*
X429264D02*
X430280Y146304D01*
X431296D01*
X430280Y147320D01*
X431296Y148336D01*
X430280D01*
X429264Y149352D01*
X428248Y148336D01*
X427232D01*
X428248Y147320D01*
X427232Y146304D01*
X428248D01*
X429264Y145288D01*
X449559Y422854D02*
X450575Y423870D01*
X451591D01*
X450575Y424886D01*
X451591Y425902D01*
X450575D01*
X449559Y426918D01*
X448543Y425902D01*
X447527D01*
X448543Y424886D01*
X447527Y423870D01*
X448543D01*
X449559Y422854D01*
X471174Y380238D02*
X472190Y381254D01*
X473206D01*
X472190Y382270D01*
X473206Y383286D01*
X472190D01*
X471174Y384302D01*
X470158Y383286D01*
X469142D01*
X470158Y382270D01*
X469142Y381254D01*
X470158D01*
X471174Y380238D01*
X459744Y390398D02*
X460760Y391414D01*
X461776D01*
X460760Y392430D01*
X461776Y393446D01*
X460760D01*
X459744Y394462D01*
X458728Y393446D01*
X457712D01*
X458728Y392430D01*
X457712Y391414D01*
X458728D01*
X459744Y390398D01*
X439967Y423233D02*
X440983Y424249D01*
X441999D01*
X440983Y425265D01*
X441999Y426281D01*
X440983D01*
X439967Y427297D01*
X438951Y426281D01*
X437935D01*
X438951Y425265D01*
X437935Y424249D01*
X438951D01*
X439967Y423233D01*
X471174Y417068D02*
X472190Y418084D01*
X473206D01*
X472190Y419100D01*
X473206Y420116D01*
X472190D01*
X471174Y421132D01*
X470158Y420116D01*
X469142D01*
X470158Y419100D01*
X469142Y418084D01*
X470158D01*
X471174Y417068D01*
X426716Y423233D02*
X427732Y424249D01*
X428748D01*
X427732Y425265D01*
X428748Y426281D01*
X427732D01*
X426716Y427297D01*
X425700Y426281D01*
X424684D01*
X425700Y425265D01*
X424684Y424249D01*
X425700D01*
X426716Y423233D01*
X411476Y349413D02*
X412492Y350429D01*
X413508D01*
X412492Y351445D01*
X413508Y352461D01*
X412492D01*
X411476Y353477D01*
X410460Y352461D01*
X409444D01*
X410460Y351445D01*
X409444Y350429D01*
X410460D01*
X411476Y349413D01*
X423816Y347370D02*
X424832Y348386D01*
X425848D01*
X424832Y349402D01*
X425848Y350418D01*
X424832D01*
X423816Y351434D01*
X422800Y350418D01*
X421784D01*
X422800Y349402D01*
X421784Y348386D01*
X422800D01*
X423816Y347370D01*
X354334Y254508D02*
X355350Y255524D01*
X356366D01*
X355350Y256540D01*
X356366Y257556D01*
X355350D01*
X354334Y258572D01*
X353318Y257556D01*
X352302D01*
X353318Y256540D01*
X352302Y255524D01*
X353318D01*
X354334Y254508D01*
X53878Y394158D02*
X54894Y395174D01*
X55910D01*
X54894Y396190D01*
X55910Y397206D01*
X54894D01*
X53878Y398222D01*
X52862Y397206D01*
X51846D01*
X52862Y396190D01*
X51846Y395174D01*
X52862D01*
X53878Y394158D01*
X159021Y296063D02*
X160037Y297080D01*
X161053D01*
X160037Y298095D01*
X161053Y299111D01*
X160037D01*
X159021Y300128D01*
X158005Y299111D01*
X156989D01*
X158005Y298095D01*
X156989Y297080D01*
X158005D01*
X159021Y296063D01*
X131421Y324003D02*
X132437Y325019D01*
X133453D01*
X132437Y326035D01*
X133453Y327052D01*
X132437D01*
X131421Y328068D01*
X130405Y327052D01*
X129389D01*
X130405Y326035D01*
X129389Y325019D01*
X130405D01*
X131421Y324003D01*
X171421Y267829D02*
X172437Y268845D01*
X173453D01*
X172437Y269860D01*
X173453Y270877D01*
X172437D01*
X171421Y271893D01*
X170405Y270877D01*
X169389D01*
X170405Y269860D01*
X169389Y268845D01*
X170405D01*
X171421Y267829D01*
Y379883D02*
X172437Y380900D01*
X173453D01*
X172437Y381916D01*
X173453Y382932D01*
X172437D01*
X171421Y383947D01*
X170405Y382932D01*
X169389D01*
X170405Y381916D01*
X169389Y380900D01*
X170405D01*
X171421Y379883D01*
X151421D02*
X152437Y380900D01*
X153453D01*
X152437Y381916D01*
X153453Y382932D01*
X152437D01*
X151421Y383947D01*
X150405Y382932D01*
X149389D01*
X150405Y381916D01*
X149389Y380900D01*
X150405D01*
X151421Y379883D01*
X131421D02*
X132437Y380900D01*
X133453D01*
X132437Y381916D01*
X133453Y382932D01*
X132437D01*
X131421Y383947D01*
X130405Y382932D01*
X129389D01*
X130405Y381916D01*
X129389Y380900D01*
X130405D01*
X131421Y379883D01*
X285754Y258318D02*
X286770Y259334D01*
X287786D01*
X286770Y260350D01*
X287786Y261366D01*
X286770D01*
X285754Y262382D01*
X284738Y261366D01*
X283722D01*
X284738Y260350D01*
X283722Y259334D01*
X284738D01*
X285754Y258318D01*
X760734Y224028D02*
X761750Y225044D01*
X762766D01*
X761750Y226060D01*
X762766Y227076D01*
X761750D01*
X760734Y228092D01*
X759718Y227076D01*
X758702D01*
X759718Y226060D01*
X758702Y225044D01*
X759718D01*
X760734Y224028D01*
X518164Y104288D02*
X519180Y105304D01*
X520196D01*
X519180Y106320D01*
X520196Y107336D01*
X519180D01*
X518164Y108352D01*
X517148Y107336D01*
X516132D01*
X517148Y106320D01*
X516132Y105304D01*
X517148D01*
X518164Y104288D01*
X482402Y366455D02*
X483418Y367471D01*
X484434D01*
X483418Y368487D01*
X484434Y369503D01*
X483418D01*
X482402Y370519D01*
X481386Y369503D01*
X480370D01*
X481386Y368487D01*
X480370Y367471D01*
X481386D01*
X482402Y366455D01*
X944884Y428498D02*
X945900Y429514D01*
X946916D01*
X945900Y430530D01*
X946916Y431546D01*
X945900D01*
X944884Y432562D01*
X943868Y431546D01*
X942852D01*
X943868Y430530D01*
X942852Y429514D01*
X943868D01*
X944884Y428498D01*
X957571Y428070D02*
X958587Y429086D01*
X959603D01*
X958587Y430102D01*
X959603Y431118D01*
X958587D01*
X957571Y432134D01*
X956555Y431118D01*
X955539D01*
X956555Y430102D01*
X955539Y429086D01*
X956555D01*
X957571Y428070D01*
X351794Y472948D02*
X352810Y473964D01*
X353826D01*
X352810Y474980D01*
X353826Y475996D01*
X352810D01*
X351794Y477012D01*
X350778Y475996D01*
X349762D01*
X350778Y474980D01*
X349762Y473964D01*
X350778D01*
X351794Y472948D01*
X530864Y399288D02*
X531880Y400304D01*
X532896D01*
X531880Y401320D01*
X532896Y402336D01*
X531880D01*
X530864Y403352D01*
X529848Y402336D01*
X528832D01*
X529848Y401320D01*
X528832Y400304D01*
X529848D01*
X530864Y399288D01*
X528324Y351028D02*
X529340Y352044D01*
X530356D01*
X529340Y353060D01*
X530356Y354076D01*
X529340D01*
X528324Y355092D01*
X527308Y354076D01*
X526292D01*
X527308Y353060D01*
X526292Y352044D01*
X527308D01*
X528324Y351028D01*
X529594Y387858D02*
X530610Y388874D01*
X531626D01*
X530610Y389890D01*
X531626Y390906D01*
X530610D01*
X529594Y391922D01*
X528578Y390906D01*
X527562D01*
X528578Y389890D01*
X527562Y388874D01*
X528578D01*
X529594Y387858D01*
X515624Y394208D02*
X516640Y395224D01*
X517656D01*
X516640Y396240D01*
X517656Y397256D01*
X516640D01*
X515624Y398272D01*
X514608Y397256D01*
X513592D01*
X514608Y396240D01*
X513592Y395224D01*
X514608D01*
X515624Y394208D01*
X669290Y399288D02*
X670306Y400304D01*
X671322D01*
X670306Y401320D01*
X671322Y402336D01*
X670306D01*
X669290Y403352D01*
X668274Y402336D01*
X667258D01*
X668274Y401320D01*
X667258Y400304D01*
X668274D01*
X669290Y399288D01*
Y428498D02*
X670306Y429514D01*
X671322D01*
X670306Y430530D01*
X671322Y431546D01*
X670306D01*
X669290Y432562D01*
X668274Y431546D01*
X667258D01*
X668274Y430530D01*
X667258Y429514D01*
X668274D01*
X669290Y428498D01*
X659130D02*
X660146Y429514D01*
X661162D01*
X660146Y430530D01*
X661162Y431546D01*
X660146D01*
X659130Y432562D01*
X658114Y431546D01*
X657098D01*
X658114Y430530D01*
X657098Y429514D01*
X658114D01*
X659130Y428498D01*
X547374Y98298D02*
X548390Y99314D01*
X549406D01*
X548390Y100330D01*
X549406Y101346D01*
X548390D01*
X547374Y102362D01*
X546358Y101346D01*
X545342D01*
X546358Y100330D01*
X545342Y99314D01*
X546358D01*
X547374Y98298D01*
X523244Y93218D02*
X524260Y94234D01*
X525276D01*
X524260Y95250D01*
X525276Y96266D01*
X524260D01*
X523244Y97282D01*
X522228Y96266D01*
X521212D01*
X522228Y95250D01*
X521212Y94234D01*
X522228D01*
X523244Y93218D01*
X525784Y136398D02*
X526800Y137414D01*
X527816D01*
X526800Y138430D01*
X527816Y139446D01*
X526800D01*
X525784Y140462D01*
X524768Y139446D01*
X523752D01*
X524768Y138430D01*
X523752Y137414D01*
X524768D01*
X525784Y136398D01*
X516894Y345948D02*
X517910Y346964D01*
X518926D01*
X517910Y347980D01*
X518926Y348996D01*
X517910D01*
X516894Y350012D01*
X515878Y348996D01*
X514862D01*
X515878Y347980D01*
X514862Y346964D01*
X515878D01*
X516894Y345948D01*
X659130Y409448D02*
X660146Y410464D01*
X661162D01*
X660146Y411480D01*
X661162Y412496D01*
X660146D01*
X659130Y413512D01*
X658114Y412496D01*
X657098D01*
X658114Y411480D01*
X657098Y410464D01*
X658114D01*
X659130Y409448D01*
Y399288D02*
X660146Y400304D01*
X661162D01*
X660146Y401320D01*
X661162Y402336D01*
X660146D01*
X659130Y403352D01*
X658114Y402336D01*
X657098D01*
X658114Y401320D01*
X657098Y400304D01*
X658114D01*
X659130Y399288D01*
Y438658D02*
X660146Y439674D01*
X661162D01*
X660146Y440690D01*
X661162Y441706D01*
X660146D01*
X659130Y442722D01*
X658114Y441706D01*
X657098D01*
X658114Y440690D01*
X657098Y439674D01*
X658114D01*
X659130Y438658D01*
X480064Y113538D02*
X481080Y114554D01*
X482096D01*
X481080Y115570D01*
X482096Y116586D01*
X481080D01*
X480064Y117602D01*
X479048Y116586D01*
X478032D01*
X479048Y115570D01*
X478032Y114554D01*
X479048D01*
X480064Y113538D01*
X659130Y448818D02*
X660146Y449834D01*
X661162D01*
X660146Y450850D01*
X661162Y451866D01*
X660146D01*
X659130Y452882D01*
X658114Y451866D01*
X657098D01*
X658114Y450850D01*
X657098Y449834D01*
X658114D01*
X659130Y448818D01*
X669290D02*
X670306Y449834D01*
X671322D01*
X670306Y450850D01*
X671322Y451866D01*
X670306D01*
X669290Y452882D01*
X668274Y451866D01*
X667258D01*
X668274Y450850D01*
X667258Y449834D01*
X668274D01*
X669290Y448818D01*
X707394Y375158D02*
X708410Y376174D01*
X709426D01*
X708410Y377190D01*
X709426Y378206D01*
X708410D01*
X707394Y379222D01*
X706378Y378206D01*
X705362D01*
X706378Y377190D01*
X705362Y376174D01*
X706378D01*
X707394Y375158D01*
X753110Y386588D02*
X754126Y387604D01*
X755142D01*
X754126Y388620D01*
X755142Y389636D01*
X754126D01*
X753110Y390652D01*
X752094Y389636D01*
X751078D01*
X752094Y388620D01*
X751078Y387604D01*
X752094D01*
X753110Y386588D01*
X928374Y503428D02*
X929390Y504444D01*
X930406D01*
X929390Y505460D01*
X930406Y506476D01*
X929390D01*
X928374Y507492D01*
X927358Y506476D01*
X926342D01*
X927358Y505460D01*
X926342Y504444D01*
X927358D01*
X928374Y503428D01*
X918214Y493268D02*
X919230Y494284D01*
X920246D01*
X919230Y495300D01*
X920246Y496316D01*
X919230D01*
X918214Y497332D01*
X917198Y496316D01*
X916182D01*
X917198Y495300D01*
X916182Y494284D01*
X917198D01*
X918214Y493268D01*
Y503428D02*
X919230Y504444D01*
X920246D01*
X919230Y505460D01*
X920246Y506476D01*
X919230D01*
X918214Y507492D01*
X917198Y506476D01*
X916182D01*
X917198Y505460D01*
X916182Y504444D01*
X917198D01*
X918214Y503428D01*
X131421Y212243D02*
X132437Y213260D01*
X133453D01*
X132437Y214275D01*
X133453Y215292D01*
X132437D01*
X131421Y216308D01*
X130405Y215292D01*
X129389D01*
X130405Y214275D01*
X129389Y213260D01*
X130405D01*
X131421Y212243D01*
X151421Y267829D02*
X152437Y268845D01*
X153453D01*
X152437Y269860D01*
X153453Y270877D01*
X152437D01*
X151421Y271893D01*
X150405Y270877D01*
X149389D01*
X150405Y269860D01*
X149389Y268845D01*
X150405D01*
X151421Y267829D01*
X131421D02*
X132437Y268845D01*
X133453D01*
X132437Y269860D01*
X133453Y270877D01*
X132437D01*
X131421Y271893D01*
X130405Y270877D01*
X129389D01*
X130405Y269860D01*
X129389Y268845D01*
X130405D01*
X131421Y267829D01*
X735330Y469138D02*
X736346Y470154D01*
X737362D01*
X736346Y471170D01*
X737362Y472186D01*
X736346D01*
X735330Y473202D01*
X734314Y472186D01*
X733298D01*
X734314Y471170D01*
X733298Y470154D01*
X734314D01*
X735330Y469138D01*
X401962Y463793D02*
X402978Y464809D01*
X403994D01*
X402978Y465825D01*
X403994Y466841D01*
X402978D01*
X401962Y467857D01*
X400946Y466841D01*
X399930D01*
X400946Y465825D01*
X399930Y464809D01*
X400946D01*
X401962Y463793D01*
X479061Y423153D02*
X480077Y424169D01*
X481093D01*
X480077Y425185D01*
X481093Y426201D01*
X480077D01*
X479061Y427217D01*
X478045Y426201D01*
X477029D01*
X478045Y425185D01*
X477029Y424169D01*
X478045D01*
X479061Y423153D01*
X401962Y208433D02*
X402978Y209450D01*
X403994D01*
X402978Y210466D01*
X403994Y211481D01*
X402978D01*
X401962Y212498D01*
X400946Y211481D01*
X399930D01*
X400946Y210466D01*
X399930Y209450D01*
X400946D01*
X401962Y208433D01*
X479061Y167794D02*
X480077Y168810D01*
X481093D01*
X480077Y169825D01*
X481093Y170842D01*
X480077D01*
X479061Y171857D01*
X478045Y170842D01*
X477029D01*
X478045Y169825D01*
X477029Y168810D01*
X478045D01*
X479061Y167794D01*
X159021Y72544D02*
X160037Y73559D01*
X161053D01*
X160037Y74576D01*
X161053Y75592D01*
X160037D01*
X159021Y76607D01*
X158005Y75592D01*
X156989D01*
X158005Y74576D01*
X156989Y73559D01*
X158005D01*
X159021Y72544D01*
Y128424D02*
X160037Y129439D01*
X161053D01*
X160037Y130456D01*
X161053Y131472D01*
X160037D01*
X159021Y132487D01*
X158005Y131472D01*
X156989D01*
X158005Y130456D01*
X156989Y129439D01*
X158005D01*
X159021Y128424D01*
X160291Y184303D02*
X161307Y185319D01*
X162323D01*
X161307Y186336D01*
X162323Y187351D01*
X161307D01*
X160291Y188368D01*
X159275Y187351D01*
X158259D01*
X159275Y186336D01*
X158259Y185319D01*
X159275D01*
X160291Y184303D01*
X159963Y240727D02*
X160979Y241742D01*
X161995D01*
X160979Y242759D01*
X161995Y243775D01*
X160979D01*
X159963Y244790D01*
X158947Y243775D01*
X157931D01*
X158947Y242759D01*
X157931Y241742D01*
X158947D01*
X159963Y240727D01*
X159021Y351944D02*
X160037Y352960D01*
X161053D01*
X160037Y353975D01*
X161053Y354991D01*
X160037D01*
X159021Y356007D01*
X158005Y354991D01*
X156989D01*
X158005Y353975D01*
X156989Y352960D01*
X158005D01*
X159021Y351944D01*
Y407823D02*
X160037Y408839D01*
X161053D01*
X160037Y409855D01*
X161053Y410872D01*
X160037D01*
X159021Y411888D01*
X158005Y410872D01*
X156989D01*
X158005Y409855D01*
X156989Y408839D01*
X158005D01*
X159021Y407823D01*
Y463703D02*
X160037Y464720D01*
X161053D01*
X160037Y465736D01*
X161053Y466752D01*
X160037D01*
X159021Y467767D01*
X158005Y466752D01*
X156989D01*
X158005Y465736D01*
X156989Y464720D01*
X158005D01*
X159021Y463703D01*
X232681Y462434D02*
X233697Y463450D01*
X234713D01*
X233697Y464465D01*
X234713Y465481D01*
X233697D01*
X232681Y466497D01*
X231665Y465481D01*
X230649D01*
X231665Y464465D01*
X230649Y463450D01*
X231665D01*
X232681Y462434D01*
Y407823D02*
X233697Y408839D01*
X234713D01*
X233697Y409855D01*
X234713Y410872D01*
X233697D01*
X232681Y411888D01*
X231665Y410872D01*
X230649D01*
X231665Y409855D01*
X230649Y408839D01*
X231665D01*
X232681Y407823D01*
Y351944D02*
X233697Y352960D01*
X234713D01*
X233697Y353975D01*
X234713Y354991D01*
X233697D01*
X232681Y356007D01*
X231665Y354991D01*
X230649D01*
X231665Y353975D01*
X230649Y352960D01*
X231665D01*
X232681Y351944D01*
Y294793D02*
X233697Y295809D01*
X234713D01*
X233697Y296826D01*
X234713Y297841D01*
X233697D01*
X232681Y298857D01*
X231665Y297841D01*
X230649D01*
X231665Y296826D01*
X230649Y295809D01*
X231665D01*
X232681Y294793D01*
Y238913D02*
X233697Y239930D01*
X234713D01*
X233697Y240945D01*
X234713Y241961D01*
X233697D01*
X232681Y242978D01*
X231665Y241961D01*
X230649D01*
X231665Y240945D01*
X230649Y239930D01*
X231665D01*
X232681Y238913D01*
Y184303D02*
X233697Y185319D01*
X234713D01*
X233697Y186336D01*
X234713Y187351D01*
X233697D01*
X232681Y188368D01*
X231665Y187351D01*
X230649D01*
X231665Y186336D01*
X230649Y185319D01*
X231665D01*
X232681Y184303D01*
Y128424D02*
X233697Y129439D01*
X234713D01*
X233697Y130456D01*
X234713Y131472D01*
X233697D01*
X232681Y132487D01*
X231665Y131472D01*
X230649D01*
X231665Y130456D01*
X230649Y129439D01*
X231665D01*
X232681Y128424D01*
Y72544D02*
X233697Y73559D01*
X234713D01*
X233697Y74576D01*
X234713Y75592D01*
X233697D01*
X232681Y76607D01*
X231665Y75592D01*
X230649D01*
X231665Y74576D01*
X230649Y73559D01*
X231665D01*
X232681Y72544D01*
X151421Y156363D02*
X152437Y157380D01*
X153453D01*
X152437Y158396D01*
X153453Y159411D01*
X152437D01*
X151421Y160427D01*
X150405Y159411D01*
X149389D01*
X150405Y158396D01*
X149389Y157380D01*
X150405D01*
X151421Y156363D01*
X131421D02*
X132437Y157380D01*
X133453D01*
X132437Y158396D01*
X133453Y159411D01*
X132437D01*
X131421Y160427D01*
X130405Y159411D01*
X129389D01*
X130405Y158396D01*
X129389Y157380D01*
X130405D01*
X131421Y156363D01*
X171421D02*
X172437Y157380D01*
X173453D01*
X172437Y158396D01*
X173453Y159411D01*
X172437D01*
X171421Y160427D01*
X170405Y159411D01*
X169389D01*
X170405Y158396D01*
X169389Y157380D01*
X170405D01*
X171421Y156363D01*
X131421Y490564D02*
X132437Y491580D01*
X133453D01*
X132437Y492595D01*
X133453Y493611D01*
X132437D01*
X131421Y494627D01*
X130405Y493611D01*
X129389D01*
X130405Y492595D01*
X129389Y491580D01*
X130405D01*
X131421Y490564D01*
Y435204D02*
X132437Y436219D01*
X133453D01*
X132437Y437235D01*
X133453Y438251D01*
X132437D01*
X131421Y439268D01*
X130405Y438251D01*
X129389D01*
X130405Y437235D01*
X129389Y436219D01*
X130405D01*
X131421Y435204D01*
X151421Y490564D02*
X152437Y491580D01*
X153453D01*
X152437Y492595D01*
X153453Y493611D01*
X152437D01*
X151421Y494627D01*
X150405Y493611D01*
X149389D01*
X150405Y492595D01*
X149389Y491580D01*
X150405D01*
X151421Y490564D01*
Y212243D02*
X152437Y213260D01*
X153453D01*
X152437Y214275D01*
X153453Y215292D01*
X152437D01*
X151421Y216308D01*
X150405Y215292D01*
X149389D01*
X150405Y214275D01*
X149389Y213260D01*
X150405D01*
X151421Y212243D01*
Y324003D02*
X152437Y325019D01*
X153453D01*
X152437Y326035D01*
X153453Y327052D01*
X152437D01*
X151421Y328068D01*
X150405Y327052D01*
X149389D01*
X150405Y326035D01*
X149389Y325019D01*
X150405D01*
X151421Y324003D01*
Y435204D02*
X152437Y436219D01*
X153453D01*
X152437Y437235D01*
X153453Y438251D01*
X152437D01*
X151421Y439268D01*
X150405Y438251D01*
X149389D01*
X150405Y437235D01*
X149389Y436219D01*
X150405D01*
X151421Y435204D01*
X171421Y491203D02*
X172437Y492220D01*
X173453D01*
X172437Y493236D01*
X173453Y494252D01*
X172437D01*
X171421Y495267D01*
X170405Y494252D01*
X169389D01*
X170405Y493236D01*
X169389Y492220D01*
X170405D01*
X171421Y491203D01*
X151421Y100484D02*
X152437Y101500D01*
X153453D01*
X152437Y102515D01*
X153453Y103532D01*
X152437D01*
X151421Y104548D01*
X150405Y103532D01*
X149389D01*
X150405Y102515D01*
X149389Y101500D01*
X150405D01*
X151421Y100484D01*
X226421Y43973D02*
X227437Y44990D01*
X228453D01*
X227437Y46006D01*
X228453Y47021D01*
X227437D01*
X226421Y48038D01*
X225405Y47021D01*
X224389D01*
X225405Y46006D01*
X224389Y44990D01*
X225405D01*
X226421Y43973D01*
X246421D02*
X247437Y44990D01*
X248453D01*
X247437Y46006D01*
X248453Y47021D01*
X247437D01*
X246421Y48038D01*
X245405Y47021D01*
X244389D01*
X245405Y46006D01*
X244389Y44990D01*
X245405D01*
X246421Y43973D01*
X226421Y100204D02*
X227437Y101220D01*
X228453D01*
X227437Y102235D01*
X228453Y103251D01*
X227437D01*
X226421Y104268D01*
X225405Y103251D01*
X224389D01*
X225405Y102235D01*
X224389Y101220D01*
X225405D01*
X226421Y100204D01*
X246421D02*
X247437Y101220D01*
X248453D01*
X247437Y102235D01*
X248453Y103251D01*
X247437D01*
X246421Y104268D01*
X245405Y103251D01*
X244389D01*
X245405Y102235D01*
X244389Y101220D01*
X245405D01*
X246421Y100204D01*
X226421Y155604D02*
X227437Y156620D01*
X228453D01*
X227437Y157635D01*
X228453Y158652D01*
X227437D01*
X226421Y159668D01*
X225405Y158652D01*
X224389D01*
X225405Y157635D01*
X224389Y156620D01*
X225405D01*
X226421Y155604D01*
X246421D02*
X247437Y156620D01*
X248453D01*
X247437Y157635D01*
X248453Y158652D01*
X247437D01*
X246421Y159668D01*
X245405Y158652D01*
X244389D01*
X245405Y157635D01*
X244389Y156620D01*
X245405D01*
X246421Y155604D01*
X226421Y211203D02*
X227437Y212220D01*
X228453D01*
X227437Y213235D01*
X228453Y214251D01*
X227437D01*
X226421Y215268D01*
X225405Y214251D01*
X224389D01*
X225405Y213235D01*
X224389Y212220D01*
X225405D01*
X226421Y211203D01*
X246421D02*
X247437Y212220D01*
X248453D01*
X247437Y213235D01*
X248453Y214251D01*
X247437D01*
X246421Y215268D01*
X245405Y214251D01*
X244389D01*
X245405Y213235D01*
X244389Y212220D01*
X245405D01*
X246421Y211203D01*
Y267204D02*
X247437Y268220D01*
X248453D01*
X247437Y269235D01*
X248453Y270252D01*
X247437D01*
X246421Y271268D01*
X245405Y270252D01*
X244389D01*
X245405Y269235D01*
X244389Y268220D01*
X245405D01*
X246421Y267204D01*
X226421Y323204D02*
X227437Y324220D01*
X228453D01*
X227437Y325235D01*
X228453Y326251D01*
X227437D01*
X226421Y327267D01*
X225405Y326251D01*
X224389D01*
X225405Y325235D01*
X224389Y324220D01*
X225405D01*
X226421Y323204D01*
X206421D02*
X207437Y324220D01*
X208453D01*
X207437Y325235D01*
X208453Y326251D01*
X207437D01*
X206421Y327267D01*
X205405Y326251D01*
X204389D01*
X205405Y325235D01*
X204389Y324220D01*
X205405D01*
X206421Y323204D01*
X246421D02*
X247437Y324220D01*
X248453D01*
X247437Y325235D01*
X248453Y326251D01*
X247437D01*
X246421Y327267D01*
X245405Y326251D01*
X244389D01*
X245405Y325235D01*
X244389Y324220D01*
X245405D01*
X246421Y323204D01*
X171421Y324003D02*
X172437Y325019D01*
X173453D01*
X172437Y326035D01*
X173453Y327052D01*
X172437D01*
X171421Y328068D01*
X170405Y327052D01*
X169389D01*
X170405Y326035D01*
X169389Y325019D01*
X170405D01*
X171421Y324003D01*
Y435204D02*
X172437Y436219D01*
X173453D01*
X172437Y437235D01*
X173453Y438251D01*
X172437D01*
X171421Y439268D01*
X170405Y438251D01*
X169389D01*
X170405Y437235D01*
X169389Y436219D01*
X170405D01*
X171421Y435204D01*
X226421Y434703D02*
X227437Y435719D01*
X228453D01*
X227437Y436735D01*
X228453Y437752D01*
X227437D01*
X226421Y438768D01*
X225405Y437752D01*
X224389D01*
X225405Y436735D01*
X224389Y435719D01*
X225405D01*
X226421Y434703D01*
X246421D02*
X247437Y435719D01*
X248453D01*
X247437Y436735D01*
X248453Y437752D01*
X247437D01*
X246421Y438768D01*
X245405Y437752D01*
X244389D01*
X245405Y436735D01*
X244389Y435719D01*
X245405D01*
X246421Y434703D01*
X206421Y379203D02*
X207437Y380219D01*
X208453D01*
X207437Y381236D01*
X208453Y382252D01*
X207437D01*
X206421Y383268D01*
X205405Y382252D01*
X204389D01*
X205405Y381236D01*
X204389Y380219D01*
X205405D01*
X206421Y379203D01*
X226421D02*
X227437Y380219D01*
X228453D01*
X227437Y381236D01*
X228453Y382252D01*
X227437D01*
X226421Y383268D01*
X225405Y382252D01*
X224389D01*
X225405Y381236D01*
X224389Y380219D01*
X225405D01*
X226421Y379203D01*
X246421D02*
X247437Y380219D01*
X248453D01*
X247437Y381236D01*
X248453Y382252D01*
X247437D01*
X246421Y383268D01*
X245405Y382252D01*
X244389D01*
X245405Y381236D01*
X244389Y380219D01*
X245405D01*
X246421Y379203D01*
X207281Y434703D02*
X208297Y435719D01*
X209313D01*
X208297Y436735D01*
X209313Y437752D01*
X208297D01*
X207281Y438768D01*
X206265Y437752D01*
X205249D01*
X206265Y436735D01*
X205249Y435719D01*
X206265D01*
X207281Y434703D01*
X206421Y100204D02*
X207437Y101220D01*
X208453D01*
X207437Y102235D01*
X208453Y103251D01*
X207437D01*
X206421Y104268D01*
X205405Y103251D01*
X204389D01*
X205405Y102235D01*
X204389Y101220D01*
X205405D01*
X206421Y100204D01*
X171421Y100484D02*
X172437Y101500D01*
X173453D01*
X172437Y102515D01*
X173453Y103532D01*
X172437D01*
X171421Y104548D01*
X170405Y103532D01*
X169389D01*
X170405Y102515D01*
X169389Y101500D01*
X170405D01*
X171421Y100484D01*
X206421Y155604D02*
X207437Y156620D01*
X208453D01*
X207437Y157635D01*
X208453Y158652D01*
X207437D01*
X206421Y159668D01*
X205405Y158652D01*
X204389D01*
X205405Y157635D01*
X204389Y156620D01*
X205405D01*
X206421Y155604D01*
Y211203D02*
X207437Y212220D01*
X208453D01*
X207437Y213235D01*
X208453Y214251D01*
X207437D01*
X206421Y215268D01*
X205405Y214251D01*
X204389D01*
X205405Y213235D01*
X204389Y212220D01*
X205405D01*
X206421Y211203D01*
Y267204D02*
X207437Y268220D01*
X208453D01*
X207437Y269235D01*
X208453Y270252D01*
X207437D01*
X206421Y271268D01*
X205405Y270252D01*
X204389D01*
X205405Y269235D01*
X204389Y268220D01*
X205405D01*
X206421Y267204D01*
X226421D02*
X227437Y268220D01*
X228453D01*
X227437Y269235D01*
X228453Y270252D01*
X227437D01*
X226421Y271268D01*
X225405Y270252D01*
X224389D01*
X225405Y269235D01*
X224389Y268220D01*
X225405D01*
X226421Y267204D01*
X171721Y212243D02*
X172737Y213260D01*
X173753D01*
X172737Y214275D01*
X173753Y215292D01*
X172737D01*
X171721Y216308D01*
X170705Y215292D01*
X169689D01*
X170705Y214275D01*
X169689Y213260D01*
X170705D01*
X171721Y212243D01*
X206421Y43975D02*
X207437Y44991D01*
X208453D01*
X207437Y46007D01*
X208453Y47023D01*
X207437D01*
X206421Y48039D01*
X205405Y47023D01*
X204389D01*
X205405Y46007D01*
X204389Y44991D01*
X205405D01*
X206421Y43975D01*
X131421Y100484D02*
X132437Y101500D01*
X133453D01*
X132437Y102515D01*
X133453Y103532D01*
X132437D01*
X131421Y104548D01*
X130405Y103532D01*
X129389D01*
X130405Y102515D01*
X129389Y101500D01*
X130405D01*
X131421Y100484D01*
M02*
