G04*
G04 #@! TF.GenerationSoftware,Altium Limited,Altium Designer,23.8.1 (32)*
G04*
G04 Layer_Color=8421504*
%FSLAX44Y44*%
%MOMM*%
G71*
G04*
G04 #@! TF.SameCoordinates,B2355FDD-5490-460F-BBB4-22D25E5E3D0D*
G04*
G04*
G04 #@! TF.FilePolarity,Positive*
G04*
G01*
G75*
%ADD19C,0.1001*%
%ADD20C,0.1999*%
%ADD21C,0.1500*%
%ADD22C,0.0500*%
%ADD23C,0.1200*%
%ADD24R,2.0239X2.0239*%
%ADD25R,2.0238X2.0239*%
%ADD26R,1.2062X0.9562*%
%ADD27R,1.1062X0.7562*%
%ADD28R,1.2500X1.0000*%
%ADD29R,0.9311X0.8121*%
%ADD30R,1.8545X2.2860*%
%ADD31C,1.0000*%
%ADD32R,0.4500X1.3800*%
%ADD33R,1.1750X1.9000*%
%ADD34R,2.3750X1.9000*%
%ADD35R,1.4750X2.1000*%
%ADD36R,0.8000X1.5000*%
%ADD37R,1.4500X2.0000*%
%ADD38R,3.6800X1.2700*%
%ADD39R,0.7000X0.9500*%
%ADD40R,0.7400X2.7950*%
%ADD41R,1.0000X1.0000*%
%ADD42R,1.2000X0.9500*%
%ADD43R,0.8499X0.7501*%
%ADD44C,0.2540*%
%ADD45R,0.7000X0.2751*%
%ADD46R,0.2451X0.4501*%
%ADD47R,1.0500X0.6000*%
%ADD48R,1.0500X1.0500*%
%ADD49R,1.0500X1.0000*%
%ADD50R,1.0000X1.0500*%
%ADD51R,2.0000X0.8001*%
%ADD52R,1.0000X2.1999*%
%ADD53R,0.7000X1.5001*%
%ADD54R,1.0160X1.1430*%
%ADD55R,0.9900X0.3000*%
%ADD56R,1.4000X0.3000*%
%ADD57R,1.2192X0.9144*%
%ADD58R,0.3000X0.9900*%
%ADD59R,0.3000X1.4000*%
%ADD60R,0.8001X0.3000*%
%ADD61R,0.8001X0.4001*%
%ADD62R,1.2700X0.5588*%
%ADD63R,1.2700X3.6800*%
G04:AMPARAMS|DCode=64|XSize=0.1925mm|YSize=0.9291mm|CornerRadius=0.0962mm|HoleSize=0mm|Usage=FLASHONLY|Rotation=90.000|XOffset=0mm|YOffset=0mm|HoleType=Round|Shape=RoundedRectangle|*
%AMROUNDEDRECTD64*
21,1,0.1925,0.7366,0,0,90.0*
21,1,0.0000,0.9291,0,0,90.0*
1,1,0.1925,0.3683,0.0000*
1,1,0.1925,0.3683,0.0000*
1,1,0.1925,-0.3683,0.0000*
1,1,0.1925,-0.3683,0.0000*
%
%ADD64ROUNDEDRECTD64*%
G04:AMPARAMS|DCode=65|XSize=0.9291mm|YSize=0.1925mm|CornerRadius=0.0962mm|HoleSize=0mm|Usage=FLASHONLY|Rotation=90.000|XOffset=0mm|YOffset=0mm|HoleType=Round|Shape=RoundedRectangle|*
%AMROUNDEDRECTD65*
21,1,0.9291,0.0000,0,0,90.0*
21,1,0.7366,0.1925,0,0,90.0*
1,1,0.1925,0.0000,0.3683*
1,1,0.1925,0.0000,-0.3683*
1,1,0.1925,0.0000,-0.3683*
1,1,0.1925,0.0000,0.3683*
%
%ADD65ROUNDEDRECTD65*%
%ADD66R,0.1925X0.9291*%
%ADD67R,0.7000X0.7000*%
%ADD68R,2.1000X1.4000*%
%ADD69R,1.1500X1.0500*%
%ADD70R,0.6587X0.8121*%
%ADD71R,0.8500X0.7500*%
%ADD72R,0.8000X0.8000*%
%ADD73R,0.4725X0.5153*%
%ADD74R,1.2065X1.0582*%
%ADD75R,0.4627X0.5541*%
%ADD76R,0.7500X0.9000*%
%ADD77R,0.7587X0.8121*%
%ADD78R,2.0000X1.0000*%
%ADD79R,2.0000X1.5000*%
G04:AMPARAMS|DCode=80|XSize=0.3mm|YSize=1.45mm|CornerRadius=0.0495mm|HoleSize=0mm|Usage=FLASHONLY|Rotation=90.000|XOffset=0mm|YOffset=0mm|HoleType=Round|Shape=RoundedRectangle|*
%AMROUNDEDRECTD80*
21,1,0.3000,1.3510,0,0,90.0*
21,1,0.2010,1.4500,0,0,90.0*
1,1,0.0990,0.6755,0.1005*
1,1,0.0990,0.6755,-0.1005*
1,1,0.0990,-0.6755,-0.1005*
1,1,0.0990,-0.6755,0.1005*
%
%ADD80ROUNDEDRECTD80*%
G04:AMPARAMS|DCode=81|XSize=0.3mm|YSize=1.45mm|CornerRadius=0.0495mm|HoleSize=0mm|Usage=FLASHONLY|Rotation=0.000|XOffset=0mm|YOffset=0mm|HoleType=Round|Shape=RoundedRectangle|*
%AMROUNDEDRECTD81*
21,1,0.3000,1.3510,0,0,0.0*
21,1,0.2010,1.4500,0,0,0.0*
1,1,0.0990,0.1005,-0.6755*
1,1,0.0990,-0.1005,-0.6755*
1,1,0.0990,-0.1005,0.6755*
1,1,0.0990,0.1005,0.6755*
%
%ADD81ROUNDEDRECTD81*%
%ADD82R,0.8000X0.8000*%
%ADD83R,0.8000X0.9500*%
%ADD84R,2.1000X3.0000*%
%ADD85R,0.8000X1.6000*%
%ADD86R,0.9350X0.9621*%
%ADD87R,3.0000X2.1000*%
%ADD88R,1.6000X0.8000*%
%ADD89R,0.9562X1.2062*%
%ADD90R,0.7000X0.6500*%
%ADD91R,0.7562X1.1062*%
%ADD92R,0.7500X0.8500*%
%ADD93R,0.9062X0.8549*%
%ADD94R,0.9587X0.9121*%
%ADD95R,0.8000X0.6000*%
%ADD96R,0.9531X3.6031*%
%ADD97R,0.7000X0.7000*%
%ADD98R,0.9000X0.7500*%
%ADD99R,0.9000X0.8000*%
%ADD100C,0.5000*%
D19*
X837791Y302311D02*
Y340309D01*
Y302311D02*
X879792D01*
Y340309D01*
X837791D02*
X879792D01*
X931420Y182659D02*
Y223660D01*
Y182659D02*
X959421D01*
Y223660D01*
X931420D02*
X959421D01*
X574799Y461122D02*
Y533121D01*
Y461122D02*
X639798D01*
Y533121D01*
X574799D02*
X639798D01*
X584799Y484622D02*
Y509621D01*
Y484622D02*
X629798D01*
Y509621D01*
X584799D02*
X629798D01*
X17292Y368300D02*
X25419D01*
X41674D01*
X49801D01*
X17292Y187960D02*
Y368770D01*
Y187960D02*
X49801D01*
X7292Y368300D02*
X61691D01*
X7292Y187960D02*
Y368300D01*
Y187960D02*
X61691D01*
Y368300D01*
X49801Y187960D02*
Y368770D01*
D20*
X848791Y313309D02*
Y329311D01*
Y313309D02*
X868791D01*
Y329311D01*
X848791D02*
X868791D01*
X941420Y192659D02*
Y208661D01*
Y192659D02*
X949421D01*
Y208661D01*
X941420D02*
X949421D01*
D21*
X768395Y87508D02*
X763396D01*
X765895D01*
Y75012D01*
X763396Y72512D01*
X760897D01*
X758398Y75012D01*
X773393Y85008D02*
X775892Y87508D01*
X780891D01*
X783390Y85008D01*
Y82509D01*
X780891Y80010D01*
X778391D01*
X780891D01*
X783390Y77511D01*
Y75012D01*
X780891Y72512D01*
X775892D01*
X773393Y75012D01*
D22*
X553679Y441919D02*
Y445251D01*
X551180D01*
Y443585D01*
Y445251D01*
X548681D01*
X553679Y440253D02*
X548681D01*
Y437754D01*
X549514Y436921D01*
X550347D01*
X551180Y437754D01*
Y440253D01*
Y437754D01*
X552013Y436921D01*
X552846D01*
X553679Y437754D01*
Y440253D01*
X548681Y435255D02*
Y433588D01*
Y434422D01*
X553679D01*
X552846Y435255D01*
X881818Y172365D02*
X886817D01*
Y174864D01*
X885984Y175697D01*
X882651D01*
X881818Y174864D01*
Y172365D01*
X882651Y177363D02*
X881818Y178196D01*
Y179862D01*
X882651Y180695D01*
X883484D01*
X884317Y179862D01*
X885151Y180695D01*
X885984D01*
X886817Y179862D01*
Y178196D01*
X885984Y177363D01*
X885151D01*
X884317Y178196D01*
X883484Y177363D01*
X882651D01*
X884317Y178196D02*
Y179862D01*
X868992Y172365D02*
X873990D01*
Y174864D01*
X873158Y175697D01*
X869825D01*
X868992Y174864D01*
Y172365D01*
Y177363D02*
Y180695D01*
X869825D01*
X873158Y177363D01*
X873990D01*
X527095Y191872D02*
X532093D01*
Y194371D01*
X531260Y195204D01*
X527928D01*
X527095Y194371D01*
Y191872D01*
X532093Y196870D02*
Y198536D01*
Y197703D01*
X527095D01*
X527928Y196870D01*
X532093Y203535D02*
X527095D01*
X529594Y201036D01*
Y204368D01*
X530905Y444602D02*
X535903D01*
Y447101D01*
X535070Y447934D01*
X531738D01*
X530905Y447101D01*
Y444602D01*
X535903Y449600D02*
Y451267D01*
Y450434D01*
X530905D01*
X531738Y449600D01*
Y453766D02*
X530905Y454599D01*
Y456265D01*
X531738Y457098D01*
X532571D01*
X533404Y456265D01*
Y455432D01*
Y456265D01*
X534237Y457098D01*
X535070D01*
X535903Y456265D01*
Y454599D01*
X535070Y453766D01*
X954129Y321351D02*
Y326349D01*
X951630D01*
X950797Y325516D01*
Y322184D01*
X951630Y321351D01*
X954129D01*
X949131Y325516D02*
X948298Y326349D01*
X946632D01*
X945798Y325516D01*
Y322184D01*
X946632Y321351D01*
X948298D01*
X949131Y322184D01*
Y323017D01*
X948298Y323850D01*
X945798D01*
X956212Y307381D02*
Y312379D01*
X953713D01*
X952879Y311546D01*
Y308214D01*
X953713Y307381D01*
X956212D01*
X951213Y312379D02*
X949547D01*
X950380D01*
Y307381D01*
X951213Y308214D01*
X947048D02*
X946215Y307381D01*
X944549D01*
X943716Y308214D01*
Y311546D01*
X944549Y312379D01*
X946215D01*
X947048Y311546D01*
Y308214D01*
X959689Y479145D02*
X954691D01*
Y476646D01*
X955524Y475813D01*
X958856D01*
X959689Y476646D01*
Y479145D01*
Y470815D02*
Y474147D01*
X957190D01*
X958023Y472481D01*
Y471648D01*
X957190Y470815D01*
X955524D01*
X954691Y471648D01*
Y473314D01*
X955524Y474147D01*
X946989Y479145D02*
X941991D01*
Y476646D01*
X942824Y475813D01*
X946156D01*
X946989Y476646D01*
Y479145D01*
Y470815D02*
X946156Y472481D01*
X944490Y474147D01*
X942824D01*
X941991Y473314D01*
Y471648D01*
X942824Y470815D01*
X943657D01*
X944490Y471648D01*
Y474147D01*
X784614Y505116D02*
X779616D01*
Y502617D01*
X780449Y501784D01*
X783781D01*
X784614Y502617D01*
Y505116D01*
X779616Y500118D02*
Y498452D01*
Y499285D01*
X784614D01*
X783781Y500118D01*
X779616Y495952D02*
Y494286D01*
Y495120D01*
X784614D01*
X783781Y495952D01*
X801900Y505949D02*
X796901D01*
Y503450D01*
X797734Y502617D01*
X801067D01*
X801900Y503450D01*
Y505949D01*
X796901Y500951D02*
Y499285D01*
Y500118D01*
X801900D01*
X801067Y500951D01*
X796901Y493453D02*
Y496786D01*
X800234Y493453D01*
X801067D01*
X801900Y494286D01*
Y495952D01*
X801067Y496786D01*
X739486Y322621D02*
Y327619D01*
X736986D01*
X736153Y326786D01*
Y323454D01*
X736986Y322621D01*
X739486D01*
X734487Y323454D02*
X733654Y322621D01*
X731988D01*
X731155Y323454D01*
Y324287D01*
X731988Y325120D01*
X732821D01*
X731988D01*
X731155Y325953D01*
Y326786D01*
X731988Y327619D01*
X733654D01*
X734487Y326786D01*
X523595Y488991D02*
Y493989D01*
X521096D01*
X520263Y493156D01*
Y489824D01*
X521096Y488991D01*
X523595D01*
X516098Y493989D02*
Y488991D01*
X518597Y491490D01*
X515265D01*
D23*
X938886Y90195D02*
X946883D01*
X950882Y86197D01*
X946883Y82198D01*
X938886D01*
X944884D01*
Y90195D01*
X950882Y70202D02*
Y78199D01*
X938886D01*
Y70202D01*
X944884Y78199D02*
Y74201D01*
X938886Y66203D02*
Y62204D01*
Y64204D01*
X950882D01*
X948883Y66203D01*
D24*
X826857Y271856D02*
D03*
Y243777D02*
D03*
D25*
X798777Y271856D02*
D03*
Y243777D02*
D03*
D26*
X470171Y483605D02*
D03*
Y463106D02*
D03*
X421911Y483605D02*
D03*
Y463106D02*
D03*
X490852Y483605D02*
D03*
Y463106D02*
D03*
X722630Y203290D02*
D03*
Y182790D02*
D03*
X490852Y207746D02*
D03*
Y228246D02*
D03*
X470171Y207746D02*
D03*
Y228246D02*
D03*
X380001Y54345D02*
D03*
Y33846D02*
D03*
X740414Y242660D02*
D03*
Y222160D02*
D03*
X802640Y318680D02*
D03*
Y339180D02*
D03*
X783590Y318680D02*
D03*
Y339180D02*
D03*
X906784Y312330D02*
D03*
Y332830D02*
D03*
X421911Y228246D02*
D03*
Y207746D02*
D03*
X433061Y309782D02*
D03*
Y289282D02*
D03*
X397781Y309615D02*
D03*
Y289116D02*
D03*
X414291Y309615D02*
D03*
Y289116D02*
D03*
X800100Y196940D02*
D03*
Y176440D02*
D03*
X820420Y196940D02*
D03*
Y176440D02*
D03*
X381271Y309705D02*
D03*
Y289205D02*
D03*
X413021Y33846D02*
D03*
Y54345D02*
D03*
X430519Y33846D02*
D03*
Y54345D02*
D03*
X396511Y33846D02*
D03*
Y54345D02*
D03*
D27*
X438421Y481336D02*
D03*
Y462835D02*
D03*
X453661Y481336D02*
D03*
Y462835D02*
D03*
Y207475D02*
D03*
Y225976D02*
D03*
X438421Y207475D02*
D03*
Y225976D02*
D03*
X664210Y507640D02*
D03*
Y526140D02*
D03*
X466361Y307436D02*
D03*
Y288935D02*
D03*
X855984Y197210D02*
D03*
Y178710D02*
D03*
X485411Y307436D02*
D03*
Y288935D02*
D03*
X484141Y33575D02*
D03*
Y52076D02*
D03*
X465091Y33575D02*
D03*
Y52076D02*
D03*
D28*
X775970Y184270D02*
D03*
Y199270D02*
D03*
D29*
X754705Y177800D02*
D03*
X743895D02*
D03*
X754705Y196850D02*
D03*
X743895D02*
D03*
D30*
X761872Y445770D02*
D03*
X724027D02*
D03*
D31*
X661390Y359174D02*
D03*
D32*
X727616Y496640D02*
D03*
X708116D02*
D03*
X734116D02*
D03*
X721116D02*
D03*
X714616D02*
D03*
D33*
X712741Y523240D02*
D03*
X729491D02*
D03*
D34*
X691986D02*
D03*
X750241D02*
D03*
D35*
X745966Y500240D02*
D03*
X696266D02*
D03*
D36*
X802894Y53010D02*
D03*
X791894D02*
D03*
X780894D02*
D03*
X769894D02*
D03*
X758894D02*
D03*
X747894D02*
D03*
X736894D02*
D03*
X725894D02*
D03*
D37*
X702144Y110010D02*
D03*
X839644D02*
D03*
X702144Y27010D02*
D03*
X839644D02*
D03*
D38*
X633070Y279400D02*
D03*
Y254000D02*
D03*
Y228600D02*
D03*
X588670Y279400D02*
D03*
Y254000D02*
D03*
Y228600D02*
D03*
Y353060D02*
D03*
X633070D02*
D03*
X588670Y327660D02*
D03*
X633070D02*
D03*
Y142240D02*
D03*
X588670D02*
D03*
X633070Y167640D02*
D03*
X588670D02*
D03*
X633087Y408940D02*
D03*
X588687D02*
D03*
X633087Y434340D02*
D03*
X588687D02*
D03*
D39*
X551180Y431170D02*
D03*
Y447670D02*
D03*
D40*
X928374Y402621D02*
D03*
Y361970D02*
D03*
X915674Y402621D02*
D03*
Y361970D02*
D03*
X902974Y402621D02*
D03*
Y361970D02*
D03*
X890274Y402621D02*
D03*
Y361970D02*
D03*
X877574Y402621D02*
D03*
Y361970D02*
D03*
D41*
X565530Y478790D02*
D03*
X549530D02*
D03*
D42*
X557530Y461540D02*
D03*
Y496040D02*
D03*
D43*
X852043Y326560D02*
D03*
X865540D02*
D03*
Y316060D02*
D03*
X852043D02*
D03*
D44*
X740220Y407670D02*
D03*
X744220D02*
D03*
X748220D02*
D03*
X740220Y403670D02*
D03*
X744220D02*
D03*
X748220D02*
D03*
X740220Y399670D02*
D03*
X744220D02*
D03*
X748220D02*
D03*
D45*
X945421Y206779D02*
D03*
Y194531D02*
D03*
D46*
X943150Y200660D02*
D03*
X947691D02*
D03*
D47*
X845024Y432460D02*
D03*
Y451460D02*
D03*
X872024D02*
D03*
Y441960D02*
D03*
Y432460D02*
D03*
D48*
X148684Y289205D02*
D03*
X131184D02*
D03*
X148721Y65686D02*
D03*
X131221D02*
D03*
X221111Y289205D02*
D03*
X203611D02*
D03*
X221111Y65686D02*
D03*
X203611D02*
D03*
X148684Y345085D02*
D03*
X131184D02*
D03*
X148684Y121566D02*
D03*
X131184D02*
D03*
X221111Y345085D02*
D03*
X203611D02*
D03*
X221111Y121566D02*
D03*
X203611D02*
D03*
X148684Y400965D02*
D03*
X131184D02*
D03*
X148684Y177405D02*
D03*
X131184D02*
D03*
X221111Y400965D02*
D03*
X203611D02*
D03*
X221111Y177405D02*
D03*
X203611D02*
D03*
X148684Y456846D02*
D03*
X131184D02*
D03*
X148684Y233326D02*
D03*
X131184D02*
D03*
X221111Y456846D02*
D03*
X203611D02*
D03*
X221111Y233326D02*
D03*
X203611D02*
D03*
X148467Y307340D02*
D03*
X130967D02*
D03*
X148721Y83465D02*
D03*
X131221D02*
D03*
X221111Y305716D02*
D03*
X203611D02*
D03*
X221111Y82196D02*
D03*
X203611D02*
D03*
X148684Y362865D02*
D03*
X131184D02*
D03*
X148684Y139346D02*
D03*
X131184D02*
D03*
X221111Y361595D02*
D03*
X203611D02*
D03*
X221111Y138076D02*
D03*
X203611D02*
D03*
X148684Y418745D02*
D03*
X131184D02*
D03*
X148684Y195186D02*
D03*
X131184D02*
D03*
X221111Y417476D02*
D03*
X203611D02*
D03*
X221111Y193916D02*
D03*
X203611D02*
D03*
X148684Y474626D02*
D03*
X131184D02*
D03*
X148684Y251105D02*
D03*
X131184D02*
D03*
X221111Y473355D02*
D03*
X203611D02*
D03*
X221111Y249835D02*
D03*
X203611D02*
D03*
D49*
X751960Y377190D02*
D03*
X766960D02*
D03*
X735210D02*
D03*
X720210D02*
D03*
X675520Y468630D02*
D03*
X660520D02*
D03*
X766960Y477520D02*
D03*
X751960D02*
D03*
X848484Y471170D02*
D03*
X863484D02*
D03*
X894200Y431800D02*
D03*
X909200D02*
D03*
X563760Y511810D02*
D03*
X548760D02*
D03*
X783470Y412750D02*
D03*
X768470D02*
D03*
X710050Y411480D02*
D03*
X725050D02*
D03*
X904120Y238760D02*
D03*
X889120D02*
D03*
X788427Y357268D02*
D03*
X803427D02*
D03*
X768470Y396240D02*
D03*
X783470D02*
D03*
X19561Y162560D02*
D03*
X34561D02*
D03*
X815460Y401320D02*
D03*
X830460D02*
D03*
D50*
X765810Y329050D02*
D03*
Y344050D02*
D03*
X647700Y510660D02*
D03*
Y525660D02*
D03*
X824230Y383420D02*
D03*
Y368420D02*
D03*
X693420Y425330D02*
D03*
Y410330D02*
D03*
D51*
X607299Y497121D02*
D03*
D52*
Y512122D02*
D03*
Y482120D02*
D03*
D53*
X592298Y515620D02*
D03*
X622300D02*
D03*
Y478622D02*
D03*
X592298D02*
D03*
D54*
X889508Y450088D02*
D03*
X908558D02*
D03*
X899160Y471170D02*
D03*
D55*
X688770Y194390D02*
D03*
Y204390D02*
D03*
X672670D02*
D03*
Y199390D02*
D03*
Y194390D02*
D03*
X647270Y374730D02*
D03*
Y379730D02*
D03*
Y384730D02*
D03*
X663370D02*
D03*
Y374730D02*
D03*
X676070Y308530D02*
D03*
Y303530D02*
D03*
Y298530D02*
D03*
X659970D02*
D03*
Y308530D02*
D03*
X670130Y152480D02*
D03*
Y157480D02*
D03*
Y162480D02*
D03*
X686230D02*
D03*
Y152480D02*
D03*
X268827Y490300D02*
D03*
Y495300D02*
D03*
Y500300D02*
D03*
X284927D02*
D03*
Y490300D02*
D03*
D56*
X686720Y199390D02*
D03*
X661320Y379730D02*
D03*
X662020Y303530D02*
D03*
X684180Y157480D02*
D03*
X282877Y495300D02*
D03*
D57*
X926355Y445262D02*
D03*
Y479044D02*
D03*
D58*
X337904Y329360D02*
D03*
X342904D02*
D03*
X347904D02*
D03*
Y313260D02*
D03*
X337904D02*
D03*
X899240Y185850D02*
D03*
X904240D02*
D03*
X909240D02*
D03*
Y169750D02*
D03*
X899240D02*
D03*
D59*
X342904Y315310D02*
D03*
X904240Y171800D02*
D03*
D60*
X47691Y280629D02*
D03*
Y275631D02*
D03*
Y310629D02*
D03*
Y320629D02*
D03*
Y295631D02*
D03*
Y305631D02*
D03*
Y300629D02*
D03*
Y290629D02*
D03*
Y315631D02*
D03*
Y340629D02*
D03*
Y350629D02*
D03*
Y325630D02*
D03*
Y330629D02*
D03*
Y335630D02*
D03*
Y345630D02*
D03*
Y355559D02*
D03*
Y285631D02*
D03*
Y270629D02*
D03*
Y265631D02*
D03*
Y260629D02*
D03*
Y255631D02*
D03*
Y250629D02*
D03*
Y245631D02*
D03*
Y240629D02*
D03*
Y235631D02*
D03*
Y230630D02*
D03*
Y225631D02*
D03*
Y220630D02*
D03*
Y215631D02*
D03*
Y210630D02*
D03*
Y205631D02*
D03*
Y200701D02*
D03*
D61*
X22692Y365595D02*
D03*
Y190665D02*
D03*
D62*
X745744Y360680D02*
D03*
X745490Y341630D02*
D03*
X722630Y351155D02*
D03*
Y360680D02*
D03*
Y341630D02*
D03*
X745744Y351282D02*
D03*
D63*
X313694Y455320D02*
D03*
Y499720D02*
D03*
X339094Y455320D02*
D03*
Y499720D02*
D03*
X54881Y478130D02*
D03*
Y433730D02*
D03*
X29481Y478130D02*
D03*
Y433730D02*
D03*
X313707Y236880D02*
D03*
Y281280D02*
D03*
X339107Y236880D02*
D03*
Y281280D02*
D03*
D64*
X774672Y225810D02*
D03*
Y229810D02*
D03*
Y233810D02*
D03*
Y237810D02*
D03*
Y241810D02*
D03*
Y245810D02*
D03*
Y249810D02*
D03*
Y253810D02*
D03*
Y257810D02*
D03*
Y261810D02*
D03*
Y265810D02*
D03*
Y269810D02*
D03*
Y273810D02*
D03*
Y277810D02*
D03*
Y281810D02*
D03*
Y285810D02*
D03*
Y289810D02*
D03*
X850963D02*
D03*
Y285810D02*
D03*
Y281810D02*
D03*
Y277810D02*
D03*
Y273810D02*
D03*
Y269810D02*
D03*
Y265810D02*
D03*
Y261810D02*
D03*
Y257810D02*
D03*
Y253810D02*
D03*
Y249810D02*
D03*
Y245810D02*
D03*
Y241810D02*
D03*
Y237810D02*
D03*
Y233810D02*
D03*
Y229810D02*
D03*
Y225810D02*
D03*
D65*
X780817Y295956D02*
D03*
X784817D02*
D03*
X788817D02*
D03*
X792817D02*
D03*
X796817D02*
D03*
X800817D02*
D03*
X804817D02*
D03*
X808817D02*
D03*
X812817D02*
D03*
X816817D02*
D03*
X820817D02*
D03*
X824817D02*
D03*
X828817D02*
D03*
X832817D02*
D03*
X836817D02*
D03*
X840817D02*
D03*
X844817D02*
D03*
Y219664D02*
D03*
X840817D02*
D03*
X836817D02*
D03*
X832817D02*
D03*
X828817D02*
D03*
X824817D02*
D03*
X820817D02*
D03*
X816817D02*
D03*
X812817D02*
D03*
X808817D02*
D03*
X804817D02*
D03*
X800817D02*
D03*
X796817D02*
D03*
X792817D02*
D03*
X788817D02*
D03*
X784817D02*
D03*
D66*
X780817D02*
D03*
D67*
X550530Y528320D02*
D03*
X564530D02*
D03*
D68*
X665260Y72030D02*
D03*
X574260D02*
D03*
X665260Y27030D02*
D03*
X574260D02*
D03*
D69*
X905382Y224999D02*
D03*
X888882D02*
D03*
X516264Y115570D02*
D03*
X532764D02*
D03*
X704210Y278130D02*
D03*
X687710D02*
D03*
X697874Y233680D02*
D03*
X714374D02*
D03*
X518804Y369570D02*
D03*
X535304D02*
D03*
X805814Y160020D02*
D03*
X789314D02*
D03*
X837564D02*
D03*
X821064D02*
D03*
D70*
X813653Y434340D02*
D03*
X827187D02*
D03*
D71*
X944884Y440540D02*
D03*
Y453540D02*
D03*
X883937Y212240D02*
D03*
Y199240D02*
D03*
X871491Y212240D02*
D03*
Y199240D02*
D03*
X518164Y444350D02*
D03*
Y457350D02*
D03*
X515624Y204620D02*
D03*
Y191620D02*
D03*
X782115Y463992D02*
D03*
Y476991D02*
D03*
X799400Y463992D02*
D03*
Y476991D02*
D03*
X926101Y326540D02*
D03*
Y313540D02*
D03*
X957584Y453540D02*
D03*
Y440540D02*
D03*
D72*
X884317Y168530D02*
D03*
Y184530D02*
D03*
X871491Y168530D02*
D03*
Y184530D02*
D03*
X529594Y190120D02*
D03*
Y206120D02*
D03*
X533404Y442850D02*
D03*
Y458850D02*
D03*
X957190Y482980D02*
D03*
Y466980D02*
D03*
X944490Y482980D02*
D03*
Y466980D02*
D03*
X782115Y491701D02*
D03*
Y507701D02*
D03*
X799400Y491701D02*
D03*
Y507701D02*
D03*
D73*
X945167Y244903D02*
D03*
Y252474D02*
D03*
D74*
X929288Y230909D02*
D03*
X945805D02*
D03*
D75*
X944897Y147587D02*
D03*
Y154673D02*
D03*
D76*
X932547Y172720D02*
D03*
X944547D02*
D03*
X163181Y83465D02*
D03*
X175181D02*
D03*
Y65686D02*
D03*
X163181D02*
D03*
X163144Y139346D02*
D03*
X175144D02*
D03*
Y121566D02*
D03*
X163144D02*
D03*
Y195186D02*
D03*
X175144D02*
D03*
Y177405D02*
D03*
X163144D02*
D03*
X175144Y251105D02*
D03*
X163144D02*
D03*
Y233326D02*
D03*
X175144D02*
D03*
X163144Y306985D02*
D03*
X175144D02*
D03*
Y289205D02*
D03*
X163144D02*
D03*
Y362865D02*
D03*
X175144D02*
D03*
Y345085D02*
D03*
X163144D02*
D03*
Y418745D02*
D03*
X175144D02*
D03*
Y400965D02*
D03*
X163144D02*
D03*
Y474626D02*
D03*
X175144D02*
D03*
Y456846D02*
D03*
X163144D02*
D03*
X235571Y473355D02*
D03*
X247571D02*
D03*
Y456846D02*
D03*
X235571D02*
D03*
Y417476D02*
D03*
X247571D02*
D03*
Y400965D02*
D03*
X235571D02*
D03*
Y361595D02*
D03*
X247571D02*
D03*
Y345085D02*
D03*
X235571D02*
D03*
Y305716D02*
D03*
X247571D02*
D03*
Y289205D02*
D03*
X235571D02*
D03*
X247571Y249835D02*
D03*
X235571D02*
D03*
Y233326D02*
D03*
X247571D02*
D03*
Y193916D02*
D03*
X235571D02*
D03*
Y177405D02*
D03*
X247571D02*
D03*
X235571Y138076D02*
D03*
X247571D02*
D03*
Y121566D02*
D03*
X235571D02*
D03*
Y82196D02*
D03*
X247571D02*
D03*
Y65686D02*
D03*
X235571D02*
D03*
D77*
X932549Y266469D02*
D03*
X945084D02*
D03*
D78*
X944884Y31200D02*
D03*
D79*
Y123700D02*
D03*
D80*
X381171Y169046D02*
D03*
Y164046D02*
D03*
Y159046D02*
D03*
Y154045D02*
D03*
Y149046D02*
D03*
Y144045D02*
D03*
Y139046D02*
D03*
Y134045D02*
D03*
Y129046D02*
D03*
Y124045D02*
D03*
Y119046D02*
D03*
Y114046D02*
D03*
Y109046D02*
D03*
Y104046D02*
D03*
Y99046D02*
D03*
Y94046D02*
D03*
X495671D02*
D03*
Y99046D02*
D03*
Y104046D02*
D03*
Y109046D02*
D03*
Y114046D02*
D03*
Y119046D02*
D03*
Y124045D02*
D03*
Y129046D02*
D03*
Y134045D02*
D03*
Y139046D02*
D03*
Y144045D02*
D03*
Y149046D02*
D03*
Y154045D02*
D03*
Y159046D02*
D03*
Y164046D02*
D03*
Y169046D02*
D03*
Y424406D02*
D03*
Y419405D02*
D03*
Y414406D02*
D03*
Y409405D02*
D03*
Y404406D02*
D03*
Y399405D02*
D03*
Y394406D02*
D03*
Y389405D02*
D03*
Y384406D02*
D03*
Y379406D02*
D03*
Y374406D02*
D03*
Y369406D02*
D03*
Y364406D02*
D03*
Y359406D02*
D03*
Y354406D02*
D03*
Y349406D02*
D03*
X381171D02*
D03*
Y354406D02*
D03*
Y359406D02*
D03*
Y364406D02*
D03*
Y369406D02*
D03*
Y374406D02*
D03*
Y379406D02*
D03*
Y384406D02*
D03*
Y389405D02*
D03*
Y394406D02*
D03*
Y399405D02*
D03*
Y404406D02*
D03*
Y409405D02*
D03*
Y414406D02*
D03*
Y419405D02*
D03*
Y424406D02*
D03*
D81*
X400921Y74296D02*
D03*
X405922D02*
D03*
X410921D02*
D03*
X415922D02*
D03*
X420921D02*
D03*
X425922D02*
D03*
X430921D02*
D03*
X435922D02*
D03*
X440921D02*
D03*
X445922D02*
D03*
X450921D02*
D03*
X455921D02*
D03*
X460921D02*
D03*
X465921D02*
D03*
X470921D02*
D03*
X475921D02*
D03*
Y188796D02*
D03*
X470921D02*
D03*
X465921D02*
D03*
X460921D02*
D03*
X455921D02*
D03*
X450921D02*
D03*
X445922D02*
D03*
X440921D02*
D03*
X435922D02*
D03*
X430921D02*
D03*
X425922D02*
D03*
X420921D02*
D03*
X415922D02*
D03*
X410921D02*
D03*
X405922D02*
D03*
X400921D02*
D03*
Y444156D02*
D03*
X405922D02*
D03*
X410921D02*
D03*
X415922D02*
D03*
X420921D02*
D03*
X425922D02*
D03*
X430921D02*
D03*
X435922D02*
D03*
X440921D02*
D03*
X445922D02*
D03*
X450921D02*
D03*
X455921D02*
D03*
X460921D02*
D03*
X465921D02*
D03*
X470921D02*
D03*
X475921D02*
D03*
Y329655D02*
D03*
X470921D02*
D03*
X465921D02*
D03*
X460921D02*
D03*
X455921D02*
D03*
X450921D02*
D03*
X445922D02*
D03*
X440921D02*
D03*
X435922D02*
D03*
X430921D02*
D03*
X425922D02*
D03*
X420921D02*
D03*
X415922D02*
D03*
X410921D02*
D03*
X405922D02*
D03*
X400921D02*
D03*
D82*
X957964Y323850D02*
D03*
X941964D02*
D03*
X957964Y309880D02*
D03*
X941964D02*
D03*
X727320Y325120D02*
D03*
X743320D02*
D03*
X511430Y491490D02*
D03*
X527430D02*
D03*
D83*
X512680Y505460D02*
D03*
X526180D02*
D03*
D84*
X826874Y521970D02*
D03*
X902874D02*
D03*
D85*
X852374Y492970D02*
D03*
X864874D02*
D03*
X877374D02*
D03*
D86*
X439903Y267970D02*
D03*
X454212D02*
D03*
D87*
X26411Y69850D02*
D03*
Y133350D02*
D03*
D88*
X55411Y95350D02*
D03*
Y107850D02*
D03*
D89*
X744310Y278130D02*
D03*
X723810D02*
D03*
X419014Y505460D02*
D03*
X439514D02*
D03*
X440784Y247650D02*
D03*
X420284D02*
D03*
X885100Y254000D02*
D03*
X905600D02*
D03*
D90*
X824234Y329060D02*
D03*
Y315560D02*
D03*
X824230Y353460D02*
D03*
Y339960D02*
D03*
D91*
X455570Y505460D02*
D03*
X474070D02*
D03*
X474342Y247650D02*
D03*
X455841D02*
D03*
X533764Y173380D02*
D03*
X515264D02*
D03*
X512724Y427990D02*
D03*
X531224D02*
D03*
D92*
X730090Y311150D02*
D03*
X743090D02*
D03*
X944734Y336550D02*
D03*
X957734D02*
D03*
D93*
X391431Y219262D02*
D03*
Y206749D02*
D03*
Y462109D02*
D03*
Y474622D02*
D03*
D94*
X386704Y234596D02*
D03*
X401238D02*
D03*
X402148Y491225D02*
D03*
X387614D02*
D03*
D95*
X373651Y237285D02*
D03*
Y224286D02*
D03*
Y479646D02*
D03*
Y492645D02*
D03*
D96*
X550572Y43180D02*
D03*
X504071D02*
D03*
X502801Y304800D02*
D03*
X549301D02*
D03*
D97*
X448581Y295615D02*
D03*
Y309615D02*
D03*
X447311Y54255D02*
D03*
Y40255D02*
D03*
D98*
X887734Y311500D02*
D03*
Y323500D02*
D03*
D99*
X838200Y196730D02*
D03*
Y181730D02*
D03*
D100*
X930944Y400050D02*
X953770D01*
M02*
