G04*
G04 #@! TF.GenerationSoftware,Altium Limited,Altium Designer,23.8.1 (32)*
G04*
G04 Layer_Color=128*
%FSLAX44Y44*%
%MOMM*%
G71*
G04*
G04 #@! TF.SameCoordinates,B2355FDD-5490-460F-BBB4-22D25E5E3D0D*
G04*
G04*
G04 #@! TF.FilePolarity,Positive*
G04*
G01*
G75*
%ADD19C,0.1001*%
%ADD20C,0.1999*%
%ADD21C,0.1500*%
%ADD22C,0.0500*%
%ADD23C,0.1200*%
%ADD157C,0.0508*%
D19*
X837791Y302311D02*
Y340309D01*
Y302311D02*
X879792D01*
Y340309D01*
X837791D02*
X879792D01*
X931420Y182659D02*
Y223660D01*
Y182659D02*
X959421D01*
Y223660D01*
X931420D02*
X959421D01*
X574799Y461122D02*
Y533121D01*
Y461122D02*
X639798D01*
Y533121D01*
X574799D02*
X639798D01*
X584799Y484622D02*
Y509621D01*
Y484622D02*
X629798D01*
Y509621D01*
X584799D02*
X629798D01*
X17292Y368300D02*
X25419D01*
X41674D01*
X49801D01*
X17292Y187960D02*
Y368770D01*
Y187960D02*
X49801D01*
X7292Y368300D02*
X61691D01*
X7292Y187960D02*
Y368300D01*
Y187960D02*
X61691D01*
Y368300D01*
X49801Y187960D02*
Y368770D01*
D20*
X848791Y313309D02*
Y329311D01*
Y313309D02*
X868791D01*
Y329311D01*
X848791D02*
X868791D01*
X941420Y192659D02*
Y208661D01*
Y192659D02*
X949421D01*
Y208661D01*
X941420D02*
X949421D01*
D21*
X768395Y87508D02*
X763396D01*
X765895D01*
Y75012D01*
X763396Y72512D01*
X760897D01*
X758398Y75012D01*
X773393Y85008D02*
X775892Y87508D01*
X780891D01*
X783390Y85008D01*
Y82509D01*
X780891Y80010D01*
X778391D01*
X780891D01*
X783390Y77511D01*
Y75012D01*
X780891Y72512D01*
X775892D01*
X773393Y75012D01*
D22*
X553679Y441919D02*
Y445251D01*
X551180D01*
Y443585D01*
Y445251D01*
X548681D01*
X553679Y440253D02*
X548681D01*
Y437754D01*
X549514Y436921D01*
X550347D01*
X551180Y437754D01*
Y440253D01*
Y437754D01*
X552013Y436921D01*
X552846D01*
X553679Y437754D01*
Y440253D01*
X548681Y435255D02*
Y433588D01*
Y434422D01*
X553679D01*
X552846Y435255D01*
X881818Y172365D02*
X886817D01*
Y174864D01*
X885984Y175697D01*
X882651D01*
X881818Y174864D01*
Y172365D01*
X882651Y177363D02*
X881818Y178196D01*
Y179862D01*
X882651Y180695D01*
X883484D01*
X884317Y179862D01*
X885151Y180695D01*
X885984D01*
X886817Y179862D01*
Y178196D01*
X885984Y177363D01*
X885151D01*
X884317Y178196D01*
X883484Y177363D01*
X882651D01*
X884317Y178196D02*
Y179862D01*
X868992Y172365D02*
X873990D01*
Y174864D01*
X873158Y175697D01*
X869825D01*
X868992Y174864D01*
Y172365D01*
Y177363D02*
Y180695D01*
X869825D01*
X873158Y177363D01*
X873990D01*
X527095Y191872D02*
X532093D01*
Y194371D01*
X531260Y195204D01*
X527928D01*
X527095Y194371D01*
Y191872D01*
X532093Y196870D02*
Y198536D01*
Y197703D01*
X527095D01*
X527928Y196870D01*
X532093Y203535D02*
X527095D01*
X529594Y201036D01*
Y204368D01*
X530905Y444602D02*
X535903D01*
Y447101D01*
X535070Y447934D01*
X531738D01*
X530905Y447101D01*
Y444602D01*
X535903Y449600D02*
Y451267D01*
Y450434D01*
X530905D01*
X531738Y449600D01*
Y453766D02*
X530905Y454599D01*
Y456265D01*
X531738Y457098D01*
X532571D01*
X533404Y456265D01*
Y455432D01*
Y456265D01*
X534237Y457098D01*
X535070D01*
X535903Y456265D01*
Y454599D01*
X535070Y453766D01*
X954129Y321351D02*
Y326349D01*
X951630D01*
X950797Y325516D01*
Y322184D01*
X951630Y321351D01*
X954129D01*
X949131Y325516D02*
X948298Y326349D01*
X946632D01*
X945798Y325516D01*
Y322184D01*
X946632Y321351D01*
X948298D01*
X949131Y322184D01*
Y323017D01*
X948298Y323850D01*
X945798D01*
X956212Y307381D02*
Y312379D01*
X953713D01*
X952879Y311546D01*
Y308214D01*
X953713Y307381D01*
X956212D01*
X951213Y312379D02*
X949547D01*
X950380D01*
Y307381D01*
X951213Y308214D01*
X947048D02*
X946215Y307381D01*
X944549D01*
X943716Y308214D01*
Y311546D01*
X944549Y312379D01*
X946215D01*
X947048Y311546D01*
Y308214D01*
X959689Y479145D02*
X954691D01*
Y476646D01*
X955524Y475813D01*
X958856D01*
X959689Y476646D01*
Y479145D01*
Y470815D02*
Y474147D01*
X957190D01*
X958023Y472481D01*
Y471648D01*
X957190Y470815D01*
X955524D01*
X954691Y471648D01*
Y473314D01*
X955524Y474147D01*
X946989Y479145D02*
X941991D01*
Y476646D01*
X942824Y475813D01*
X946156D01*
X946989Y476646D01*
Y479145D01*
Y470815D02*
X946156Y472481D01*
X944490Y474147D01*
X942824D01*
X941991Y473314D01*
Y471648D01*
X942824Y470815D01*
X943657D01*
X944490Y471648D01*
Y474147D01*
X784614Y505116D02*
X779616D01*
Y502617D01*
X780449Y501784D01*
X783781D01*
X784614Y502617D01*
Y505116D01*
X779616Y500118D02*
Y498452D01*
Y499285D01*
X784614D01*
X783781Y500118D01*
X779616Y495952D02*
Y494286D01*
Y495120D01*
X784614D01*
X783781Y495952D01*
X801900Y505949D02*
X796901D01*
Y503450D01*
X797734Y502617D01*
X801067D01*
X801900Y503450D01*
Y505949D01*
X796901Y500951D02*
Y499285D01*
Y500118D01*
X801900D01*
X801067Y500951D01*
X796901Y493453D02*
Y496786D01*
X800234Y493453D01*
X801067D01*
X801900Y494286D01*
Y495952D01*
X801067Y496786D01*
X739486Y322621D02*
Y327619D01*
X736986D01*
X736153Y326786D01*
Y323454D01*
X736986Y322621D01*
X739486D01*
X734487Y323454D02*
X733654Y322621D01*
X731988D01*
X731155Y323454D01*
Y324287D01*
X731988Y325120D01*
X732821D01*
X731988D01*
X731155Y325953D01*
Y326786D01*
X731988Y327619D01*
X733654D01*
X734487Y326786D01*
X523595Y488991D02*
Y493989D01*
X521096D01*
X520263Y493156D01*
Y489824D01*
X521096Y488991D01*
X523595D01*
X516098Y493989D02*
Y488991D01*
X518597Y491490D01*
X515265D01*
D23*
X938886Y90195D02*
X946883D01*
X950882Y86197D01*
X946883Y82198D01*
X938886D01*
X944884D01*
Y90195D01*
X950882Y70202D02*
Y78199D01*
X938886D01*
Y70202D01*
X944884Y78199D02*
Y74201D01*
X938886Y66203D02*
Y62204D01*
Y64204D01*
X950882D01*
X948883Y66203D01*
D157*
X462819Y247381D02*
X464819D01*
X463819Y246381D02*
Y248381D01*
X457202Y514615D02*
X459202D01*
X458203Y513615D02*
Y515615D01*
X743220Y209550D02*
X745220D01*
X744220Y208550D02*
Y210550D01*
X763544Y217077D02*
X765544D01*
X764544Y216077D02*
Y218077D01*
X773700Y212090D02*
X775700D01*
X774700Y211090D02*
Y213090D01*
X842280Y209550D02*
X844280D01*
X843280Y208550D02*
Y210550D01*
X848630Y209550D02*
X850630D01*
X849630Y208550D02*
Y210550D01*
X715280Y430530D02*
X717280D01*
X716280Y429530D02*
Y431530D01*
X703850Y440690D02*
X705850D01*
X704850Y439690D02*
Y441690D01*
X694960Y439420D02*
X696960D01*
X695960Y438420D02*
Y440420D01*
X703850Y449580D02*
X705850D01*
X704850Y448580D02*
Y450580D01*
X703850Y431800D02*
X705850D01*
X704850Y430800D02*
Y432800D01*
X703850Y422910D02*
X705850D01*
X704850Y421910D02*
Y423910D01*
X725440Y462280D02*
X727440D01*
X726440Y461280D02*
Y463280D01*
X664480Y391160D02*
X666480D01*
X665480Y390160D02*
Y392160D01*
X712740Y400050D02*
X714740D01*
X713740Y399050D02*
Y401050D01*
X668290Y411480D02*
X670290D01*
X669290Y410480D02*
Y412480D01*
X585740Y367030D02*
X587740D01*
X586740Y366030D02*
Y368030D01*
X805991Y308791D02*
X807991D01*
X806991Y307791D02*
Y309791D01*
X804180Y369570D02*
X806180D01*
X805180Y368570D02*
Y370570D01*
X714010Y277241D02*
X716010D01*
X715010Y276241D02*
Y278242D01*
X650510Y154940D02*
X652510D01*
X651510Y153940D02*
Y155940D01*
X616981Y215953D02*
X618981D01*
X617981Y214953D02*
Y216953D01*
X490946Y442505D02*
X492946D01*
X491946Y441505D02*
Y443505D01*
X526506Y517435D02*
X528506D01*
X527506Y516435D02*
Y518435D01*
X640350Y466090D02*
X642350D01*
X641350Y465090D02*
Y467090D01*
X924014Y291266D02*
X926014D01*
X925014Y290266D02*
Y292267D01*
X917474Y291266D02*
X919474D01*
X918474Y290266D02*
Y292267D01*
X910934Y291266D02*
X912934D01*
X911934Y290266D02*
Y292267D01*
X904394Y291266D02*
X906394D01*
X905394Y290266D02*
Y292267D01*
X897854Y291266D02*
X899854D01*
X898854Y290266D02*
Y292267D01*
X891314Y291266D02*
X893314D01*
X892314Y290266D02*
Y292267D01*
X884774Y291266D02*
X886774D01*
X885774Y290266D02*
Y292267D01*
X878234Y291266D02*
X880234D01*
X879234Y290266D02*
Y292267D01*
X878279Y264353D02*
X880279D01*
X879279Y263353D02*
Y265353D01*
X884819Y264353D02*
X886819D01*
X885819Y263353D02*
Y265353D01*
X891359Y264353D02*
X893359D01*
X892359Y263353D02*
Y265353D01*
X897899Y264353D02*
X899899D01*
X898899Y263353D02*
Y265353D01*
X904439Y264353D02*
X906439D01*
X905439Y263353D02*
Y265353D01*
X910979Y264353D02*
X912979D01*
X911979Y263353D02*
Y265353D01*
X917519Y264353D02*
X919519D01*
X918519Y263353D02*
Y265353D01*
X924059Y264353D02*
X926059D01*
X925059Y263353D02*
Y265353D01*
X928556Y259605D02*
X930556D01*
X929556Y258605D02*
Y260605D01*
X929701Y253166D02*
X931701D01*
X930701Y252166D02*
Y254166D01*
X929701Y246626D02*
X931701D01*
X930701Y245626D02*
Y247626D01*
X927545Y240451D02*
X929545D01*
X928545Y239451D02*
Y241451D01*
X927708Y220973D02*
X929708D01*
X928708Y219973D02*
Y221973D01*
X930710Y215163D02*
X932710D01*
X931710Y214163D02*
Y216163D01*
X928912Y208875D02*
X930912D01*
X929912Y207875D02*
Y209875D01*
X929220Y202342D02*
X931220D01*
X930220Y201342D02*
Y203342D01*
X928817Y195815D02*
X930817D01*
X929817Y194815D02*
Y196815D01*
X929523Y189313D02*
X931523D01*
X930523Y188313D02*
Y190313D01*
X929114Y182786D02*
X931114D01*
X930114Y181786D02*
Y183786D01*
X928799Y163416D02*
X930798D01*
X929799Y162416D02*
Y164416D01*
X929480Y156912D02*
X931480D01*
X930480Y155912D02*
Y157912D01*
X929482Y150372D02*
X931482D01*
X930482Y149372D02*
Y151372D01*
X929610Y143833D02*
X931610D01*
X930610Y142833D02*
Y144833D01*
X958315Y145486D02*
X960315D01*
X959315Y144486D02*
Y146486D01*
X958315Y152026D02*
X960315D01*
X959315Y151026D02*
Y153026D01*
X958167Y158564D02*
X960167D01*
X959167Y157564D02*
Y159564D01*
X958975Y165054D02*
X960975D01*
X959975Y164054D02*
Y166054D01*
X959401Y171580D02*
X961401D01*
X960401Y170580D02*
Y172580D01*
X959283Y178119D02*
X961283D01*
X960283Y177119D02*
Y179119D01*
X957623Y184445D02*
X959623D01*
X958623Y183445D02*
Y185445D01*
X959694Y190648D02*
X961694D01*
X960694Y189648D02*
Y191648D01*
X959856Y197186D02*
X961856D01*
X960856Y196186D02*
Y198186D01*
X959803Y203726D02*
X961803D01*
X960803Y202726D02*
Y204726D01*
X959746Y210266D02*
X961746D01*
X960746Y209266D02*
Y211266D01*
X959012Y216765D02*
X961012D01*
X960012Y215765D02*
Y217765D01*
X962461Y222321D02*
X964461D01*
X963461Y221321D02*
Y223321D01*
X962941Y228844D02*
X964941D01*
X963941Y227844D02*
Y229844D01*
X962941Y235384D02*
X964941D01*
X963941Y234384D02*
Y236384D01*
X961520Y241767D02*
X963520D01*
X962520Y240767D02*
Y242767D01*
X958613Y247626D02*
X960613D01*
X959613Y246626D02*
Y248626D01*
X958633Y254166D02*
X960632D01*
X959632Y253166D02*
Y255166D01*
X959744Y260611D02*
X961744D01*
X960744Y259611D02*
Y261611D01*
X959981Y267146D02*
X961981D01*
X960981Y266146D02*
Y268146D01*
X959564Y273673D02*
X961564D01*
X960564Y272673D02*
Y274673D01*
X956191Y279276D02*
X958191D01*
X957191Y278276D02*
Y280276D01*
X950952Y283190D02*
X952952D01*
X951952Y282190D02*
Y284191D01*
X945928Y287377D02*
X947928D01*
X946928Y286377D02*
Y288377D01*
X939981Y290100D02*
X941981D01*
X940981Y289100D02*
Y291100D01*
X933529Y291169D02*
X935529D01*
X934529Y290169D02*
Y292169D01*
X924847Y342819D02*
X926847D01*
X925847Y341819D02*
Y343819D01*
X872877Y292500D02*
X874877D01*
X873877Y291500D02*
Y293500D01*
X885460Y302260D02*
X887460D01*
X886460Y301260D02*
Y303260D01*
X863209Y305465D02*
X865209D01*
X864209Y304465D02*
Y306465D01*
X872783Y257796D02*
X874783D01*
X873783Y256796D02*
Y258797D01*
X684840Y210860D02*
X686840D01*
X685840Y209860D02*
Y211860D01*
X681030Y188000D02*
X683030D01*
X682030Y187000D02*
Y189000D01*
X667447Y260777D02*
X669447D01*
X668447Y259777D02*
Y261777D01*
X681284Y260777D02*
X683284D01*
X682284Y259777D02*
Y261777D01*
X680990Y250190D02*
X682990D01*
X681990Y249190D02*
Y251190D01*
X730520Y268894D02*
X732520D01*
X731520Y267894D02*
Y269894D01*
X672100Y245110D02*
X674100D01*
X673100Y244110D02*
Y246110D01*
X564510Y333101D02*
X566511D01*
X565510Y332100D02*
Y334100D01*
X614950Y265430D02*
X616950D01*
X615950Y264430D02*
Y266430D01*
X659761Y237850D02*
X661760D01*
X660760Y236850D02*
Y238850D01*
X622570Y267970D02*
X624570D01*
X623570Y266970D02*
Y268970D01*
X631460Y341630D02*
X633460D01*
X632460Y340630D02*
Y342630D01*
X617490Y308610D02*
X619490D01*
X618490Y307610D02*
Y309610D01*
X551398Y366536D02*
X553398D01*
X552398Y365536D02*
Y367537D01*
X522240Y379730D02*
X524240D01*
X523240Y378730D02*
Y380730D01*
X560340Y342900D02*
X562340D01*
X561340Y341900D02*
Y343900D01*
X657970Y253130D02*
X659970D01*
X658970Y252130D02*
Y254130D01*
X664029Y254142D02*
X666029D01*
X665029Y253143D02*
Y255142D01*
X618760Y127000D02*
X620760D01*
X619760Y126000D02*
Y128000D01*
X630190Y125650D02*
X632190D01*
X631190Y124650D02*
Y126650D01*
X707459Y194510D02*
X709460D01*
X708459Y193510D02*
Y195511D01*
X559070Y168910D02*
X561070D01*
X560070Y167910D02*
Y169910D01*
X546949Y146745D02*
X548949D01*
X547949Y145745D02*
Y147745D01*
X553994Y151130D02*
X555994D01*
X554994Y150130D02*
Y152130D01*
X579390Y95250D02*
X581390D01*
X580390Y94250D02*
Y96250D01*
X734330Y462280D02*
X736330D01*
X735330Y461280D02*
Y463280D01*
X725440Y471170D02*
X727440D01*
X726440Y470170D02*
Y472170D01*
X733117Y479005D02*
X735117D01*
X734117Y478005D02*
Y480005D01*
X696234Y336550D02*
X698234D01*
X697234Y335550D02*
Y337550D01*
X797830Y452120D02*
X799830D01*
X798830Y451120D02*
Y453120D01*
X803830Y421640D02*
X805830D01*
X804830Y420640D02*
Y422640D01*
X804180Y411480D02*
X806180D01*
X805180Y410480D02*
Y412480D01*
X778780Y452120D02*
X780780D01*
X779780Y451120D02*
Y453120D01*
X460010Y414020D02*
X462010D01*
X461010Y413020D02*
Y415020D01*
X753318Y276798D02*
X755318D01*
X754318Y275798D02*
Y277798D01*
X751941Y285247D02*
X753941D01*
X752941Y284247D02*
Y286247D01*
X756351Y258065D02*
X758352D01*
X757352Y257065D02*
Y259065D01*
X762999Y270510D02*
X764999D01*
X763999Y269510D02*
Y271510D01*
X470174Y392430D02*
X472174D01*
X471174Y391430D02*
Y393430D01*
X700040Y292100D02*
X702040D01*
X701040Y291100D02*
Y293100D01*
X687340Y292100D02*
X689340D01*
X688340Y291100D02*
Y293100D01*
X654470Y279400D02*
X656470D01*
X655470Y278400D02*
Y280400D01*
X835934Y205011D02*
X837934D01*
X836934Y204011D02*
Y206011D01*
X800370Y209550D02*
X802370D01*
X801370Y208550D02*
Y210550D01*
X399400Y96636D02*
X401400D01*
X400400Y95636D02*
Y97636D01*
X385080Y74930D02*
X387080D01*
X386080Y73930D02*
Y75930D01*
X419742Y272671D02*
X421742D01*
X420742Y271671D02*
Y273671D01*
X400320Y347980D02*
X402320D01*
X401320Y346980D02*
Y348980D01*
X508276Y347986D02*
X510276D01*
X509276Y346986D02*
Y348986D01*
X542560Y417830D02*
X544560D01*
X543560Y416830D02*
Y418830D01*
X552720Y417830D02*
X554720D01*
X553720Y416830D02*
Y418830D01*
X542560Y407670D02*
X544560D01*
X543560Y406670D02*
Y408670D01*
X552720Y407670D02*
X554720D01*
X553720Y406670D02*
Y408670D01*
X683530Y100531D02*
X685530D01*
X684530Y99530D02*
Y101531D01*
X682260Y74930D02*
X684260D01*
X683260Y73930D02*
Y75930D01*
X785130Y374650D02*
X787130D01*
X786130Y373650D02*
Y375650D01*
X661940Y486410D02*
X663940D01*
X662940Y485410D02*
Y487410D01*
X661940Y496570D02*
X663940D01*
X662940Y495570D02*
Y497570D01*
X651780Y486410D02*
X653780D01*
X652780Y485410D02*
Y487410D01*
X641620Y496570D02*
X643620D01*
X642620Y495570D02*
Y497570D01*
X651780Y496570D02*
X653780D01*
X652780Y495570D02*
Y497570D01*
X641620Y486410D02*
X643620D01*
X642620Y485410D02*
Y487410D01*
X928901Y431522D02*
X930901D01*
X929901Y430522D02*
Y432522D01*
X928901Y422632D02*
X930901D01*
X929901Y421632D02*
Y423632D01*
X919750Y431800D02*
X921750D01*
X920750Y430800D02*
Y432800D01*
X919750Y422910D02*
X921750D01*
X920750Y421910D02*
Y423910D01*
X791275Y424461D02*
X793275D01*
X792275Y423461D02*
Y425461D01*
X781115Y424461D02*
X783115D01*
X782115Y423461D02*
Y425461D01*
X791480Y435610D02*
X793480D01*
X792480Y434610D02*
Y436610D01*
X781115Y435891D02*
X783115D01*
X782115Y434891D02*
Y436891D01*
X730520Y430530D02*
X732520D01*
X731520Y429530D02*
Y431530D01*
X722900Y430530D02*
X724900D01*
X723900Y429530D02*
Y431530D01*
X720360Y400050D02*
X722360D01*
X721360Y399050D02*
Y401050D01*
X727980Y400050D02*
X729980D01*
X728980Y399050D02*
Y401050D01*
X706394Y356870D02*
X708394D01*
X707394Y355870D02*
Y357870D01*
X760298Y291263D02*
X762298D01*
X761298Y290263D02*
Y292263D01*
X668290Y440690D02*
X670290D01*
X669290Y439690D02*
Y441690D01*
X862600Y262890D02*
X864600D01*
X863600Y261890D02*
Y263890D01*
X898160Y195580D02*
X900160D01*
X899160Y194580D02*
Y196580D01*
X862367Y145016D02*
X864367D01*
X863367Y144016D02*
Y146016D01*
X853714Y142240D02*
X855714D01*
X854714Y141240D02*
Y143240D01*
X868954Y146050D02*
X870954D01*
X869954Y145050D02*
Y147050D01*
X908320Y158750D02*
X910320D01*
X909320Y157750D02*
Y159750D01*
X750840Y95250D02*
X752840D01*
X751840Y94250D02*
Y96250D01*
X758272Y95059D02*
X760273D01*
X759273Y94059D02*
Y96059D01*
X733969Y32659D02*
X735969D01*
X734969Y31660D02*
Y33660D01*
X776240Y31870D02*
X778240D01*
X777240Y30870D02*
Y32870D01*
X908320Y195580D02*
X910320D01*
X909320Y194580D02*
Y196580D01*
X898160Y160020D02*
X900160D01*
X899160Y159020D02*
Y161020D01*
X893080Y213360D02*
X895080D01*
X894080Y212360D02*
Y214360D01*
X767350Y25400D02*
X769350D01*
X768350Y24400D02*
Y26400D01*
X758460Y34290D02*
X760460D01*
X759460Y33290D02*
Y35290D01*
X791480Y34290D02*
X793480D01*
X792480Y33290D02*
Y35290D01*
X908320Y213360D02*
X910320D01*
X909320Y212360D02*
Y214360D01*
X645430Y25400D02*
X647430D01*
X646430Y24400D02*
Y26400D01*
X592090Y25400D02*
X594090D01*
X593090Y24400D02*
Y26400D01*
X861330Y234950D02*
X863330D01*
X862330Y233950D02*
Y235950D01*
X620030Y31750D02*
X622030D01*
X621030Y30750D02*
Y32750D01*
X620030Y20320D02*
X622030D01*
X621030Y19320D02*
Y21320D01*
X609870Y31750D02*
X611870D01*
X610870Y30750D02*
Y32750D01*
X608604Y84190D02*
X610604D01*
X609604Y83190D02*
Y85190D01*
X547644Y119380D02*
X549644D01*
X548644Y118380D02*
Y120380D01*
X838470Y307124D02*
X840470D01*
X839470Y306124D02*
Y308124D01*
X831352Y307078D02*
X833352D01*
X832352Y306077D02*
Y308078D01*
X790214Y308610D02*
X792214D01*
X791214Y307610D02*
Y309610D01*
X781324Y308610D02*
X783324D01*
X782324Y307610D02*
Y309610D01*
X772434Y308610D02*
X774434D01*
X773434Y307610D02*
Y309610D01*
X740680Y388620D02*
X742680D01*
X741680Y387620D02*
Y389620D01*
X829580Y187960D02*
X831580D01*
X830580Y186960D02*
Y188960D01*
X805454Y186690D02*
X807454D01*
X806454Y185690D02*
Y187690D01*
X827840Y204939D02*
X829840D01*
X828840Y203939D02*
Y205939D01*
X816840Y205740D02*
X818840D01*
X817840Y204740D02*
Y206740D01*
X515648Y359705D02*
X517648D01*
X516648Y358705D02*
Y360705D01*
X546370Y388620D02*
X548370D01*
X547370Y387620D02*
Y389620D01*
X522240Y396240D02*
X524240D01*
X523240Y395240D02*
Y397240D01*
X744490Y111760D02*
X746490D01*
X745490Y110760D02*
Y112760D01*
X777510Y142240D02*
X779510D01*
X778510Y141240D02*
Y143240D01*
X922290Y146050D02*
X924290D01*
X923290Y145050D02*
Y147050D01*
X914670Y146050D02*
X916670D01*
X915670Y145050D02*
Y147050D01*
X907050Y146050D02*
X909050D01*
X908050Y145050D02*
Y147050D01*
X861330Y359410D02*
X863330D01*
X862330Y358410D02*
Y360410D01*
X909590Y379730D02*
X911590D01*
X910590Y378730D02*
Y380730D01*
X952770Y400050D02*
X954770D01*
X953770Y399050D02*
Y401050D01*
X456204Y88670D02*
X458204D01*
X457204Y87670D02*
Y89670D01*
X862600Y425809D02*
X864600D01*
X863600Y424809D02*
Y426809D01*
X839740Y386080D02*
X841740D01*
X840740Y385080D02*
Y387080D01*
X821964Y466090D02*
X823964D01*
X822964Y465090D02*
Y467090D01*
X934566Y337819D02*
X936566D01*
X935566Y336819D02*
Y338819D01*
X860060Y256540D02*
X862060D01*
X861060Y255540D02*
Y257540D01*
X927370Y382270D02*
X929370D01*
X928370Y381270D02*
Y383270D01*
X736874Y111760D02*
X738874D01*
X737874Y110760D02*
Y112760D01*
X786212Y142049D02*
X788213D01*
X787213Y141049D02*
Y143049D01*
X792562Y119189D02*
X794563D01*
X793562Y118189D02*
Y120189D01*
X859873Y248729D02*
X861872D01*
X860872Y247729D02*
Y249729D01*
X822909Y209907D02*
X824909D01*
X823909Y208907D02*
Y210907D01*
X810454Y207832D02*
X812454D01*
X811454Y206832D02*
Y208832D01*
X947690Y372110D02*
X949690D01*
X948690Y371110D02*
Y373110D01*
X957850Y372110D02*
X959850D01*
X958850Y371110D02*
Y373110D01*
X957850Y360680D02*
X959850D01*
X958850Y359680D02*
Y361680D01*
X947690Y360680D02*
X949690D01*
X948690Y359680D02*
Y361680D01*
X962930Y144780D02*
X964930D01*
X963930Y143780D02*
Y145780D01*
X811800Y476250D02*
X813800D01*
X812800Y475250D02*
Y477250D01*
X821960Y476250D02*
X823960D01*
X822960Y475250D02*
Y477250D01*
X811804Y466090D02*
X813804D01*
X812804Y465090D02*
Y467090D01*
X927374Y495300D02*
X929374D01*
X928374Y494300D02*
Y496300D01*
X630190Y184150D02*
X632190D01*
X631190Y183150D02*
Y185150D01*
X754654Y229870D02*
X756654D01*
X755654Y228870D02*
Y230870D01*
X729250Y388620D02*
X731250D01*
X730250Y387620D02*
Y389620D01*
X537484Y129540D02*
X539484D01*
X538484Y128540D02*
Y130540D01*
X510814Y138430D02*
X512814D01*
X511814Y137430D02*
Y139430D01*
X503194Y190500D02*
X505194D01*
X504194Y189500D02*
Y191500D01*
X505734Y444500D02*
X507734D01*
X506734Y443500D02*
Y445500D01*
X510814Y389890D02*
X512814D01*
X511814Y388890D02*
Y390890D01*
X494304Y269240D02*
X496304D01*
X495304Y268240D02*
Y270240D01*
X504464Y269240D02*
X506464D01*
X505464Y268240D02*
Y270240D01*
X504464Y257810D02*
X506464D01*
X505464Y256810D02*
Y258810D01*
X494304Y257810D02*
X496304D01*
X495304Y256810D02*
Y258810D01*
X461284Y132080D02*
X463284D01*
X462284Y131080D02*
Y133080D01*
X471444Y132080D02*
X473444D01*
X472444Y131080D02*
Y133080D01*
X471444Y143510D02*
X473444D01*
X472444Y142510D02*
Y144510D01*
X461284Y143510D02*
X463284D01*
X462284Y142510D02*
Y144510D01*
X449067Y174905D02*
X451067D01*
X450067Y173906D02*
Y175905D01*
X460067Y172720D02*
X462067D01*
X461067Y171720D02*
Y173720D01*
X438967Y169905D02*
X440967D01*
X439967Y168906D02*
Y170905D01*
X476520Y533400D02*
X478520D01*
X477520Y532400D02*
Y534400D01*
X487950Y523240D02*
X489950D01*
X488950Y522240D02*
Y524240D01*
X487950Y533400D02*
X489950D01*
X488950Y532400D02*
Y534400D01*
X476520Y523240D02*
X478520D01*
X477520Y522240D02*
Y524240D01*
X696234Y377190D02*
X698234D01*
X697234Y376190D02*
Y378190D01*
X696234Y367030D02*
X698234D01*
X697234Y366030D02*
Y368030D01*
X696234Y356870D02*
X698234D01*
X697234Y355870D02*
Y357870D01*
X696234Y346710D02*
X698234D01*
X697234Y345710D02*
Y347710D01*
X814340Y421640D02*
X816340D01*
X815340Y420640D02*
Y422640D01*
X814340Y411480D02*
X816340D01*
X815340Y410480D02*
Y412480D01*
X426994Y414020D02*
X428994D01*
X427994Y413020D02*
Y415020D01*
X437154Y414020D02*
X439154D01*
X438154Y413020D02*
Y415020D01*
X437154Y402590D02*
X439154D01*
X438154Y401590D02*
Y403590D01*
X426994Y402590D02*
X428994D01*
X427994Y401590D02*
Y403590D01*
X414294Y377190D02*
X416294D01*
X415294Y376190D02*
Y378190D01*
X424454Y377190D02*
X426454D01*
X425454Y376190D02*
Y378190D01*
X424454Y365760D02*
X426454D01*
X425454Y364760D02*
Y366760D01*
X414294Y365760D02*
X416294D01*
X415294Y364760D02*
Y366760D01*
X703854Y222250D02*
X705854D01*
X704854Y221250D02*
Y223250D01*
X693694Y222250D02*
X695694D01*
X694694Y221250D02*
Y223250D01*
X609870Y20320D02*
X611870D01*
X610870Y19320D02*
Y21320D01*
X520974Y38100D02*
X522974D01*
X521974Y37100D02*
Y39100D01*
X531134Y38100D02*
X533134D01*
X532134Y37100D02*
Y39100D01*
X531134Y49530D02*
X533134D01*
X532134Y48530D02*
Y50530D01*
X520974Y49530D02*
X522974D01*
X521974Y48530D02*
Y50530D01*
X385084Y256540D02*
X387084D01*
X386084Y255540D02*
Y257540D01*
X395244Y256540D02*
X397244D01*
X396244Y255540D02*
Y257540D01*
X395244Y267970D02*
X397244D01*
X396244Y266970D02*
Y268970D01*
X385084Y267970D02*
X387084D01*
X386084Y266970D02*
Y268970D01*
X415564Y113030D02*
X417564D01*
X416564Y112030D02*
Y114030D01*
X425724Y113030D02*
X427724D01*
X426724Y112030D02*
Y114030D01*
X425724Y124460D02*
X427724D01*
X426724Y123460D02*
Y125460D01*
X415564Y124460D02*
X417564D01*
X416564Y123460D02*
Y125460D01*
X403195Y508331D02*
X405195D01*
X404195Y507331D02*
Y509331D01*
X541128Y113196D02*
X543128D01*
X542128Y112196D02*
Y114196D01*
X728201Y246597D02*
X730201D01*
X729201Y245597D02*
Y247597D01*
X706970Y366894D02*
X708970D01*
X707970Y365894D02*
Y367894D01*
X852444Y151130D02*
X854444D01*
X853444Y150130D02*
Y152130D01*
X504464Y331470D02*
X506464D01*
X505464Y330470D02*
Y332470D01*
X453664Y349250D02*
X455664D01*
X454664Y348250D02*
Y350250D01*
X430191Y349021D02*
X432191D01*
X431191Y348022D02*
Y350021D01*
X423184Y97790D02*
X425184D01*
X424184Y96790D02*
Y98790D01*
X430724Y98785D02*
X432724D01*
X431724Y97785D02*
Y99785D01*
X410484Y99060D02*
X412484D01*
X411484Y98060D02*
Y100060D01*
X470174Y163830D02*
X472174D01*
X471174Y162830D02*
Y164830D01*
X354604Y328930D02*
X356604D01*
X355604Y327930D02*
Y329930D01*
X327934Y322580D02*
X329934D01*
X328934Y321580D02*
Y323580D01*
X425716Y169905D02*
X427716D01*
X426716Y168906D02*
Y170905D01*
X714014Y222250D02*
X716014D01*
X715014Y221250D02*
Y223250D01*
X458744Y382270D02*
X460744D01*
X459744Y381270D02*
Y383270D01*
X706394Y346710D02*
X708394D01*
X707394Y345710D02*
Y347710D01*
X706394Y336550D02*
X708394D01*
X707394Y335550D02*
Y337550D01*
X899434Y146050D02*
X901434D01*
X900434Y145050D02*
Y147050D01*
X891814Y146050D02*
X893814D01*
X892814Y145050D02*
Y147050D01*
X884194Y146050D02*
X886194D01*
X885194Y145050D02*
Y147050D01*
X876574Y146050D02*
X878574D01*
X877574Y145050D02*
Y147050D01*
X853714Y134620D02*
X855714D01*
X854714Y133620D02*
Y135620D01*
X853714Y127000D02*
X855714D01*
X854714Y126000D02*
Y128000D01*
X853714Y119380D02*
X855714D01*
X854714Y118380D02*
Y120380D01*
X853714Y111760D02*
X855714D01*
X854714Y110760D02*
Y112760D01*
X853714Y104140D02*
X855714D01*
X854714Y103140D02*
Y105140D01*
X853714Y96520D02*
X855714D01*
X854714Y95520D02*
Y97520D01*
X853714Y88900D02*
X855714D01*
X854714Y87900D02*
Y89900D01*
X853714Y81280D02*
X855714D01*
X854714Y80280D02*
Y82280D01*
X853714Y73660D02*
X855714D01*
X854714Y72660D02*
Y74660D01*
X853714Y66040D02*
X855714D01*
X854714Y65040D02*
Y67040D01*
X853714Y58420D02*
X855714D01*
X854714Y57420D02*
Y59420D01*
X853714Y50800D02*
X855714D01*
X854714Y49800D02*
Y51800D01*
X853714Y43180D02*
X855714D01*
X854714Y42180D02*
Y44180D01*
X853714Y35560D02*
X855714D01*
X854714Y34560D02*
Y36560D01*
X853714Y27940D02*
X855714D01*
X854714Y26940D02*
Y28940D01*
X853714Y20320D02*
X855714D01*
X854714Y19320D02*
Y21320D01*
X270767Y480049D02*
X272767D01*
X271767Y479049D02*
Y481049D01*
X428264Y158750D02*
X430264D01*
X429264Y157750D02*
Y159750D01*
X438424Y158750D02*
X440424D01*
X439424Y157750D02*
Y159750D01*
X438424Y147320D02*
X440424D01*
X439424Y146320D02*
Y148320D01*
X428264Y147320D02*
X430264D01*
X429264Y146320D02*
Y148320D01*
X448559Y424886D02*
X450559D01*
X449559Y423886D02*
Y425886D01*
X470174Y382270D02*
X472174D01*
X471174Y381270D02*
Y383270D01*
X458744Y392430D02*
X460744D01*
X459744Y391430D02*
Y393430D01*
X438967Y425265D02*
X440967D01*
X439967Y424265D02*
Y426265D01*
X470174Y419100D02*
X472174D01*
X471174Y418100D02*
Y420100D01*
X425716Y425265D02*
X427716D01*
X426716Y424265D02*
Y426265D01*
X410476Y351445D02*
X412476D01*
X411476Y350445D02*
Y352445D01*
X422816Y349402D02*
X424816D01*
X423816Y348402D02*
Y350402D01*
X353334Y256540D02*
X355334D01*
X354334Y255540D02*
Y257540D01*
X52878Y396190D02*
X54878D01*
X53878Y395190D02*
Y397190D01*
X158021Y298095D02*
X160021D01*
X159021Y297096D02*
Y299095D01*
X130421Y326035D02*
X132421D01*
X131421Y325036D02*
Y327035D01*
X170421Y269860D02*
X172421D01*
X171421Y268860D02*
Y270861D01*
X170421Y381916D02*
X172421D01*
X171421Y380915D02*
Y382915D01*
X150421Y381916D02*
X152421D01*
X151421Y380915D02*
Y382915D01*
X130421Y381916D02*
X132421D01*
X131421Y380915D02*
Y382915D01*
X284754Y260350D02*
X286754D01*
X285754Y259350D02*
Y261350D01*
X759734Y226060D02*
X761734D01*
X760734Y225060D02*
Y227060D01*
X517164Y106320D02*
X519164D01*
X518164Y105320D02*
Y107320D01*
X481402Y368487D02*
X483402D01*
X482402Y367487D02*
Y369487D01*
X943884Y430530D02*
X945884D01*
X944884Y429530D02*
Y431530D01*
X956571Y430102D02*
X958571D01*
X957571Y429102D02*
Y431102D01*
X350794Y474980D02*
X352794D01*
X351794Y473980D02*
Y475980D01*
X529864Y401320D02*
X531864D01*
X530864Y400320D02*
Y402320D01*
X527324Y353060D02*
X529324D01*
X528324Y352060D02*
Y354060D01*
X528594Y389890D02*
X530594D01*
X529594Y388890D02*
Y390890D01*
X514624Y396240D02*
X516624D01*
X515624Y395240D02*
Y397240D01*
X668290Y401320D02*
X670290D01*
X669290Y400320D02*
Y402320D01*
X668290Y430530D02*
X670290D01*
X669290Y429530D02*
Y431530D01*
X658130Y430530D02*
X660130D01*
X659130Y429530D02*
Y431530D01*
X546374Y100330D02*
X548374D01*
X547374Y99330D02*
Y101330D01*
X522244Y95250D02*
X524244D01*
X523244Y94250D02*
Y96250D01*
X524784Y138430D02*
X526784D01*
X525784Y137430D02*
Y139430D01*
X515894Y347980D02*
X517894D01*
X516894Y346980D02*
Y348980D01*
X658130Y411480D02*
X660130D01*
X659130Y410480D02*
Y412480D01*
X658130Y401320D02*
X660130D01*
X659130Y400320D02*
Y402320D01*
X658130Y440690D02*
X660130D01*
X659130Y439690D02*
Y441690D01*
X479064Y115570D02*
X481064D01*
X480064Y114570D02*
Y116570D01*
X658130Y450850D02*
X660130D01*
X659130Y449850D02*
Y451850D01*
X668290Y450850D02*
X670290D01*
X669290Y449850D02*
Y451850D01*
X706394Y377190D02*
X708394D01*
X707394Y376190D02*
Y378190D01*
X752110Y388620D02*
X754110D01*
X753110Y387620D02*
Y389620D01*
X927374Y505460D02*
X929374D01*
X928374Y504460D02*
Y506460D01*
X917214Y495300D02*
X919214D01*
X918214Y494300D02*
Y496300D01*
X917214Y505460D02*
X919214D01*
X918214Y504460D02*
Y506460D01*
X130421Y214275D02*
X132421D01*
X131421Y213276D02*
Y215275D01*
X150421Y269860D02*
X152421D01*
X151421Y268860D02*
Y270861D01*
X130421Y269860D02*
X132421D01*
X131421Y268860D02*
Y270861D01*
X734330Y471170D02*
X736330D01*
X735330Y470170D02*
Y472170D01*
X400962Y465825D02*
X402962D01*
X401962Y464825D02*
Y466825D01*
X478061Y425185D02*
X480061D01*
X479061Y424185D02*
Y426185D01*
X400962Y210466D02*
X402962D01*
X401962Y209466D02*
Y211465D01*
X478061Y169825D02*
X480061D01*
X479061Y168825D02*
Y170826D01*
X158021Y74576D02*
X160021D01*
X159021Y73576D02*
Y75575D01*
X158021Y130456D02*
X160021D01*
X159021Y129455D02*
Y131455D01*
X159291Y186336D02*
X161291D01*
X160291Y185336D02*
Y187335D01*
X158963Y242759D02*
X160963D01*
X159963Y241758D02*
Y243759D01*
X158021Y353975D02*
X160021D01*
X159021Y352976D02*
Y354976D01*
X158021Y409855D02*
X160021D01*
X159021Y408856D02*
Y410855D01*
X158021Y465736D02*
X160021D01*
X159021Y464735D02*
Y466735D01*
X231681Y464465D02*
X233681D01*
X232681Y463465D02*
Y465466D01*
X231681Y409855D02*
X233681D01*
X232681Y408856D02*
Y410855D01*
X231681Y353975D02*
X233681D01*
X232681Y352976D02*
Y354976D01*
X231681Y296826D02*
X233681D01*
X232681Y295826D02*
Y297826D01*
X231681Y240945D02*
X233681D01*
X232681Y239946D02*
Y241945D01*
X231681Y186336D02*
X233681D01*
X232681Y185336D02*
Y187335D01*
X231681Y130456D02*
X233681D01*
X232681Y129455D02*
Y131455D01*
X231681Y74576D02*
X233681D01*
X232681Y73576D02*
Y75575D01*
X150421Y158396D02*
X152421D01*
X151421Y157395D02*
Y159396D01*
X130421Y158396D02*
X132421D01*
X131421Y157395D02*
Y159396D01*
X170421Y158396D02*
X172421D01*
X171421Y157395D02*
Y159396D01*
X130421Y492595D02*
X132421D01*
X131421Y491595D02*
Y493596D01*
X130421Y437235D02*
X132421D01*
X131421Y436236D02*
Y438236D01*
X150421Y492595D02*
X152421D01*
X151421Y491595D02*
Y493596D01*
X150421Y214275D02*
X152421D01*
X151421Y213276D02*
Y215275D01*
X150421Y326035D02*
X152421D01*
X151421Y325036D02*
Y327035D01*
X150421Y437235D02*
X152421D01*
X151421Y436236D02*
Y438236D01*
X170421Y493236D02*
X172421D01*
X171421Y492235D02*
Y494235D01*
X150421Y102515D02*
X152421D01*
X151421Y101516D02*
Y103516D01*
X225421Y46006D02*
X227421D01*
X226421Y45005D02*
Y47006D01*
X245421Y46006D02*
X247421D01*
X246421Y45005D02*
Y47006D01*
X225421Y102235D02*
X227421D01*
X226421Y101236D02*
Y103236D01*
X245421Y102235D02*
X247421D01*
X246421Y101236D02*
Y103236D01*
X225421Y157635D02*
X227421D01*
X226421Y156636D02*
Y158636D01*
X245421Y157635D02*
X247421D01*
X246421Y156636D02*
Y158636D01*
X225421Y213235D02*
X227421D01*
X226421Y212236D02*
Y214235D01*
X245421Y213235D02*
X247421D01*
X246421Y212236D02*
Y214235D01*
X245421Y269235D02*
X247421D01*
X246421Y268235D02*
Y270236D01*
X225421Y325235D02*
X227421D01*
X226421Y324235D02*
Y326236D01*
X205421Y325235D02*
X207421D01*
X206421Y324235D02*
Y326236D01*
X245421Y325235D02*
X247421D01*
X246421Y324235D02*
Y326236D01*
X170421Y326035D02*
X172421D01*
X171421Y325036D02*
Y327035D01*
X170421Y437235D02*
X172421D01*
X171421Y436236D02*
Y438236D01*
X225421Y436735D02*
X227421D01*
X226421Y435736D02*
Y437735D01*
X245421Y436735D02*
X247421D01*
X246421Y435736D02*
Y437735D01*
X205421Y381236D02*
X207421D01*
X206421Y380235D02*
Y382235D01*
X225421Y381236D02*
X227421D01*
X226421Y380235D02*
Y382235D01*
X245421Y381236D02*
X247421D01*
X246421Y380235D02*
Y382235D01*
X206281Y436735D02*
X208281D01*
X207281Y435736D02*
Y437735D01*
X205421Y102235D02*
X207421D01*
X206421Y101236D02*
Y103236D01*
X170421Y102515D02*
X172421D01*
X171421Y101516D02*
Y103516D01*
X205421Y157635D02*
X207421D01*
X206421Y156636D02*
Y158636D01*
X205421Y213235D02*
X207421D01*
X206421Y212236D02*
Y214235D01*
X205421Y269235D02*
X207421D01*
X206421Y268235D02*
Y270236D01*
X225421Y269235D02*
X227421D01*
X226421Y268235D02*
Y270236D01*
X170721Y214275D02*
X172721D01*
X171721Y213276D02*
Y215275D01*
X205421Y46007D02*
X207421D01*
X206421Y45007D02*
Y47007D01*
X130421Y102515D02*
X132421D01*
X131421Y101516D02*
Y103516D01*
M02*
