G04*
G04 #@! TF.GenerationSoftware,Altium Limited,Altium Designer,23.8.1 (32)*
G04*
G04 Layer_Color=32768*
%FSLAX44Y44*%
%MOMM*%
G71*
G04*
G04 #@! TF.SameCoordinates,B2355FDD-5490-460F-BBB4-22D25E5E3D0D*
G04*
G04*
G04 #@! TF.FilePolarity,Positive*
G04*
G01*
G75*
%ADD13C,0.2000*%
%ADD19C,0.1001*%
%ADD20C,0.1999*%
%ADD21C,0.1500*%
%ADD22C,0.0500*%
%ADD23C,0.1200*%
%ADD154C,0.1524*%
%ADD156C,0.1000*%
G36*
X752856Y394653D02*
X735584D01*
Y412687D01*
X752856D01*
Y394653D01*
D02*
G37*
D13*
X459140Y453325D02*
X481203D01*
Y493386D01*
X459140D02*
X481203D01*
X459140Y453325D02*
Y493386D01*
X410880Y453325D02*
X432943D01*
Y493386D01*
X410880D02*
X432943D01*
X410880Y453325D02*
Y493386D01*
X430390Y456554D02*
X446452D01*
Y487617D01*
X430390D02*
X446452D01*
X430390Y456554D02*
Y487617D01*
X445630Y456554D02*
X461692D01*
Y487617D01*
X445630D02*
X461692D01*
X445630Y456554D02*
Y487617D01*
X479820Y453325D02*
X501883D01*
Y493386D01*
X479820D02*
X501883D01*
X479820Y453325D02*
Y493386D01*
X733661Y173009D02*
Y213071D01*
X711599Y173009D02*
X733661D01*
X711599D02*
Y213071D01*
X733661D01*
X479820Y197965D02*
Y238027D01*
X501883D01*
Y197965D02*
Y238027D01*
X479820Y197965D02*
X501883D01*
X459140D02*
Y238027D01*
X481203D01*
Y197965D02*
Y238027D01*
X459140Y197965D02*
X481203D01*
X445630Y201194D02*
Y232257D01*
X461692D01*
Y201194D02*
Y232257D01*
X445630Y201194D02*
X461692D01*
X430390D02*
Y232257D01*
X446452D01*
Y201194D02*
Y232257D01*
X430390Y201194D02*
X446452D01*
X391033Y24065D02*
Y64126D01*
X368970Y24065D02*
X391033D01*
X368970D02*
Y64126D01*
X391033D01*
X768720Y205270D02*
X783220D01*
X768720Y178270D02*
Y205270D01*
Y178270D02*
X783220D01*
Y205270D01*
X738239Y172300D02*
Y183300D01*
Y172300D02*
X760361D01*
Y183300D01*
X738239D02*
X760361D01*
X738239Y191350D02*
Y202350D01*
Y191350D02*
X760361D01*
Y202350D01*
X738239D02*
X760361D01*
X713755Y423200D02*
Y468340D01*
Y423200D02*
X772145D01*
Y468340D01*
X713755D02*
X772145D01*
X837824Y346996D02*
X968124D01*
X837824D02*
Y417595D01*
X968124D01*
Y346996D02*
Y417595D01*
X543530Y501790D02*
X571530D01*
X543530Y455790D02*
Y501790D01*
Y455790D02*
X571530D01*
Y501790D01*
X769026Y214019D02*
X856609D01*
Y301601D01*
X769026D02*
X856609D01*
X769026Y214019D02*
Y301601D01*
X569030Y521820D02*
Y534820D01*
X546030D02*
X569030D01*
X546030Y521820D02*
Y534820D01*
Y521820D02*
X569030D01*
X831481Y428840D02*
Y439840D01*
X809359D02*
X831481D01*
X809359Y428840D02*
Y439840D01*
Y428840D02*
X831481D01*
X941416Y256051D02*
X948917D01*
X941416Y241326D02*
Y256051D01*
Y241326D02*
X948917D01*
Y256051D01*
X956838Y220618D02*
Y241200D01*
X918255D02*
X956838D01*
X918255Y220618D02*
Y241200D01*
Y220618D02*
X956838D01*
X940584Y159443D02*
X949211D01*
X940584Y142816D02*
Y159443D01*
Y142816D02*
X949211D01*
Y159443D01*
X950547Y166720D02*
Y178720D01*
X926547D02*
X950547D01*
X926547Y166720D02*
Y178720D01*
Y166720D02*
X950547D01*
X949877Y260969D02*
Y271969D01*
X927756D02*
X949877D01*
X927756Y260969D02*
Y271969D01*
Y260969D02*
X949877D01*
X729383Y212379D02*
X751445D01*
Y252441D01*
X729383D02*
X751445D01*
X729383Y212379D02*
Y252441D01*
X914374Y483970D02*
Y544970D01*
X815374D02*
X914374D01*
X815374Y483970D02*
Y544970D01*
Y483970D02*
X914374D01*
X461386Y260659D02*
Y275281D01*
X432728D02*
X461386D01*
X432728Y260659D02*
Y275281D01*
Y260659D02*
X461386D01*
X714029Y267099D02*
X754091D01*
X714029D02*
Y289161D01*
X754091D01*
Y267099D02*
Y289161D01*
X791609Y308899D02*
Y348961D01*
X813671D01*
Y308899D02*
Y348961D01*
X791609Y308899D02*
X813671D01*
X772559D02*
Y348961D01*
X794621D01*
Y308899D02*
Y348961D01*
X772559Y308899D02*
X794621D01*
X829984Y311310D02*
Y333310D01*
X818484Y311310D02*
X829984D01*
X818484D02*
Y333310D01*
X829984D01*
X895753Y302549D02*
Y342611D01*
X917815D01*
Y302549D02*
Y342611D01*
X895753Y302549D02*
X917815D01*
X829980Y335710D02*
Y357710D01*
X818480Y335710D02*
X829980D01*
X818480D02*
Y357710D01*
X829980D01*
X409233Y516491D02*
X449295D01*
Y494429D02*
Y516491D01*
X409233Y494429D02*
X449295D01*
X409233D02*
Y516491D01*
X449289Y513491D02*
X480351D01*
Y497429D02*
Y513491D01*
X449289Y497429D02*
X480351D01*
X449289D02*
Y513491D01*
X656179Y501359D02*
Y532421D01*
X672241D01*
Y501359D02*
Y532421D01*
X656179Y501359D02*
X672241D01*
X385431Y201474D02*
X397431D01*
Y224537D01*
X385431D02*
X397431D01*
X385431Y201474D02*
Y224537D01*
X408532Y227535D02*
Y241656D01*
X379411D02*
X408532D01*
X379411Y227535D02*
Y241656D01*
Y227535D02*
X408532D01*
X449560Y239619D02*
Y255681D01*
Y239619D02*
X480622D01*
Y255681D01*
X449560D02*
X480622D01*
X410880Y197965D02*
X432943D01*
Y238027D01*
X410880D02*
X432943D01*
X410880Y197965D02*
Y238027D01*
X410503Y236619D02*
Y258681D01*
Y236619D02*
X450565D01*
Y258681D01*
X410503D02*
X450565D01*
X508983Y165349D02*
Y181411D01*
Y165349D02*
X540045D01*
Y181411D01*
X508983D02*
X540045D01*
X506443Y436021D02*
X537505D01*
Y419959D02*
Y436021D01*
X506443Y419959D02*
X537505D01*
X506443D02*
Y436021D01*
X496806Y22664D02*
Y63696D01*
Y22664D02*
X557837D01*
Y63696D01*
X496806D02*
X557837D01*
X495536Y325316D02*
X556567D01*
Y284284D02*
Y325316D01*
X495536Y284284D02*
X556567D01*
X495536D02*
Y325316D01*
X443081Y291115D02*
Y314115D01*
X454081D01*
Y291115D02*
Y314115D01*
X443081Y291115D02*
X454081D01*
X444092Y279501D02*
Y319563D01*
X422030Y279501D02*
X444092D01*
X422030D02*
Y319563D01*
X444092D01*
X408813Y279335D02*
Y319396D01*
X386750Y279335D02*
X408813D01*
X386750D02*
Y319396D01*
X408813D01*
X425323Y279335D02*
Y319396D01*
X403260Y279335D02*
X425323D01*
X403260D02*
Y319396D01*
X425323D01*
X474392Y282654D02*
Y313717D01*
X458330Y282654D02*
X474392D01*
X458330D02*
Y313717D01*
X474392D01*
X380320Y484165D02*
X409442D01*
X380320D02*
Y498286D01*
X409442D01*
Y484165D02*
Y498286D01*
X385431Y456834D02*
Y479897D01*
X397431D01*
Y456834D02*
Y479897D01*
X385431Y456834D02*
X397431D01*
X811131Y166659D02*
Y206721D01*
X789069Y166659D02*
X811131D01*
X789069D02*
Y206721D01*
X811131D01*
X875319Y265031D02*
X915381D01*
Y242969D02*
Y265031D01*
X875319Y242969D02*
X915381D01*
X875319D02*
Y265031D01*
X881734Y305500D02*
Y329500D01*
X893734D01*
Y305500D02*
Y329500D01*
X881734Y305500D02*
X893734D01*
X864015Y172429D02*
Y203491D01*
X847953Y172429D02*
X864015D01*
X847953D02*
Y203491D01*
X864015D01*
X831451Y166659D02*
Y206721D01*
X809389Y166659D02*
X831451D01*
X809389D02*
Y206721D01*
X831451D01*
X845700Y175730D02*
Y202730D01*
X830700Y175730D02*
X845700D01*
X830700D02*
Y202730D01*
X845700D01*
X392303Y279424D02*
Y319486D01*
X370240Y279424D02*
X392303D01*
X370240D02*
Y319486D01*
X392303D01*
X493442Y282654D02*
Y313717D01*
X477380Y282654D02*
X493442D01*
X477380D02*
Y313717D01*
X493442D01*
X476110Y58357D02*
X492172D01*
X476110Y27294D02*
Y58357D01*
Y27294D02*
X492172D01*
Y58357D01*
X457060D02*
X473122D01*
X457060Y27294D02*
Y58357D01*
Y27294D02*
X473122D01*
Y58357D01*
X401990Y64126D02*
X424053D01*
X401990Y24065D02*
Y64126D01*
Y24065D02*
X424053D01*
Y64126D01*
X419488D02*
X441550D01*
X419488Y24065D02*
Y64126D01*
Y24065D02*
X441550D01*
Y64126D01*
X441811Y35756D02*
X452811D01*
Y58755D01*
X441811D02*
X452811D01*
X441811Y35756D02*
Y58755D01*
X385480Y64126D02*
X407543D01*
X385480Y24065D02*
Y64126D01*
Y24065D02*
X407543D01*
Y64126D01*
X157181Y89466D02*
X181181D01*
Y77466D02*
Y89466D01*
X157181Y77466D02*
X181181D01*
X157181D02*
Y89466D01*
Y59686D02*
X181181D01*
X157181D02*
Y71686D01*
X181181D01*
Y59686D02*
Y71686D01*
X157144Y145345D02*
X181144D01*
Y133345D02*
Y145345D01*
X157144Y133345D02*
X181144D01*
X157144D02*
Y145345D01*
Y115566D02*
X181144D01*
X157144D02*
Y127565D01*
X181144D01*
Y115566D02*
Y127565D01*
X157144Y201185D02*
X181144D01*
Y189186D02*
Y201185D01*
X157144Y189186D02*
X181144D01*
X157144D02*
Y201185D01*
Y171406D02*
X181144D01*
X157144D02*
Y183405D01*
X181144D01*
Y171406D02*
Y183405D01*
X157144Y245105D02*
Y257106D01*
Y245105D02*
X181144D01*
Y257106D01*
X157144D02*
X181144D01*
Y227325D02*
Y239326D01*
X157144D02*
X181144D01*
X157144Y227325D02*
Y239326D01*
Y227325D02*
X181144D01*
X157144Y312985D02*
X181144D01*
Y300986D02*
Y312985D01*
X157144Y300986D02*
X181144D01*
X157144D02*
Y312985D01*
Y283206D02*
X181144D01*
X157144D02*
Y295205D01*
X181144D01*
Y283206D02*
Y295205D01*
X157144Y368866D02*
X181144D01*
Y356866D02*
Y368866D01*
X157144Y356866D02*
X181144D01*
X157144D02*
Y368866D01*
Y339086D02*
X181144D01*
X157144D02*
Y351086D01*
X181144D01*
Y339086D02*
Y351086D01*
X157144Y424745D02*
X181144D01*
Y412746D02*
Y424745D01*
X157144Y412746D02*
X181144D01*
X157144D02*
Y424745D01*
Y394966D02*
X181144D01*
X157144D02*
Y406965D01*
X181144D01*
Y394966D02*
Y406965D01*
X157144Y480625D02*
X181144D01*
Y468625D02*
Y480625D01*
X157144Y468625D02*
X181144D01*
X157144D02*
Y480625D01*
Y450845D02*
X181144D01*
X157144D02*
Y462845D01*
X181144D01*
Y450845D02*
Y462845D01*
X229571Y479356D02*
X253571D01*
Y467355D02*
Y479356D01*
X229571Y467355D02*
X253571D01*
X229571D02*
Y479356D01*
Y450845D02*
X253571D01*
X229571D02*
Y462845D01*
X253571D01*
Y450845D02*
Y462845D01*
X229571Y423475D02*
X253571D01*
Y411475D02*
Y423475D01*
X229571Y411475D02*
X253571D01*
X229571D02*
Y423475D01*
Y394966D02*
X253571D01*
X229571D02*
Y406965D01*
X253571D01*
Y394966D02*
Y406965D01*
X229571Y367595D02*
X253571D01*
Y355596D02*
Y367595D01*
X229571Y355596D02*
X253571D01*
X229571D02*
Y367595D01*
Y339086D02*
X253571D01*
X229571D02*
Y351086D01*
X253571D01*
Y339086D02*
Y351086D01*
X229571Y311716D02*
X253571D01*
Y299715D02*
Y311716D01*
X229571Y299715D02*
X253571D01*
X229571D02*
Y311716D01*
Y283206D02*
X253571D01*
X229571D02*
Y295205D01*
X253571D01*
Y283206D02*
Y295205D01*
X229571Y243836D02*
Y255835D01*
Y243836D02*
X253571D01*
Y255835D01*
X229571D02*
X253571D01*
Y227325D02*
Y239326D01*
X229571D02*
X253571D01*
X229571Y227325D02*
Y239326D01*
Y227325D02*
X253571D01*
X229571Y187915D02*
Y199916D01*
Y187915D02*
X253571D01*
Y199916D01*
X229571D02*
X253571D01*
Y171406D02*
Y183405D01*
X229571D02*
X253571D01*
X229571Y171406D02*
Y183405D01*
Y171406D02*
X253571D01*
X229571Y144075D02*
X253571D01*
Y132076D02*
Y144075D01*
X229571Y132076D02*
X253571D01*
X229571D02*
Y144075D01*
Y115566D02*
X253571D01*
X229571D02*
Y127565D01*
X253571D01*
Y115566D02*
Y127565D01*
X229571Y88195D02*
X253571D01*
Y76196D02*
Y88195D01*
X229571Y76196D02*
X253571D01*
X229571D02*
Y88195D01*
Y59686D02*
X253571D01*
X229571D02*
Y71686D01*
X253571D01*
Y59686D02*
Y71686D01*
D19*
X837791Y302311D02*
Y340309D01*
Y302311D02*
X879792D01*
Y340309D01*
X837791D02*
X879792D01*
X931420Y182659D02*
Y223660D01*
Y182659D02*
X959421D01*
Y223660D01*
X931420D02*
X959421D01*
X574799Y461122D02*
Y533121D01*
Y461122D02*
X639798D01*
Y533121D01*
X574799D02*
X639798D01*
X584799Y484622D02*
Y509621D01*
Y484622D02*
X629798D01*
Y509621D01*
X584799D02*
X629798D01*
X17292Y368300D02*
X25419D01*
X41674D01*
X49801D01*
X17292Y187960D02*
Y368770D01*
Y187960D02*
X49801D01*
X7292Y368300D02*
X61691D01*
X7292Y187960D02*
Y368300D01*
Y187960D02*
X61691D01*
Y368300D01*
X49801Y187960D02*
Y368770D01*
D20*
X848791Y313309D02*
Y329311D01*
Y313309D02*
X868791D01*
Y329311D01*
X848791D02*
X868791D01*
X941420Y192659D02*
Y208661D01*
Y192659D02*
X949421D01*
Y208661D01*
X941420D02*
X949421D01*
D21*
X768395Y87508D02*
X763396D01*
X765895D01*
Y75012D01*
X763396Y72512D01*
X760897D01*
X758398Y75012D01*
X773393Y85008D02*
X775892Y87508D01*
X780891D01*
X783390Y85008D01*
Y82509D01*
X780891Y80010D01*
X778391D01*
X780891D01*
X783390Y77511D01*
Y75012D01*
X780891Y72512D01*
X775892D01*
X773393Y75012D01*
D22*
X692894Y9510D02*
Y150510D01*
Y9510D02*
X848894D01*
Y150510D01*
X692894D02*
X848894D01*
X765894Y80010D02*
X775894D01*
X770894Y75010D02*
Y85010D01*
X545180Y454420D02*
X557180D01*
X545180Y424420D02*
Y454420D01*
Y424420D02*
X557180D01*
Y454420D01*
X546180Y439420D02*
X556180D01*
X551180Y434420D02*
Y444420D01*
X838524Y459960D02*
X878524D01*
X838524Y423960D02*
X878524D01*
X838524D02*
Y459960D01*
X878524Y423960D02*
Y459960D01*
X120934Y278706D02*
X158934D01*
X120934Y299706D02*
X158934D01*
Y278706D02*
Y299706D01*
X120934Y278706D02*
Y299706D01*
X120971Y55185D02*
X158971D01*
X120971Y76185D02*
X158971D01*
Y55185D02*
Y76185D01*
X120971Y55185D02*
Y76185D01*
X193361Y278706D02*
X231361D01*
X193361Y299706D02*
X231361D01*
Y278706D02*
Y299706D01*
X193361Y278706D02*
Y299706D01*
Y55185D02*
X231361D01*
X193361Y76185D02*
X231361D01*
Y55185D02*
Y76185D01*
X193361Y55185D02*
Y76185D01*
X120934Y334585D02*
X158934D01*
X120934Y355586D02*
X158934D01*
Y334585D02*
Y355586D01*
X120934Y334585D02*
Y355586D01*
Y111066D02*
X158934D01*
X120934Y132065D02*
X158934D01*
Y111066D02*
Y132065D01*
X120934Y111066D02*
Y132065D01*
X193361Y334585D02*
X231361D01*
X193361Y355586D02*
X231361D01*
Y334585D02*
Y355586D01*
X193361Y334585D02*
Y355586D01*
Y111066D02*
X231361D01*
X193361Y132065D02*
X231361D01*
Y111066D02*
Y132065D01*
X193361Y111066D02*
Y132065D01*
X120934Y390466D02*
X158934D01*
X120934Y411465D02*
X158934D01*
Y390466D02*
Y411465D01*
X120934Y390466D02*
Y411465D01*
Y166905D02*
X158934D01*
X120934Y187906D02*
X158934D01*
Y166905D02*
Y187906D01*
X120934Y166905D02*
Y187906D01*
X193361Y390466D02*
X231361D01*
X193361Y411465D02*
X231361D01*
Y390466D02*
Y411465D01*
X193361Y390466D02*
Y411465D01*
Y166905D02*
X231361D01*
X193361Y187906D02*
X231361D01*
Y166905D02*
Y187906D01*
X193361Y166905D02*
Y187906D01*
X120934Y446345D02*
X158934D01*
X120934Y467346D02*
X158934D01*
Y446345D02*
Y467346D01*
X120934Y446345D02*
Y467346D01*
Y222826D02*
X158934D01*
X120934Y243825D02*
X158934D01*
Y222826D02*
Y243825D01*
X120934Y222826D02*
Y243825D01*
X193361Y446345D02*
X231361D01*
X193361Y467346D02*
X231361D01*
Y446345D02*
Y467346D01*
X193361Y446345D02*
Y467346D01*
Y222826D02*
X231361D01*
X193361Y243825D02*
X231361D01*
Y222826D02*
Y243825D01*
X193361Y222826D02*
Y243825D01*
X120717Y296840D02*
X158717D01*
X120717Y317840D02*
X158717D01*
Y296840D02*
Y317840D01*
X120717Y296840D02*
Y317840D01*
X120971Y72965D02*
X158971D01*
X120971Y93966D02*
X158971D01*
Y72965D02*
Y93966D01*
X120971Y72965D02*
Y93966D01*
X193361Y295215D02*
X231361D01*
X193361Y316215D02*
X231361D01*
Y295215D02*
Y316215D01*
X193361Y295215D02*
Y316215D01*
Y71695D02*
X231361D01*
X193361Y92696D02*
X231361D01*
Y71695D02*
Y92696D01*
X193361Y71695D02*
Y92696D01*
X120934Y352365D02*
X158934D01*
X120934Y373366D02*
X158934D01*
Y352365D02*
Y373366D01*
X120934Y352365D02*
Y373366D01*
Y128846D02*
X158934D01*
X120934Y149846D02*
X158934D01*
Y128846D02*
Y149846D01*
X120934Y128846D02*
Y149846D01*
X193361Y351096D02*
X231361D01*
X193361Y372095D02*
X231361D01*
Y351096D02*
Y372095D01*
X193361Y351096D02*
Y372095D01*
Y127576D02*
X231361D01*
X193361Y148575D02*
X231361D01*
Y127576D02*
Y148575D01*
X193361Y127576D02*
Y148575D01*
X120934Y408246D02*
X158934D01*
X120934Y429245D02*
X158934D01*
Y408246D02*
Y429245D01*
X120934Y408246D02*
Y429245D01*
Y184685D02*
X158934D01*
X120934Y205686D02*
X158934D01*
Y184685D02*
Y205686D01*
X120934Y184685D02*
Y205686D01*
X193361Y406976D02*
X231361D01*
X193361Y427976D02*
X231361D01*
Y406976D02*
Y427976D01*
X193361Y406976D02*
Y427976D01*
Y183416D02*
X231361D01*
X193361Y204415D02*
X231361D01*
Y183416D02*
Y204415D01*
X193361Y183416D02*
Y204415D01*
X120934Y464126D02*
X158934D01*
X120934Y485126D02*
X158934D01*
Y464126D02*
Y485126D01*
X120934Y464126D02*
Y485126D01*
Y240606D02*
X158934D01*
X120934Y261605D02*
X158934D01*
Y240606D02*
Y261605D01*
X120934Y240606D02*
Y261605D01*
X193361Y462855D02*
X231361D01*
X193361Y483856D02*
X231361D01*
Y462855D02*
Y483856D01*
X193361Y462855D02*
Y483856D01*
X193361Y239335D02*
X231361D01*
X193361Y260336D02*
X231361D01*
Y239335D02*
Y260336D01*
X193361Y239335D02*
Y260336D01*
X744460Y369690D02*
Y384690D01*
X774460Y369690D02*
Y384690D01*
X744460D02*
X774460D01*
X744460Y369690D02*
X774460D01*
X758310Y321550D02*
X773310D01*
X758310Y351550D02*
X773310D01*
X758310Y321550D02*
Y351550D01*
X773310Y321550D02*
Y351550D01*
X742710Y369690D02*
Y384690D01*
X712710Y369690D02*
Y384690D01*
Y369690D02*
X742710D01*
X712710Y384690D02*
X742710D01*
X683020Y461130D02*
Y476130D01*
X653020Y461130D02*
Y476130D01*
Y461130D02*
X683020D01*
X653020Y476130D02*
X683020D01*
X774460Y470020D02*
Y485020D01*
X744460Y470020D02*
Y485020D01*
Y470020D02*
X774460D01*
X744460Y485020D02*
X774460D01*
X840984Y463670D02*
Y478670D01*
X870984Y463670D02*
Y478670D01*
X840984D02*
X870984D01*
X840984Y463670D02*
X870984D01*
X886700Y424300D02*
Y439300D01*
X916700Y424300D02*
Y439300D01*
X886700D02*
X916700D01*
X886700Y424300D02*
X916700D01*
X640200Y503160D02*
X655200D01*
X640200Y533160D02*
X655200D01*
X640200Y503160D02*
Y533160D01*
X655200Y503160D02*
Y533160D01*
X571260Y504310D02*
Y519310D01*
X541260Y504310D02*
Y519310D01*
Y504310D02*
X571260D01*
X541260Y519310D02*
X571260D01*
X790970Y405250D02*
Y420250D01*
X760970Y405250D02*
Y420250D01*
Y405250D02*
X790970D01*
X760970Y420250D02*
X790970D01*
X702550Y403980D02*
Y418980D01*
X732550Y403980D02*
Y418980D01*
X702550D02*
X732550D01*
X702550Y403980D02*
X732550D01*
X911620Y231260D02*
Y246260D01*
X881620Y231260D02*
Y246260D01*
Y231260D02*
X911620D01*
X881620Y246260D02*
X911620D01*
X780927Y349768D02*
Y364768D01*
X810927Y349768D02*
Y364768D01*
X780927D02*
X810927D01*
X780927Y349768D02*
X810927D01*
X816730Y390920D02*
X831730D01*
X816730Y360920D02*
X831730D01*
Y390920D01*
X816730Y360920D02*
Y390920D01*
X760970Y388740D02*
Y403740D01*
X790970Y388740D02*
Y403740D01*
X760970D02*
X790970D01*
X760970Y388740D02*
X790970D01*
X685920Y432830D02*
X700920D01*
X685920Y402830D02*
X700920D01*
Y432830D01*
X685920Y402830D02*
Y432830D01*
X12061Y155060D02*
Y170060D01*
X42061Y155060D02*
Y170060D01*
X12061D02*
X42061D01*
X12061Y155060D02*
X42061D01*
X807960Y393820D02*
Y408820D01*
X837960Y393820D02*
Y408820D01*
X807960D02*
X837960D01*
X807960Y393820D02*
X837960D01*
X562760Y80030D02*
X676760D01*
X562760Y19030D02*
X676760D01*
Y80030D01*
X562760Y19030D02*
Y80030D01*
X878132Y214499D02*
X916132D01*
X878132Y235499D02*
X916132D01*
Y214499D02*
Y235499D01*
X878132Y214499D02*
Y235499D01*
X938884Y435540D02*
Y458540D01*
X950884Y435540D02*
Y458540D01*
X938884Y435540D02*
X950884D01*
X938884Y458540D02*
X950884D01*
X878317Y162530D02*
X890317D01*
Y190530D01*
X878317D02*
X890317D01*
X878317Y162530D02*
Y190530D01*
X879317Y176530D02*
X889317D01*
X884317Y171530D02*
Y181530D01*
X865491Y162530D02*
X877491D01*
Y190530D01*
X865491D02*
X877491D01*
X865491Y162530D02*
Y190530D01*
X866491Y176530D02*
X876491D01*
X871491Y171530D02*
Y181530D01*
X889937Y194240D02*
Y217240D01*
X877937Y194240D02*
Y217240D01*
X889937D01*
X877937Y194240D02*
X889937D01*
X877491D02*
Y217240D01*
X865491Y194240D02*
Y217240D01*
X877491D01*
X865491Y194240D02*
X877491D01*
X944884Y71200D02*
Y81200D01*
X939884Y76200D02*
X949884D01*
X957884Y24200D02*
Y133200D01*
X931884Y24200D02*
X957884D01*
X931884D02*
Y133200D01*
X957884D01*
X523594Y184120D02*
X535594D01*
Y212120D01*
X523594D02*
X535594D01*
X523594Y184120D02*
Y212120D01*
X524594Y198120D02*
X534594D01*
X529594Y193120D02*
Y203120D01*
X527404Y436850D02*
X539404D01*
Y464850D01*
X527404D02*
X539404D01*
X527404Y436850D02*
Y464850D01*
X528404Y450850D02*
X538404D01*
X533404Y445850D02*
Y455850D01*
X512164Y439350D02*
Y462350D01*
X524164Y439350D02*
Y462350D01*
X512164Y439350D02*
X524164D01*
X512164Y462350D02*
X524164D01*
X521624Y186620D02*
Y209620D01*
X509624Y186620D02*
Y209620D01*
X521624D01*
X509624Y186620D02*
X521624D01*
X371421Y64545D02*
Y198546D01*
X505421Y64545D02*
Y198546D01*
X371421D02*
X505421D01*
X371421Y64545D02*
X505421D01*
X963964Y317850D02*
Y329850D01*
X935964D02*
X963964D01*
X935964Y317850D02*
Y329850D01*
Y317850D02*
X963964D01*
X949964Y318850D02*
Y328850D01*
X944964Y323850D02*
X954964D01*
X963964Y303880D02*
Y315880D01*
X935964D02*
X963964D01*
X935964Y303880D02*
Y315880D01*
Y303880D02*
X963964D01*
X949964Y304880D02*
Y314880D01*
X944964Y309880D02*
X954964D01*
X951190Y488980D02*
X963190D01*
X951190Y460980D02*
Y488980D01*
Y460980D02*
X963190D01*
Y488980D01*
X952190Y474980D02*
X962190D01*
X957190Y469980D02*
Y479980D01*
X938490Y488980D02*
X950490D01*
X938490Y460980D02*
Y488980D01*
Y460980D02*
X950490D01*
Y488980D01*
X939490Y474980D02*
X949490D01*
X944490Y469980D02*
Y479980D01*
X505514Y126070D02*
X543514D01*
X505514Y105070D02*
X543514D01*
X505514D02*
Y126070D01*
X543514Y105070D02*
Y126070D01*
X505930Y497960D02*
Y512960D01*
X532930Y497960D02*
Y512960D01*
X505930D02*
X532930D01*
X505930Y497960D02*
X532930D01*
X776115Y458991D02*
Y481992D01*
X788115Y458991D02*
Y481992D01*
X776115Y458991D02*
X788115D01*
X776115Y481992D02*
X788115D01*
X4411Y58350D02*
X64411D01*
X4411D02*
Y144850D01*
X64411Y58350D02*
Y144850D01*
X4411D02*
X64411D01*
X676960Y267630D02*
X714960D01*
X676960Y288630D02*
X714960D01*
Y267630D02*
Y288630D01*
X676960Y267630D02*
Y288630D01*
X687124Y223180D02*
Y244180D01*
X725124Y223180D02*
Y244180D01*
X687124D02*
X725124D01*
X687124Y223180D02*
X725124D01*
X782115Y494701D02*
Y504701D01*
X777115Y499701D02*
X787115D01*
X788115Y485701D02*
Y513701D01*
X776115Y485701D02*
X788115D01*
X776115D02*
Y513701D01*
X788115D01*
X799400Y494701D02*
Y504701D01*
X794400Y499701D02*
X804400D01*
X805400Y485701D02*
Y513701D01*
X793400Y485701D02*
X805400D01*
X793400D02*
Y513701D01*
X805400D01*
X793400Y458991D02*
X805400D01*
X793400Y481992D02*
X805400D01*
X793400Y458991D02*
Y481992D01*
X805400Y458991D02*
Y481992D01*
X371421Y319905D02*
X505421D01*
X371421Y453906D02*
X505421D01*
Y319905D02*
Y453906D01*
X371421Y319905D02*
Y453906D01*
X730320Y325120D02*
X740320D01*
X735320Y320120D02*
Y330120D01*
X721320Y319120D02*
X749320D01*
X721320D02*
Y331120D01*
X749320D01*
Y319120D02*
Y331120D01*
X725090Y305150D02*
Y317150D01*
X748090Y305150D02*
Y317150D01*
X725090D02*
X748090D01*
X725090Y305150D02*
X748090D01*
X379151Y220286D02*
Y241285D01*
X368151Y220286D02*
Y241285D01*
X379151D01*
X368151Y220286D02*
X379151D01*
X514430Y491490D02*
X524430D01*
X519430Y486490D02*
Y496490D01*
X505430Y485490D02*
X533430D01*
X505430D02*
Y497490D01*
X533430D01*
Y485490D02*
Y497490D01*
X508054Y380070D02*
X546054D01*
X508054Y359070D02*
X546054D01*
X508054D02*
Y380070D01*
X546054Y359070D02*
Y380070D01*
X368151Y475646D02*
X379151D01*
X368151Y496645D02*
X379151D01*
X368151Y475646D02*
Y496645D01*
X379151Y475646D02*
Y496645D01*
X920101Y331540D02*
X932101D01*
X920101Y308540D02*
X932101D01*
Y331540D01*
X920101Y308540D02*
Y331540D01*
X939734Y330550D02*
Y342550D01*
X962734Y330550D02*
Y342550D01*
X939734D02*
X962734D01*
X939734Y330550D02*
X962734D01*
X951584Y458540D02*
X963584D01*
X951584Y435540D02*
X963584D01*
Y458540D01*
X951584Y435540D02*
Y458540D01*
X778564Y149520D02*
X816564D01*
X778564Y170520D02*
X816564D01*
Y149520D02*
Y170520D01*
X778564Y149520D02*
Y170520D01*
X810314Y149520D02*
X848314D01*
X810314Y170520D02*
X848314D01*
Y149520D02*
Y170520D01*
X810314Y149520D02*
Y170520D01*
X553679Y441919D02*
Y445251D01*
X551180D01*
Y443585D01*
Y445251D01*
X548681D01*
X553679Y440253D02*
X548681D01*
Y437754D01*
X549514Y436921D01*
X550347D01*
X551180Y437754D01*
Y440253D01*
Y437754D01*
X552013Y436921D01*
X552846D01*
X553679Y437754D01*
Y440253D01*
X548681Y435255D02*
Y433588D01*
Y434422D01*
X553679D01*
X552846Y435255D01*
X881818Y172365D02*
X886817D01*
Y174864D01*
X885984Y175697D01*
X882651D01*
X881818Y174864D01*
Y172365D01*
X882651Y177363D02*
X881818Y178196D01*
Y179862D01*
X882651Y180695D01*
X883484D01*
X884317Y179862D01*
X885151Y180695D01*
X885984D01*
X886817Y179862D01*
Y178196D01*
X885984Y177363D01*
X885151D01*
X884317Y178196D01*
X883484Y177363D01*
X882651D01*
X884317Y178196D02*
Y179862D01*
X868992Y172365D02*
X873990D01*
Y174864D01*
X873158Y175697D01*
X869825D01*
X868992Y174864D01*
Y172365D01*
Y177363D02*
Y180695D01*
X869825D01*
X873158Y177363D01*
X873990D01*
X527095Y191872D02*
X532093D01*
Y194371D01*
X531260Y195204D01*
X527928D01*
X527095Y194371D01*
Y191872D01*
X532093Y196870D02*
Y198536D01*
Y197703D01*
X527095D01*
X527928Y196870D01*
X532093Y203535D02*
X527095D01*
X529594Y201036D01*
Y204368D01*
X530905Y444602D02*
X535903D01*
Y447101D01*
X535070Y447934D01*
X531738D01*
X530905Y447101D01*
Y444602D01*
X535903Y449600D02*
Y451267D01*
Y450434D01*
X530905D01*
X531738Y449600D01*
Y453766D02*
X530905Y454599D01*
Y456265D01*
X531738Y457098D01*
X532571D01*
X533404Y456265D01*
Y455432D01*
Y456265D01*
X534237Y457098D01*
X535070D01*
X535903Y456265D01*
Y454599D01*
X535070Y453766D01*
X954129Y321351D02*
Y326349D01*
X951630D01*
X950797Y325516D01*
Y322184D01*
X951630Y321351D01*
X954129D01*
X949131Y325516D02*
X948298Y326349D01*
X946632D01*
X945798Y325516D01*
Y322184D01*
X946632Y321351D01*
X948298D01*
X949131Y322184D01*
Y323017D01*
X948298Y323850D01*
X945798D01*
X956212Y307381D02*
Y312379D01*
X953713D01*
X952879Y311546D01*
Y308214D01*
X953713Y307381D01*
X956212D01*
X951213Y312379D02*
X949547D01*
X950380D01*
Y307381D01*
X951213Y308214D01*
X947048D02*
X946215Y307381D01*
X944549D01*
X943716Y308214D01*
Y311546D01*
X944549Y312379D01*
X946215D01*
X947048Y311546D01*
Y308214D01*
X959689Y479145D02*
X954691D01*
Y476646D01*
X955524Y475813D01*
X958856D01*
X959689Y476646D01*
Y479145D01*
Y470815D02*
Y474147D01*
X957190D01*
X958023Y472481D01*
Y471648D01*
X957190Y470815D01*
X955524D01*
X954691Y471648D01*
Y473314D01*
X955524Y474147D01*
X946989Y479145D02*
X941991D01*
Y476646D01*
X942824Y475813D01*
X946156D01*
X946989Y476646D01*
Y479145D01*
Y470815D02*
X946156Y472481D01*
X944490Y474147D01*
X942824D01*
X941991Y473314D01*
Y471648D01*
X942824Y470815D01*
X943657D01*
X944490Y471648D01*
Y474147D01*
X784614Y505116D02*
X779616D01*
Y502617D01*
X780449Y501784D01*
X783781D01*
X784614Y502617D01*
Y505116D01*
X779616Y500118D02*
Y498452D01*
Y499285D01*
X784614D01*
X783781Y500118D01*
X779616Y495952D02*
Y494286D01*
Y495120D01*
X784614D01*
X783781Y495952D01*
X801900Y505949D02*
X796901D01*
Y503450D01*
X797734Y502617D01*
X801067D01*
X801900Y503450D01*
Y505949D01*
X796901Y500951D02*
Y499285D01*
Y500118D01*
X801900D01*
X801067Y500951D01*
X796901Y493453D02*
Y496786D01*
X800234Y493453D01*
X801067D01*
X801900Y494286D01*
Y495952D01*
X801067Y496786D01*
X739486Y322621D02*
Y327619D01*
X736986D01*
X736153Y326786D01*
Y323454D01*
X736986Y322621D01*
X739486D01*
X734487Y323454D02*
X733654Y322621D01*
X731988D01*
X731155Y323454D01*
Y324287D01*
X731988Y325120D01*
X732821D01*
X731988D01*
X731155Y325953D01*
Y326786D01*
X731988Y327619D01*
X733654D01*
X734487Y326786D01*
X523595Y488991D02*
Y493989D01*
X521096D01*
X520263Y493156D01*
Y489824D01*
X521096Y488991D01*
X523595D01*
X516098Y493989D02*
Y488991D01*
X518597Y491490D01*
X515265D01*
D23*
X938886Y90195D02*
X946883D01*
X950882Y86197D01*
X946883Y82198D01*
X938886D01*
X944884D01*
Y90195D01*
X950882Y70202D02*
Y78199D01*
X938886D01*
Y70202D01*
X944884Y78199D02*
Y74201D01*
X938886Y66203D02*
Y62204D01*
Y64204D01*
X950882D01*
X948883Y66203D01*
D154*
X735584Y394653D02*
Y412687D01*
X752856D01*
Y394653D02*
Y412687D01*
X735584Y394653D02*
X752856D01*
D156*
X585470Y215900D02*
Y292100D01*
X636270Y215900D02*
Y292100D01*
X858524Y436960D02*
Y446960D01*
X853524Y441960D02*
X863524D01*
X139934Y284456D02*
Y293955D01*
X135184Y289205D02*
X144684D01*
X139971Y60936D02*
Y70436D01*
X135221Y65686D02*
X144721D01*
X212361Y284456D02*
Y293955D01*
X207611Y289205D02*
X217111D01*
X212361Y60936D02*
Y70436D01*
X207611Y65686D02*
X217111D01*
X139934Y340336D02*
Y349836D01*
X135184Y345085D02*
X144684D01*
X139934Y116816D02*
Y126315D01*
X135184Y121566D02*
X144684D01*
X212361Y340336D02*
Y349836D01*
X207611Y345085D02*
X217111D01*
X212361Y116816D02*
Y126315D01*
X207611Y121566D02*
X217111D01*
X139934Y396216D02*
Y405715D01*
X135184Y400965D02*
X144684D01*
X139934Y172656D02*
Y182155D01*
X135184Y177405D02*
X144684D01*
X212361Y396216D02*
Y405715D01*
X207611Y400965D02*
X217111D01*
X212361Y172656D02*
Y182155D01*
X207611Y177405D02*
X217111D01*
X139934Y452095D02*
Y461595D01*
X135184Y456846D02*
X144684D01*
X139934Y228575D02*
Y238076D01*
X135184Y233326D02*
X144684D01*
X212361Y452095D02*
Y461595D01*
X207611Y456846D02*
X217111D01*
X212361Y228575D02*
Y238076D01*
X207611Y233326D02*
X217111D01*
X139717Y302590D02*
Y312090D01*
X134967Y307340D02*
X144467D01*
X139971Y78716D02*
Y88216D01*
X135221Y83465D02*
X144721D01*
X212361Y300965D02*
Y310466D01*
X207611Y305716D02*
X217111D01*
X212361Y77446D02*
Y86945D01*
X207611Y82196D02*
X217111D01*
X139934Y358116D02*
Y367616D01*
X135184Y362865D02*
X144684D01*
X139934Y134595D02*
Y144095D01*
X135184Y139346D02*
X144684D01*
X212361Y356846D02*
Y366345D01*
X207611Y361595D02*
X217111D01*
X212361Y133326D02*
Y142825D01*
X207611Y138076D02*
X217111D01*
X139934Y413996D02*
Y423495D01*
X135184Y418745D02*
X144684D01*
X139934Y190436D02*
Y199935D01*
X135184Y195186D02*
X144684D01*
X212361Y412725D02*
Y422225D01*
X207611Y417476D02*
X217111D01*
X212361Y189165D02*
Y198666D01*
X207611Y193916D02*
X217111D01*
X139934Y469875D02*
Y479375D01*
X135184Y474626D02*
X144684D01*
X139934Y246355D02*
Y255856D01*
X135184Y251105D02*
X144684D01*
X212361Y468605D02*
Y478106D01*
X207611Y473355D02*
X217111D01*
X212361Y245086D02*
Y254585D01*
X207611Y249835D02*
X217111D01*
X754710Y377190D02*
X764210D01*
X759460Y372440D02*
Y381940D01*
X765810Y331800D02*
Y341300D01*
X761060Y336550D02*
X770560D01*
X722960Y377190D02*
X732460D01*
X727710Y372440D02*
Y381940D01*
X663270Y468630D02*
X672770D01*
X668020Y463880D02*
Y473380D01*
X754710Y477520D02*
X764210D01*
X759460Y472770D02*
Y482270D01*
X851234Y471170D02*
X860734D01*
X855984Y466420D02*
Y475920D01*
X896950Y431800D02*
X906450D01*
X901700Y427050D02*
Y436550D01*
X647700Y513410D02*
Y522910D01*
X642950Y518160D02*
X652450D01*
X551510Y511810D02*
X561010D01*
X556260Y507060D02*
Y516560D01*
X771220Y412750D02*
X780720D01*
X775970Y408000D02*
Y417500D01*
X712800Y411480D02*
X722300D01*
X717550Y406730D02*
Y416230D01*
X891870Y238760D02*
X901370D01*
X896620Y234010D02*
Y243510D01*
X791177Y357268D02*
X800676D01*
X795927Y352518D02*
Y362018D01*
X824230Y371170D02*
Y380670D01*
X819480Y375920D02*
X828980D01*
X771220Y396240D02*
X780720D01*
X775970Y391490D02*
Y400990D01*
X693420Y413080D02*
Y422580D01*
X688670Y417830D02*
X698170D01*
X22311Y162560D02*
X31811D01*
X27061Y157810D02*
Y167310D01*
X818210Y401320D02*
X827710D01*
X822960Y396570D02*
Y406070D01*
X686720Y191390D02*
Y207390D01*
X674720D02*
X686720D01*
X674720Y191390D02*
Y207390D01*
Y191390D02*
X686720D01*
X647320Y371730D02*
X663320D01*
X647320D02*
Y387730D01*
X663320D01*
Y371730D02*
Y387730D01*
X660020Y311530D02*
X676020D01*
Y295530D02*
Y311530D01*
X660020Y295530D02*
X676020D01*
X660020D02*
Y311530D01*
X670180Y149480D02*
X686180D01*
X670180D02*
Y165480D01*
X686180D01*
Y149480D02*
Y165480D01*
X268877Y487300D02*
X284877D01*
X268877D02*
Y503300D01*
X284877D01*
Y487300D02*
Y503300D01*
X334904Y313310D02*
Y329310D01*
X350904D01*
Y313310D02*
Y329310D01*
X334904Y313310D02*
X350904D01*
X896240Y169800D02*
Y185800D01*
X912240D01*
Y169800D02*
Y185800D01*
X896240Y169800D02*
X912240D01*
X585470Y314960D02*
Y365760D01*
X636270Y314960D02*
Y365760D01*
Y129540D02*
Y180340D01*
X585470Y129540D02*
Y180340D01*
X636287Y396240D02*
Y447040D01*
X585487Y396240D02*
Y447040D01*
X300994Y452120D02*
X351794D01*
X300994Y502920D02*
X351794D01*
X16781Y481330D02*
X67581D01*
X16781Y430530D02*
X67581D01*
X301007Y233680D02*
X351807D01*
X301007Y284480D02*
X351807D01*
X619760Y44530D02*
Y54530D01*
X614760Y49530D02*
X624760D01*
X897132Y220249D02*
Y229749D01*
X892382Y224999D02*
X901882D01*
X940134Y447040D02*
X949634D01*
X944884Y442290D02*
Y451790D01*
X879187Y205740D02*
X888687D01*
X883937Y200990D02*
Y210490D01*
X866741Y205740D02*
X876241D01*
X871491Y200990D02*
Y210490D01*
X513414Y450850D02*
X522914D01*
X518164Y446100D02*
Y455600D01*
X510874Y198120D02*
X520374D01*
X515624Y193370D02*
Y202870D01*
X433422Y131546D02*
X443422D01*
X438421Y126546D02*
Y136546D01*
X524514Y110820D02*
Y120320D01*
X519764Y115570D02*
X529264D01*
X514680Y505460D02*
X524180D01*
X519430Y500710D02*
Y510210D01*
X777365Y470491D02*
X786864D01*
X782115Y465742D02*
Y475241D01*
X40911Y96600D02*
Y106600D01*
X35911Y101600D02*
X45911D01*
X695960Y273380D02*
Y282880D01*
X691210Y278130D02*
X700710D01*
X701374Y233680D02*
X710874D01*
X706124Y228930D02*
Y238430D01*
X799400Y465742D02*
Y475241D01*
X794651Y470491D02*
X804150D01*
X438421Y381906D02*
Y391906D01*
X433422Y386906D02*
X443422D01*
X731841Y311150D02*
X741340D01*
X736590Y306400D02*
Y315900D01*
X369151Y230786D02*
X378151D01*
X373651Y226286D02*
Y235285D01*
X527054Y364820D02*
Y374320D01*
X522304Y369570D02*
X531804D01*
X373651Y481646D02*
Y490645D01*
X369151Y486145D02*
X378151D01*
X926101Y315290D02*
Y324790D01*
X921351Y320040D02*
X930851D01*
X946484Y336550D02*
X955984D01*
X951234Y331800D02*
Y341300D01*
X957584Y442290D02*
Y451790D01*
X952834Y447040D02*
X962334D01*
X797564Y155270D02*
Y164770D01*
X792814Y160020D02*
X802314D01*
X829314Y155270D02*
Y164770D01*
X824564Y160020D02*
X834064D01*
M02*
