G04*
G04 #@! TF.GenerationSoftware,Altium Limited,Altium Designer,23.8.1 (32)*
G04*
G04 Layer_Color=16711935*
%FSLAX44Y44*%
%MOMM*%
G71*
G04*
G04 #@! TF.SameCoordinates,B2355FDD-5490-460F-BBB4-22D25E5E3D0D*
G04*
G04*
G04 #@! TF.FilePolarity,Positive*
G04*
G01*
G75*
%ADD14C,0.2540*%
%ADD19C,0.1001*%
%ADD20C,0.1999*%
%ADD21C,0.1500*%
%ADD22C,0.0500*%
%ADD23C,0.1200*%
%ADD154C,0.1524*%
%ADD155C,0.1778*%
D14*
X18194Y-443968D02*
G03*
X46590Y-472366I28300J-98D01*
G01*
X969186Y513902D02*
Y574040D01*
X1270Y511810D02*
Y574040D01*
X519507Y571500D02*
X969186D01*
X1270D02*
X442821D01*
X953947Y576580D02*
X969186Y571500D01*
X953947Y566420D02*
X969186Y571500D01*
X1270D02*
X16510Y566420D01*
X1270Y571500D02*
X16510Y576580D01*
X990045Y542038D02*
X995125Y526798D01*
X984965D02*
X990045Y542038D01*
X984965Y29109D02*
X990045Y13869D01*
X995125Y29109D01*
X990045Y312232D02*
Y542038D01*
Y13869D02*
Y235546D01*
X944883Y542038D02*
X992585D01*
X945674Y13869D02*
X992585D01*
D19*
X837791Y302311D02*
Y340309D01*
Y302311D02*
X879792D01*
Y340309D01*
X837791D02*
X879792D01*
X931420Y182659D02*
Y223660D01*
Y182659D02*
X959421D01*
Y223660D01*
X931420D02*
X959421D01*
X574799Y461122D02*
Y533121D01*
Y461122D02*
X639798D01*
Y533121D01*
X574799D02*
X639798D01*
X584799Y484622D02*
Y509621D01*
Y484622D02*
X629798D01*
Y509621D01*
X584799D02*
X629798D01*
X17292Y368300D02*
X25419D01*
X41674D01*
X49801D01*
X17292Y187960D02*
Y368770D01*
Y187960D02*
X49801D01*
X7292Y368300D02*
X61691D01*
X7292Y187960D02*
Y368300D01*
Y187960D02*
X61691D01*
Y368300D01*
X49801Y187960D02*
Y368770D01*
D20*
X848791Y313309D02*
Y329311D01*
Y313309D02*
X868791D01*
Y329311D01*
X848791D02*
X868791D01*
X941420Y192659D02*
Y208661D01*
Y192659D02*
X949421D01*
Y208661D01*
X941420D02*
X949421D01*
D21*
X768395Y87508D02*
X763396D01*
X765895D01*
Y75012D01*
X763396Y72512D01*
X760897D01*
X758398Y75012D01*
X773393Y85008D02*
X775892Y87508D01*
X780891D01*
X783390Y85008D01*
Y82509D01*
X780891Y80010D01*
X778391D01*
X780891D01*
X783390Y77511D01*
Y75012D01*
X780891Y72512D01*
X775892D01*
X773393Y75012D01*
D22*
X553679Y441919D02*
Y445251D01*
X551180D01*
Y443585D01*
Y445251D01*
X548681D01*
X553679Y440253D02*
X548681D01*
Y437754D01*
X549514Y436921D01*
X550347D01*
X551180Y437754D01*
Y440253D01*
Y437754D01*
X552013Y436921D01*
X552846D01*
X553679Y437754D01*
Y440253D01*
X548681Y435255D02*
Y433588D01*
Y434422D01*
X553679D01*
X552846Y435255D01*
X881818Y172365D02*
X886817D01*
Y174864D01*
X885984Y175697D01*
X882651D01*
X881818Y174864D01*
Y172365D01*
X882651Y177363D02*
X881818Y178196D01*
Y179862D01*
X882651Y180695D01*
X883484D01*
X884317Y179862D01*
X885151Y180695D01*
X885984D01*
X886817Y179862D01*
Y178196D01*
X885984Y177363D01*
X885151D01*
X884317Y178196D01*
X883484Y177363D01*
X882651D01*
X884317Y178196D02*
Y179862D01*
X868992Y172365D02*
X873990D01*
Y174864D01*
X873158Y175697D01*
X869825D01*
X868992Y174864D01*
Y172365D01*
Y177363D02*
Y180695D01*
X869825D01*
X873158Y177363D01*
X873990D01*
X527095Y191872D02*
X532093D01*
Y194371D01*
X531260Y195204D01*
X527928D01*
X527095Y194371D01*
Y191872D01*
X532093Y196870D02*
Y198536D01*
Y197703D01*
X527095D01*
X527928Y196870D01*
X532093Y203535D02*
X527095D01*
X529594Y201036D01*
Y204368D01*
X530905Y444602D02*
X535903D01*
Y447101D01*
X535070Y447934D01*
X531738D01*
X530905Y447101D01*
Y444602D01*
X535903Y449600D02*
Y451267D01*
Y450434D01*
X530905D01*
X531738Y449600D01*
Y453766D02*
X530905Y454599D01*
Y456265D01*
X531738Y457098D01*
X532571D01*
X533404Y456265D01*
Y455432D01*
Y456265D01*
X534237Y457098D01*
X535070D01*
X535903Y456265D01*
Y454599D01*
X535070Y453766D01*
X954129Y321351D02*
Y326349D01*
X951630D01*
X950797Y325516D01*
Y322184D01*
X951630Y321351D01*
X954129D01*
X949131Y325516D02*
X948298Y326349D01*
X946632D01*
X945798Y325516D01*
Y322184D01*
X946632Y321351D01*
X948298D01*
X949131Y322184D01*
Y323017D01*
X948298Y323850D01*
X945798D01*
X956212Y307381D02*
Y312379D01*
X953713D01*
X952879Y311546D01*
Y308214D01*
X953713Y307381D01*
X956212D01*
X951213Y312379D02*
X949547D01*
X950380D01*
Y307381D01*
X951213Y308214D01*
X947048D02*
X946215Y307381D01*
X944549D01*
X943716Y308214D01*
Y311546D01*
X944549Y312379D01*
X946215D01*
X947048Y311546D01*
Y308214D01*
X959689Y479145D02*
X954691D01*
Y476646D01*
X955524Y475813D01*
X958856D01*
X959689Y476646D01*
Y479145D01*
Y470815D02*
Y474147D01*
X957190D01*
X958023Y472481D01*
Y471648D01*
X957190Y470815D01*
X955524D01*
X954691Y471648D01*
Y473314D01*
X955524Y474147D01*
X946989Y479145D02*
X941991D01*
Y476646D01*
X942824Y475813D01*
X946156D01*
X946989Y476646D01*
Y479145D01*
Y470815D02*
X946156Y472481D01*
X944490Y474147D01*
X942824D01*
X941991Y473314D01*
Y471648D01*
X942824Y470815D01*
X943657D01*
X944490Y471648D01*
Y474147D01*
X784614Y505116D02*
X779616D01*
Y502617D01*
X780449Y501784D01*
X783781D01*
X784614Y502617D01*
Y505116D01*
X779616Y500118D02*
Y498452D01*
Y499285D01*
X784614D01*
X783781Y500118D01*
X779616Y495952D02*
Y494286D01*
Y495120D01*
X784614D01*
X783781Y495952D01*
X801900Y505949D02*
X796901D01*
Y503450D01*
X797734Y502617D01*
X801067D01*
X801900Y503450D01*
Y505949D01*
X796901Y500951D02*
Y499285D01*
Y500118D01*
X801900D01*
X801067Y500951D01*
X796901Y493453D02*
Y496786D01*
X800234Y493453D01*
X801067D01*
X801900Y494286D01*
Y495952D01*
X801067Y496786D01*
X739486Y322621D02*
Y327619D01*
X736986D01*
X736153Y326786D01*
Y323454D01*
X736986Y322621D01*
X739486D01*
X734487Y323454D02*
X733654Y322621D01*
X731988D01*
X731155Y323454D01*
Y324287D01*
X731988Y325120D01*
X732821D01*
X731988D01*
X731155Y325953D01*
Y326786D01*
X731988Y327619D01*
X733654D01*
X734487Y326786D01*
X523595Y488991D02*
Y493989D01*
X521096D01*
X520263Y493156D01*
Y489824D01*
X521096Y488991D01*
X523595D01*
X516098Y493989D02*
Y488991D01*
X518597Y491490D01*
X515265D01*
D23*
X938886Y90195D02*
X946883D01*
X950882Y86197D01*
X946883Y82198D01*
X938886D01*
X944884D01*
Y90195D01*
X950882Y70202D02*
Y78199D01*
X938886D01*
Y70202D01*
X944884Y78199D02*
Y74201D01*
X938886Y66203D02*
Y62204D01*
Y64204D01*
X950882D01*
X948883Y66203D01*
D154*
X446885Y564898D02*
X449425Y562359D01*
X454503D01*
X457042Y564898D01*
Y575054D01*
X454503Y577593D01*
X449425D01*
X446885Y575054D01*
Y572515D01*
X449425Y569976D01*
X457042D01*
X472277Y577593D02*
X467199Y575054D01*
X462120Y569976D01*
Y564898D01*
X464660Y562359D01*
X469738D01*
X472277Y564898D01*
Y567437D01*
X469738Y569976D01*
X462120D01*
X477355Y562359D02*
Y564898D01*
X479895D01*
Y562359D01*
X477355D01*
X490051Y577593D02*
X500208D01*
Y575054D01*
X490051Y564898D01*
Y562359D01*
X505286Y564898D02*
X507826Y562359D01*
X512904D01*
X515443Y564898D01*
Y575054D01*
X512904Y577593D01*
X507826D01*
X505286Y575054D01*
Y572515D01*
X507826Y569976D01*
X515443D01*
X983951Y249767D02*
Y239610D01*
X991569D01*
X989029Y244689D01*
Y247228D01*
X991569Y249767D01*
X996647D01*
X999186Y247228D01*
Y242150D01*
X996647Y239610D01*
X999186Y265002D02*
Y254845D01*
X989029Y265002D01*
X986490D01*
X983951Y262463D01*
Y257385D01*
X986490Y254845D01*
X999186Y270081D02*
X996647D01*
Y272620D01*
X999186D01*
Y270081D01*
X986490Y282776D02*
X983951Y285315D01*
Y290394D01*
X986490Y292933D01*
X989029D01*
X991569Y290394D01*
X994108Y292933D01*
X996647D01*
X999186Y290394D01*
Y285315D01*
X996647Y282776D01*
X994108D01*
X991569Y285315D01*
X989029Y282776D01*
X986490D01*
X991569Y285315D02*
Y290394D01*
X999186Y308168D02*
Y298011D01*
X989029Y308168D01*
X986490D01*
X983951Y305629D01*
Y300551D01*
X986490Y298011D01*
D155*
X423181Y136622D02*
Y128158D01*
X424874Y126466D01*
X428260D01*
X429953Y128158D01*
Y136622D01*
X438416Y126466D02*
Y136622D01*
X433338Y131544D01*
X440109D01*
X443495Y124773D02*
X450266D01*
X453652Y126466D02*
Y133237D01*
X457037Y136622D01*
X460423Y133237D01*
Y126466D01*
Y131544D01*
X453652D01*
X470579Y136622D02*
X463808D01*
Y131544D01*
X467194D01*
X463808D01*
Y126466D01*
X480736Y136622D02*
X473965D01*
Y126466D01*
X480736D01*
X473965Y131544D02*
X477351D01*
X490893Y126466D02*
X484122D01*
X490893Y133237D01*
Y134930D01*
X489200Y136622D01*
X485815D01*
X484122Y134930D01*
X423181Y391982D02*
Y383518D01*
X424874Y381826D01*
X428260D01*
X429953Y383518D01*
Y391982D01*
X438416Y381826D02*
Y391982D01*
X433338Y386904D01*
X440109D01*
X443495Y380133D02*
X450266D01*
X453652Y381826D02*
Y388597D01*
X457037Y391982D01*
X460423Y388597D01*
Y381826D01*
Y386904D01*
X453652D01*
X470579Y391982D02*
X463808D01*
Y386904D01*
X467194D01*
X463808D01*
Y381826D01*
X480736Y391982D02*
X473965D01*
Y381826D01*
X480736D01*
X473965Y386904D02*
X477351D01*
X484122Y381826D02*
X487507D01*
X485815D01*
Y391982D01*
X484122Y390289D01*
M02*
