G04*
G04 #@! TF.GenerationSoftware,Altium Limited,Altium Designer,23.8.1 (32)*
G04*
G04 Layer_Physical_Order=3*
G04 Layer_Color=16440176*
%FSLAX44Y44*%
%MOMM*%
G71*
G04*
G04 #@! TF.SameCoordinates,B2355FDD-5490-460F-BBB4-22D25E5E3D0D*
G04*
G04*
G04 #@! TF.FilePolarity,Positive*
G04*
G01*
G75*
%ADD13C,0.2000*%
%ADD14C,0.2540*%
%ADD19C,0.1001*%
%ADD20C,0.1999*%
%ADD21C,0.1500*%
%ADD22C,0.0500*%
%ADD23C,0.1200*%
%ADD152C,0.6000*%
%ADD153C,0.4000*%
G36*
X942991Y538933D02*
X946706Y537937D01*
X950260Y536465D01*
X953591Y534542D01*
X956643Y532200D01*
X959362Y529481D01*
X961704Y526429D01*
X963627Y523098D01*
X965099Y519544D01*
X966095Y515829D01*
X966566Y512251D01*
X966670Y245071D01*
X965400Y244545D01*
X964786Y245159D01*
X964334Y245346D01*
X963613Y246830D01*
Y248421D01*
X963004Y249892D01*
X962010Y250886D01*
X963024Y251900D01*
X963633Y253370D01*
Y254961D01*
X963229Y255936D01*
X963010Y257220D01*
X964135Y258345D01*
X964744Y259815D01*
Y261406D01*
X964135Y262876D01*
X963252Y263760D01*
X964372Y264881D01*
X964981Y266351D01*
Y267942D01*
X964372Y269412D01*
X964064Y269720D01*
X963955Y271407D01*
X964564Y272877D01*
Y274469D01*
X963955Y275939D01*
X962830Y277064D01*
X961984Y277414D01*
X961191Y278480D01*
Y280072D01*
X960582Y281542D01*
X959457Y282667D01*
X957987Y283276D01*
X956395D01*
X955782Y284396D01*
X955343Y285456D01*
X954218Y286581D01*
X952747Y287190D01*
X951156D01*
X950928Y287343D01*
Y288173D01*
X950319Y289643D01*
X949193Y290768D01*
X947723Y291377D01*
X946132D01*
X944980Y290900D01*
X944372Y292366D01*
X943247Y293491D01*
X941777Y294100D01*
X940186D01*
X939190Y293688D01*
X937920Y293434D01*
X936795Y294560D01*
X935325Y295169D01*
X933734D01*
X932263Y294560D01*
X931138Y293434D01*
X930529Y291964D01*
Y290373D01*
X931138Y288903D01*
X932263Y287778D01*
X933734Y287169D01*
X935325D01*
X936795Y287778D01*
X938119Y287306D01*
X938716Y286709D01*
X940186Y286100D01*
X941777D01*
X942929Y286578D01*
X943537Y285112D01*
X944662Y283986D01*
X946132Y283377D01*
X947723D01*
X947952Y283225D01*
Y282395D01*
X948561Y280925D01*
X949686Y279799D01*
X951156Y279191D01*
X952747D01*
X953361Y278070D01*
X953800Y277010D01*
X954925Y275885D01*
X955770Y275535D01*
X956564Y274469D01*
Y272877D01*
X957173Y271407D01*
X957481Y271099D01*
X957590Y269412D01*
X956981Y267942D01*
Y266351D01*
X957590Y264881D01*
X958474Y263997D01*
X957353Y262876D01*
X956744Y261406D01*
Y259815D01*
X957353Y258345D01*
X956856Y257046D01*
X956242Y256432D01*
X955632Y254961D01*
Y253370D01*
X956242Y251900D01*
X957236Y250905D01*
X956222Y249892D01*
X955613Y248421D01*
Y246830D01*
X956222Y245360D01*
X957347Y244235D01*
X957800Y244047D01*
X958520Y242563D01*
Y240972D01*
X959129Y239502D01*
X960254Y238376D01*
X960278Y236992D01*
X959941Y236179D01*
Y234588D01*
X960550Y233118D01*
X961554Y232114D01*
X960550Y231110D01*
X959941Y229639D01*
Y228048D01*
X960550Y226578D01*
X960407Y224925D01*
X960070Y224587D01*
X959461Y223117D01*
Y221526D01*
X958653Y220531D01*
X957746Y220156D01*
X956621Y219030D01*
X956012Y217560D01*
Y215969D01*
X956621Y214499D01*
X957074Y214046D01*
X957355Y212532D01*
X956746Y211062D01*
Y209470D01*
X957355Y208000D01*
X958388Y206968D01*
X957412Y205992D01*
X956803Y204522D01*
Y202931D01*
X957412Y201460D01*
X958443Y200430D01*
X957465Y199452D01*
X956856Y197982D01*
Y196391D01*
X957465Y194921D01*
X958387Y193998D01*
X957303Y192914D01*
X956694Y191444D01*
Y189853D01*
X956872Y189424D01*
X956357Y187836D01*
X955232Y186711D01*
X954623Y185241D01*
Y183649D01*
X955232Y182179D01*
X956357Y181054D01*
X956608Y179700D01*
X956283Y178915D01*
Y177323D01*
X956891Y175853D01*
X957954Y174790D01*
X957010Y173846D01*
X956401Y172376D01*
Y170784D01*
X957010Y169314D01*
X956919Y167656D01*
X956584Y167320D01*
X955975Y165850D01*
Y164258D01*
X956584Y162788D01*
X956987Y162385D01*
X956901Y161955D01*
X955776Y160830D01*
X955167Y159360D01*
Y157768D01*
X955776Y156298D01*
X956853Y155221D01*
X955923Y154292D01*
X955315Y152821D01*
Y151230D01*
X955923Y149760D01*
X956928Y148756D01*
X955923Y147752D01*
X955315Y146281D01*
Y144690D01*
X955923Y143220D01*
X956904Y142240D01*
X956793Y141557D01*
X956514Y140970D01*
X935063D01*
X934279Y142240D01*
X934610Y143037D01*
Y144628D01*
X934001Y146099D01*
X932933Y147166D01*
X933873Y148106D01*
X934482Y149576D01*
Y151167D01*
X933873Y152637D01*
X932868Y153643D01*
X933871Y154646D01*
X934480Y156116D01*
Y157707D01*
X933871Y159177D01*
X933442Y159607D01*
X933189Y161150D01*
X933799Y162620D01*
Y164212D01*
X933189Y165682D01*
X932064Y166807D01*
X930594Y167416D01*
X929003D01*
X927533Y166807D01*
X926407Y165682D01*
X925798Y164212D01*
Y162620D01*
X926407Y161150D01*
X926837Y160721D01*
X927089Y159177D01*
X926480Y157707D01*
Y156116D01*
X927089Y154646D01*
X928094Y153641D01*
X927091Y152637D01*
X926482Y151167D01*
Y150311D01*
X926194Y150040D01*
X925212Y149583D01*
X924086Y150050D01*
X922494D01*
X921024Y149441D01*
X920278Y148695D01*
X919480Y148446D01*
X918681Y148695D01*
X917936Y149441D01*
X916466Y150050D01*
X914874D01*
X913404Y149441D01*
X912658Y148695D01*
X911860Y148446D01*
X911061Y148695D01*
X910316Y149441D01*
X908846Y150050D01*
X907254D01*
X905784Y149441D01*
X905041Y148698D01*
X904242Y148447D01*
X903443Y148698D01*
X902700Y149441D01*
X901229Y150050D01*
X899638D01*
X898168Y149441D01*
X897422Y148695D01*
X896624Y148446D01*
X895825Y148695D01*
X895080Y149441D01*
X893609Y150050D01*
X892018D01*
X890548Y149441D01*
X889802Y148695D01*
X889004Y148446D01*
X888205Y148695D01*
X887460Y149441D01*
X885990Y150050D01*
X884398D01*
X882928Y149441D01*
X882182Y148695D01*
X881384Y148446D01*
X880585Y148695D01*
X879840Y149441D01*
X878370Y150050D01*
X876778D01*
X875308Y149441D01*
X874562Y148695D01*
X873764Y148446D01*
X872965Y148695D01*
X872220Y149441D01*
X870750Y150050D01*
X869158D01*
X867688Y149441D01*
X866563Y148316D01*
X865286Y148551D01*
X864163Y149016D01*
X862572D01*
X861102Y148407D01*
X859976Y147282D01*
X859367Y145812D01*
Y144776D01*
X858141Y144514D01*
X858097Y144513D01*
X856980Y145631D01*
X855509Y146240D01*
X853918D01*
X852448Y145631D01*
X851323Y144506D01*
X850714Y143036D01*
Y141444D01*
X851323Y139974D01*
X852068Y139228D01*
X852317Y138430D01*
X852068Y137632D01*
X851323Y136886D01*
X850714Y135416D01*
Y133824D01*
X851323Y132354D01*
X852068Y131608D01*
X852317Y130810D01*
X852068Y130012D01*
X851323Y129266D01*
X850714Y127796D01*
Y126204D01*
X851323Y124734D01*
X852068Y123989D01*
X852317Y123190D01*
X852068Y122392D01*
X851323Y121646D01*
X850714Y120176D01*
Y118584D01*
X851323Y117114D01*
X852068Y116369D01*
X852317Y115570D01*
X852068Y114771D01*
X851323Y114026D01*
X850714Y112556D01*
Y110964D01*
X851323Y109494D01*
X852068Y108749D01*
X852317Y107950D01*
X852068Y107151D01*
X851323Y106406D01*
X850714Y104936D01*
Y103344D01*
X851323Y101874D01*
X852068Y101129D01*
X852317Y100330D01*
X852068Y99531D01*
X851323Y98786D01*
X850714Y97316D01*
Y95724D01*
X851323Y94254D01*
X852068Y93509D01*
X852317Y92710D01*
X852068Y91911D01*
X851323Y91166D01*
X850714Y89696D01*
Y88104D01*
X851323Y86634D01*
X852068Y85889D01*
X852317Y85090D01*
X852068Y84291D01*
X851323Y83546D01*
X850714Y82076D01*
Y80484D01*
X851323Y79014D01*
X852068Y78268D01*
X852317Y77470D01*
X852068Y76672D01*
X851323Y75926D01*
X850714Y74456D01*
Y72864D01*
X851323Y71394D01*
X852068Y70648D01*
X852317Y69850D01*
X852068Y69051D01*
X851323Y68306D01*
X850714Y66836D01*
Y65244D01*
X851323Y63774D01*
X852068Y63028D01*
X852317Y62230D01*
X852068Y61431D01*
X851323Y60686D01*
X850714Y59216D01*
Y57624D01*
X851323Y56154D01*
X852068Y55409D01*
X852317Y54610D01*
X852068Y53811D01*
X851323Y53066D01*
X850714Y51596D01*
Y50004D01*
X851323Y48534D01*
X852068Y47789D01*
X852317Y46990D01*
X852068Y46192D01*
X851323Y45446D01*
X850714Y43976D01*
Y42384D01*
X851323Y40914D01*
X852068Y40168D01*
X852317Y39370D01*
X852068Y38572D01*
X851323Y37826D01*
X850714Y36356D01*
Y34764D01*
X851323Y33294D01*
X852068Y32548D01*
X852317Y31750D01*
X852068Y30951D01*
X851323Y30206D01*
X850714Y28736D01*
Y27144D01*
X851323Y25674D01*
X852068Y24929D01*
X852317Y24130D01*
X852068Y23331D01*
X851323Y22586D01*
X850714Y21116D01*
Y19524D01*
X851323Y18054D01*
X851674Y17702D01*
X851149Y16432D01*
X625808Y16368D01*
X625331Y17638D01*
X626030Y19325D01*
Y21315D01*
X625269Y23152D01*
X623862Y24559D01*
X622025Y25320D01*
X620035D01*
X618198Y24559D01*
X616791Y23152D01*
X616637Y22781D01*
X615263D01*
X615109Y23152D01*
X613702Y24559D01*
X611865Y25320D01*
X609875D01*
X608038Y24559D01*
X606631Y23152D01*
X605870Y21315D01*
Y19325D01*
X606571Y17633D01*
X606097Y16362D01*
X449208Y16318D01*
X448310Y17216D01*
Y169396D01*
X449073Y169905D01*
X451062D01*
X452900Y170667D01*
X454306Y172073D01*
X455067Y173911D01*
Y175900D01*
X454306Y177738D01*
X452900Y179144D01*
X451062Y179905D01*
X449073D01*
X448310Y180415D01*
Y239222D01*
X449580Y240221D01*
X449928Y240151D01*
X453908D01*
X455184Y240405D01*
X456265Y241128D01*
X458522Y243385D01*
X460744D01*
X460987Y243142D01*
X462825Y242381D01*
X464814D01*
X466651Y243142D01*
X468058Y244548D01*
X468819Y246386D01*
Y248375D01*
X468058Y250213D01*
X466651Y251619D01*
X464814Y252381D01*
X462825D01*
X460987Y251619D01*
X459580Y250213D01*
X459514Y250053D01*
X457141D01*
X455865Y249799D01*
X454783Y249076D01*
X452527Y246819D01*
X451309D01*
X448310Y249818D01*
Y355004D01*
X448361Y362915D01*
X448406Y369986D01*
X448420Y372177D01*
X448484Y382177D01*
X448597Y399745D01*
X448656Y409007D01*
X448726Y419886D01*
X450553D01*
X452391Y420647D01*
X453798Y422054D01*
X454559Y423891D01*
Y425880D01*
X453798Y427718D01*
X452391Y429125D01*
X450553Y429886D01*
X449691D01*
X448796Y430787D01*
X448936Y452621D01*
X514775D01*
X535806Y431590D01*
Y403160D01*
X534536Y402907D01*
X534255Y403586D01*
X533130Y404711D01*
X531660Y405320D01*
X530068D01*
X528598Y404711D01*
X527473Y403586D01*
X526864Y402116D01*
Y400524D01*
X527186Y399747D01*
X526109Y399028D01*
X525506Y399631D01*
X524036Y400240D01*
X522444D01*
X520974Y399631D01*
X520231Y398888D01*
X519432Y398637D01*
X518633Y398888D01*
X517890Y399631D01*
X516419Y400240D01*
X514828D01*
X513358Y399631D01*
X512233Y398506D01*
X511624Y397036D01*
Y395444D01*
X511742Y395160D01*
X511018Y393890D01*
X509548Y393281D01*
X508423Y392156D01*
X507814Y390686D01*
Y389094D01*
X508423Y387624D01*
X509548Y386499D01*
X511018Y385890D01*
X512609D01*
X514080Y386499D01*
X515205Y387624D01*
X515814Y389094D01*
Y389928D01*
X517084Y390454D01*
X522538Y385000D01*
X522506Y384566D01*
X522139Y383603D01*
X520974Y383121D01*
X519849Y381996D01*
X519240Y380526D01*
Y378934D01*
X519849Y377464D01*
X520974Y376339D01*
X522444Y375730D01*
X524036D01*
X525506Y376339D01*
X526631Y377464D01*
X527113Y378629D01*
X528413Y379125D01*
X559639Y347900D01*
X559341Y346401D01*
X559074Y346291D01*
X557949Y345166D01*
X557340Y343696D01*
Y342104D01*
X557949Y340634D01*
X559074Y339509D01*
X560544Y338900D01*
X562136D01*
X563606Y339509D01*
X564731Y340634D01*
X564841Y340901D01*
X566339Y341199D01*
X591775Y315763D01*
X592767Y315100D01*
X593938Y314867D01*
X600287D01*
X657260Y257894D01*
X657012Y256649D01*
X656704Y256521D01*
X655579Y255396D01*
X654970Y253926D01*
Y252335D01*
X655579Y250865D01*
X656704Y249739D01*
X657430Y249439D01*
X657177Y248169D01*
X647697D01*
X627570Y268296D01*
Y268766D01*
X626961Y270236D01*
X625836Y271361D01*
X624366Y271970D01*
X623896D01*
X567439Y328427D01*
X567687Y329672D01*
X567776Y329710D01*
X568901Y330835D01*
X569510Y332305D01*
Y333896D01*
X568901Y335366D01*
X567776Y336492D01*
X566306Y337100D01*
X564715D01*
X563245Y336492D01*
X562207Y335454D01*
X561843Y335229D01*
X560837Y335029D01*
X545723Y350143D01*
X544730Y350806D01*
X543560Y351039D01*
X543560Y351039D01*
X532959D01*
X532253Y352095D01*
X532324Y352264D01*
Y353856D01*
X531715Y355326D01*
X530590Y356451D01*
X529119Y357060D01*
X527528D01*
X526058Y356451D01*
X524933Y355326D01*
X524324Y353856D01*
Y352264D01*
X524394Y352095D01*
X523689Y351039D01*
X519492D01*
X519160Y351371D01*
X517690Y351980D01*
X516098D01*
X514628Y351371D01*
X513885Y350628D01*
X513081Y350380D01*
X512288Y350631D01*
X511542Y351377D01*
X510071Y351986D01*
X508480D01*
X507010Y351377D01*
X505885Y350252D01*
X505276Y348781D01*
Y347190D01*
X505885Y345720D01*
X507010Y344595D01*
X508480Y343986D01*
X510071D01*
X511542Y344595D01*
X512284Y345337D01*
X513089Y345586D01*
X513882Y345335D01*
X514628Y344589D01*
X516098Y343980D01*
X517690D01*
X519160Y344589D01*
X519492Y344921D01*
X542293D01*
X616514Y270700D01*
X615988Y269430D01*
X615154D01*
X613684Y268821D01*
X612559Y267696D01*
X611950Y266226D01*
Y264634D01*
X612559Y263164D01*
X612891Y262832D01*
Y254000D01*
X612891Y254000D01*
X613124Y252829D01*
X613787Y251837D01*
X678030Y187594D01*
Y187204D01*
X678639Y185734D01*
X679764Y184609D01*
X681234Y184000D01*
X682826D01*
X684296Y184609D01*
X685421Y185734D01*
X686030Y187204D01*
Y188796D01*
X685421Y190266D01*
X684296Y191391D01*
X682826Y192000D01*
X682276D01*
X619009Y255267D01*
Y262832D01*
X619341Y263164D01*
X619804Y264283D01*
X620832Y264654D01*
X621220Y264663D01*
X621304Y264579D01*
X622774Y263970D01*
X623244D01*
X644267Y242947D01*
X644267Y242947D01*
X645259Y242284D01*
X646430Y242051D01*
X657508D01*
X658034Y240781D01*
X657370Y240116D01*
X656760Y238646D01*
Y237055D01*
X657370Y235585D01*
X658495Y234459D01*
X659965Y233850D01*
X661556D01*
X663026Y234459D01*
X664152Y235585D01*
X664761Y237055D01*
Y238646D01*
X664152Y240116D01*
X663487Y240781D01*
X664013Y242051D01*
X670041D01*
Y218440D01*
X670041Y218440D01*
X670274Y217269D01*
X670937Y216277D01*
X678557Y208657D01*
X679549Y207994D01*
X680720Y207761D01*
X683282D01*
X683574Y207469D01*
X685044Y206860D01*
X686636D01*
X688106Y207469D01*
X689231Y208594D01*
X689840Y210064D01*
Y211656D01*
X689231Y213126D01*
X688106Y214251D01*
X686636Y214860D01*
X685044D01*
X683574Y214251D01*
X683202Y213879D01*
X681987D01*
X676159Y219707D01*
Y242512D01*
X676491Y242844D01*
X677100Y244314D01*
Y245906D01*
X676491Y247376D01*
X675366Y248501D01*
X673896Y249110D01*
X672304D01*
X670834Y248501D01*
X670502Y248169D01*
X660763D01*
X660510Y249439D01*
X661236Y249739D01*
X661647Y250151D01*
X662763Y250751D01*
X664233Y250142D01*
X665825D01*
X667295Y250751D01*
X668420Y251877D01*
X669029Y253347D01*
Y254938D01*
X668793Y255507D01*
X669240Y256769D01*
X669494Y256881D01*
X670713Y257386D01*
X671838Y258511D01*
X672447Y259981D01*
Y261572D01*
X671838Y263043D01*
X670713Y264168D01*
X669242Y264777D01*
X667651D01*
X666181Y264168D01*
X665056Y263043D01*
X664447Y261572D01*
Y261155D01*
X663177Y260629D01*
X620194Y303612D01*
X620492Y305110D01*
X620756Y305219D01*
X621881Y306344D01*
X622490Y307814D01*
Y309406D01*
X621881Y310876D01*
X620756Y312001D01*
X619286Y312610D01*
X617694D01*
X616224Y312001D01*
X615099Y310876D01*
X614990Y310612D01*
X613492Y310314D01*
X603717Y320089D01*
X602725Y320752D01*
X601554Y320985D01*
X601554Y320985D01*
X595205D01*
X554327Y361863D01*
X554575Y363108D01*
X554664Y363145D01*
X555789Y364271D01*
X556398Y365741D01*
Y367332D01*
X555789Y368802D01*
X554664Y369928D01*
X553194Y370536D01*
X551603D01*
X550132Y369928D01*
X549007Y368802D01*
X548970Y368713D01*
X547724Y368465D01*
X531298Y384892D01*
X531596Y386390D01*
X531860Y386499D01*
X532985Y387624D01*
X533594Y389094D01*
Y389564D01*
X534671Y390641D01*
X542735D01*
X543440Y389585D01*
X543370Y389416D01*
Y387824D01*
X543979Y386354D01*
X545104Y385229D01*
X546574Y384620D01*
X548166D01*
X549636Y385229D01*
X550761Y386354D01*
X550798Y386444D01*
X552044Y386692D01*
X654170Y284566D01*
X653872Y283067D01*
X653204Y282791D01*
X652079Y281666D01*
X651470Y280196D01*
Y278604D01*
X652079Y277134D01*
X653204Y276009D01*
X654674Y275400D01*
X656266D01*
X657736Y276009D01*
X658861Y277134D01*
X659137Y277802D01*
X660636Y278100D01*
X678284Y260451D01*
Y259981D01*
X678893Y258511D01*
X680019Y257386D01*
X681489Y256777D01*
X683080D01*
X684550Y257386D01*
X685675Y258511D01*
X686284Y259981D01*
Y261572D01*
X685675Y263043D01*
X684550Y264168D01*
X683080Y264777D01*
X682610D01*
X585530Y361857D01*
X585743Y362459D01*
X586153Y363030D01*
X587536D01*
X589006Y363639D01*
X590131Y364764D01*
X590740Y366234D01*
Y367826D01*
X590131Y369296D01*
X589006Y370421D01*
X587536Y371030D01*
X585944D01*
X584474Y370421D01*
X583349Y369296D01*
X582740Y367826D01*
Y366443D01*
X582169Y366033D01*
X581567Y365820D01*
X552551Y394836D01*
X553077Y396106D01*
X605580D01*
X605618Y396068D01*
X606280Y395626D01*
X607060Y395471D01*
X607840Y395626D01*
X608502Y396068D01*
X608502Y396068D01*
X613582Y401148D01*
X614024Y401810D01*
X614179Y402590D01*
Y455085D01*
X635845Y476751D01*
X636807D01*
X637587Y476906D01*
X638249Y477348D01*
X639781Y477475D01*
X664313Y452944D01*
X664974Y452502D01*
X665754Y452346D01*
X666535Y452502D01*
X667196Y452944D01*
X667196Y452944D01*
X667613Y453360D01*
X668701Y453811D01*
X669879D01*
X670967Y453360D01*
X671800Y452527D01*
X672251Y451439D01*
Y450261D01*
X671800Y449173D01*
X671384Y448756D01*
X670942Y448095D01*
X670786Y447314D01*
X670942Y446534D01*
X671384Y445872D01*
X671384Y445872D01*
X696198Y421058D01*
X695712Y419885D01*
X655320D01*
X654965Y419814D01*
X654608Y419757D01*
X654576Y419737D01*
X654540Y419730D01*
X654239Y419529D01*
X653931Y419339D01*
X653909Y419309D01*
X653878Y419288D01*
X653677Y418987D01*
X653465Y418694D01*
X653457Y418657D01*
X653436Y418626D01*
X653365Y418271D01*
X653282Y417920D01*
X652012Y382829D01*
X652040Y382654D01*
X652030Y382478D01*
X652103Y382265D01*
X652139Y382043D01*
X652232Y381893D01*
X652290Y381726D01*
X652439Y381558D01*
X652557Y381366D01*
X652700Y381263D01*
X652817Y381130D01*
X690917Y352221D01*
X691152Y352106D01*
X691370Y351961D01*
X691507Y351934D01*
X691633Y351872D01*
X691894Y351857D01*
X692150Y351806D01*
X693463D01*
X693989Y350536D01*
X692995Y349542D01*
X692234Y347705D01*
Y345715D01*
X692995Y343878D01*
X694401Y342471D01*
X694773Y342317D01*
Y340943D01*
X694401Y340789D01*
X692995Y339382D01*
X692234Y337545D01*
Y335555D01*
X692995Y333718D01*
X694401Y332311D01*
X696239Y331550D01*
X698228D01*
X700066Y332311D01*
X701473Y333718D01*
X701627Y334089D01*
X703001D01*
X703155Y333718D01*
X704561Y332311D01*
X706399Y331550D01*
X708388D01*
X710226Y332311D01*
X711633Y333718D01*
X712394Y335555D01*
Y337545D01*
X711633Y339382D01*
X710226Y340789D01*
X709855Y340943D01*
Y342317D01*
X710226Y342471D01*
X711633Y343878D01*
X712394Y345715D01*
Y347705D01*
X711633Y349542D01*
X710639Y350536D01*
X711165Y351806D01*
X715980D01*
X716760Y351961D01*
X717422Y352403D01*
X717864Y353065D01*
X718019Y353845D01*
Y394201D01*
X727339D01*
X727592Y392931D01*
X727418Y392859D01*
X726011Y391452D01*
X725250Y389615D01*
Y387625D01*
X726011Y385788D01*
X727418Y384381D01*
X729255Y383620D01*
X731245D01*
X733082Y384381D01*
X734489Y385788D01*
X735250Y387625D01*
Y389615D01*
X734489Y391452D01*
X733082Y392859D01*
X732908Y392931D01*
X733161Y394201D01*
X734060D01*
X734840Y394356D01*
X735502Y394798D01*
X735944Y395460D01*
X736099Y396240D01*
Y428520D01*
X736520Y429535D01*
Y431525D01*
X736099Y432541D01*
Y434340D01*
X735944Y435120D01*
X735502Y435782D01*
X734840Y436224D01*
X734060Y436379D01*
X713239D01*
X713239Y436379D01*
Y454750D01*
X713740Y455161D01*
X769710D01*
X770121Y454660D01*
Y417438D01*
X770140Y417342D01*
X770130Y417246D01*
X770217Y416955D01*
X770276Y416657D01*
X770330Y416576D01*
X770358Y416483D01*
X770549Y416248D01*
X770718Y415996D01*
X770799Y415942D01*
X770860Y415866D01*
X773456Y413719D01*
X773723Y413575D01*
X773976Y413406D01*
X774071Y413387D01*
X774156Y413341D01*
X774458Y413310D01*
X774756Y413251D01*
X799661D01*
X800180Y412475D01*
Y410485D01*
X800941Y408648D01*
X802348Y407241D01*
X804185Y406480D01*
X806175D01*
X808012Y407241D01*
X809419Y408648D01*
X809573Y409019D01*
X810947D01*
X811101Y408648D01*
X812508Y407241D01*
X814345Y406480D01*
X816335D01*
X818172Y407241D01*
X819579Y408648D01*
X820340Y410485D01*
Y412475D01*
X820859Y413251D01*
X946167D01*
X946947Y413406D01*
X947608Y413848D01*
X948051Y414510D01*
X948206Y415290D01*
Y426204D01*
X948167Y426401D01*
Y426602D01*
X948090Y426788D01*
X948051Y426985D01*
X947939Y427152D01*
X947862Y427337D01*
X948275Y428264D01*
X948884Y429734D01*
Y431326D01*
X948275Y432796D01*
X947862Y433723D01*
X947939Y433908D01*
X948051Y434075D01*
X948090Y434272D01*
X948167Y434458D01*
Y434659D01*
X948206Y434855D01*
Y436880D01*
X948051Y437660D01*
X947608Y438322D01*
X946947Y438764D01*
X946167Y438919D01*
X889845D01*
X874776Y453988D01*
X875262Y455161D01*
X941294D01*
X942075Y455316D01*
X942736Y455758D01*
X943178Y456420D01*
X943333Y457200D01*
Y521970D01*
X943178Y522750D01*
X942736Y523412D01*
X942075Y523854D01*
X941294Y524009D01*
X713740D01*
X712960Y523854D01*
X712298Y523412D01*
X711856Y522750D01*
X711701Y521970D01*
Y462512D01*
X710527Y462026D01*
X675685Y496869D01*
X675812Y498401D01*
X676254Y499063D01*
X676409Y499843D01*
Y537213D01*
X677590Y538313D01*
X678567Y537740D01*
X678761Y536765D01*
X679314Y535938D01*
X680141Y535385D01*
X681116Y535191D01*
X761116D01*
X762092Y535385D01*
X762919Y535938D01*
X763471Y536765D01*
X763665Y537740D01*
X763620Y537970D01*
X764531Y539241D01*
X937257Y539435D01*
X939177D01*
X942991Y538933D01*
D02*
G37*
G36*
X674370Y538241D02*
Y499843D01*
X673197Y499357D01*
X670732Y501822D01*
X670070Y502264D01*
X669290Y502419D01*
X635000D01*
X634220Y502264D01*
X633558Y501822D01*
X633116Y501160D01*
X632961Y500380D01*
Y485140D01*
X632961Y485140D01*
X633116Y484360D01*
X633558Y483698D01*
X633558Y483698D01*
X637293Y479963D01*
X636807Y478790D01*
X635000D01*
X612140Y455930D01*
Y402590D01*
X607060Y397510D01*
X606425Y398145D01*
X537845D01*
Y432435D01*
X515620Y454660D01*
X446909D01*
X446681Y419020D01*
X446631Y411188D01*
X446631D01*
X446631Y411188D01*
X446617Y409020D01*
X446617D01*
X446617Y409020D01*
X446603Y406829D01*
X446603D01*
X446603Y406829D01*
X446558Y399758D01*
X446558D01*
X446558Y399758D01*
X446445Y382190D01*
X446445D01*
X446445Y382190D01*
X446395Y374358D01*
X446395D01*
X446395Y374358D01*
X446381Y372190D01*
X446381D01*
X446381Y372190D01*
X446367Y369999D01*
X446367D01*
X446367Y369999D01*
X446322Y362928D01*
X446321D01*
X446322Y362928D01*
X446231Y348776D01*
X446231D01*
X446231Y348776D01*
X446136Y333930D01*
X446086Y326098D01*
X446086D01*
X446086Y326098D01*
X446072Y323930D01*
X446072D01*
X446072Y323930D01*
X445740Y272209D01*
X445695Y265138D01*
X445695D01*
X445695Y265138D01*
X445681Y262970D01*
X445681D01*
X445681Y262970D01*
X445662Y259931D01*
X445661Y259931D01*
X445654Y258806D01*
X445654Y258806D01*
X445645Y257336D01*
X445645D01*
X445645Y257336D01*
X445622Y253708D01*
X445622D01*
X445622Y253708D01*
X445608Y251540D01*
X445608D01*
X445608Y251540D01*
X445359Y212731D01*
X445350Y211261D01*
X445350D01*
X445350Y211261D01*
X445326Y207602D01*
X445326Y207602D01*
X445326D01*
X445031Y161597D01*
X443760Y161348D01*
X443663Y161582D01*
X442256Y162989D01*
X440418Y163750D01*
X438429D01*
X436591Y162989D01*
X435185Y161582D01*
X435031Y161211D01*
X433657D01*
X433503Y161582D01*
X432096Y162989D01*
X430258Y163750D01*
X428269D01*
X426432Y162989D01*
X425025Y161582D01*
X424264Y159745D01*
Y157755D01*
X425025Y155918D01*
X426432Y154511D01*
X428269Y153750D01*
X430258D01*
X432096Y154511D01*
X433503Y155918D01*
X433657Y156289D01*
X435031D01*
X435185Y155918D01*
X436591Y154511D01*
X438429Y153750D01*
X440418D01*
X442256Y154511D01*
X443663Y155918D01*
X443726Y156070D01*
X444995Y155918D01*
X444981Y153750D01*
X444981D01*
X444981Y153750D01*
X444967Y151559D01*
X444967D01*
X444967Y151559D01*
X444959Y150341D01*
X443688Y150092D01*
X443663Y150152D01*
X442256Y151559D01*
X440418Y152320D01*
X438429D01*
X436591Y151559D01*
X435185Y150152D01*
X435031Y149781D01*
X433657D01*
X433503Y150152D01*
X432096Y151559D01*
X430258Y152320D01*
X428269D01*
X426432Y151559D01*
X425025Y150152D01*
X424264Y148315D01*
Y146325D01*
X425025Y144488D01*
X426432Y143081D01*
X428269Y142320D01*
X430258D01*
X432096Y143081D01*
X433503Y144488D01*
X433657Y144859D01*
X435031D01*
X435185Y144488D01*
X436591Y143081D01*
X438429Y142320D01*
X440418D01*
X442256Y143081D01*
X443652Y144477D01*
X443715Y144476D01*
X444920Y144204D01*
X444908Y142320D01*
X444908D01*
X444908Y142320D01*
X444821Y128699D01*
X444821D01*
X444821Y128699D01*
X444766Y120221D01*
X444766D01*
X444766Y120221D01*
X444752Y118030D01*
X444752D01*
X444752Y118030D01*
X444693Y108791D01*
X444693D01*
X444693Y108791D01*
X444100Y16316D01*
X356498Y16291D01*
X355600Y17189D01*
Y248899D01*
X356773Y249385D01*
X397771Y208387D01*
X398853Y207665D01*
X399169Y207602D01*
X399697Y207075D01*
X401167Y206465D01*
X402758D01*
X404228Y207075D01*
X405353Y208200D01*
X405962Y209670D01*
Y211261D01*
X405353Y212731D01*
X404228Y213857D01*
X402758Y214466D01*
X401167D01*
X401136Y214453D01*
X358334Y257255D01*
Y257336D01*
X357725Y258806D01*
X356600Y259931D01*
X355600Y260345D01*
Y323930D01*
X356598D01*
X358436Y324691D01*
X359843Y326098D01*
X360604Y327935D01*
Y329925D01*
X359843Y331762D01*
X358436Y333169D01*
X356598Y333930D01*
X355600D01*
Y471646D01*
X391427D01*
X397962Y465110D01*
Y465030D01*
X398571Y463560D01*
X399697Y462434D01*
X401167Y461825D01*
X402758D01*
X404228Y462434D01*
X405353Y463560D01*
X405962Y465030D01*
Y466621D01*
X405353Y468091D01*
X404228Y469216D01*
X402758Y469825D01*
X402677D01*
X395165Y477337D01*
X394084Y478060D01*
X392808Y478314D01*
X355600D01*
Y538781D01*
X446548Y538884D01*
D01*
X474450Y538915D01*
X474703Y537645D01*
X474688Y537639D01*
X473281Y536232D01*
X472520Y534395D01*
Y532405D01*
X473281Y530568D01*
X474688Y529161D01*
X475059Y529007D01*
Y527633D01*
X474688Y527479D01*
X473281Y526072D01*
X472520Y524235D01*
Y522245D01*
X473281Y520408D01*
X474688Y519001D01*
X476525Y518240D01*
X478515D01*
X480352Y519001D01*
X481759Y520408D01*
X482520Y522245D01*
Y524235D01*
X481759Y526072D01*
X480352Y527479D01*
X479981Y527633D01*
Y529007D01*
X480352Y529161D01*
X481759Y530568D01*
X482520Y532405D01*
Y534395D01*
X481759Y536232D01*
X480352Y537639D01*
X480322Y537651D01*
X480574Y538922D01*
X485911Y538928D01*
X486164Y537658D01*
X486118Y537639D01*
X484711Y536232D01*
X483950Y534395D01*
Y532405D01*
X484711Y530568D01*
X486118Y529161D01*
X486489Y529007D01*
Y527633D01*
X486118Y527479D01*
X484711Y526072D01*
X483950Y524235D01*
Y522245D01*
X484711Y520408D01*
X486118Y519001D01*
X487955Y518240D01*
X489945D01*
X491782Y519001D01*
X493189Y520408D01*
X493950Y522245D01*
Y524235D01*
X493189Y526072D01*
X491782Y527479D01*
X491411Y527633D01*
Y529007D01*
X491782Y529161D01*
X493189Y530568D01*
X493950Y532405D01*
Y534395D01*
X493189Y536232D01*
X491782Y537639D01*
X491721Y537664D01*
X491973Y538935D01*
X673471Y539138D01*
X674370Y538241D01*
D02*
G37*
G36*
X941294Y457200D02*
X713740D01*
Y521970D01*
X941294D01*
Y457200D01*
D02*
G37*
G36*
X889000Y436880D02*
X946167D01*
Y434855D01*
X945679Y434530D01*
X944088D01*
X942618Y433921D01*
X941493Y432796D01*
X940884Y431326D01*
Y429734D01*
X941493Y428264D01*
X942618Y427139D01*
X944088Y426530D01*
X945679D01*
X946167Y426204D01*
Y415290D01*
X818601D01*
X818172Y415719D01*
X817801Y415873D01*
Y417247D01*
X818172Y417401D01*
X819579Y418808D01*
X820340Y420645D01*
Y422635D01*
X819579Y424472D01*
X818172Y425879D01*
X816335Y426640D01*
X814345D01*
X812508Y425879D01*
X811101Y424472D01*
X810772Y423678D01*
X809398D01*
X809069Y424472D01*
X807662Y425879D01*
X805825Y426640D01*
X803835D01*
X801998Y425879D01*
X800591Y424472D01*
X799830Y422635D01*
Y420645D01*
X800591Y418808D01*
X801998Y417401D01*
X802065Y417374D01*
X802231Y416002D01*
X801486Y415290D01*
X774756D01*
X772160Y417438D01*
Y454660D01*
X775128Y454660D01*
X775976Y453390D01*
X775780Y452916D01*
Y451324D01*
X776389Y449854D01*
X777514Y448729D01*
X778984Y448120D01*
X780576D01*
X782046Y448729D01*
X783171Y449854D01*
X783780Y451324D01*
Y452916D01*
X783584Y453390D01*
X784432Y454660D01*
X788670Y454660D01*
X794178D01*
X795026Y453390D01*
X794830Y452916D01*
Y451324D01*
X795439Y449854D01*
X796564Y448729D01*
X798034Y448120D01*
X799626D01*
X801096Y448729D01*
X802221Y449854D01*
X802830Y451324D01*
Y452916D01*
X802634Y453390D01*
X803482Y454660D01*
X871220D01*
X889000Y436880D01*
D02*
G37*
G36*
X711200Y458470D02*
Y436379D01*
X710420Y436224D01*
X709758Y435782D01*
X709758Y435782D01*
X708488Y434512D01*
X708046Y433850D01*
X707891Y433070D01*
Y419885D01*
X700255D01*
X672825Y447314D01*
X673529Y448018D01*
X674290Y449855D01*
Y451845D01*
X673529Y453682D01*
X672122Y455089D01*
X670285Y455850D01*
X668295D01*
X666458Y455089D01*
X665754Y454385D01*
X635000Y485140D01*
Y500380D01*
X669290D01*
X711200Y458470D01*
D02*
G37*
G36*
X734060Y396240D02*
X709930D01*
Y433070D01*
X711200Y434340D01*
X734060D01*
Y396240D01*
D02*
G37*
G36*
X707891D02*
X708046Y395460D01*
X708488Y394798D01*
X709150Y394356D01*
X709930Y394201D01*
X715980D01*
Y353845D01*
X692150D01*
X654050Y382755D01*
X655320Y417846D01*
X707891D01*
Y396240D01*
D02*
G37*
%LPC*%
G36*
X642345Y471090D02*
X640355D01*
X638518Y470329D01*
X637111Y468922D01*
X636350Y467085D01*
Y465095D01*
X637111Y463258D01*
X638518Y461851D01*
X640355Y461090D01*
X642345D01*
X644182Y461851D01*
X645589Y463258D01*
X646350Y465095D01*
Y467085D01*
X645589Y468922D01*
X644182Y470329D01*
X642345Y471090D01*
D02*
G37*
G36*
X507529Y448500D02*
X505938D01*
X504468Y447891D01*
X503343Y446766D01*
X502734Y445296D01*
Y443704D01*
X503343Y442234D01*
X504468Y441109D01*
X505938Y440500D01*
X507529D01*
X509000Y441109D01*
X510125Y442234D01*
X510734Y443704D01*
Y445296D01*
X510125Y446766D01*
X509000Y447891D01*
X507529Y448500D01*
D02*
G37*
G36*
X492940Y447505D02*
X490951D01*
X489114Y446743D01*
X487707Y445337D01*
X486946Y443499D01*
Y441510D01*
X487707Y439672D01*
X489114Y438266D01*
X490951Y437505D01*
X492940D01*
X494778Y438266D01*
X496185Y439672D01*
X496946Y441510D01*
Y443499D01*
X496185Y445337D01*
X494778Y446743D01*
X492940Y447505D01*
D02*
G37*
G36*
X958367Y434102D02*
X956775D01*
X955305Y433493D01*
X954180Y432368D01*
X953571Y430898D01*
Y429306D01*
X954180Y427836D01*
X955305Y426711D01*
X956775Y426102D01*
X958367D01*
X959837Y426711D01*
X960962Y427836D01*
X961571Y429306D01*
Y430898D01*
X960962Y432368D01*
X959837Y433493D01*
X958367Y434102D01*
D02*
G37*
G36*
X461806Y418020D02*
X460214D01*
X458744Y417411D01*
X457619Y416286D01*
X457010Y414816D01*
Y413224D01*
X457619Y411754D01*
X458744Y410629D01*
X460214Y410020D01*
X461806D01*
X463276Y410629D01*
X464401Y411754D01*
X465010Y413224D01*
Y414816D01*
X464401Y416286D01*
X463276Y417411D01*
X461806Y418020D01*
D02*
G37*
G36*
X754105Y393620D02*
X752115D01*
X750278Y392859D01*
X748871Y391452D01*
X748110Y389615D01*
Y387625D01*
X748871Y385788D01*
X750278Y384381D01*
X752115Y383620D01*
X754105D01*
X755942Y384381D01*
X757349Y385788D01*
X758110Y387625D01*
Y389615D01*
X757349Y391452D01*
X755942Y392859D01*
X754105Y393620D01*
D02*
G37*
G36*
X742675D02*
X740685D01*
X738848Y392859D01*
X737441Y391452D01*
X736680Y389615D01*
Y387625D01*
X737441Y385788D01*
X738848Y384381D01*
X740685Y383620D01*
X742675D01*
X744512Y384381D01*
X745919Y385788D01*
X746680Y387625D01*
Y389615D01*
X745919Y391452D01*
X744512Y392859D01*
X742675Y393620D01*
D02*
G37*
G36*
X841735Y391080D02*
X839745D01*
X837908Y390319D01*
X836501Y388912D01*
X835740Y387075D01*
Y385085D01*
X836501Y383248D01*
X837908Y381841D01*
X839745Y381080D01*
X841735D01*
X843572Y381841D01*
X844979Y383248D01*
X845740Y385085D01*
Y387075D01*
X844979Y388912D01*
X843572Y390319D01*
X841735Y391080D01*
D02*
G37*
G36*
X472168Y397430D02*
X470179D01*
X468341Y396669D01*
X466935Y395262D01*
X466174Y393425D01*
Y391435D01*
X466935Y389598D01*
X468341Y388191D01*
X468713Y388037D01*
Y386663D01*
X468341Y386509D01*
X466935Y385102D01*
X466174Y383265D01*
Y381275D01*
X466935Y379438D01*
X468341Y378031D01*
X470179Y377270D01*
X472168D01*
X474006Y378031D01*
X475413Y379438D01*
X476174Y381275D01*
Y383265D01*
X475413Y385102D01*
X474006Y386509D01*
X473635Y386663D01*
Y388037D01*
X474006Y388191D01*
X475413Y389598D01*
X476174Y391435D01*
Y393425D01*
X475413Y395262D01*
X474006Y396669D01*
X472168Y397430D01*
D02*
G37*
G36*
X460738D02*
X458749D01*
X456912Y396669D01*
X455505Y395262D01*
X454744Y393425D01*
Y391435D01*
X455505Y389598D01*
X456912Y388191D01*
X457283Y388037D01*
Y386663D01*
X456912Y386509D01*
X455505Y385102D01*
X454744Y383265D01*
Y381275D01*
X455505Y379438D01*
X456912Y378031D01*
X458749Y377270D01*
X460738D01*
X462576Y378031D01*
X463983Y379438D01*
X464744Y381275D01*
Y383265D01*
X463983Y385102D01*
X462576Y386509D01*
X462205Y386663D01*
Y388037D01*
X462576Y388191D01*
X463983Y389598D01*
X464744Y391435D01*
Y393425D01*
X463983Y395262D01*
X462576Y396669D01*
X460738Y397430D01*
D02*
G37*
G36*
X959845Y377110D02*
X957855D01*
X956018Y376349D01*
X954611Y374942D01*
X954457Y374571D01*
X953083D01*
X952929Y374942D01*
X951522Y376349D01*
X949685Y377110D01*
X947695D01*
X945858Y376349D01*
X944451Y374942D01*
X943690Y373105D01*
Y371115D01*
X944451Y369278D01*
X945858Y367871D01*
X947695Y367110D01*
X949685D01*
X951522Y367871D01*
X952929Y369278D01*
X953083Y369649D01*
X954457D01*
X954611Y369278D01*
X956018Y367871D01*
X957855Y367110D01*
X959845D01*
X961682Y367871D01*
X963089Y369278D01*
X963850Y371115D01*
Y373105D01*
X963089Y374942D01*
X961682Y376349D01*
X959845Y377110D01*
D02*
G37*
G36*
X787125Y379650D02*
X785135D01*
X783298Y378889D01*
X781891Y377482D01*
X781130Y375645D01*
Y373655D01*
X781891Y371818D01*
X783298Y370411D01*
X785135Y369650D01*
X787125D01*
X788962Y370411D01*
X790369Y371818D01*
X791130Y373655D01*
Y375645D01*
X790369Y377482D01*
X788962Y378889D01*
X787125Y379650D01*
D02*
G37*
G36*
X483197Y372487D02*
X481606D01*
X480136Y371878D01*
X479011Y370753D01*
X478402Y369283D01*
Y367691D01*
X479011Y366221D01*
X480136Y365096D01*
X481606Y364487D01*
X483197D01*
X484667Y365096D01*
X485793Y366221D01*
X486402Y367691D01*
Y369283D01*
X485793Y370753D01*
X484667Y371878D01*
X483197Y372487D01*
D02*
G37*
G36*
X959845Y365680D02*
X957855D01*
X956018Y364919D01*
X954611Y363512D01*
X954457Y363141D01*
X953083D01*
X952929Y363512D01*
X951522Y364919D01*
X949685Y365680D01*
X947695D01*
X945858Y364919D01*
X944451Y363512D01*
X943690Y361675D01*
Y359685D01*
X944451Y357848D01*
X945858Y356441D01*
X947695Y355680D01*
X949685D01*
X951522Y356441D01*
X952929Y357848D01*
X953083Y358219D01*
X954457D01*
X954611Y357848D01*
X956018Y356441D01*
X957855Y355680D01*
X959845D01*
X961682Y356441D01*
X963089Y357848D01*
X963850Y359685D01*
Y361675D01*
X963089Y363512D01*
X961682Y364919D01*
X959845Y365680D01*
D02*
G37*
G36*
X517444Y363705D02*
X515852D01*
X514382Y363096D01*
X513257Y361971D01*
X512648Y360501D01*
Y358910D01*
X513257Y357440D01*
X514382Y356314D01*
X515852Y355705D01*
X517444D01*
X518914Y356314D01*
X520039Y357440D01*
X520648Y358910D01*
Y360501D01*
X520039Y361971D01*
X518914Y363096D01*
X517444Y363705D01*
D02*
G37*
G36*
X863126Y363410D02*
X861534D01*
X860064Y362801D01*
X858939Y361676D01*
X858330Y360206D01*
Y358614D01*
X858939Y357144D01*
X860064Y356019D01*
X861534Y355410D01*
X863126D01*
X864596Y356019D01*
X865721Y357144D01*
X866330Y358614D01*
Y360206D01*
X865721Y361676D01*
X864596Y362801D01*
X863126Y363410D01*
D02*
G37*
G36*
X455658Y354250D02*
X453669D01*
X451832Y353489D01*
X450425Y352082D01*
X449664Y350245D01*
Y348255D01*
X450425Y346418D01*
X451832Y345011D01*
X453669Y344250D01*
X455658D01*
X457496Y345011D01*
X458903Y346418D01*
X459664Y348255D01*
Y350245D01*
X458903Y352082D01*
X457496Y353489D01*
X455658Y354250D01*
D02*
G37*
G36*
X633256Y345630D02*
X631664D01*
X630194Y345021D01*
X629069Y343896D01*
X628460Y342426D01*
Y340834D01*
X629069Y339364D01*
X630194Y338239D01*
X631664Y337630D01*
X633256D01*
X634726Y338239D01*
X635851Y339364D01*
X636460Y340834D01*
Y342426D01*
X635851Y343896D01*
X634726Y345021D01*
X633256Y345630D01*
D02*
G37*
G36*
X506458Y336470D02*
X504469D01*
X502631Y335709D01*
X501225Y334302D01*
X500464Y332465D01*
Y330475D01*
X501225Y328638D01*
X502631Y327231D01*
X504469Y326470D01*
X506458D01*
X508296Y327231D01*
X509703Y328638D01*
X510464Y330475D01*
Y332465D01*
X509703Y334302D01*
X508296Y335709D01*
X506458Y336470D01*
D02*
G37*
G36*
X929166Y386270D02*
X927574D01*
X926104Y385661D01*
X924979Y384536D01*
X924370Y383066D01*
Y382596D01*
X836798Y295024D01*
X767298D01*
X767298Y295024D01*
X766128Y294791D01*
X765424Y294321D01*
X763896D01*
X763564Y294654D01*
X762094Y295263D01*
X760503D01*
X759032Y294654D01*
X758709Y294330D01*
X757439Y294856D01*
Y296630D01*
X768260Y307452D01*
X769722Y307118D01*
X770043Y306344D01*
X771168Y305219D01*
X772638Y304610D01*
X774230D01*
X775700Y305219D01*
X776825Y306344D01*
X777191Y307229D01*
X778566D01*
X778933Y306344D01*
X780058Y305219D01*
X781528Y304610D01*
X783120D01*
X784590Y305219D01*
X785715Y306344D01*
X786081Y307229D01*
X787456D01*
X787823Y306344D01*
X788948Y305219D01*
X790418Y304610D01*
X792010D01*
X793480Y305219D01*
X794605Y306344D01*
X795214Y307814D01*
Y309406D01*
X794605Y310876D01*
X793480Y312001D01*
X792010Y312610D01*
X790418D01*
X788948Y312001D01*
X787823Y310876D01*
X787456Y309991D01*
X786081D01*
X785715Y310876D01*
X784590Y312001D01*
X783120Y312610D01*
X781528D01*
X780058Y312001D01*
X778933Y310876D01*
X778566Y309991D01*
X777191D01*
X776825Y310876D01*
X775700Y312001D01*
X775038Y312275D01*
X774752Y313495D01*
X775564Y314441D01*
X848360D01*
X848360Y314441D01*
X849530Y314674D01*
X850523Y315337D01*
X910916Y375730D01*
X911386D01*
X912856Y376339D01*
X913981Y377464D01*
X914590Y378934D01*
Y380526D01*
X913981Y381996D01*
X912856Y383121D01*
X911386Y383730D01*
X909794D01*
X908324Y383121D01*
X907199Y381996D01*
X906590Y380526D01*
Y380056D01*
X847093Y320559D01*
X773983D01*
X773983Y320559D01*
X772812Y320326D01*
X771820Y319663D01*
X771820Y319663D01*
X752217Y300060D01*
X751554Y299068D01*
X751321Y297897D01*
X751321Y297897D01*
Y289557D01*
X751160Y289396D01*
X750612Y288576D01*
X749550Y287513D01*
X748941Y286043D01*
Y284452D01*
X749550Y282981D01*
X750675Y281856D01*
X751716Y281425D01*
X751884Y280811D01*
X751935Y280098D01*
X751930Y280067D01*
X750927Y279064D01*
X750318Y277594D01*
Y276003D01*
X750927Y274533D01*
X752053Y273407D01*
X753523Y272798D01*
X755114D01*
X756584Y273407D01*
X757710Y274533D01*
X758318Y276003D01*
Y277594D01*
X757710Y279064D01*
X756584Y280189D01*
X755543Y280621D01*
X755375Y281235D01*
X755324Y281948D01*
X755329Y281979D01*
X756332Y282981D01*
X756941Y284452D01*
Y286043D01*
X756767Y286462D01*
X757206Y287120D01*
X757336Y287772D01*
X758551Y288230D01*
X758681Y288223D01*
X759032Y287872D01*
X760503Y287263D01*
X762094D01*
X763564Y287872D01*
X763896Y288204D01*
X766595D01*
X766596Y288204D01*
X767766Y288437D01*
X768469Y288907D01*
X838065D01*
X838065Y288907D01*
X839236Y289139D01*
X840228Y289802D01*
X858506Y308080D01*
X859582Y307360D01*
X859209Y306459D01*
Y304470D01*
X859970Y302633D01*
X861377Y301226D01*
X862379Y300811D01*
X862677Y299313D01*
X861437Y298073D01*
X860774Y297080D01*
X860541Y295910D01*
X860541Y295910D01*
Y265488D01*
X860209Y265156D01*
X859600Y263686D01*
Y262094D01*
X860209Y260624D01*
X859163Y260084D01*
X858794Y259931D01*
X857669Y258806D01*
X857060Y257336D01*
Y255744D01*
X857669Y254274D01*
X858495Y253448D01*
X858579Y252452D01*
X858417Y251930D01*
X857481Y250994D01*
X856872Y249524D01*
Y247933D01*
X857481Y246463D01*
X858607Y245338D01*
X860077Y244729D01*
X861668D01*
X863138Y245338D01*
X863471Y245670D01*
X881578D01*
X882135Y245113D01*
Y196847D01*
X795027Y109739D01*
X770894D01*
X769723Y109506D01*
X768731Y108843D01*
X758947Y99059D01*
X758477D01*
X757007Y98450D01*
X756450Y97893D01*
X755433Y97578D01*
X754822Y97925D01*
X754106Y98641D01*
X752636Y99250D01*
X751044D01*
X749574Y98641D01*
X748449Y97516D01*
X747840Y96046D01*
Y94454D01*
X748449Y92984D01*
X749574Y91859D01*
X751044Y91250D01*
X752636D01*
X754106Y91859D01*
X754663Y92416D01*
X755679Y92730D01*
X756290Y92384D01*
X757007Y91668D01*
X758477Y91059D01*
X760068D01*
X761538Y91668D01*
X762663Y92793D01*
X763272Y94263D01*
Y94733D01*
X772161Y103621D01*
X796294D01*
X796294Y103621D01*
X797464Y103854D01*
X798457Y104517D01*
X887357Y193417D01*
X887357Y193417D01*
X888020Y194409D01*
X888253Y195580D01*
Y246380D01*
X888020Y247551D01*
X887357Y248543D01*
X885008Y250891D01*
X884016Y251555D01*
X882845Y251787D01*
X882845Y251787D01*
X864025D01*
X863535Y252803D01*
X864258Y253864D01*
X864704D01*
X864704Y253864D01*
X865874Y254097D01*
X866867Y254760D01*
X870763Y258656D01*
X871426Y259648D01*
X871659Y260819D01*
Y287946D01*
X872715Y288652D01*
X873081Y288500D01*
X874673D01*
X875854Y288989D01*
X876968Y287875D01*
X878438Y287267D01*
X880029D01*
X881500Y287875D01*
X882504Y288880D01*
X883508Y287875D01*
X884978Y287267D01*
X886569D01*
X888040Y287875D01*
X889044Y288880D01*
X890048Y287875D01*
X891518Y287267D01*
X893109D01*
X894580Y287875D01*
X895584Y288880D01*
X896588Y287875D01*
X898058Y287267D01*
X899649D01*
X901120Y287875D01*
X902124Y288880D01*
X903128Y287875D01*
X904598Y287267D01*
X906189D01*
X907660Y287875D01*
X908664Y288880D01*
X909668Y287875D01*
X911138Y287267D01*
X912729D01*
X914200Y287875D01*
X915204Y288880D01*
X916208Y287875D01*
X917678Y287267D01*
X919269D01*
X920740Y287875D01*
X921744Y288880D01*
X922748Y287875D01*
X924218Y287267D01*
X925809D01*
X927280Y287875D01*
X928405Y289001D01*
X929014Y290471D01*
Y292062D01*
X928405Y293532D01*
X927280Y294657D01*
X925809Y295266D01*
X924218D01*
X922748Y294657D01*
X921744Y293653D01*
X920740Y294657D01*
X919269Y295266D01*
X917678D01*
X916208Y294657D01*
X915204Y293653D01*
X914200Y294657D01*
X912729Y295266D01*
X911138D01*
X909668Y294657D01*
X908664Y293653D01*
X907660Y294657D01*
X906189Y295266D01*
X904598D01*
X903128Y294657D01*
X902124Y293653D01*
X901120Y294657D01*
X899649Y295266D01*
X898058D01*
X896588Y294657D01*
X895584Y293653D01*
X894580Y294657D01*
X893109Y295266D01*
X891518D01*
X890048Y294657D01*
X889044Y293653D01*
X888040Y294657D01*
X886569Y295266D01*
X884978D01*
X883508Y294657D01*
X882504Y293653D01*
X881500Y294657D01*
X880029Y295266D01*
X878438D01*
X877256Y294777D01*
X876143Y295891D01*
X875865Y296006D01*
X875617Y297251D01*
X913126Y334761D01*
X932968D01*
X933300Y334428D01*
X934770Y333819D01*
X936361D01*
X937832Y334428D01*
X938957Y335554D01*
X939566Y337024D01*
Y338615D01*
X938957Y340085D01*
X937832Y341210D01*
X936361Y341819D01*
X934770D01*
X933300Y341210D01*
X932968Y340878D01*
X930515D01*
X929809Y341934D01*
X929847Y342024D01*
Y343615D01*
X929238Y345085D01*
X928112Y346210D01*
X926642Y346819D01*
X925051D01*
X923581Y346210D01*
X923249Y345878D01*
X910509D01*
X909339Y345645D01*
X908346Y344982D01*
X908346Y344982D01*
X870361Y306997D01*
X868863Y307295D01*
X868448Y308297D01*
X867041Y309704D01*
X865204Y310465D01*
X863214D01*
X862313Y310091D01*
X861594Y311168D01*
X928696Y378270D01*
X929166D01*
X930636Y378879D01*
X931761Y380004D01*
X932370Y381474D01*
Y383066D01*
X931761Y384536D01*
X930636Y385661D01*
X929166Y386270D01*
D02*
G37*
G36*
X840266Y311124D02*
X838674D01*
X837204Y310515D01*
X836717Y310028D01*
X835937Y309479D01*
X835058Y310028D01*
X834618Y310469D01*
X833148Y311077D01*
X831556D01*
X830086Y310469D01*
X828961Y309343D01*
X828352Y307873D01*
Y306282D01*
X828961Y304812D01*
X830086Y303686D01*
X831556Y303078D01*
X833148D01*
X834618Y303686D01*
X835105Y304173D01*
X835886Y304723D01*
X836764Y304173D01*
X837204Y303733D01*
X838674Y303124D01*
X840266D01*
X841736Y303733D01*
X842861Y304859D01*
X843470Y306329D01*
Y307920D01*
X842861Y309390D01*
X841736Y310515D01*
X840266Y311124D01*
D02*
G37*
G36*
X689335Y297100D02*
X687345D01*
X685508Y296339D01*
X684101Y294932D01*
X683340Y293095D01*
Y291105D01*
X684101Y289268D01*
X685508Y287861D01*
X687345Y287100D01*
X689335D01*
X691172Y287861D01*
X692579Y289268D01*
X693340Y291105D01*
Y293095D01*
X692579Y294932D01*
X691172Y296339D01*
X689335Y297100D01*
D02*
G37*
G36*
X715806Y281241D02*
X714214D01*
X712744Y280632D01*
X711619Y279507D01*
X711010Y278037D01*
Y276446D01*
X711619Y274976D01*
X712744Y273850D01*
X714214Y273242D01*
X715806D01*
X717276Y273850D01*
X718401Y274976D01*
X719010Y276446D01*
Y278037D01*
X718401Y279507D01*
X717276Y280632D01*
X715806Y281241D01*
D02*
G37*
G36*
X506458Y274240D02*
X504469D01*
X502631Y273479D01*
X501225Y272072D01*
X501071Y271701D01*
X499697D01*
X499543Y272072D01*
X498136Y273479D01*
X496298Y274240D01*
X494309D01*
X492472Y273479D01*
X491065Y272072D01*
X490304Y270235D01*
Y268245D01*
X491065Y266408D01*
X492472Y265001D01*
X494309Y264240D01*
X496298D01*
X498136Y265001D01*
X499543Y266408D01*
X499697Y266779D01*
X501071D01*
X501225Y266408D01*
X502631Y265001D01*
X504469Y264240D01*
X506458D01*
X508296Y265001D01*
X509703Y266408D01*
X510464Y268245D01*
Y270235D01*
X509703Y272072D01*
X508296Y273479D01*
X506458Y274240D01*
D02*
G37*
G36*
X925855Y268353D02*
X924263D01*
X922793Y267744D01*
X921789Y266740D01*
X920785Y267744D01*
X919315Y268353D01*
X917723D01*
X916253Y267744D01*
X915249Y266740D01*
X914245Y267744D01*
X912775Y268353D01*
X911183D01*
X909713Y267744D01*
X908709Y266740D01*
X907705Y267744D01*
X906235Y268353D01*
X904643D01*
X903173Y267744D01*
X902169Y266740D01*
X901165Y267744D01*
X899695Y268353D01*
X898103D01*
X896633Y267744D01*
X895629Y266740D01*
X894625Y267744D01*
X893155Y268353D01*
X891563D01*
X890093Y267744D01*
X889089Y266740D01*
X888085Y267744D01*
X886615Y268353D01*
X885023D01*
X883553Y267744D01*
X882549Y266740D01*
X881545Y267744D01*
X880075Y268353D01*
X878483D01*
X877013Y267744D01*
X875888Y266619D01*
X875279Y265149D01*
Y263558D01*
X875888Y262088D01*
X877013Y260962D01*
X878483Y260353D01*
X880075D01*
X881545Y260962D01*
X882549Y261967D01*
X883553Y260962D01*
X885023Y260353D01*
X886615D01*
X888085Y260962D01*
X889089Y261967D01*
X890093Y260962D01*
X891563Y260353D01*
X893155D01*
X894625Y260962D01*
X895629Y261967D01*
X896633Y260962D01*
X898103Y260353D01*
X899695D01*
X901165Y260962D01*
X902169Y261967D01*
X903173Y260962D01*
X904643Y260353D01*
X906235D01*
X907705Y260962D01*
X908709Y261967D01*
X909713Y260962D01*
X911183Y260353D01*
X912775D01*
X914245Y260962D01*
X915249Y261967D01*
X916253Y260962D01*
X917723Y260353D01*
X919315D01*
X920785Y260962D01*
X921789Y261967D01*
X922793Y260962D01*
X924263Y260353D01*
X925556D01*
Y258809D01*
X926165Y257339D01*
X927290Y256214D01*
X927097Y254919D01*
X926701Y253961D01*
Y252370D01*
X927310Y250900D01*
X928314Y249896D01*
X927310Y248892D01*
X926701Y247421D01*
Y245830D01*
X926856Y245456D01*
X926279Y243842D01*
X925154Y242717D01*
X924545Y241247D01*
Y239655D01*
X925154Y238185D01*
X926279Y237060D01*
X927749Y236451D01*
X929341D01*
X930811Y237060D01*
X931936Y238185D01*
X932545Y239655D01*
Y241247D01*
X932390Y241621D01*
X932967Y243235D01*
X934092Y244360D01*
X934701Y245830D01*
Y247421D01*
X934092Y248892D01*
X933087Y249896D01*
X934092Y250900D01*
X934701Y252370D01*
Y253961D01*
X934092Y255431D01*
X932967Y256557D01*
X933159Y257852D01*
X933556Y258809D01*
Y260400D01*
X932947Y261870D01*
X931822Y262996D01*
X930351Y263605D01*
X929059D01*
Y265149D01*
X928450Y266619D01*
X927325Y267744D01*
X925855Y268353D01*
D02*
G37*
G36*
X764794Y274510D02*
X763203D01*
X761733Y273901D01*
X760608Y272776D01*
X759999Y271306D01*
Y269714D01*
X760608Y268244D01*
X761733Y267119D01*
X763203Y266510D01*
X764794D01*
X766265Y267119D01*
X767390Y268244D01*
X767999Y269714D01*
Y271306D01*
X767390Y272776D01*
X766265Y273901D01*
X764794Y274510D01*
D02*
G37*
G36*
X732316Y272894D02*
X730724D01*
X729254Y272285D01*
X728129Y271160D01*
X727520Y269690D01*
Y268098D01*
X728129Y266628D01*
X729254Y265503D01*
X730724Y264894D01*
X732316D01*
X733786Y265503D01*
X734911Y266628D01*
X735520Y268098D01*
Y269690D01*
X734911Y271160D01*
X733786Y272285D01*
X732316Y272894D01*
D02*
G37*
G36*
X506458Y262810D02*
X504469D01*
X502631Y262049D01*
X501225Y260642D01*
X501071Y260271D01*
X499697D01*
X499543Y260642D01*
X498136Y262049D01*
X496298Y262810D01*
X494309D01*
X492472Y262049D01*
X491065Y260642D01*
X490304Y258805D01*
Y256815D01*
X491065Y254978D01*
X492472Y253571D01*
X494309Y252810D01*
X496298D01*
X498136Y253571D01*
X499543Y254978D01*
X499697Y255349D01*
X501071D01*
X501225Y254978D01*
X502631Y253571D01*
X504469Y252810D01*
X506458D01*
X508296Y253571D01*
X509703Y254978D01*
X510464Y256815D01*
Y258805D01*
X509703Y260642D01*
X508296Y262049D01*
X506458Y262810D01*
D02*
G37*
G36*
X758147Y262065D02*
X756556D01*
X755086Y261457D01*
X753960Y260331D01*
X753352Y258861D01*
Y257270D01*
X753960Y255800D01*
X755086Y254674D01*
X756556Y254065D01*
X758147D01*
X759617Y254674D01*
X760743Y255800D01*
X761351Y257270D01*
Y258861D01*
X760743Y260331D01*
X759617Y261457D01*
X758147Y262065D01*
D02*
G37*
G36*
X682786Y254190D02*
X681194D01*
X679724Y253581D01*
X678599Y252456D01*
X677990Y250986D01*
Y249394D01*
X678599Y247924D01*
X679724Y246799D01*
X681194Y246190D01*
X682786D01*
X684256Y246799D01*
X685381Y247924D01*
X685990Y249394D01*
Y250986D01*
X685381Y252456D01*
X684256Y253581D01*
X682786Y254190D01*
D02*
G37*
G36*
X729996Y250597D02*
X728405D01*
X726935Y249988D01*
X725809Y248862D01*
X725201Y247392D01*
Y245801D01*
X725809Y244331D01*
X726935Y243206D01*
X728405Y242597D01*
X729996D01*
X731466Y243206D01*
X732591Y244331D01*
X733201Y245801D01*
Y247392D01*
X732591Y248862D01*
X731466Y249988D01*
X729996Y250597D01*
D02*
G37*
G36*
X863126Y238950D02*
X861534D01*
X860064Y238341D01*
X858939Y237216D01*
X858330Y235746D01*
Y234154D01*
X858939Y232684D01*
X860064Y231559D01*
X861534Y230950D01*
X863126D01*
X864596Y231559D01*
X865721Y232684D01*
X866330Y234154D01*
Y235746D01*
X865721Y237216D01*
X864596Y238341D01*
X863126Y238950D01*
D02*
G37*
G36*
X836381Y226579D02*
X836381Y226579D01*
X802640D01*
X802640Y226579D01*
X801469Y226346D01*
X800477Y225683D01*
X800477Y225683D01*
X778887Y204093D01*
X778224Y203100D01*
X777991Y201930D01*
X777991Y201930D01*
Y186683D01*
X713747Y122439D01*
X651511D01*
X632567Y141383D01*
X632567Y141383D01*
X622130Y151820D01*
X622593Y152991D01*
X623631Y153097D01*
X647731Y128997D01*
X647731Y128997D01*
X648723Y128334D01*
X649894Y128101D01*
X649894Y128101D01*
X715360D01*
X715360Y128101D01*
X716531Y128334D01*
X717523Y128997D01*
X757813Y169287D01*
X758476Y170280D01*
X758709Y171450D01*
X758709Y171450D01*
Y196853D01*
X770848Y208992D01*
X772141D01*
X772434Y208699D01*
X773904Y208090D01*
X775496D01*
X776966Y208699D01*
X778091Y209824D01*
X778700Y211294D01*
Y212886D01*
X778091Y214356D01*
X776966Y215481D01*
X775496Y216090D01*
X773904D01*
X772434Y215481D01*
X772102Y215149D01*
X769620D01*
X768449Y214916D01*
X767457Y214253D01*
X767457Y214253D01*
X753487Y200283D01*
X752824Y199291D01*
X752591Y198120D01*
X752591Y198120D01*
Y172717D01*
X714093Y134219D01*
X651161D01*
X627007Y158373D01*
X626014Y159036D01*
X624844Y159269D01*
X624844Y159269D01*
X572188D01*
X571856Y159335D01*
X571856Y159335D01*
X563129D01*
Y166312D01*
X563461Y166644D01*
X564070Y168114D01*
Y169706D01*
X563461Y171176D01*
X562336Y172301D01*
X560866Y172910D01*
X559274D01*
X557804Y172301D01*
X556679Y171176D01*
X556070Y169706D01*
Y168114D01*
X556679Y166644D01*
X557011Y166312D01*
Y159335D01*
X471510D01*
X464073Y166772D01*
Y170068D01*
X464458Y170454D01*
X465067Y171924D01*
Y173516D01*
X464458Y174986D01*
X463333Y176111D01*
X461863Y176720D01*
X460272D01*
X458801Y176111D01*
X457676Y174986D01*
X457067Y173516D01*
Y171924D01*
X457676Y170454D01*
X457955Y170175D01*
Y165505D01*
X457955Y165505D01*
X458188Y164334D01*
X458851Y163342D01*
X468080Y154113D01*
X468080Y154113D01*
X469072Y153450D01*
X470243Y153217D01*
X470243Y153217D01*
X550386D01*
X551091Y152162D01*
X551091Y152160D01*
X550994Y151926D01*
Y151707D01*
X550827Y150927D01*
X549724Y150339D01*
X548744Y150745D01*
X547153D01*
X545683Y150136D01*
X544558Y149011D01*
X543949Y147541D01*
Y145949D01*
X544558Y144479D01*
X545683Y143354D01*
X547153Y142745D01*
X548744D01*
X550214Y143354D01*
X551340Y144479D01*
X551949Y145949D01*
Y146792D01*
X552047Y146911D01*
X553219Y147536D01*
X554198Y147130D01*
X555789D01*
X557260Y147739D01*
X557592Y148071D01*
X583219D01*
X583219Y148071D01*
X584389Y148304D01*
X584505Y148381D01*
X616917D01*
X627345Y137953D01*
Y136371D01*
X625276Y134302D01*
X624003D01*
X624003Y134302D01*
X622833Y134069D01*
X621840Y133406D01*
X621840Y133406D01*
X619434Y131000D01*
X618964D01*
X617494Y130391D01*
X616369Y129266D01*
X615760Y127796D01*
Y126204D01*
X616369Y124734D01*
X617494Y123609D01*
X618964Y123000D01*
X620556D01*
X622026Y123609D01*
X623151Y124734D01*
X623760Y126204D01*
Y126674D01*
X625270Y128184D01*
X626543D01*
X626543Y128184D01*
X627449Y127070D01*
X627190Y126446D01*
Y124854D01*
X627799Y123384D01*
X628131Y123052D01*
Y109589D01*
X545974D01*
X545448Y110859D01*
X545519Y110930D01*
X546128Y112400D01*
Y113992D01*
X545712Y114995D01*
X545714Y114998D01*
X546737Y115840D01*
X547848Y115380D01*
X549440D01*
X550910Y115989D01*
X552035Y117114D01*
X552644Y118584D01*
Y120176D01*
X552035Y121646D01*
X550910Y122771D01*
X549440Y123380D01*
X547848D01*
X546378Y122771D01*
X545253Y121646D01*
X544644Y120176D01*
Y118584D01*
X545059Y117581D01*
X545057Y117578D01*
X544035Y116736D01*
X542923Y117196D01*
X541332D01*
X539862Y116587D01*
X538737Y115462D01*
X538128Y113992D01*
Y112400D01*
X538737Y110930D01*
X538808Y110859D01*
X538282Y109589D01*
X520551D01*
X520430Y109711D01*
X518960Y110320D01*
X517368D01*
X515898Y109711D01*
X514773Y108586D01*
X514164Y107116D01*
Y105524D01*
X514773Y104054D01*
X515898Y102929D01*
X517368Y102320D01*
X518960D01*
X520430Y102929D01*
X520972Y103472D01*
X543199D01*
X543820Y102202D01*
X543374Y101126D01*
Y99534D01*
X543983Y98064D01*
X545108Y96939D01*
X546578Y96330D01*
X548170D01*
X549640Y96939D01*
X549972Y97271D01*
X564748D01*
X568932Y93087D01*
X568932Y93087D01*
X569925Y92424D01*
X571095Y92191D01*
X571095Y92191D01*
X577792D01*
X578124Y91859D01*
X579594Y91250D01*
X581186D01*
X582656Y91859D01*
X582988Y92191D01*
X594705D01*
X594705Y92191D01*
X595107Y92271D01*
X648528D01*
X649376Y91705D01*
X650547Y91472D01*
X713024D01*
X713024Y91472D01*
X714195Y91705D01*
X715187Y92368D01*
X732876Y110056D01*
X734374Y109758D01*
X734483Y109494D01*
X735608Y108369D01*
X737078Y107760D01*
X738670D01*
X740140Y108369D01*
X740883Y109112D01*
X741682Y109363D01*
X742481Y109112D01*
X743224Y108369D01*
X744694Y107760D01*
X746286D01*
X747756Y108369D01*
X748881Y109494D01*
X749490Y110964D01*
Y112556D01*
X748881Y114026D01*
X747756Y115151D01*
X747495Y115259D01*
X747216Y116658D01*
X748051Y117591D01*
X778514D01*
X778514Y117591D01*
X779684Y117824D01*
X780677Y118487D01*
X818608Y156419D01*
X819782Y155933D01*
Y149734D01*
X793237Y123189D01*
X792767D01*
X791297Y122580D01*
X790171Y121454D01*
X789563Y119984D01*
Y118393D01*
X790171Y116923D01*
X791297Y115798D01*
X792767Y115189D01*
X794358D01*
X795828Y115798D01*
X796954Y116923D01*
X797562Y118393D01*
Y118863D01*
X825003Y146304D01*
X825666Y147296D01*
X825899Y148467D01*
X825899Y148467D01*
Y185489D01*
X827169Y185742D01*
X827189Y185694D01*
X828314Y184569D01*
X829784Y183960D01*
X831376D01*
X832846Y184569D01*
X833971Y185694D01*
X834580Y187164D01*
Y188756D01*
X833971Y190226D01*
X832846Y191351D01*
X831376Y191960D01*
X829784D01*
X828314Y191351D01*
X827189Y190226D01*
X827169Y190178D01*
X825899Y190431D01*
Y206402D01*
X826175Y206516D01*
X827300Y207641D01*
X827909Y209111D01*
Y210703D01*
X827872Y210792D01*
X828577Y211848D01*
X836656D01*
X839280Y209224D01*
Y208754D01*
X839889Y207284D01*
X841014Y206159D01*
X842484Y205550D01*
X844076D01*
X845546Y206159D01*
X846455Y207068D01*
X847364Y206159D01*
X848834Y205550D01*
X850426D01*
X851896Y206159D01*
X853021Y207284D01*
X853630Y208754D01*
Y210346D01*
X853021Y211816D01*
X851896Y212941D01*
X850666Y213451D01*
X850443Y213784D01*
X850443Y213784D01*
X838544Y225683D01*
X837552Y226346D01*
X836381Y226579D01*
D02*
G37*
G36*
X705848Y227250D02*
X703859D01*
X702021Y226489D01*
X700615Y225082D01*
X700461Y224711D01*
X699087D01*
X698933Y225082D01*
X697526Y226489D01*
X695688Y227250D01*
X693699D01*
X691861Y226489D01*
X690455Y225082D01*
X689694Y223245D01*
Y221255D01*
X690455Y219418D01*
X691861Y218011D01*
X693699Y217250D01*
X695688D01*
X697526Y218011D01*
X698933Y219418D01*
X699087Y219789D01*
X700461D01*
X700615Y219418D01*
X702021Y218011D01*
X703859Y217250D01*
X705848D01*
X707686Y218011D01*
X709093Y219418D01*
X709854Y221255D01*
Y223245D01*
X709093Y225082D01*
X707686Y226489D01*
X705848Y227250D01*
D02*
G37*
G36*
X756450Y233870D02*
X754858D01*
X753388Y233261D01*
X752263Y232136D01*
X751654Y230666D01*
Y229074D01*
X752263Y227604D01*
X753388Y226479D01*
X754858Y225870D01*
X756449D01*
X756734Y225680D01*
Y225264D01*
X757343Y223794D01*
X758468Y222669D01*
X759938Y222060D01*
X761529D01*
X763000Y222669D01*
X764125Y223794D01*
X764734Y225264D01*
Y226856D01*
X764125Y228326D01*
X763000Y229451D01*
X761529Y230060D01*
X759938D01*
X759654Y230250D01*
Y230666D01*
X759045Y232136D01*
X757920Y233261D01*
X756450Y233870D01*
D02*
G37*
G36*
X618975Y220953D02*
X616986D01*
X615149Y220192D01*
X613742Y218785D01*
X612981Y216947D01*
Y214958D01*
X613742Y213120D01*
X615149Y211714D01*
X616986Y210953D01*
X618975D01*
X620813Y211714D01*
X622220Y213120D01*
X622981Y214958D01*
Y216947D01*
X622220Y218785D01*
X620813Y220192D01*
X618975Y220953D01*
D02*
G37*
G36*
X894876Y217360D02*
X893284D01*
X891814Y216751D01*
X890689Y215626D01*
X890080Y214156D01*
Y212564D01*
X890689Y211094D01*
X891814Y209969D01*
X893284Y209360D01*
X894876D01*
X896346Y209969D01*
X897471Y211094D01*
X898080Y212564D01*
Y214156D01*
X897471Y215626D01*
X896346Y216751D01*
X894876Y217360D01*
D02*
G37*
G36*
X910116Y199580D02*
X908524D01*
X907054Y198971D01*
X905929Y197846D01*
X905320Y196376D01*
Y194784D01*
X905929Y193314D01*
X907054Y192189D01*
X908524Y191580D01*
X910116D01*
X911586Y192189D01*
X912711Y193314D01*
X913320Y194784D01*
Y196376D01*
X912711Y197846D01*
X911586Y198971D01*
X910116Y199580D01*
D02*
G37*
G36*
X899956D02*
X898364D01*
X896894Y198971D01*
X895769Y197846D01*
X895160Y196376D01*
Y194784D01*
X895769Y193314D01*
X896894Y192189D01*
X898364Y191580D01*
X899956D01*
X901426Y192189D01*
X902551Y193314D01*
X903160Y194784D01*
Y196376D01*
X902551Y197846D01*
X901426Y198971D01*
X899956Y199580D01*
D02*
G37*
G36*
X709454Y199510D02*
X707465D01*
X705627Y198749D01*
X704221Y197343D01*
X703459Y195505D01*
Y193516D01*
X704221Y191678D01*
X705627Y190272D01*
X707465Y189510D01*
X709454D01*
X711292Y190272D01*
X712698Y191678D01*
X713459Y193516D01*
Y195505D01*
X712698Y197343D01*
X711292Y198749D01*
X709454Y199510D01*
D02*
G37*
G36*
X504990Y194500D02*
X503398D01*
X501928Y193891D01*
X500803Y192766D01*
X500194Y191296D01*
Y189704D01*
X500803Y188234D01*
X501928Y187109D01*
X503398Y186500D01*
X504990D01*
X506460Y187109D01*
X507585Y188234D01*
X508194Y189704D01*
Y191296D01*
X507585Y192766D01*
X506460Y193891D01*
X504990Y194500D01*
D02*
G37*
G36*
X632185Y189150D02*
X630195D01*
X628358Y188389D01*
X626951Y186982D01*
X626190Y185145D01*
Y183155D01*
X626951Y181318D01*
X628358Y179911D01*
X630195Y179150D01*
X632185D01*
X634022Y179911D01*
X635429Y181318D01*
X636190Y183155D01*
Y185145D01*
X635429Y186982D01*
X634022Y188389D01*
X632185Y189150D01*
D02*
G37*
G36*
X929503Y224973D02*
X927912D01*
X926442Y224364D01*
X925317Y223239D01*
X924708Y221769D01*
Y220177D01*
X925317Y218707D01*
X926442Y217582D01*
X927912Y216973D01*
X928047Y216772D01*
X927710Y215959D01*
Y214367D01*
X927992Y213687D01*
X927646Y212266D01*
X926521Y211141D01*
X925912Y209671D01*
Y208079D01*
X926521Y206609D01*
X927646Y205484D01*
X927656Y205435D01*
X926829Y204608D01*
X926220Y203138D01*
Y201547D01*
X926829Y200077D01*
X927148Y198802D01*
X926426Y198081D01*
X925817Y196610D01*
Y195019D01*
X926426Y193549D01*
X926866Y193109D01*
X927132Y191579D01*
X926523Y190109D01*
Y188517D01*
X927132Y187047D01*
X927874Y186306D01*
X927848Y186177D01*
X926723Y185052D01*
X926114Y183582D01*
Y181990D01*
X926723Y180520D01*
X927848Y179395D01*
X929318Y178786D01*
X930910D01*
X932380Y179395D01*
X933505Y180520D01*
X934114Y181990D01*
Y183582D01*
X933505Y185052D01*
X932764Y185793D01*
X932789Y185922D01*
X933914Y187047D01*
X934523Y188517D01*
Y190109D01*
X933914Y191579D01*
X933474Y192019D01*
X933208Y193549D01*
X933817Y195019D01*
Y196610D01*
X933208Y198081D01*
X932889Y199355D01*
X933611Y200077D01*
X934220Y201547D01*
Y203138D01*
X933611Y204608D01*
X932486Y205733D01*
X932476Y205782D01*
X933303Y206609D01*
X933912Y208079D01*
Y209671D01*
X933630Y210352D01*
X933976Y211772D01*
X935101Y212897D01*
X935710Y214367D01*
Y215959D01*
X935101Y217429D01*
X933976Y218554D01*
X932506Y219163D01*
X932371Y219365D01*
X932708Y220177D01*
Y221769D01*
X932099Y223239D01*
X930974Y224364D01*
X929503Y224973D01*
D02*
G37*
G36*
X899956Y164020D02*
X898364D01*
X896894Y163411D01*
X895769Y162286D01*
X895160Y160816D01*
Y159224D01*
X895769Y157754D01*
X896894Y156629D01*
X898364Y156020D01*
X899956D01*
X901426Y156629D01*
X902551Y157754D01*
X903160Y159224D01*
Y160816D01*
X902551Y162286D01*
X901426Y163411D01*
X899956Y164020D01*
D02*
G37*
G36*
X910116Y162750D02*
X908524D01*
X907054Y162141D01*
X905929Y161016D01*
X905320Y159546D01*
Y157954D01*
X905929Y156484D01*
X907054Y155359D01*
X908524Y154750D01*
X910116D01*
X911586Y155359D01*
X912711Y156484D01*
X913320Y157954D01*
Y159546D01*
X912711Y161016D01*
X911586Y162141D01*
X910116Y162750D01*
D02*
G37*
G36*
X652505Y159940D02*
X650515D01*
X648678Y159179D01*
X647271Y157772D01*
X646510Y155935D01*
Y153945D01*
X647271Y152108D01*
X648678Y150701D01*
X650515Y149940D01*
X652505D01*
X654342Y150701D01*
X655749Y152108D01*
X656510Y153945D01*
Y155935D01*
X655749Y157772D01*
X654342Y159179D01*
X652505Y159940D01*
D02*
G37*
G36*
X473438Y148510D02*
X471449D01*
X469612Y147749D01*
X468205Y146342D01*
X468051Y145971D01*
X466676D01*
X466523Y146342D01*
X465116Y147749D01*
X463278Y148510D01*
X461289D01*
X459451Y147749D01*
X458045Y146342D01*
X457284Y144505D01*
Y142515D01*
X458045Y140678D01*
X459451Y139271D01*
X461289Y138510D01*
X463278D01*
X465116Y139271D01*
X466523Y140678D01*
X466676Y141049D01*
X468051D01*
X468205Y140678D01*
X469612Y139271D01*
X471449Y138510D01*
X473438D01*
X475276Y139271D01*
X476683Y140678D01*
X477444Y142515D01*
Y144505D01*
X476683Y146342D01*
X475276Y147749D01*
X473438Y148510D01*
D02*
G37*
G36*
Y137080D02*
X471449D01*
X469612Y136319D01*
X468205Y134912D01*
X468051Y134541D01*
X466676D01*
X466523Y134912D01*
X465116Y136319D01*
X463278Y137080D01*
X461289D01*
X459451Y136319D01*
X458045Y134912D01*
X457284Y133075D01*
Y131085D01*
X458045Y129248D01*
X459451Y127841D01*
X461289Y127080D01*
X463278D01*
X465116Y127841D01*
X466523Y129248D01*
X466676Y129619D01*
X468051D01*
X468205Y129248D01*
X469612Y127841D01*
X471449Y127080D01*
X473438D01*
X475276Y127841D01*
X476683Y129248D01*
X477444Y131085D01*
Y133075D01*
X476683Y134912D01*
X475276Y136319D01*
X473438Y137080D01*
D02*
G37*
G36*
X526580Y142430D02*
X524988D01*
X523518Y141821D01*
X522393Y140696D01*
X521784Y139226D01*
Y137634D01*
X522393Y136164D01*
X523518Y135039D01*
X524988Y134430D01*
X526580D01*
X528050Y135039D01*
X529175Y136164D01*
X529784Y137634D01*
Y139226D01*
X529175Y140696D01*
X528050Y141821D01*
X526580Y142430D01*
D02*
G37*
G36*
X512609D02*
X511018D01*
X509548Y141821D01*
X508423Y140696D01*
X507814Y139226D01*
Y137634D01*
X508423Y136164D01*
X509548Y135039D01*
X511018Y134430D01*
X512609D01*
X514080Y135039D01*
X515205Y136164D01*
X515814Y137634D01*
Y139226D01*
X515205Y140696D01*
X514080Y141821D01*
X512609Y142430D01*
D02*
G37*
G36*
X539280Y133540D02*
X537688D01*
X536218Y132931D01*
X535093Y131806D01*
X534484Y130336D01*
Y128744D01*
X535093Y127274D01*
X536218Y126149D01*
X537688Y125540D01*
X539280D01*
X540750Y126149D01*
X541875Y127274D01*
X542484Y128744D01*
Y130336D01*
X541875Y131806D01*
X540750Y132931D01*
X539280Y133540D01*
D02*
G37*
G36*
X480859Y119570D02*
X479268D01*
X477798Y118961D01*
X476673Y117836D01*
X476064Y116366D01*
Y114774D01*
X476673Y113304D01*
X477798Y112179D01*
X479268Y111570D01*
X480859D01*
X482330Y112179D01*
X483455Y113304D01*
X484064Y114774D01*
Y116366D01*
X483455Y117836D01*
X482330Y118961D01*
X480859Y119570D01*
D02*
G37*
G36*
X524039Y99250D02*
X522448D01*
X520978Y98641D01*
X519853Y97516D01*
X519244Y96046D01*
Y94454D01*
X519853Y92984D01*
X520978Y91859D01*
X522448Y91250D01*
X524039D01*
X525510Y91859D01*
X526635Y92984D01*
X527244Y94454D01*
Y96046D01*
X526635Y97516D01*
X525510Y98641D01*
X524039Y99250D01*
D02*
G37*
G36*
X458198Y93670D02*
X456209D01*
X454371Y92909D01*
X452965Y91502D01*
X452204Y89665D01*
Y87675D01*
X452965Y85838D01*
X454371Y84431D01*
X456209Y83670D01*
X458198D01*
X460036Y84431D01*
X461443Y85838D01*
X462204Y87675D01*
Y89665D01*
X461443Y91502D01*
X460036Y92909D01*
X458198Y93670D01*
D02*
G37*
G36*
X610598Y89190D02*
X608609D01*
X606772Y88429D01*
X605365Y87022D01*
X604604Y85185D01*
Y83195D01*
X605365Y81358D01*
X606772Y79951D01*
X608609Y79190D01*
X610598D01*
X612436Y79951D01*
X613843Y81358D01*
X614604Y83195D01*
Y85185D01*
X613843Y87022D01*
X612436Y88429D01*
X610598Y89190D01*
D02*
G37*
G36*
X684056Y78930D02*
X682464D01*
X680994Y78321D01*
X679869Y77196D01*
X679260Y75726D01*
Y74134D01*
X679869Y72664D01*
X680994Y71539D01*
X682464Y70930D01*
X684056D01*
X685526Y71539D01*
X686651Y72664D01*
X687260Y74134D01*
Y75726D01*
X686651Y77196D01*
X685526Y78321D01*
X684056Y78930D01*
D02*
G37*
G36*
X533128Y54530D02*
X531139D01*
X529301Y53769D01*
X527895Y52362D01*
X527741Y51991D01*
X526367D01*
X526213Y52362D01*
X524806Y53769D01*
X522968Y54530D01*
X520979D01*
X519142Y53769D01*
X517735Y52362D01*
X516974Y50525D01*
Y48535D01*
X517735Y46698D01*
X519142Y45291D01*
X520979Y44530D01*
X522968D01*
X524806Y45291D01*
X526213Y46698D01*
X526367Y47069D01*
X527741D01*
X527895Y46698D01*
X529301Y45291D01*
X531139Y44530D01*
X533128D01*
X534966Y45291D01*
X536373Y46698D01*
X537134Y48535D01*
Y50525D01*
X536373Y52362D01*
X534966Y53769D01*
X533128Y54530D01*
D02*
G37*
G36*
Y43100D02*
X531139D01*
X529301Y42339D01*
X527895Y40932D01*
X527741Y40561D01*
X526367D01*
X526213Y40932D01*
X524806Y42339D01*
X522968Y43100D01*
X520979D01*
X519142Y42339D01*
X517735Y40932D01*
X516974Y39095D01*
Y37105D01*
X517735Y35268D01*
X519142Y33861D01*
X520979Y33100D01*
X522968D01*
X524806Y33861D01*
X526213Y35268D01*
X526367Y35639D01*
X527741D01*
X527895Y35268D01*
X529301Y33861D01*
X531139Y33100D01*
X533128D01*
X534966Y33861D01*
X536373Y35268D01*
X537134Y37105D01*
Y39095D01*
X536373Y40932D01*
X534966Y42339D01*
X533128Y43100D01*
D02*
G37*
G36*
X622025Y36750D02*
X620035D01*
X618198Y35989D01*
X616791Y34582D01*
X616637Y34211D01*
X615263D01*
X615109Y34582D01*
X613702Y35989D01*
X611865Y36750D01*
X609875D01*
X608038Y35989D01*
X606631Y34582D01*
X605870Y32745D01*
Y30755D01*
X606631Y28918D01*
X608038Y27511D01*
X609875Y26750D01*
X611865D01*
X613702Y27511D01*
X615109Y28918D01*
X615263Y29289D01*
X616637D01*
X616791Y28918D01*
X618198Y27511D01*
X620035Y26750D01*
X622025D01*
X623862Y27511D01*
X625269Y28918D01*
X626030Y30755D01*
Y32745D01*
X625269Y34582D01*
X623862Y35989D01*
X622025Y36750D01*
D02*
G37*
G36*
X793276Y38290D02*
X791684D01*
X790214Y37681D01*
X789089Y36556D01*
X788480Y35086D01*
Y33494D01*
X789089Y32024D01*
X790214Y30899D01*
X791684Y30290D01*
X793276D01*
X794746Y30899D01*
X795871Y32024D01*
X796480Y33494D01*
Y35086D01*
X795871Y36556D01*
X794746Y37681D01*
X793276Y38290D01*
D02*
G37*
G36*
X760256D02*
X758664D01*
X757194Y37681D01*
X756069Y36556D01*
X755460Y35086D01*
Y33494D01*
X756069Y32024D01*
X757194Y30899D01*
X758664Y30290D01*
X760256D01*
X761726Y30899D01*
X762851Y32024D01*
X763460Y33494D01*
Y35086D01*
X762851Y36556D01*
X761726Y37681D01*
X760256Y38290D01*
D02*
G37*
G36*
X735765Y36660D02*
X734174D01*
X732704Y36051D01*
X731578Y34925D01*
X730969Y33455D01*
Y31864D01*
X731578Y30394D01*
X732704Y29268D01*
X734174Y28660D01*
X735765D01*
X737235Y29268D01*
X738361Y30394D01*
X738969Y31864D01*
Y33455D01*
X738361Y34925D01*
X737235Y36051D01*
X735765Y36660D01*
D02*
G37*
G36*
X778036Y35870D02*
X776444D01*
X774974Y35261D01*
X773849Y34136D01*
X773240Y32666D01*
Y31074D01*
X773849Y29604D01*
X774974Y28479D01*
X776444Y27870D01*
X778036D01*
X779506Y28479D01*
X780631Y29604D01*
X781240Y31074D01*
Y32666D01*
X780631Y34136D01*
X779506Y35261D01*
X778036Y35870D01*
D02*
G37*
G36*
X439148Y419020D02*
X437159D01*
X435322Y418259D01*
X433915Y416852D01*
X433761Y416481D01*
X432387D01*
X432233Y416852D01*
X430826Y418259D01*
X428988Y419020D01*
X426999D01*
X425162Y418259D01*
X423755Y416852D01*
X422994Y415015D01*
Y413025D01*
X423755Y411188D01*
X425162Y409781D01*
X426999Y409020D01*
X428988D01*
X430826Y409781D01*
X432233Y411188D01*
X432387Y411559D01*
X433761D01*
X433915Y411188D01*
X435322Y409781D01*
X437159Y409020D01*
X439148D01*
X440986Y409781D01*
X442393Y411188D01*
X443154Y413025D01*
Y415015D01*
X442393Y416852D01*
X440986Y418259D01*
X439148Y419020D01*
D02*
G37*
G36*
Y407590D02*
X437159D01*
X435322Y406829D01*
X433915Y405422D01*
X433761Y405051D01*
X432387D01*
X432233Y405422D01*
X430826Y406829D01*
X428988Y407590D01*
X426999D01*
X425162Y406829D01*
X423755Y405422D01*
X422994Y403585D01*
Y401595D01*
X423755Y399758D01*
X425162Y398351D01*
X426999Y397590D01*
X428988D01*
X430826Y398351D01*
X432233Y399758D01*
X432387Y400129D01*
X433761D01*
X433915Y399758D01*
X435322Y398351D01*
X437159Y397590D01*
X439148D01*
X440986Y398351D01*
X442393Y399758D01*
X443154Y401595D01*
Y403585D01*
X442393Y405422D01*
X440986Y406829D01*
X439148Y407590D01*
D02*
G37*
G36*
X426448Y382190D02*
X424459D01*
X422621Y381429D01*
X421215Y380022D01*
X421061Y379651D01*
X419687D01*
X419533Y380022D01*
X418126Y381429D01*
X416288Y382190D01*
X414299D01*
X412462Y381429D01*
X411055Y380022D01*
X410294Y378185D01*
Y376195D01*
X411055Y374358D01*
X412462Y372951D01*
X414299Y372190D01*
X416288D01*
X418126Y372951D01*
X419533Y374358D01*
X419687Y374729D01*
X421061D01*
X421215Y374358D01*
X422621Y372951D01*
X424459Y372190D01*
X426448D01*
X428286Y372951D01*
X429693Y374358D01*
X430454Y376195D01*
Y378185D01*
X429693Y380022D01*
X428286Y381429D01*
X426448Y382190D01*
D02*
G37*
G36*
Y370760D02*
X424459D01*
X422621Y369999D01*
X421215Y368592D01*
X421061Y368221D01*
X419687D01*
X419533Y368592D01*
X418126Y369999D01*
X416288Y370760D01*
X414299D01*
X412462Y369999D01*
X411055Y368592D01*
X410294Y366755D01*
Y364765D01*
X411055Y362928D01*
X412462Y361521D01*
X414299Y360760D01*
X416288D01*
X418126Y361521D01*
X419533Y362928D01*
X419687Y363299D01*
X421061D01*
X421215Y362928D01*
X422621Y361521D01*
X424459Y360760D01*
X426448D01*
X428286Y361521D01*
X429693Y362928D01*
X430454Y364765D01*
Y366755D01*
X429693Y368592D01*
X428286Y369999D01*
X426448Y370760D01*
D02*
G37*
G36*
X402116Y351980D02*
X400524D01*
X399054Y351371D01*
X397929Y350246D01*
X397320Y348776D01*
Y347184D01*
X397929Y345714D01*
X399054Y344589D01*
X400524Y343980D01*
X402116D01*
X403586Y344589D01*
X404711Y345714D01*
X405320Y347184D01*
Y348776D01*
X404711Y350246D01*
X403586Y351371D01*
X402116Y351980D01*
D02*
G37*
G36*
X397238Y272970D02*
X395249D01*
X393411Y272209D01*
X392005Y270802D01*
X391851Y270431D01*
X390476D01*
X390323Y270802D01*
X388916Y272209D01*
X387078Y272970D01*
X385089D01*
X383251Y272209D01*
X381845Y270802D01*
X381084Y268965D01*
Y266975D01*
X381845Y265138D01*
X383251Y263731D01*
X385089Y262970D01*
X387078D01*
X388916Y263731D01*
X390323Y265138D01*
X390476Y265509D01*
X391851D01*
X392005Y265138D01*
X393411Y263731D01*
X395249Y262970D01*
X397238D01*
X399076Y263731D01*
X400483Y265138D01*
X401244Y266975D01*
Y268965D01*
X400483Y270802D01*
X399076Y272209D01*
X397238Y272970D01*
D02*
G37*
G36*
Y261540D02*
X395249D01*
X393411Y260779D01*
X392005Y259372D01*
X391851Y259001D01*
X390476D01*
X390323Y259372D01*
X388916Y260779D01*
X387078Y261540D01*
X385089D01*
X383251Y260779D01*
X381845Y259372D01*
X381084Y257535D01*
Y255545D01*
X381845Y253708D01*
X383251Y252301D01*
X385089Y251540D01*
X387078D01*
X388916Y252301D01*
X390323Y253708D01*
X390476Y254079D01*
X391851D01*
X392005Y253708D01*
X393411Y252301D01*
X395249Y251540D01*
X397238D01*
X399076Y252301D01*
X400483Y253708D01*
X401244Y255545D01*
Y257535D01*
X400483Y259372D01*
X399076Y260779D01*
X397238Y261540D01*
D02*
G37*
G36*
X427718Y129460D02*
X425729D01*
X423891Y128699D01*
X422485Y127292D01*
X422331Y126921D01*
X420956D01*
X420803Y127292D01*
X419396Y128699D01*
X417558Y129460D01*
X415569D01*
X413731Y128699D01*
X412325Y127292D01*
X411564Y125455D01*
Y123465D01*
X412325Y121628D01*
X413731Y120221D01*
X415569Y119460D01*
X417558D01*
X419396Y120221D01*
X420803Y121628D01*
X420956Y121999D01*
X422331D01*
X422485Y121628D01*
X423891Y120221D01*
X425729Y119460D01*
X427718D01*
X429556Y120221D01*
X430963Y121628D01*
X431724Y123465D01*
Y125455D01*
X430963Y127292D01*
X429556Y128699D01*
X427718Y129460D01*
D02*
G37*
G36*
Y118030D02*
X425729D01*
X423891Y117269D01*
X422485Y115862D01*
X422331Y115491D01*
X420956D01*
X420803Y115862D01*
X419396Y117269D01*
X417558Y118030D01*
X415569D01*
X413731Y117269D01*
X412325Y115862D01*
X411564Y114025D01*
Y112035D01*
X412325Y110198D01*
X413731Y108791D01*
X415569Y108030D01*
X417558D01*
X419396Y108791D01*
X420803Y110198D01*
X420956Y110569D01*
X422331D01*
X422485Y110198D01*
X423891Y108791D01*
X425729Y108030D01*
X427718D01*
X429556Y108791D01*
X430963Y110198D01*
X431724Y112035D01*
Y114025D01*
X430963Y115862D01*
X429556Y117269D01*
X427718Y118030D01*
D02*
G37*
G36*
X401196Y100636D02*
X399604D01*
X398134Y100027D01*
X397009Y98902D01*
X396400Y97431D01*
Y95840D01*
X397009Y94370D01*
X398134Y93245D01*
X399604Y92636D01*
X401196D01*
X402666Y93245D01*
X403791Y94370D01*
X404400Y95840D01*
Y97431D01*
X403791Y98902D01*
X402666Y100027D01*
X401196Y100636D01*
D02*
G37*
G36*
X864396Y429809D02*
X862804D01*
X861334Y429200D01*
X860209Y428075D01*
X859600Y426605D01*
Y425014D01*
X860209Y423544D01*
X861334Y422418D01*
X862804Y421809D01*
X864396D01*
X865866Y422418D01*
X866991Y423544D01*
X867600Y425014D01*
Y426605D01*
X866991Y428075D01*
X865866Y429200D01*
X864396Y429809D01*
D02*
G37*
G36*
X666276Y395160D02*
X664684D01*
X663214Y394551D01*
X662089Y393426D01*
X661480Y391956D01*
Y390364D01*
X662089Y388894D01*
X663214Y387769D01*
X664684Y387160D01*
X666276D01*
X667746Y387769D01*
X668871Y388894D01*
X669480Y390364D01*
Y391956D01*
X668871Y393426D01*
X667746Y394551D01*
X666276Y395160D01*
D02*
G37*
%LPD*%
D13*
X769620Y212090D02*
X774700D01*
X755650Y198120D02*
X769620Y212090D01*
X755650Y171450D02*
Y198120D01*
X715360Y131160D02*
X755650Y171450D01*
X802640Y223520D02*
X836381D01*
X781050Y201930D02*
X802640Y223520D01*
X781050Y185416D02*
Y201930D01*
X786050Y178986D02*
Y201301D01*
X799656Y214907D01*
X837923D01*
X843280Y209550D01*
X836381Y223520D02*
X848280Y211621D01*
Y211441D02*
Y211621D01*
Y211441D02*
X849630Y210091D01*
Y209550D02*
Y210091D01*
X713594Y106531D02*
X786050Y178986D01*
X868600Y260819D02*
Y294560D01*
X911859Y337819D01*
X863600Y295910D02*
X910509Y342819D01*
X925847D01*
X911859Y337819D02*
X935566D01*
X863600Y262890D02*
Y295910D01*
X864704Y256923D02*
X868600Y260819D01*
X838065Y291965D02*
X928370Y382270D01*
X767298Y291965D02*
X838065D01*
X650547Y94530D02*
X713024D01*
X801454Y182960D01*
X615950Y254000D02*
X681990Y187960D01*
X549361Y393700D02*
X682284Y260777D01*
X673100Y218440D02*
Y245110D01*
X623570Y267970D02*
X646430Y245110D01*
X673100Y218440D02*
X680720Y210820D01*
X646430Y245110D02*
X673100D01*
X543560Y347980D02*
X623570Y267970D01*
X516894Y347980D02*
X543560D01*
X615950Y254000D02*
Y265430D01*
X680720Y210820D02*
X684530D01*
X593938Y317926D02*
X601554D01*
X525864Y386000D02*
Y386000D01*
Y386000D02*
X593938Y317926D01*
X515624Y396240D02*
X525864Y386000D01*
X665029Y254142D02*
Y254451D01*
X601554Y317926D02*
X665029Y254451D01*
X624003Y131243D02*
X626543D01*
X619760Y127000D02*
X624003Y131243D01*
X626543D02*
X630404Y135104D01*
X631190Y107950D02*
Y125650D01*
X630404Y135104D02*
Y139220D01*
X631190Y107950D02*
X632610Y106531D01*
X713594D01*
X518374D02*
X632610D01*
X560070Y156276D02*
X571856D01*
X470243D02*
X560070D01*
Y168910D01*
X583529Y151440D02*
X618184D01*
X583219Y151130D02*
X583529Y151440D01*
X554994Y151130D02*
X583219D01*
X594785Y95330D02*
X649747D01*
X580390Y95250D02*
X594705D01*
X594785Y95330D01*
X571095Y95250D02*
X580390D01*
X566015Y100330D02*
X571095Y95250D01*
X753323Y287233D02*
X754380Y288290D01*
Y297897D01*
X753323Y285630D02*
Y287233D01*
X752941Y285247D02*
X753323Y285630D01*
X754380Y297897D02*
X773983Y317500D01*
X529594Y389890D02*
X533404Y393700D01*
X549361D01*
X801454Y182960D02*
Y209466D01*
X801370Y209550D02*
X801454Y209466D01*
X715014Y119380D02*
X781050Y185416D01*
X649894Y131160D02*
X715360D01*
X649747Y95330D02*
X650547Y94530D01*
X761298Y291263D02*
X766596D01*
X767298Y291965D01*
X759464Y95250D02*
X770894Y106680D01*
X796294D01*
X547374Y100330D02*
X566015D01*
X518164Y106320D02*
X518374Y106531D01*
X848360Y317500D02*
X910590Y379730D01*
X773983Y317500D02*
X848360D01*
X822840Y148467D02*
Y208297D01*
X793754Y119380D02*
X822840Y148467D01*
Y208297D02*
X823909Y209366D01*
X817840Y205740D02*
X817884Y205697D01*
Y160020D02*
Y205697D01*
X778514Y120650D02*
X817884Y160020D01*
X861443Y256923D02*
X864704D01*
X861060Y256540D02*
X861443Y256923D01*
X746764Y120650D02*
X778514D01*
X737874Y111760D02*
X746764Y120650D01*
X796294Y106680D02*
X885194Y195580D01*
Y246380D01*
X882845Y248729D02*
X885194Y246380D01*
X860872Y248729D02*
X882845D01*
X823909Y209366D02*
Y209907D01*
X811454Y166290D02*
Y207832D01*
X787404Y142240D02*
X811454Y166290D01*
X461014Y165505D02*
Y172667D01*
X461067Y172720D01*
X650244Y119380D02*
X715014D01*
X630404Y139220D02*
X650244Y119380D01*
X624844Y156210D02*
X649894Y131160D01*
X618184Y151440D02*
X630404Y139220D01*
X571922Y156210D02*
X624844D01*
X571856Y156276D02*
X571922Y156210D01*
X461014Y165505D02*
X470243Y156276D01*
D14*
X449928Y243486D02*
X453908D01*
X457141Y246719D01*
X463157D01*
X463819Y247381D01*
X420742Y272671D02*
X449928Y243486D01*
X271784Y480060D02*
X276864Y474980D01*
X351794D01*
X392808D02*
X401962Y465825D01*
X351794Y474980D02*
X392808D01*
X354334Y256540D02*
X400129Y210745D01*
X401683D01*
X401962Y210466D01*
X54614Y395050D02*
Y396240D01*
Y395050D02*
X189314Y260350D01*
X285754D01*
D19*
X837791Y302311D02*
Y340309D01*
Y302311D02*
X879792D01*
Y340309D01*
X837791D02*
X879792D01*
X931420Y182659D02*
Y223660D01*
Y182659D02*
X959421D01*
Y223660D01*
X931420D02*
X959421D01*
X574799Y461122D02*
Y533121D01*
Y461122D02*
X639798D01*
Y533121D01*
X574799D02*
X639798D01*
X584799Y484622D02*
Y509621D01*
Y484622D02*
X629798D01*
Y509621D01*
X584799D02*
X629798D01*
X17292Y368300D02*
X25419D01*
X41674D01*
X49801D01*
X17292Y187960D02*
Y368770D01*
Y187960D02*
X49801D01*
X7292Y368300D02*
X61691D01*
X7292Y187960D02*
Y368300D01*
Y187960D02*
X61691D01*
Y368300D01*
X49801Y187960D02*
Y368770D01*
D20*
X848791Y313309D02*
Y329311D01*
Y313309D02*
X868791D01*
Y329311D01*
X848791D02*
X868791D01*
X941420Y192659D02*
Y208661D01*
Y192659D02*
X949421D01*
Y208661D01*
X941420D02*
X949421D01*
D21*
X768395Y87508D02*
X763396D01*
X765895D01*
Y75012D01*
X763396Y72512D01*
X760897D01*
X758398Y75012D01*
X773393Y85008D02*
X775892Y87508D01*
X780891D01*
X783390Y85008D01*
Y82509D01*
X780891Y80010D01*
X778391D01*
X780891D01*
X783390Y77511D01*
Y75012D01*
X780891Y72512D01*
X775892D01*
X773393Y75012D01*
D22*
X553679Y441919D02*
Y445251D01*
X551180D01*
Y443585D01*
Y445251D01*
X548681D01*
X553679Y440253D02*
X548681D01*
Y437754D01*
X549514Y436921D01*
X550347D01*
X551180Y437754D01*
Y440253D01*
Y437754D01*
X552013Y436921D01*
X552846D01*
X553679Y437754D01*
Y440253D01*
X548681Y435255D02*
Y433588D01*
Y434422D01*
X553679D01*
X552846Y435255D01*
X881818Y172365D02*
X886817D01*
Y174864D01*
X885984Y175697D01*
X882651D01*
X881818Y174864D01*
Y172365D01*
X882651Y177363D02*
X881818Y178196D01*
Y179862D01*
X882651Y180695D01*
X883484D01*
X884317Y179862D01*
X885151Y180695D01*
X885984D01*
X886817Y179862D01*
Y178196D01*
X885984Y177363D01*
X885151D01*
X884317Y178196D01*
X883484Y177363D01*
X882651D01*
X884317Y178196D02*
Y179862D01*
X868992Y172365D02*
X873990D01*
Y174864D01*
X873158Y175697D01*
X869825D01*
X868992Y174864D01*
Y172365D01*
Y177363D02*
Y180695D01*
X869825D01*
X873158Y177363D01*
X873990D01*
X527095Y191872D02*
X532093D01*
Y194371D01*
X531260Y195204D01*
X527928D01*
X527095Y194371D01*
Y191872D01*
X532093Y196870D02*
Y198536D01*
Y197703D01*
X527095D01*
X527928Y196870D01*
X532093Y203535D02*
X527095D01*
X529594Y201036D01*
Y204368D01*
X530905Y444602D02*
X535903D01*
Y447101D01*
X535070Y447934D01*
X531738D01*
X530905Y447101D01*
Y444602D01*
X535903Y449600D02*
Y451267D01*
Y450434D01*
X530905D01*
X531738Y449600D01*
Y453766D02*
X530905Y454599D01*
Y456265D01*
X531738Y457098D01*
X532571D01*
X533404Y456265D01*
Y455432D01*
Y456265D01*
X534237Y457098D01*
X535070D01*
X535903Y456265D01*
Y454599D01*
X535070Y453766D01*
X954129Y321351D02*
Y326349D01*
X951630D01*
X950797Y325516D01*
Y322184D01*
X951630Y321351D01*
X954129D01*
X949131Y325516D02*
X948298Y326349D01*
X946632D01*
X945798Y325516D01*
Y322184D01*
X946632Y321351D01*
X948298D01*
X949131Y322184D01*
Y323017D01*
X948298Y323850D01*
X945798D01*
X956212Y307381D02*
Y312379D01*
X953713D01*
X952879Y311546D01*
Y308214D01*
X953713Y307381D01*
X956212D01*
X951213Y312379D02*
X949547D01*
X950380D01*
Y307381D01*
X951213Y308214D01*
X947048D02*
X946215Y307381D01*
X944549D01*
X943716Y308214D01*
Y311546D01*
X944549Y312379D01*
X946215D01*
X947048Y311546D01*
Y308214D01*
X959689Y479145D02*
X954691D01*
Y476646D01*
X955524Y475813D01*
X958856D01*
X959689Y476646D01*
Y479145D01*
Y470815D02*
Y474147D01*
X957190D01*
X958023Y472481D01*
Y471648D01*
X957190Y470815D01*
X955524D01*
X954691Y471648D01*
Y473314D01*
X955524Y474147D01*
X946989Y479145D02*
X941991D01*
Y476646D01*
X942824Y475813D01*
X946156D01*
X946989Y476646D01*
Y479145D01*
Y470815D02*
X946156Y472481D01*
X944490Y474147D01*
X942824D01*
X941991Y473314D01*
Y471648D01*
X942824Y470815D01*
X943657D01*
X944490Y471648D01*
Y474147D01*
X784614Y505116D02*
X779616D01*
Y502617D01*
X780449Y501784D01*
X783781D01*
X784614Y502617D01*
Y505116D01*
X779616Y500118D02*
Y498452D01*
Y499285D01*
X784614D01*
X783781Y500118D01*
X779616Y495952D02*
Y494286D01*
Y495120D01*
X784614D01*
X783781Y495952D01*
X801900Y505949D02*
X796901D01*
Y503450D01*
X797734Y502617D01*
X801067D01*
X801900Y503450D01*
Y505949D01*
X796901Y500951D02*
Y499285D01*
Y500118D01*
X801900D01*
X801067Y500951D01*
X796901Y493453D02*
Y496786D01*
X800234Y493453D01*
X801067D01*
X801900Y494286D01*
Y495952D01*
X801067Y496786D01*
X739486Y322621D02*
Y327619D01*
X736986D01*
X736153Y326786D01*
Y323454D01*
X736986Y322621D01*
X739486D01*
X734487Y323454D02*
X733654Y322621D01*
X731988D01*
X731155Y323454D01*
Y324287D01*
X731988Y325120D01*
X732821D01*
X731988D01*
X731155Y325953D01*
Y326786D01*
X731988Y327619D01*
X733654D01*
X734487Y326786D01*
X523595Y488991D02*
Y493989D01*
X521096D01*
X520263Y493156D01*
Y489824D01*
X521096Y488991D01*
X523595D01*
X516098Y493989D02*
Y488991D01*
X518597Y491490D01*
X515265D01*
D23*
X938886Y90195D02*
X946883D01*
X950882Y86197D01*
X946883Y82198D01*
X938886D01*
X944884D01*
Y90195D01*
X950882Y70202D02*
Y78199D01*
X938886D01*
Y70202D01*
X944884Y78199D02*
Y74201D01*
X938886Y66203D02*
Y62204D01*
Y64204D01*
X950882D01*
X948883Y66203D01*
D152*
X463819Y247381D02*
D03*
X458203Y514615D02*
D03*
X744220Y209550D02*
D03*
X764544Y217077D02*
D03*
X716280Y430530D02*
D03*
X704850Y440690D02*
D03*
X695960Y439420D02*
D03*
X704850Y449580D02*
D03*
Y431800D02*
D03*
Y422910D02*
D03*
X726440Y462280D02*
D03*
X713740Y400050D02*
D03*
X669290Y411480D02*
D03*
X806991Y308791D02*
D03*
X805180Y369570D02*
D03*
X527506Y517435D02*
D03*
X886460Y302260D02*
D03*
X873783Y257796D02*
D03*
X735330Y462280D02*
D03*
X726440Y471170D02*
D03*
X734117Y479005D02*
D03*
X701040Y292100D02*
D03*
X836934Y205011D02*
D03*
X386080Y74930D02*
D03*
X420742Y272671D02*
D03*
X543560Y417830D02*
D03*
X553720D02*
D03*
X543560Y407670D02*
D03*
X553720D02*
D03*
X662940Y486410D02*
D03*
Y496570D02*
D03*
X652780Y486410D02*
D03*
X642620Y496570D02*
D03*
X652780D02*
D03*
X642620Y486410D02*
D03*
X929901Y431522D02*
D03*
Y422632D02*
D03*
X920750Y431800D02*
D03*
Y422910D02*
D03*
X792275Y424461D02*
D03*
X782115D02*
D03*
X792480Y435610D02*
D03*
X782115Y435891D02*
D03*
X731520Y430530D02*
D03*
X723900D02*
D03*
X721360Y400050D02*
D03*
X728980D02*
D03*
X707394Y356870D02*
D03*
X669290Y440690D02*
D03*
X768350Y25400D02*
D03*
X909320Y213360D02*
D03*
X646430Y25400D02*
D03*
X593090D02*
D03*
X828840Y204939D02*
D03*
X953770Y400050D02*
D03*
X822964Y466090D02*
D03*
X812800Y476250D02*
D03*
X822960D02*
D03*
X812804Y466090D02*
D03*
X928374Y495300D02*
D03*
X439967Y169905D02*
D03*
X697234Y377190D02*
D03*
Y367030D02*
D03*
Y356870D02*
D03*
X404195Y508331D02*
D03*
X707970Y366894D02*
D03*
X853444Y151130D02*
D03*
X431191Y349021D02*
D03*
X424184Y97790D02*
D03*
X431724Y98785D02*
D03*
X411484Y99060D02*
D03*
X471174Y163830D02*
D03*
X426716Y169905D02*
D03*
X715014Y222250D02*
D03*
X449559Y424886D02*
D03*
X439967Y425265D02*
D03*
X471174Y419100D02*
D03*
X426716Y425265D02*
D03*
X411476Y351445D02*
D03*
X423816Y349402D02*
D03*
X53878Y396190D02*
D03*
X285754Y260350D02*
D03*
X669290Y401320D02*
D03*
Y430530D02*
D03*
X659130D02*
D03*
Y411480D02*
D03*
Y401320D02*
D03*
Y440690D02*
D03*
Y450850D02*
D03*
X669290D02*
D03*
X707394Y377190D02*
D03*
X928374Y505460D02*
D03*
X918214Y495300D02*
D03*
Y505460D02*
D03*
X735330Y471170D02*
D03*
X479061Y425185D02*
D03*
Y169825D02*
D03*
D153*
X774700Y212090D02*
D03*
X843280Y209550D02*
D03*
X849630D02*
D03*
X925847Y342819D02*
D03*
X685840Y210860D02*
D03*
X682030Y188000D02*
D03*
X682284Y260777D02*
D03*
X673100Y245110D02*
D03*
X615950Y265430D02*
D03*
X623570Y267970D02*
D03*
X665029Y254142D02*
D03*
X619760Y127000D02*
D03*
X631190Y125650D02*
D03*
X560070Y168910D02*
D03*
X554994Y151130D02*
D03*
X580390Y95250D02*
D03*
X752941Y285247D02*
D03*
X801370Y209550D02*
D03*
X761298Y291263D02*
D03*
X863600Y262890D02*
D03*
X759273Y95059D02*
D03*
X817840Y205740D02*
D03*
X910590Y379730D02*
D03*
X935566Y337819D02*
D03*
X861060Y256540D02*
D03*
X928370Y382270D02*
D03*
X737874Y111760D02*
D03*
X787213Y142049D02*
D03*
X793562Y119189D02*
D03*
X860872Y248729D02*
D03*
X823909Y209907D02*
D03*
X811454Y207832D02*
D03*
X461067Y172720D02*
D03*
X271767Y480049D02*
D03*
X354334Y256540D02*
D03*
X518164Y106320D02*
D03*
X351794Y474980D02*
D03*
X529594Y389890D02*
D03*
X515624Y396240D02*
D03*
X547374Y100330D02*
D03*
X516894Y347980D02*
D03*
X401962Y465825D02*
D03*
Y210466D02*
D03*
M02*
